<?xml version="1.0" encoding="utf-8"?>
<!-- Generator: Adobe Illustrator 24.1.3, SVG Export Plug-In . SVG Version: 6.00 Build 0)  -->
<svg version="1.1" id="Capa_1" xmlns="http://www.w3.org/2000/svg" xmlns:xlink="http://www.w3.org/1999/xlink" x="0px" y="0px"
	 viewBox="0 0 544.4 324.4" style="enable-background:new 0 0 544.4 324.4;" xml:space="preserve">
<style type="text/css">
	.st0{opacity:3.000000e-02;}
	.st1{opacity:0.4;}
	.st2{fill:url(#SVGID_1_);}
	.st3{fill:url(#SVGID_2_);}
	.st4{fill:url(#SVGID_3_);}
	.st5{fill:url(#SVGID_4_);}
	.st6{fill:url(#SVGID_5_);}
	.st7{fill:url(#SVGID_6_);}
	.st8{fill:url(#SVGID_7_);}
	.st9{fill:url(#SVGID_8_);}
	.st10{fill:url(#SVGID_9_);}
	.st11{fill:url(#SVGID_10_);}
	.st12{fill:url(#SVGID_11_);}
	.st13{fill:url(#SVGID_12_);}
	.st14{fill:url(#SVGID_13_);}
	.st15{fill:url(#SVGID_14_);}
	.st16{fill:url(#SVGID_15_);}
	.st17{fill:url(#SVGID_16_);}
	.st18{fill:url(#SVGID_17_);}
	.st19{fill:url(#SVGID_18_);}
	.st20{fill:url(#SVGID_19_);}
	.st21{fill:url(#SVGID_20_);}
	.st22{fill:url(#SVGID_21_);}
	.st23{fill:url(#SVGID_22_);}
	.st24{fill:url(#SVGID_23_);}
	.st25{fill:url(#SVGID_24_);}
	.st26{fill:url(#SVGID_25_);}
	.st27{fill:url(#SVGID_26_);}
	.st28{fill:url(#SVGID_27_);}
	.st29{fill:url(#SVGID_28_);}
	.st30{fill:url(#SVGID_29_);}
	.st31{fill:url(#SVGID_30_);}
	.st32{fill:url(#SVGID_31_);}
	.st33{fill:url(#SVGID_32_);}
	.st34{fill:url(#SVGID_33_);}
	.st35{fill:url(#SVGID_34_);}
	.st36{fill:url(#SVGID_35_);}
	.st37{fill:url(#SVGID_36_);}
	.st38{fill:url(#SVGID_37_);}
	.st39{fill:url(#SVGID_38_);}
	.st40{fill:url(#SVGID_39_);}
	.st41{fill:url(#SVGID_40_);}
	.st42{fill:url(#SVGID_41_);}
	.st43{fill:url(#SVGID_42_);}
	.st44{fill:url(#SVGID_43_);}
	.st45{fill:url(#SVGID_44_);}
	.st46{fill:url(#SVGID_45_);}
	.st47{fill:url(#SVGID_46_);}
	.st48{fill:url(#SVGID_47_);}
	.st49{fill:url(#SVGID_48_);}
	.st50{fill:url(#SVGID_49_);}
	.st51{fill:url(#SVGID_50_);}
	.st52{fill:url(#SVGID_51_);}
	.st53{fill:url(#SVGID_52_);}
	.st54{fill:url(#SVGID_53_);}
	.st55{fill:url(#SVGID_54_);}
	.st56{fill:url(#SVGID_55_);}
	.st57{fill:url(#SVGID_56_);}
	.st58{fill:url(#SVGID_57_);}
	.st59{fill:url(#SVGID_58_);}
	.st60{fill:url(#SVGID_59_);}
</style>
<g id="Capa_2_1_" class="st0">
	<g id="Capa_1-2">
		<g class="st1">
			<g id="Capa_2-2">
				<g id="Layer_1">
					
						<linearGradient id="SVGID_1_" gradientUnits="userSpaceOnUse" x1="-6238.5303" y1="-2086.1099" x2="-6238.5303" y2="-1211.5601" gradientTransform="matrix(0 -1 -1 0 -1265.99 -6171.73)">
						<stop  offset="0" style="stop-color:#FFFFFF"/>
						<stop  offset="0.15" style="stop-color:#D3D3D3"/>
						<stop  offset="0.46" style="stop-color:#7A7A7A"/>
						<stop  offset="0.72" style="stop-color:#383838"/>
						<stop  offset="0.9" style="stop-color:#0F0F0F"/>
						<stop  offset="1" style="stop-color:#000000"/>
					</linearGradient>
					<path class="st2" d="M252.4,0c-19.6,31.9-40.1,59.3-62.5,79.4c-43.4,38.8-95.7,45.2-139.1,39.5c-17.1-2.2-34.1-5.5-50.8-9.8
						v11.8c14.7,3.5,30.5,6.5,47.5,9.2c21.6,3.3,44.6,5.2,68.2,1.4c24.6-4,50.3-15,73.9-33.9c26.5-21.2,50.8-52,74-88.5
						c1.9-3,3.8-6,5.7-9.1L252.4,0z"/>
					
						<linearGradient id="SVGID_2_" gradientUnits="userSpaceOnUse" x1="-6275.168" y1="-1836.79" x2="-6275.168" y2="-1334.54" gradientTransform="matrix(0 -1 -1 0 -1265.99 -6171.73)">
						<stop  offset="0" style="stop-color:#FFFFFF"/>
						<stop  offset="0.15" style="stop-color:#D3D3D3"/>
						<stop  offset="0.46" style="stop-color:#7A7A7A"/>
						<stop  offset="0.72" style="stop-color:#383838"/>
						<stop  offset="0.9" style="stop-color:#0F0F0F"/>
						<stop  offset="1" style="stop-color:#000000"/>
					</linearGradient>
					<path class="st3" d="M381.3,0c-39.5,45.5-73.5,91.1-110.6,127.2c-34.9,33.9-71.5,57.6-106.9,66.8c-32.1,8.3-63.9,5.2-93-1
						c-0.7,2.1-1.5,4.2-2.2,6.2c29.1,6.9,60.9,11.1,93.1,4c35.6-7.8,72.7-30,108.3-62.4c39.9-36.3,76.5-83.6,119.4-130.5
						c3.1-3.4,6.3-6.9,9.6-10.3L381.3,0L381.3,0z"/>
					
						<linearGradient id="SVGID_3_" gradientUnits="userSpaceOnUse" x1="-6267.0874" y1="-15058.1299" x2="-6267.0874" y2="-1219.1602" gradientTransform="matrix(0 -1 -1 0 -1265.99 -6171.73)">
						<stop  offset="0" style="stop-color:#FFFFFF"/>
						<stop  offset="0.15" style="stop-color:#D3D3D3"/>
						<stop  offset="0.46" style="stop-color:#7A7A7A"/>
						<stop  offset="0.72" style="stop-color:#383838"/>
						<stop  offset="0.9" style="stop-color:#0F0F0F"/>
						<stop  offset="1" style="stop-color:#000000"/>
					</linearGradient>
					<path class="st4" d="M331.9,0c-32.2,44.7-61.9,86.7-95.7,118.2c-34.5,32.1-72.3,50.7-107.5,54.8c-32.9,3.8-64.4-2.9-93.7-9.4
						c-12.1-2.7-23.8-5.2-35-7.6v13.3c9.7,2.1,19.7,4.4,30,6.9c29.6,7.2,60.9,15.6,94.2,14.4c35.3-1.3,74.1-16.2,110.2-45.1
						c41.3-33.2,78-81.6,118.6-133c3.3-4.1,6.6-8.3,10-12.5H331.9z"/>
					
						<linearGradient id="SVGID_4_" gradientUnits="userSpaceOnUse" x1="-6383.8799" y1="-2133.1699" x2="-6383.8799" y2="-1504.28" gradientTransform="matrix(0 -1 -1 0 -1265.99 -6171.73)">
						<stop  offset="0" style="stop-color:#FFFFFF"/>
						<stop  offset="0.15" style="stop-color:#D3D3D3"/>
						<stop  offset="0.46" style="stop-color:#7A7A7A"/>
						<stop  offset="0.72" style="stop-color:#383838"/>
						<stop  offset="0.9" style="stop-color:#0F0F0F"/>
						<stop  offset="1" style="stop-color:#000000"/>
					</linearGradient>
					<path class="st5" d="M544.3,128.8c-29.2,10.2-57.6,22.8-84.8,37.6c-43,23.2-81.8,49.2-119.5,71.8
						c-34.7,20.8-67.9,38.5-100,49.4c-0.6,2.7-1.1,5.3-1.7,7.9c32.4-10.2,66-27,101.1-47.1c38.3-21.9,77.7-47.2,121.4-69.6
						c26.9-13.9,54.8-25.7,83.5-35.1V128.8z"/>
					
						<linearGradient id="SVGID_5_" gradientUnits="userSpaceOnUse" x1="-6299.1299" y1="-2923.52" x2="-6299.1299" y2="-1564.4299" gradientTransform="matrix(0 -1 -1 0 -1265.99 -6171.73)">
						<stop  offset="0" style="stop-color:#FFFFFF"/>
						<stop  offset="0.15" style="stop-color:#D3D3D3"/>
						<stop  offset="0.46" style="stop-color:#7A7A7A"/>
						<stop  offset="0.72" style="stop-color:#383838"/>
						<stop  offset="0.9" style="stop-color:#0F0F0F"/>
						<stop  offset="1" style="stop-color:#000000"/>
					</linearGradient>
					<path class="st6" d="M544.3,35.5c-11,4.9-21.7,10.1-31.9,15.6c-29.7,15.9-56.6,34.2-81.6,53.1
						c-47.5,35.8-89.2,73.4-131.1,102.7c-0.4,4.1-0.8,8.3-1.2,12.4c42.7-28.1,85.4-64.7,134.1-99.7c25.7-18.4,53.2-36.3,83.6-51.6
						c9.1-4.6,18.4-8.9,28.1-13.1L544.3,35.5L544.3,35.5z"/>
					
						<linearGradient id="SVGID_6_" gradientUnits="userSpaceOnUse" x1="-6236.1069" y1="-2390.9302" x2="-6236.1069" y2="-1308.87" gradientTransform="matrix(0 -1 -1 0 -1265.99 -6171.73)">
						<stop  offset="0" style="stop-color:#FFFFFF"/>
						<stop  offset="0.15" style="stop-color:#D3D3D3"/>
						<stop  offset="0.46" style="stop-color:#7A7A7A"/>
						<stop  offset="0.72" style="stop-color:#383838"/>
						<stop  offset="0.9" style="stop-color:#0F0F0F"/>
						<stop  offset="1" style="stop-color:#000000"/>
					</linearGradient>
					<path class="st7" d="M249,0c-28.1,45-58.4,81.1-92.6,100.2C119.3,120.9,79.7,121,45.7,116c-0.9,3-1.8,6-2.8,9
						c34.4,5.6,74.4,7.2,112.4-11.6C194.7,94,230.1,52.4,262.8,0H249z"/>
					
						<linearGradient id="SVGID_7_" gradientUnits="userSpaceOnUse" x1="-6350.3643" y1="-4130.46" x2="-6350.3643" y2="-1356.3901" gradientTransform="matrix(0 -1 -1 0 -1265.99 -6171.73)">
						<stop  offset="0" style="stop-color:#FFFFFF"/>
						<stop  offset="0.15" style="stop-color:#D3D3D3"/>
						<stop  offset="0.46" style="stop-color:#7A7A7A"/>
						<stop  offset="0.72" style="stop-color:#383838"/>
						<stop  offset="0.9" style="stop-color:#0F0F0F"/>
						<stop  offset="1" style="stop-color:#000000"/>
					</linearGradient>
					<path class="st8" d="M544.3,67.8c-7.4,3.1-14.6,6.2-21.7,9.5c-53.4,25.2-98.6,58.2-140.9,89.6c-39.4,29.3-76.3,56.8-113.3,76.7
						c-33,17.7-65.6,28.9-96,31.4c-27.7,2.3-54.4-2.6-78.6-10.5c-1.2,3.5-2.3,7-3.5,10.5c24,8.9,50.4,15.2,78.3,14.4
						c30.3-0.8,63.4-10,97-25.9c37.8-17.9,75.9-43.5,116.6-70.9c43.9-29.6,90.6-60.7,145.3-83.6c5.5-2.3,11.1-4.5,16.8-6.6V67.8z"/>
					
						<linearGradient id="SVGID_8_" gradientUnits="userSpaceOnUse" x1="-6256.9082" y1="-4799.1104" x2="-6256.9082" y2="-1197.53" gradientTransform="matrix(0 -1 -1 0 -1265.99 -6171.73)">
						<stop  offset="0" style="stop-color:#FFFFFF"/>
						<stop  offset="0.15" style="stop-color:#D3D3D3"/>
						<stop  offset="0.46" style="stop-color:#7A7A7A"/>
						<stop  offset="0.72" style="stop-color:#383838"/>
						<stop  offset="0.9" style="stop-color:#0F0F0F"/>
						<stop  offset="1" style="stop-color:#000000"/>
					</linearGradient>
					<path class="st9" d="M300.3,0c-10.5,16.1-20.8,31.7-31.5,46.3c-30.5,41.7-63.4,74.6-98.3,92c-31.1,15.6-63.9,18.3-93.5,15.4
						c-27.6-2.7-53.2-8.8-77-14.1V153c22.7,4.9,46.8,11,72.7,14.8c29.8,4.4,62.8,4.1,94.8-8.8c35.8-14.5,70.7-44.6,103.3-84.4
						c18.7-22.8,36.3-48.2,54.9-74.6H300.3z"/>
					
						<linearGradient id="SVGID_9_" gradientUnits="userSpaceOnUse" x1="-6477.7798" y1="-2142.0801" x2="-6477.7798" y2="-1416.23" gradientTransform="matrix(0 -1 -1 0 -1265.99 -6171.73)">
						<stop  offset="0" style="stop-color:#FFFFFF"/>
						<stop  offset="0.15" style="stop-color:#D3D3D3"/>
						<stop  offset="0.46" style="stop-color:#7A7A7A"/>
						<stop  offset="0.72" style="stop-color:#383838"/>
						<stop  offset="0.9" style="stop-color:#0F0F0F"/>
						<stop  offset="1" style="stop-color:#000000"/>
					</linearGradient>
					<path class="st10" d="M436.4,324.3c17.7-4.8,35.9-9.2,54.6-12.9c17.6-3.4,35.4-5.9,53.2-7.6v-16c-18.4,2.2-36.8,5.3-54.9,9.3
						c-30.6,6.8-59.6,15.8-87.4,24.9l-6.8,2.2L436.4,324.3z"/>
					
						<linearGradient id="SVGID_10_" gradientUnits="userSpaceOnUse" x1="-6233.48" y1="-1603.89" x2="-6233.48" y2="-1388" gradientTransform="matrix(0 -1 -1 0 -1265.99 -6171.73)">
						<stop  offset="0" style="stop-color:#FFFFFF"/>
						<stop  offset="0.15" style="stop-color:#D3D3D3"/>
						<stop  offset="0.46" style="stop-color:#7A7A7A"/>
						<stop  offset="0.72" style="stop-color:#383838"/>
						<stop  offset="0.9" style="stop-color:#0F0F0F"/>
						<stop  offset="1" style="stop-color:#000000"/>
					</linearGradient>
					<path class="st11" d="M254.1,0c-7.6,12.6-15.3,24.7-23.6,36c-32.5,44.4-70.8,73-107.6,82.2c-0.3,1.8-0.5,3.5-0.8,5.3
						c37.1-8.4,76-36.1,109.1-79.8C241.7,29.6,251.4,15,260.4,0C260.4,0,254.1,0,254.1,0z"/>
					
						<linearGradient id="SVGID_11_" gradientUnits="userSpaceOnUse" x1="-6460.1802" y1="-3013.98" x2="-6460.1802" y2="-1382.13" gradientTransform="matrix(0 -1 -1 0 -1265.99 -6171.73)">
						<stop  offset="0" style="stop-color:#FFFFFF"/>
						<stop  offset="0.15" style="stop-color:#D3D3D3"/>
						<stop  offset="0.46" style="stop-color:#7A7A7A"/>
						<stop  offset="0.72" style="stop-color:#383838"/>
						<stop  offset="0.9" style="stop-color:#0F0F0F"/>
						<stop  offset="1" style="stop-color:#000000"/>
					</linearGradient>
					<path class="st12" d="M385.1,324.3c25.4-8.7,51.7-17.5,79.3-25c26.2-7.2,52.9-12.6,79.9-16v-30.7
						c-27.7,4.9-55.1,11.8-81.8,20.6c-48.3,15.7-92.6,35.2-134.9,51L385.1,324.3z"/>
					
						<linearGradient id="SVGID_12_" gradientUnits="userSpaceOnUse" x1="-6251.1802" y1="-1970.3" x2="-6251.1802" y2="-1493.77" gradientTransform="matrix(0 -1 -1 0 -1265.99 -6171.73)">
						<stop  offset="0" style="stop-color:#FFFFFF"/>
						<stop  offset="0.15" style="stop-color:#D3D3D3"/>
						<stop  offset="0.46" style="stop-color:#7A7A7A"/>
						<stop  offset="0.72" style="stop-color:#383838"/>
						<stop  offset="0.9" style="stop-color:#0F0F0F"/>
						<stop  offset="1" style="stop-color:#000000"/>
					</linearGradient>
					<path class="st13" d="M364,0c-20.7,25.6-39.9,51-59.5,74.5c-24.9,29.9-49.9,56.2-75.9,76c-0.2,2.8-0.5,5.6-0.8,8.4
						c26.4-19,51.8-44.6,77.2-74c23-26.6,45.4-55.7,70.1-84.8L364,0z"/>
					
						<linearGradient id="SVGID_13_" gradientUnits="userSpaceOnUse" x1="-6245.73" y1="-1863.8799" x2="-6245.73" y2="-1440.63" gradientTransform="matrix(0 -1 -1 0 -1265.99 -6171.73)">
						<stop  offset="0" style="stop-color:#FFFFFF"/>
						<stop  offset="0.15" style="stop-color:#D3D3D3"/>
						<stop  offset="0.46" style="stop-color:#7A7A7A"/>
						<stop  offset="0.72" style="stop-color:#383838"/>
						<stop  offset="0.9" style="stop-color:#0F0F0F"/>
						<stop  offset="1" style="stop-color:#000000"/>
					</linearGradient>
					<path class="st14" d="M306.3,0c-18.4,27.7-36.4,53.8-55.7,76.6c-23.9,28.1-49.1,50.1-74.9,63.6c-0.3,2.6-0.7,5.2-1,7.8
						c26.1-12.7,51.8-33.9,76.1-61.3c22.4-25.2,43.2-55,64.8-86.7H306.3z"/>
					
						<linearGradient id="SVGID_14_" gradientUnits="userSpaceOnUse" x1="-6270.2798" y1="-2365.9102" x2="-6270.2798" y2="-1472.38" gradientTransform="matrix(0 -1 -1 0 -1265.99 -6171.73)">
						<stop  offset="0" style="stop-color:#FFFFFF"/>
						<stop  offset="0.15" style="stop-color:#D3D3D3"/>
						<stop  offset="0.46" style="stop-color:#7A7A7A"/>
						<stop  offset="0.72" style="stop-color:#383838"/>
						<stop  offset="0.9" style="stop-color:#0F0F0F"/>
						<stop  offset="1" style="stop-color:#000000"/>
					</linearGradient>
					<path class="st15" d="M401.4,0c-32.2,33.7-60.3,68.4-89,99.6c-34.5,37.5-69,68.6-104.5,87.3c-0.5,3.4-1.1,6.8-1.6,10.2
						c35.9-17.4,71-47.2,106.3-83.7C346.8,78.2,380,38,419.6,0H401.4z"/>
					
						<linearGradient id="SVGID_15_" gradientUnits="userSpaceOnUse" x1="-6847.5356" y1="-5449.75" x2="-6847.5356" y2="-4785.7998" gradientTransform="matrix(0 -0.84 -0.55 0 -2181.8601 -5664.4795)">
						<stop  offset="0" style="stop-color:#FFFFFF"/>
						<stop  offset="0.15" style="stop-color:#D3D3D3"/>
						<stop  offset="0.46" style="stop-color:#7A7A7A"/>
						<stop  offset="0.72" style="stop-color:#383838"/>
						<stop  offset="0.9" style="stop-color:#0F0F0F"/>
						<stop  offset="1" style="stop-color:#000000"/>
					</linearGradient>
					<path class="st16" d="M544.3,53.7c-38.2,16.4-72.1,36.7-102.8,58.1c0.3,3.2,0.6,6.3,0.9,9.4c30.6-20.7,64.2-40.4,102-56.1
						L544.3,53.7z"/>
					
						<linearGradient id="SVGID_16_" gradientUnits="userSpaceOnUse" x1="-6827.1187" y1="-5085.9297" x2="-6827.1187" y2="-4245.27" gradientTransform="matrix(0 -0.84 -0.55 0 -2181.8601 -5664.4795)">
						<stop  offset="0" style="stop-color:#FFFFFF"/>
						<stop  offset="0.15" style="stop-color:#D3D3D3"/>
						<stop  offset="0.46" style="stop-color:#7A7A7A"/>
						<stop  offset="0.72" style="stop-color:#383838"/>
						<stop  offset="0.9" style="stop-color:#0F0F0F"/>
						<stop  offset="1" style="stop-color:#000000"/>
					</linearGradient>
					<path class="st17" d="M276.3,0c-16.1,25.8-32.3,49.5-50,69.8c-24.8,28.3-51.8,48.4-78.6,58.7c-0.6,4.1-1.1,8.1-1.8,12.1
						c27.2-8.9,54.9-27.6,80.6-54.5c22.8-24,43.4-53.7,64.3-86.1C290.8,0,276.3,0,276.3,0z"/>
					
						<linearGradient id="SVGID_17_" gradientUnits="userSpaceOnUse" x1="-6906.2261" y1="-6367.6001" x2="-6906.2261" y2="-4334.8999" gradientTransform="matrix(0 -0.84 -0.55 0 -2181.8601 -5664.4795)">
						<stop  offset="0" style="stop-color:#FFFFFF"/>
						<stop  offset="0.15" style="stop-color:#D3D3D3"/>
						<stop  offset="0.46" style="stop-color:#7A7A7A"/>
						<stop  offset="0.72" style="stop-color:#383838"/>
						<stop  offset="0.9" style="stop-color:#0F0F0F"/>
						<stop  offset="1" style="stop-color:#000000"/>
					</linearGradient>
					<path class="st18" d="M544.3,11.1c-23.6,10.9-46.4,23.6-68,38c-58.4,38.8-105.6,85.4-153,124c-42.6,34.7-84.4,61.8-124.8,73.6
						c-1.2,5.3-2.4,10.5-3.6,15.7c40.8-9.4,83.8-34.2,127.9-66.9c49.4-36.6,98.9-81.7,159.4-118.5c20-12.2,40.8-23,62.2-32.3
						L544.3,11.1z"/>
					
						<linearGradient id="SVGID_18_" gradientUnits="userSpaceOnUse" x1="-7034.6187" y1="-5181.3198" x2="-7034.6187" y2="-4442.6899" gradientTransform="matrix(0 -0.84 -0.55 0 -2181.8601 -5664.4795)">
						<stop  offset="0" style="stop-color:#FFFFFF"/>
						<stop  offset="0.15" style="stop-color:#D3D3D3"/>
						<stop  offset="0.46" style="stop-color:#7A7A7A"/>
						<stop  offset="0.72" style="stop-color:#383838"/>
						<stop  offset="0.9" style="stop-color:#0F0F0F"/>
						<stop  offset="1" style="stop-color:#000000"/>
					</linearGradient>
					<path class="st19" d="M544.3,174.5c-7.4,2.1-14.7,4.3-21.8,6.7c-37.1,12.4-71.1,28.5-103.2,45.1
						c-59.3,30.6-112.3,62-163.6,79.2c-0.6,3.1-1.3,6.1-1.9,9.2c24.8-7.6,50.5-18.5,77.1-31.2c28.5-13.6,57.7-29.1,88.7-44.1
						c32.7-15.9,67.3-31.2,104.9-42.8c6.5-2,13.1-3.9,19.8-5.6V174.5z"/>
					
						<linearGradient id="SVGID_19_" gradientUnits="userSpaceOnUse" x1="-6808.5146" y1="-4523.8799" x2="-6808.5146" y2="-4112.5898" gradientTransform="matrix(0 -0.84 -0.55 0 -2181.8601 -5664.4795)">
						<stop  offset="0" style="stop-color:#FFFFFF"/>
						<stop  offset="0.15" style="stop-color:#D3D3D3"/>
						<stop  offset="0.46" style="stop-color:#7A7A7A"/>
						<stop  offset="0.72" style="stop-color:#383838"/>
						<stop  offset="0.9" style="stop-color:#0F0F0F"/>
						<stop  offset="1" style="stop-color:#000000"/>
					</linearGradient>
					<path class="st20" d="M225.9,0c-11.4,18.6-23.4,35.5-36.9,49.8c-35.1,37.2-77.6,51.6-114,51.5c-0.5,2.7-1.1,5.4-1.7,8
						c36.9,0.9,80-11.7,116.2-47.5c17.2-17.1,32.2-38.2,46.6-61.8C236.1,0,225.9,0,225.9,0z"/>
					
						<linearGradient id="SVGID_20_" gradientUnits="userSpaceOnUse" x1="-6874.7378" y1="-6857.3799" x2="-6874.7378" y2="-4436.5801" gradientTransform="matrix(0 -0.84 -0.55 0 -2181.8601 -5664.4795)">
						<stop  offset="0" style="stop-color:#FFFFFF"/>
						<stop  offset="0.15" style="stop-color:#D3D3D3"/>
						<stop  offset="0.46" style="stop-color:#7A7A7A"/>
						<stop  offset="0.72" style="stop-color:#383838"/>
						<stop  offset="0.9" style="stop-color:#0F0F0F"/>
						<stop  offset="1" style="stop-color:#000000"/>
					</linearGradient>
					<path class="st21" d="M544.3,0h-49.8c-45.4,29.2-83.3,63.9-118.3,97.1C333.4,137.9,294,176,253,202.2
						c-0.8,6.2-1.6,12.3-2.5,18.4c42-24,83-60.3,127.5-99.6c47.4-41.8,99.6-86.2,166.4-117.3V0H544.3z"/>
					
						<linearGradient id="SVGID_21_" gradientUnits="userSpaceOnUse" x1="-6887.3022" y1="-3863.4917" x2="-6887.3022" y2="-3105.1719" gradientTransform="matrix(0 -0.84 -0.67 0 -1946.11 -5664.4795)">
						<stop  offset="0" style="stop-color:#FFFFFF"/>
						<stop  offset="0.15" style="stop-color:#D3D3D3"/>
						<stop  offset="0.46" style="stop-color:#7A7A7A"/>
						<stop  offset="0.72" style="stop-color:#383838"/>
						<stop  offset="0.9" style="stop-color:#0F0F0F"/>
						<stop  offset="1" style="stop-color:#000000"/>
					</linearGradient>
					<path class="st22" d="M473.3,0c-5.4,3.9-10.7,7.9-15.9,11.9C411.9,47.4,374.2,87.5,337,123.4c-34.7,33.5-68.3,62.7-102.8,82.3
						c-30.6,17.4-61.8,26.6-90.5,27.4c-0.8,2.9-1.6,5.8-2.4,8.6c28.7,0.3,60.1-7.6,91.1-23.8c34.9-18.2,69.4-46.2,104.9-78.6
						c38.3-34.9,77-74,123.5-108.6C475.5,19.8,490.9,9.5,506.9,0H473.3z"/>
					
						<linearGradient id="SVGID_22_" gradientUnits="userSpaceOnUse" x1="-6849.7139" y1="-4474.29" x2="-6849.7139" y2="-4029.7" gradientTransform="matrix(0 -0.84 -0.55 0 -2181.8601 -5664.4795)">
						<stop  offset="0" style="stop-color:#FFFFFF"/>
						<stop  offset="0.15" style="stop-color:#D3D3D3"/>
						<stop  offset="0.46" style="stop-color:#7A7A7A"/>
						<stop  offset="0.72" style="stop-color:#383838"/>
						<stop  offset="0.9" style="stop-color:#0F0F0F"/>
						<stop  offset="1" style="stop-color:#000000"/>
					</linearGradient>
					<path class="st23" d="M271.1,39.8c-0.5-4.8-1-9.5-1.6-14.3c-38.1,56.3-81,97.6-125.2,112.1c-39.6,13-79.1,7-113.8,0.1
						c-0.8,2.2-1.6,4.3-2.5,6.4c35.1,7.2,74.6,14.4,114.7,3C187.3,134.5,231.7,95,271.1,39.8z"/>
					
						<linearGradient id="SVGID_23_" gradientUnits="userSpaceOnUse" x1="-6996.2261" y1="-8721.1299" x2="-6996.2261" y2="-4456.1602" gradientTransform="matrix(0 -0.84 -0.55 0 -2181.8601 -5664.4795)">
						<stop  offset="0" style="stop-color:#FFFFFF"/>
						<stop  offset="0.15" style="stop-color:#D3D3D3"/>
						<stop  offset="0.46" style="stop-color:#7A7A7A"/>
						<stop  offset="0.72" style="stop-color:#383838"/>
						<stop  offset="0.9" style="stop-color:#0F0F0F"/>
						<stop  offset="1" style="stop-color:#000000"/>
					</linearGradient>
					<path class="st24" d="M544.3,125.5c-27.4,9.7-54,21.5-79.6,35.3c-38.6,20.6-73.6,43.7-107.5,64.8c-31.7,19.7-62,37.5-91.6,50.4
						c-1.4,7.8-2.8,15.6-4.3,23.2c30.4-11.1,61.7-27,94.6-44.9c35.4-19.3,72.1-40.6,112.3-59.2c24.7-11.5,50.1-21.2,76.2-29
						L544.3,125.5z"/>
					
						<linearGradient id="SVGID_24_" gradientUnits="userSpaceOnUse" x1="-6940.0356" y1="-5394.0098" x2="-6940.0356" y2="-4768.3701" gradientTransform="matrix(0 -0.84 -0.55 0 -2181.8601 -5664.4795)">
						<stop  offset="0" style="stop-color:#FFFFFF"/>
						<stop  offset="0.15" style="stop-color:#D3D3D3"/>
						<stop  offset="0.46" style="stop-color:#7A7A7A"/>
						<stop  offset="0.72" style="stop-color:#383838"/>
						<stop  offset="0.9" style="stop-color:#0F0F0F"/>
						<stop  offset="1" style="stop-color:#000000"/>
					</linearGradient>
					<path class="st25" d="M544.3,134.6c-41.2,14-78.2,32.7-112.4,52.3l0.3,8.8c34.1-18.9,71.1-37,112-50.3L544.3,134.6z"/>
					
						<linearGradient id="SVGID_25_" gradientUnits="userSpaceOnUse" x1="-7071.4644" y1="-5186.3701" x2="-7071.4644" y2="-4222.3101" gradientTransform="matrix(0 -0.84 -0.55 0 -2181.8601 -5664.4795)">
						<stop  offset="0" style="stop-color:#FFFFFF"/>
						<stop  offset="0.15" style="stop-color:#D3D3D3"/>
						<stop  offset="0.46" style="stop-color:#7A7A7A"/>
						<stop  offset="0.72" style="stop-color:#383838"/>
						<stop  offset="0.9" style="stop-color:#0F0F0F"/>
						<stop  offset="1" style="stop-color:#000000"/>
					</linearGradient>
					<path class="st26" d="M322.8,324.3c3.2-1.2,6.4-2.4,9.7-3.6c44.1-16.8,90.2-37.4,141-53.3c23.2-7.3,46.9-13.2,70.8-17.4v-23.2
						c-24.6,5.3-48.9,12.2-72.6,20.7c-49.6,17.6-94.7,39.6-138,57.7c-17,7.1-33.6,13.6-49.8,19.1L322.8,324.3z"/>
					
						<linearGradient id="SVGID_26_" gradientUnits="userSpaceOnUse" x1="-7094.5596" y1="-5430.5601" x2="-7094.5596" y2="-4599.5298" gradientTransform="matrix(0 -0.84 -0.55 0 -2181.8601 -5664.4795)">
						<stop  offset="0" style="stop-color:#FFFFFF"/>
						<stop  offset="0.15" style="stop-color:#D3D3D3"/>
						<stop  offset="0.46" style="stop-color:#7A7A7A"/>
						<stop  offset="0.72" style="stop-color:#383838"/>
						<stop  offset="0.9" style="stop-color:#0F0F0F"/>
						<stop  offset="1" style="stop-color:#000000"/>
					</linearGradient>
					<path class="st27" d="M375.8,324.3c15.6-5.5,31.7-11.1,48.2-16.5c31.1-10.1,63.8-19.5,98.8-25.6c7.1-1.2,14.3-2.3,21.5-3.2
						v-13.4c-7.8,1.2-15.5,2.5-23,4c-63.3,12.5-119.1,35.5-171.2,54.7H375.8z"/>
					
						<linearGradient id="SVGID_27_" gradientUnits="userSpaceOnUse" x1="-6854.0234" y1="-4958.1597" x2="-6854.0234" y2="-4480.9399" gradientTransform="matrix(0 -0.84 -0.55 0 -2181.8601 -5664.4795)">
						<stop  offset="0" style="stop-color:#FFFFFF"/>
						<stop  offset="0.15" style="stop-color:#D3D3D3"/>
						<stop  offset="0.46" style="stop-color:#7A7A7A"/>
						<stop  offset="0.72" style="stop-color:#383838"/>
						<stop  offset="0.9" style="stop-color:#0F0F0F"/>
						<stop  offset="1" style="stop-color:#000000"/>
					</linearGradient>
					<path class="st28" d="M471.2,0c-31.5,23.1-59.1,48.5-84.7,73.4c-38.9,37.9-74.2,74.7-111,103.4c-0.2,3-0.5,6-0.8,9
						c37.4-27.8,73.3-64,112.8-101.3c30.8-29,64.4-58.7,103.7-84.4L471.2,0z"/>
					
						<linearGradient id="SVGID_28_" gradientUnits="userSpaceOnUse" x1="-6833.0645" y1="-5137.0498" x2="-6833.0645" y2="-4088.3799" gradientTransform="matrix(0 -0.84 -0.55 0 -2181.8601 -5664.4795)">
						<stop  offset="0" style="stop-color:#FFFFFF"/>
						<stop  offset="0.15" style="stop-color:#D3D3D3"/>
						<stop  offset="0.46" style="stop-color:#7A7A7A"/>
						<stop  offset="0.72" style="stop-color:#383838"/>
						<stop  offset="0.9" style="stop-color:#0F0F0F"/>
						<stop  offset="1" style="stop-color:#000000"/>
					</linearGradient>
					<path class="st29" d="M275.4,0c-4.2,6.7-8.4,13.3-12.6,19.8c-31.3,47.4-65.7,84.1-102.2,102.2c-32.7,16.2-66.8,17.7-96.9,14.3
						c-1.2,3.9-2.4,7.7-3.6,11.5c30.5,4.4,64.7,5,98.2-8.8c37.3-15.4,73.4-49.4,106.5-94.9c10.1-14,19.9-28.7,29.6-44L275.4,0
						L275.4,0z"/>
					
						<linearGradient id="SVGID_29_" gradientUnits="userSpaceOnUse" x1="-6869.3213" y1="-4864.0498" x2="-6869.3213" y2="-4363.1001" gradientTransform="matrix(0 -0.84 -0.55 0 -2181.8601 -5664.4795)">
						<stop  offset="0" style="stop-color:#FFFFFF"/>
						<stop  offset="0.15" style="stop-color:#D3D3D3"/>
						<stop  offset="0.46" style="stop-color:#7A7A7A"/>
						<stop  offset="0.72" style="stop-color:#383838"/>
						<stop  offset="0.9" style="stop-color:#0F0F0F"/>
						<stop  offset="1" style="stop-color:#000000"/>
					</linearGradient>
					<path class="st30" d="M437.1,0c-38.9,34.2-71.8,71.4-104.3,105.1c-40.6,42.1-80.2,77.7-121,97.7c-0.5,2.9-1,5.8-1.5,8.7
						c41.2-18.7,81.5-53,122.9-94.2c37.9-37.7,76.2-80,123.2-117.3L437.1,0z"/>
					
						<linearGradient id="SVGID_30_" gradientUnits="userSpaceOnUse" x1="-12520.1719" y1="-5554.4775" x2="-12520.1719" y2="-4195.1372" gradientTransform="matrix(0 -0.35 -0.56 0 -2162.4001 -4102.6099)">
						<stop  offset="0" style="stop-color:#FFFFFF"/>
						<stop  offset="0.15" style="stop-color:#D3D3D3"/>
						<stop  offset="0.46" style="stop-color:#7A7A7A"/>
						<stop  offset="0.72" style="stop-color:#383838"/>
						<stop  offset="0.9" style="stop-color:#0F0F0F"/>
						<stop  offset="1" style="stop-color:#000000"/>
					</linearGradient>
					<path class="st31" d="M314,324.3c37.8-13.9,77.3-31.5,120-47.6c28.3-10.6,58-20.5,89.6-27.6c6.8-1.5,13.8-2.9,20.8-4.2v-10.4
						c-7.6,1.5-15,3.1-22.4,4.9c-31.2,7.7-60.6,18-88.5,29c-49.1,19.4-93.9,40.7-136.7,56L314,324.3z"/>
					
						<linearGradient id="SVGID_31_" gradientUnits="userSpaceOnUse" x1="-12004.7432" y1="-4416.8774" x2="-12004.7432" y2="-4142.4272" gradientTransform="matrix(0 -0.35 -0.56 0 -2162.4001 -4102.6099)">
						<stop  offset="0" style="stop-color:#FFFFFF"/>
						<stop  offset="0.15" style="stop-color:#D3D3D3"/>
						<stop  offset="0.46" style="stop-color:#7A7A7A"/>
						<stop  offset="0.72" style="stop-color:#383838"/>
						<stop  offset="0.9" style="stop-color:#0F0F0F"/>
						<stop  offset="1" style="stop-color:#000000"/>
					</linearGradient>
					<path class="st32" d="M298.9,36.6c-0.1-1.2-0.3-2.3-0.4-3.5c-24.6,34.4-49.4,65-76.2,88c-24.4,21-50.3,35.1-75.4,41.7
						c-0.1,0.7-0.3,1.4-0.4,2.2c25.1-6.3,51.1-20.2,75.6-40.9C249.1,101.2,274.1,70.8,298.9,36.6z"/>
					
						<linearGradient id="SVGID_32_" gradientUnits="userSpaceOnUse" x1="-11869.7432" y1="-4978.1172" x2="-11869.7432" y2="-4519.2275" gradientTransform="matrix(0 -0.35 -0.56 0 -2162.4001 -4102.6099)">
						<stop  offset="0" style="stop-color:#FFFFFF"/>
						<stop  offset="0.15" style="stop-color:#D3D3D3"/>
						<stop  offset="0.46" style="stop-color:#7A7A7A"/>
						<stop  offset="0.72" style="stop-color:#383838"/>
						<stop  offset="0.9" style="stop-color:#0F0F0F"/>
						<stop  offset="1" style="stop-color:#000000"/>
					</linearGradient>
					<path class="st33" d="M464.9,0c-2.3,1.7-4.6,3.5-6.8,5.3c-38.4,30-71,63.3-102.4,94.8c0.1,1.2,0.1,2.3,0.2,3.5
						c31.6-31.3,64.4-64.5,102.9-94.3c4-3.1,8.1-6.2,12.3-9.2L464.9,0z"/>
					
						<linearGradient id="SVGID_33_" gradientUnits="userSpaceOnUse" x1="-11910.3496" y1="-4444.8774" x2="-11910.3496" y2="-3888.137" gradientTransform="matrix(0 -0.35 -0.56 0 -2162.4001 -4102.6099)">
						<stop  offset="0" style="stop-color:#FFFFFF"/>
						<stop  offset="0.15" style="stop-color:#D3D3D3"/>
						<stop  offset="0.46" style="stop-color:#7A7A7A"/>
						<stop  offset="0.72" style="stop-color:#383838"/>
						<stop  offset="0.9" style="stop-color:#0F0F0F"/>
						<stop  offset="1" style="stop-color:#000000"/>
					</linearGradient>
					<path class="st34" d="M261.1,0c-8.1,13.4-16.5,26.3-25.4,38.3c-25,34.2-52.8,60.1-81.7,74.3c-26.5,13-54.2,16.2-79.5,14.9
						c-24.5-1.3-47.1-5.9-67.8-10.8c-0.5,1.2-0.9,2.5-1.4,3.7c20.8,4.9,43.6,9.6,68.2,11.2c25.4,1.6,53.2-1,80-13.4
						c29.1-13.5,57.4-38.8,82.9-72.5c10.7-14.2,20.8-29.6,30.7-45.7C267.1,0,261.1,0,261.1,0z"/>
					
						<linearGradient id="SVGID_34_" gradientUnits="userSpaceOnUse" x1="-12481.1719" y1="-5226.2373" x2="-12481.1719" y2="-4073.7468" gradientTransform="matrix(0 -0.35 -0.56 0 -2162.4001 -4102.6099)">
						<stop  offset="0" style="stop-color:#FFFFFF"/>
						<stop  offset="0.15" style="stop-color:#D3D3D3"/>
						<stop  offset="0.46" style="stop-color:#7A7A7A"/>
						<stop  offset="0.72" style="stop-color:#383838"/>
						<stop  offset="0.9" style="stop-color:#0F0F0F"/>
						<stop  offset="1" style="stop-color:#000000"/>
					</linearGradient>
					<path class="st35" d="M270.2,324.3c21.8-7.1,43.2-15.3,64.2-24.6c52-22.6,106.6-50.8,168.6-70c13.3-4.1,27.1-7.8,41.3-10.9
						v-11.5c-14.7,3.5-28.9,7.6-42.6,12.1C440.3,239.7,386.5,268.7,335,292c-29.5,13.4-58.1,24.7-85.3,32.2L270.2,324.3L270.2,324.3
						z"/>
					
						<linearGradient id="SVGID_35_" gradientUnits="userSpaceOnUse" x1="-12642.7432" y1="-5226.2373" x2="-12642.7432" y2="-4073.7468" gradientTransform="matrix(0 -0.35 -0.56 0 -2162.4001 -4102.6099)">
						<stop  offset="0" style="stop-color:#FFFFFF"/>
						<stop  offset="0.15" style="stop-color:#D3D3D3"/>
						<stop  offset="0.46" style="stop-color:#7A7A7A"/>
						<stop  offset="0.72" style="stop-color:#383838"/>
						<stop  offset="0.9" style="stop-color:#0F0F0F"/>
						<stop  offset="1" style="stop-color:#000000"/>
					</linearGradient>
					<path class="st36" d="M120.9,324.3c-3.8-1.2-7.6-2.5-11.2-3.9c-0.4,1.3-0.9,2.6-1.3,3.9H120.9L120.9,324.3z"/>
					
						<linearGradient id="SVGID_36_" gradientUnits="userSpaceOnUse" x1="-12091.8857" y1="-4444.5273" x2="-12091.8857" y2="-4190.3472" gradientTransform="matrix(0 -0.35 -0.56 0 -2162.4001 -4102.6099)">
						<stop  offset="0" style="stop-color:#FFFFFF"/>
						<stop  offset="0.15" style="stop-color:#D3D3D3"/>
						<stop  offset="0.46" style="stop-color:#7A7A7A"/>
						<stop  offset="0.72" style="stop-color:#383838"/>
						<stop  offset="0.9" style="stop-color:#0F0F0F"/>
						<stop  offset="1" style="stop-color:#000000"/>
					</linearGradient>
					<path class="st37" d="M314.3,74.3l-0.2-3.1c-45.9,55.2-92.7,98.2-140.5,114.7c-0.1,0.7-0.3,1.3-0.4,2
						C221.1,171.9,268.1,129.2,314.3,74.3z"/>
					
						<linearGradient id="SVGID_37_" gradientUnits="userSpaceOnUse" x1="-12005.1689" y1="-4297.5674" x2="-12005.1689" y2="-3758.7271" gradientTransform="matrix(0 -0.35 -0.56 0 -2162.4001 -4102.6099)">
						<stop  offset="0" style="stop-color:#FFFFFF"/>
						<stop  offset="0.15" style="stop-color:#D3D3D3"/>
						<stop  offset="0.46" style="stop-color:#7A7A7A"/>
						<stop  offset="0.72" style="stop-color:#383838"/>
						<stop  offset="0.9" style="stop-color:#0F0F0F"/>
						<stop  offset="1" style="stop-color:#000000"/>
					</linearGradient>
					<path class="st38" d="M232.2,57.9c-27.6,34.1-58.6,58.4-89.9,69.4c-28.9,10.1-58.2,9.8-85.1,6.3c-20.6-2.7-39.7-6.1-57.2-10.1
						v4.3c17.2,3.9,35.8,7.2,55.9,10c27,3.8,56.4,4.7,85.5-4.8c31.5-10.3,63-33.8,91.2-67.3C232.5,63.1,232.4,60.5,232.2,57.9z"/>
					
						<linearGradient id="SVGID_38_" gradientUnits="userSpaceOnUse" x1="-12281.1719" y1="-5833.8975" x2="-12281.1719" y2="-4673.9673" gradientTransform="matrix(0 -0.35 -0.56 0 -2162.4001 -4102.6099)">
						<stop  offset="0" style="stop-color:#FFFFFF"/>
						<stop  offset="0.15" style="stop-color:#D3D3D3"/>
						<stop  offset="0.46" style="stop-color:#7A7A7A"/>
						<stop  offset="0.72" style="stop-color:#383838"/>
						<stop  offset="0.9" style="stop-color:#0F0F0F"/>
						<stop  offset="1" style="stop-color:#000000"/>
					</linearGradient>
					<path class="st39" d="M544.3,172.8l-1.7,0.5c-36.5,10.6-69.9,25.1-101,40.4l0.2,5.1c31.3-15.1,65-29.3,101.7-39.6l0.8-0.2
						V172.8z"/>
					
						<linearGradient id="SVGID_39_" gradientUnits="userSpaceOnUse" x1="-11888.6406" y1="-4402.7974" x2="-11888.6406" y2="-3815.137" gradientTransform="matrix(0 -0.35 -0.56 0 -2162.4001 -4102.6099)">
						<stop  offset="0" style="stop-color:#FFFFFF"/>
						<stop  offset="0.15" style="stop-color:#D3D3D3"/>
						<stop  offset="0.46" style="stop-color:#7A7A7A"/>
						<stop  offset="0.72" style="stop-color:#383838"/>
						<stop  offset="0.9" style="stop-color:#0F0F0F"/>
						<stop  offset="1" style="stop-color:#000000"/>
					</linearGradient>
					<path class="st40" d="M239.9,0c-10.6,17.3-21.7,33.4-33.8,47.6c-27.9,32.8-60.4,53.1-91.7,60.1c-29.5,6.6-58.2,3.7-84-1.1
						c-10.7-2-20.8-4.3-30.3-6.9v5c9.2,2.4,18.8,4.6,29,6.6c25.9,5,54.7,8.3,84.5,2.3c31.5-6.3,64.5-25.8,93-57.9
						c14.4-16.3,27.4-35.1,40-55.6L239.9,0z"/>
					
						<linearGradient id="SVGID_40_" gradientUnits="userSpaceOnUse" x1="-12337.1934" y1="-5246.0972" x2="-12337.1934" y2="-4100.7271" gradientTransform="matrix(0 -0.35 -0.56 0 -2162.4001 -4102.6099)">
						<stop  offset="0" style="stop-color:#FFFFFF"/>
						<stop  offset="0.15" style="stop-color:#D3D3D3"/>
						<stop  offset="0.46" style="stop-color:#7A7A7A"/>
						<stop  offset="0.72" style="stop-color:#383838"/>
						<stop  offset="0.9" style="stop-color:#0F0F0F"/>
						<stop  offset="1" style="stop-color:#000000"/>
					</linearGradient>
					<path class="st41" d="M544.3,126.5c-11.8,4.1-23.3,8.5-34.3,13.3c-59.8,25.7-110.7,60.4-159.6,90.5
						c-44.2,27.2-86.2,50-126.5,61.2c-35.2,9.8-69.5,10-99.2,2.9c-0.4,1.4-0.9,2.8-1.3,4.2c29.6,7.6,63.9,8,99.2-1.1
						c40.5-10.5,82.9-32.5,127.5-58.9c49.5-29.4,101.2-63.4,161.6-88.1c10.5-4.3,21.4-8.3,32.6-12V126.5z"/>
					
						<linearGradient id="SVGID_41_" gradientUnits="userSpaceOnUse" x1="-12434.7432" y1="-5474.6274" x2="-12434.7432" y2="-4463.7974" gradientTransform="matrix(0 -0.35 -0.56 0 -2162.4001 -4102.6099)">
						<stop  offset="0" style="stop-color:#FFFFFF"/>
						<stop  offset="0.15" style="stop-color:#D3D3D3"/>
						<stop  offset="0.46" style="stop-color:#7A7A7A"/>
						<stop  offset="0.72" style="stop-color:#383838"/>
						<stop  offset="0.9" style="stop-color:#0F0F0F"/>
						<stop  offset="1" style="stop-color:#000000"/>
					</linearGradient>
					<path class="st42" d="M544.3,201.7c-3.7,0.9-7.4,1.9-11.1,2.8c-41,11.1-78.4,26.9-113.5,43.3c-33.1,15.5-64.2,31.4-94.3,45
						c-0.2,1.5-0.4,3.1-0.6,4.6c30.3-13.3,61.6-29,94.9-44.1c35.3-16.1,73.1-31.5,114.3-42.2c3.3-0.9,6.7-1.7,10.1-2.5v-6.9H544.3z"
						/>
					
						<linearGradient id="SVGID_42_" gradientUnits="userSpaceOnUse" x1="-12412.3379" y1="-4955.6475" x2="-12412.3379" y2="-4051.5969" gradientTransform="matrix(0 -0.35 -0.56 0 -2162.4001 -4102.6099)">
						<stop  offset="0" style="stop-color:#FFFFFF"/>
						<stop  offset="0.15" style="stop-color:#D3D3D3"/>
						<stop  offset="0.46" style="stop-color:#7A7A7A"/>
						<stop  offset="0.72" style="stop-color:#383838"/>
						<stop  offset="0.9" style="stop-color:#0F0F0F"/>
						<stop  offset="1" style="stop-color:#000000"/>
					</linearGradient>
					<path class="st43" d="M544.3,163.6c-44.9,13.6-85.5,32.8-123,52.8c-47.4,25.3-90.7,51.5-133.1,70.4
						c-37.6,16.7-74.2,27.1-107.4,28.2c-30.1,1-58.4-5.8-83.5-15.9l-1.1,3.5c25,10.4,53.2,17.6,83.4,17.2
						c33.3-0.5,70-10.3,107.8-26.4c42.8-18.2,86.5-43.8,134.4-68.4c37.5-19.2,78-37.7,122.6-50.5L544.3,163.6z"/>
					
						<linearGradient id="SVGID_43_" gradientUnits="userSpaceOnUse" x1="-12085.1719" y1="-4555.9575" x2="-12085.1719" y2="-4210.7969" gradientTransform="matrix(0 -0.35 -0.56 0 -2162.4001 -4102.6099)">
						<stop  offset="0" style="stop-color:#FFFFFF"/>
						<stop  offset="0.15" style="stop-color:#D3D3D3"/>
						<stop  offset="0.46" style="stop-color:#7A7A7A"/>
						<stop  offset="0.72" style="stop-color:#383838"/>
						<stop  offset="0.9" style="stop-color:#0F0F0F"/>
						<stop  offset="1" style="stop-color:#000000"/>
					</linearGradient>
					<path class="st44" d="M376.1,49.7c-0.2-1.4-0.3-2.8-0.5-4.2C341,83,309.5,119.4,276.3,148.9c-30.2,26.8-61,47-91.4,57.4
						c-0.2,0.9-0.3,1.7-0.5,2.6c30.4-10.1,61.4-30,91.7-56.5C309.6,123.1,341.3,87,376.1,49.7z"/>
					
						<linearGradient id="SVGID_44_" gradientUnits="userSpaceOnUse" x1="-12295.1719" y1="-5308.5571" x2="-12295.1719" y2="-4260.0571" gradientTransform="matrix(0 -0.35 -0.56 0 -2162.4001 -4102.6099)">
						<stop  offset="0" style="stop-color:#FFFFFF"/>
						<stop  offset="0.15" style="stop-color:#D3D3D3"/>
						<stop  offset="0.46" style="stop-color:#7A7A7A"/>
						<stop  offset="0.72" style="stop-color:#383838"/>
						<stop  offset="0.9" style="stop-color:#0F0F0F"/>
						<stop  offset="1" style="stop-color:#000000"/>
					</linearGradient>
					<path class="st45" d="M544.3,110c-44.9,16.5-84.6,38.8-121.1,61.7c-40.4,25.4-77.4,51.6-113.9,73c-33.2,19.4-65.5,34.4-96.3,42
						c-0.4,1.6-0.8,3.2-1.1,4.7c30.9-7.1,63.4-21.6,96.8-40.5c36.8-20.9,74.2-46.6,115-71.5c36.5-22.3,76.1-43.8,120.6-59.7V110z"/>
					
						<linearGradient id="SVGID_45_" gradientUnits="userSpaceOnUse" x1="-21378.8027" y1="-4735.7974" x2="-21378.8027" y2="-3904.8469" gradientTransform="matrix(0 -0.17 -0.56 0 -2162.4001 -3525.2197)">
						<stop  offset="0" style="stop-color:#FFFFFF"/>
						<stop  offset="0.15" style="stop-color:#D3D3D3"/>
						<stop  offset="0.46" style="stop-color:#7A7A7A"/>
						<stop  offset="0.72" style="stop-color:#383838"/>
						<stop  offset="0.9" style="stop-color:#0F0F0F"/>
						<stop  offset="1" style="stop-color:#000000"/>
					</linearGradient>
					<path class="st46" d="M421.1,0c-34.1,32.6-63.6,67-92.9,98.4c-40.2,43-79.6,79-120.3,99c-32.4,15.9-68.7,21.6-104.4,16.6
						c-31.2-4.4-60.1-14.6-88.2-21.9l-0.7,1.7c28,7.4,56.9,17.8,88.1,22.5c35.6,5.4,72,0.1,104.5-15.3
						c40.9-19.4,80.6-54.9,121.1-97.5c31.3-33,62.8-69.4,99.7-103.4L421.1,0z"/>
					
						<linearGradient id="SVGID_46_" gradientUnits="userSpaceOnUse" x1="-21795.5566" y1="-4663.8574" x2="-21795.5566" y2="-4049.1069" gradientTransform="matrix(0 -0.17 -0.56 0 -2162.4001 -3525.2197)">
						<stop  offset="0" style="stop-color:#FFFFFF"/>
						<stop  offset="0.15" style="stop-color:#D3D3D3"/>
						<stop  offset="0.46" style="stop-color:#7A7A7A"/>
						<stop  offset="0.72" style="stop-color:#383838"/>
						<stop  offset="0.9" style="stop-color:#0F0F0F"/>
						<stop  offset="1" style="stop-color:#000000"/>
					</linearGradient>
					<path class="st47" d="M436,100.6l-0.4-3.9c-37.1,27.7-70.5,56.9-103.5,82.8c-30.8,24.1-60.7,44.9-90.6,59.4
						c-27,13.1-53.8,20.7-79,22.3c-23.5,1.5-46.2-2.3-67.3-8.3l-0.4,1.4c21.1,6.2,43.7,10.1,67.3,8.8c25.2-1.4,52.1-8.8,79.1-21.6
						c29.9-14.3,60-34.9,90.9-58.7C365.2,157.1,398.8,128.1,436,100.6z"/>
					
						<linearGradient id="SVGID_47_" gradientUnits="userSpaceOnUse" x1="-21187.1641" y1="-4489.3071" x2="-21187.1641" y2="-3947.667" gradientTransform="matrix(0 -0.17 -0.56 0 -2162.4001 -3525.2197)">
						<stop  offset="0" style="stop-color:#FFFFFF"/>
						<stop  offset="0.15" style="stop-color:#D3D3D3"/>
						<stop  offset="0.46" style="stop-color:#7A7A7A"/>
						<stop  offset="0.72" style="stop-color:#383838"/>
						<stop  offset="0.9" style="stop-color:#0F0F0F"/>
						<stop  offset="1" style="stop-color:#000000"/>
					</linearGradient>
					<path class="st48" d="M295.1,0c-11.1,17.3-22.2,34-33.8,49.6c-24.5,32.9-50.5,59.8-78,77c-22.9,14.5-49.1,22.9-76.1,24.4
						c-23.8,1.3-46.7-2.2-68.1-6.3c-0.2,0.5-0.4,1.1-0.6,1.6c21.5,4.1,44.4,7.8,68.2,6.7c27.1-1.3,53.3-9.4,76.4-23.6
						c27.6-16.9,53.8-43.5,78.5-76.2C274,36.5,286,18.6,298,0H295.1z"/>
					
						<linearGradient id="SVGID_48_" gradientUnits="userSpaceOnUse" x1="-21405.998" y1="-5796.8774" x2="-21405.998" y2="-4756.7173" gradientTransform="matrix(0 -0.17 -0.56 0 -2162.4001 -3525.2197)">
						<stop  offset="0" style="stop-color:#FFFFFF"/>
						<stop  offset="0.15" style="stop-color:#D3D3D3"/>
						<stop  offset="0.46" style="stop-color:#7A7A7A"/>
						<stop  offset="0.72" style="stop-color:#383838"/>
						<stop  offset="0.9" style="stop-color:#0F0F0F"/>
						<stop  offset="1" style="stop-color:#000000"/>
					</linearGradient>
					<path class="st49" d="M544.3,99.8c-19.4,7.4-38.3,15.9-56.7,25.6c0.1,0.8,0.2,1.6,0.3,2.4c18.3-9.5,37.1-17.9,56.4-25.2V99.8z"
						/>
					
						<linearGradient id="SVGID_49_" gradientUnits="userSpaceOnUse" x1="-21278.0566" y1="-4795.6074" x2="-21278.0566" y2="-4288.5474" gradientTransform="matrix(0 -0.17 -0.56 0 -2162.4001 -3525.2197)">
						<stop  offset="0" style="stop-color:#FFFFFF"/>
						<stop  offset="0.15" style="stop-color:#D3D3D3"/>
						<stop  offset="0.46" style="stop-color:#7A7A7A"/>
						<stop  offset="0.72" style="stop-color:#383838"/>
						<stop  offset="0.9" style="stop-color:#0F0F0F"/>
						<stop  offset="1" style="stop-color:#000000"/>
					</linearGradient>
					<path class="st50" d="M414,0c-23.1,22.8-44.1,46.2-64.2,68.7c-41.4,46.2-80.3,87.4-121.8,113.6c-0.1,0.6-0.2,1.3-0.3,1.9
						c41.7-25.9,80.8-67,122.3-112.9c21-23.4,43-47.8,67.3-71.4H414V0z"/>
					
						<linearGradient id="SVGID_50_" gradientUnits="userSpaceOnUse" x1="-21268.3516" y1="-4681.4673" x2="-21268.3516" y2="-4228.8574" gradientTransform="matrix(0 -0.17 -0.56 0 -2162.4001 -3525.2197)">
						<stop  offset="0" style="stop-color:#FFFFFF"/>
						<stop  offset="0.15" style="stop-color:#D3D3D3"/>
						<stop  offset="0.46" style="stop-color:#7A7A7A"/>
						<stop  offset="0.72" style="stop-color:#383838"/>
						<stop  offset="0.9" style="stop-color:#0F0F0F"/>
						<stop  offset="1" style="stop-color:#000000"/>
					</linearGradient>
					<path class="st51" d="M375.3,0c-23,27.1-44,54.3-65.3,79.3c-37.7,44.3-75.7,80.4-115.2,99.7c-0.1,0.6-0.2,1.2-0.3,1.8
						c39.6-19.1,77.8-54.9,115.6-99C332.3,56,354.1,27.9,378,0H375.3z"/>
					
						<linearGradient id="SVGID_51_" gradientUnits="userSpaceOnUse" x1="-21760.7051" y1="-5118.8472" x2="-21760.7051" y2="-4302.5474" gradientTransform="matrix(0 -0.17 -0.56 0 -2162.4001 -3525.2197)">
						<stop  offset="0" style="stop-color:#FFFFFF"/>
						<stop  offset="0.15" style="stop-color:#D3D3D3"/>
						<stop  offset="0.46" style="stop-color:#7A7A7A"/>
						<stop  offset="0.72" style="stop-color:#383838"/>
						<stop  offset="0.9" style="stop-color:#0F0F0F"/>
						<stop  offset="1" style="stop-color:#000000"/>
					</linearGradient>
					<path class="st52" d="M544.3,80.5c-6,2.4-11.8,4.8-17.5,7.4c-42.4,18.9-79.8,42.8-114.4,67c-32.9,23-63.6,46.1-93.9,66.1
						c-28.2,18.5-55.6,34.1-82.6,44.5c-0.1,0.7-0.3,1.5-0.4,2.2c27-10.3,54.5-25.6,82.8-44c30.5-19.8,61.3-42.8,94.3-65.6
						c34.8-24,72.3-47.8,114.9-66.4c5.5-2.4,11.1-4.8,16.9-7L544.3,80.5z"/>
					
						<linearGradient id="SVGID_52_" gradientUnits="userSpaceOnUse" x1="-21367.1758" y1="-4873.9473" x2="-21367.1758" y2="-4274.3872" gradientTransform="matrix(0 -0.17 -0.56 0 -2162.4001 -3525.2197)">
						<stop  offset="0" style="stop-color:#FFFFFF"/>
						<stop  offset="0.15" style="stop-color:#D3D3D3"/>
						<stop  offset="0.46" style="stop-color:#7A7A7A"/>
						<stop  offset="0.72" style="stop-color:#383838"/>
						<stop  offset="0.9" style="stop-color:#0F0F0F"/>
						<stop  offset="1" style="stop-color:#000000"/>
					</linearGradient>
					<path class="st53" d="M471.4,0c-10,7.3-19.6,14.8-28.8,22.4c-29.9,24.9-56.5,51.4-82.3,76.9c-48.2,47.8-93.3,89.9-140.2,113.1
						c-0.1,0.7-0.2,1.4-0.3,2c47-22.8,92.3-64.7,140.7-112.2c25.9-25.4,52.6-51.8,82.6-76.6c10.6-8.7,21.7-17.3,33.4-25.6
						C476.5,0,471.4,0,471.4,0z"/>
					
						<linearGradient id="SVGID_53_" gradientUnits="userSpaceOnUse" x1="-21149.5273" y1="-4416.2671" x2="-21149.5273" y2="-4131.187" gradientTransform="matrix(0 -0.17 -0.56 0 -2162.4001 -3525.2197)">
						<stop  offset="0" style="stop-color:#FFFFFF"/>
						<stop  offset="0.15" style="stop-color:#D3D3D3"/>
						<stop  offset="0.46" style="stop-color:#7A7A7A"/>
						<stop  offset="0.72" style="stop-color:#383838"/>
						<stop  offset="0.9" style="stop-color:#0F0F0F"/>
						<stop  offset="1" style="stop-color:#000000"/>
					</linearGradient>
					<path class="st54" d="M286.6,0c-21.2,33.3-42.4,63.6-66,87.7c-25.4,25.9-53,43.4-80.1,51.5c-0.1,0.4-0.1,0.8-0.2,1.2
						c27.1-7.9,54.8-25.3,80.3-51.1C244.7,65,266.4,34.1,288.1,0H286.6z"/>
					
						<linearGradient id="SVGID_54_" gradientUnits="userSpaceOnUse" x1="-22419.8223" y1="-6958.3477" x2="-22419.8223" y2="-4333.5874" gradientTransform="matrix(0 -0.17 -0.56 0 -2162.4001 -3525.2197)">
						<stop  offset="0" style="stop-color:#FFFFFF"/>
						<stop  offset="0.15" style="stop-color:#D3D3D3"/>
						<stop  offset="0.46" style="stop-color:#7A7A7A"/>
						<stop  offset="0.72" style="stop-color:#383838"/>
						<stop  offset="0.9" style="stop-color:#0F0F0F"/>
						<stop  offset="1" style="stop-color:#000000"/>
					</linearGradient>
					<path class="st55" d="M332.6,324.3c7-2.6,14-5.2,21-8c38.6-14.8,79.1-31.7,123.3-44.8c22.1-6.6,44.6-11.9,67.4-15.7V248
						c-23,4.1-45.7,9.7-68,16.7c-43.8,13.6-84,30.8-122.3,46.1c-11.8,4.7-23.4,9.2-34.8,13.4L332.6,324.3z"/>
					
						<linearGradient id="SVGID_55_" gradientUnits="userSpaceOnUse" x1="-21241.3965" y1="-4547.2075" x2="-21241.3965" y2="-3861.0669" gradientTransform="matrix(0 -0.17 -0.56 0 -2162.4001 -3525.2197)">
						<stop  offset="0" style="stop-color:#FFFFFF"/>
						<stop  offset="0.15" style="stop-color:#D3D3D3"/>
						<stop  offset="0.46" style="stop-color:#7A7A7A"/>
						<stop  offset="0.72" style="stop-color:#383838"/>
						<stop  offset="0.9" style="stop-color:#0F0F0F"/>
						<stop  offset="1" style="stop-color:#000000"/>
					</linearGradient>
					<path class="st56" d="M324.2,0c-20,28.5-39,56.1-59.5,80.4c-32.3,38.3-67.1,66.5-102.1,79.4c-31.6,11.6-63.8,11-93,6.5
						c-24.7-3.8-47.8-9.5-69.5-14.2v2c21.5,4.7,44.4,10.4,68.8,14.3c29.2,4.7,61.4,5.7,93.1-5.5c35.1-12.4,70.1-40.2,102.7-78.1
						c21.9-25.5,42.2-54.6,63.6-84.9L324.2,0L324.2,0z"/>
					
						<linearGradient id="SVGID_56_" gradientUnits="userSpaceOnUse" x1="-22199.2344" y1="-6086.9272" x2="-22199.2344" y2="-4599.1875" gradientTransform="matrix(0 -0.17 -0.56 0 -2162.4001 -3525.2197)">
						<stop  offset="0" style="stop-color:#FFFFFF"/>
						<stop  offset="0.15" style="stop-color:#D3D3D3"/>
						<stop  offset="0.46" style="stop-color:#7A7A7A"/>
						<stop  offset="0.72" style="stop-color:#383838"/>
						<stop  offset="0.9" style="stop-color:#0F0F0F"/>
						<stop  offset="1" style="stop-color:#000000"/>
					</linearGradient>
					<path class="st57" d="M544.3,221.9c-7.2,1.6-14.3,3.2-21.2,5.1c-44.6,11.8-85.1,28.7-122.9,45.5c0,1,0,1.9-0.1,2.9
						c38-16.6,78.6-33.4,123.4-44.9c6.8-1.7,13.7-3.3,20.7-4.8L544.3,221.9L544.3,221.9z"/>
					
						<linearGradient id="SVGID_57_" gradientUnits="userSpaceOnUse" x1="-22178.0566" y1="-6939.7974" x2="-22178.0566" y2="-4779.8374" gradientTransform="matrix(0 -0.17 -0.56 0 -2162.4001 -3525.2197)">
						<stop  offset="0" style="stop-color:#FFFFFF"/>
						<stop  offset="0.15" style="stop-color:#D3D3D3"/>
						<stop  offset="0.46" style="stop-color:#7A7A7A"/>
						<stop  offset="0.72" style="stop-color:#383838"/>
						<stop  offset="0.9" style="stop-color:#0F0F0F"/>
						<stop  offset="1" style="stop-color:#000000"/>
					</linearGradient>
					<path class="st58" d="M544.3,237.5c-15.1,2.9-29.8,6.5-43.9,10.5c0.1,1.5,0.3,3.1,0.4,4.6c14-3.9,28.5-7.3,43.5-10V237.5z"/>
					
						<linearGradient id="SVGID_58_" gradientUnits="userSpaceOnUse" x1="-21486.4824" y1="-5191.1074" x2="-21486.4824" y2="-4025.387" gradientTransform="matrix(0 -0.17 -0.56 0 -2162.4001 -3525.2197)">
						<stop  offset="0" style="stop-color:#FFFFFF"/>
						<stop  offset="0.15" style="stop-color:#D3D3D3"/>
						<stop  offset="0.46" style="stop-color:#7A7A7A"/>
						<stop  offset="0.72" style="stop-color:#383838"/>
						<stop  offset="0.9" style="stop-color:#0F0F0F"/>
						<stop  offset="1" style="stop-color:#000000"/>
					</linearGradient>
					<path class="st59" d="M544.3,2.2c-27.9,13.1-54.5,28.6-79.6,46.5C406.3,90.1,359.1,138.3,310.8,177
						c-43,34.4-85.6,59.9-126.4,69c-35.9,8-71,2.9-102.2-6.5c-0.2,0.7-0.5,1.4-0.7,2.1c31.2,9.7,66.2,15.2,102.2,7.6
						c40.8-8.6,83.7-33.6,126.9-67.5c48.6-38.2,96.2-86.1,155-127c24.8-17.4,51.1-32.5,78.6-45.3L544.3,2.2L544.3,2.2z"/>
					
						<linearGradient id="SVGID_59_" gradientUnits="userSpaceOnUse" x1="-21478.3516" y1="-5031.4971" x2="-21478.3516" y2="-4290.5874" gradientTransform="matrix(0 -0.17 -0.56 0 -2162.4001 -3525.2197)">
						<stop  offset="0" style="stop-color:#FFFFFF"/>
						<stop  offset="0.15" style="stop-color:#D3D3D3"/>
						<stop  offset="0.46" style="stop-color:#7A7A7A"/>
						<stop  offset="0.72" style="stop-color:#383838"/>
						<stop  offset="0.9" style="stop-color:#0F0F0F"/>
						<stop  offset="1" style="stop-color:#000000"/>
					</linearGradient>
					<path class="st60" d="M544.3,13.9c-17.1,7.8-33.8,16.6-49.9,26.4c-38.1,23.1-71.2,49.9-102.4,76.2
						c-29.7,25.2-57.6,50-85.6,71.4c-26.1,19.9-51.8,36.6-77.3,48.2c-0.1,0.7-0.3,1.5-0.4,2.2c25.6-11.4,51.4-27.9,77.6-47.6
						c28.1-21.2,56.1-45.8,86-70.9C423.5,93.6,456.9,66.9,495,44c15.9-9.5,32.3-18.1,49.2-25.8L544.3,13.9L544.3,13.9z"/>
				</g>
			</g>
		</g>
	</g>
</g>
</svg>
