<svg xmlns="http://www.w3.org/2000/svg" xmlns:xlink="http://www.w3.org/1999/xlink" viewBox="0 0 112.17 132.62"><defs><style>.cls-1{isolation:isolate;}.cls-2{fill:#0c5c8a;}.cls-3{fill:url(#radial-gradient);}.cls-10,.cls-11,.cls-12,.cls-4{mix-blend-mode:screen;}.cls-4{fill:url(#Áåçûìÿííûé_ãðàäèåíò_530);}.cls-5{fill:url(#linear-gradient);}.cls-6{fill:url(#linear-gradient-2);}.cls-7{fill:url(#linear-gradient-3);}.cls-8{fill:url(#linear-gradient-4);}.cls-9{fill:url(#Áåçûìÿííûé_ãðàäèåíò_518);}.cls-10{fill:#4aa0ad;}.cls-11{fill:#387882;}.cls-12{fill:url(#Áåçûìÿííûé_ãðàäèåíò_532);}</style><radialGradient id="radial-gradient" cx="89.7" cy="72.8" r="91.26" gradientTransform="translate(119.93 -4.34) rotate(71.22)" gradientUnits="userSpaceOnUse"><stop offset="0" stop-color="#1dc4d7"/><stop offset="0.68" stop-color="#12678e"/><stop offset="0.74" stop-color="#127095"/><stop offset="0.84" stop-color="#1187a8"/><stop offset="0.96" stop-color="#10adc6"/><stop offset="1" stop-color="#10bad1"/></radialGradient><radialGradient id="Áåçûìÿííûé_ãðàäèåíò_530" cx="89.13" cy="60.09" r="57.15" gradientUnits="userSpaceOnUse"><stop offset="0" stop-color="#21474d"/><stop offset="1"/></radialGradient><linearGradient id="linear-gradient" x1="68.96" y1="24.71" x2="-14.98" y2="115.16" gradientUnits="userSpaceOnUse"><stop offset="0" stop-color="#b0f1f7"/><stop offset="1" stop-color="#1590bd"/></linearGradient><linearGradient id="linear-gradient-2" x1="103.87" y1="57.11" x2="19.92" y2="147.56" xlink:href="#linear-gradient"/><linearGradient id="linear-gradient-3" x1="124.35" y1="76.11" x2="40.4" y2="166.56" xlink:href="#linear-gradient"/><linearGradient id="linear-gradient-4" x1="112.07" y1="64.71" x2="28.12" y2="155.16" xlink:href="#linear-gradient"/><linearGradient id="Áåçûìÿííûé_ãðàäèåíò_518" x1="99.48" y1="53.03" x2="15.53" y2="143.48" xlink:href="#linear-gradient"/><linearGradient id="Áåçûìÿííûé_ãðàäèåíò_532" x1="67.54" y1="133.03" x2="59.25" y2="99.49" xlink:href="#Áåçûìÿííûé_ãðàäèåíò_530"/></defs><g class="cls-1"><g id="Capa_2" data-name="Capa 2"><g id="layer_1" data-name="layer 1"><polygon class="cls-2" points="14.57 76.89 12.45 80.93 14.77 90.28 16.11 99.89 21.37 108.67 23.13 113.22 29.29 116.83 34.78 118.25 35.81 118.85 29.88 112.29 26.22 107.27 22.65 98.83 16.18 74.38 15.2 75.6 14.57 76.89 14.57 76.89"/><circle class="cls-3" cx="63" cy="81.56" r="46.47" transform="translate(-34.5 114.94) rotate(-71.22)"/><path class="cls-4" d="M52.28,93.18C56,99.67,61.92,105.71,70,107.87A27.53,27.53,0,0,0,90.41,105a26.27,26.27,0,0,0,11.8-14.86A30.17,30.17,0,0,0,101.68,72a33.11,33.11,0,0,0-9.42-14.58,30.68,30.68,0,0,0-17.15-7.52,28.67,28.67,0,0,0-16.58,3.39c-5.48,3.1-11.45,9.1-12,14.94A42.36,42.36,0,0,0,52.28,93.18Z"/><path class="cls-5" d="M45.53,41.36l-.15.1,3.74,5.8L52.9,52.9l.83.57,2.83,1.93,9.51,15.69-.6-.1.36,5.52,0,.21L70,90.55l7.92,14.39h0l.24.42-.4-.25L61.71,94.88,47.89,84.82,47,89.71,35.87,75.9,29.8,71.46l-2.87-2.1-.42,3.23.24,1.52,6.53,13.94-1,.29-.78,5-.89.66.68,5.33,0,.24L28.88,98H28l.2.57,4.27,11.88-1.26-1.16-3.73-3.44-6.94-10.3-.12-.18-.21-.13L14.64,79.4,13.83,71l.24-1.8-.88-2.81-.89-4.29.52-1.64-.1-.57L12.14,52l.55-1.89-1.26-6.34-1.25-9.1L10.11,31,8.34,27.09.06,8.58,0,8.45l2.51,2.23,4.77,4.15,4.12,4.36,6.18,6.89,6.72,5.56,0,0,.17.24L19.61,20.16l-3-8.54-.13-.39,2.89,2.52,4.84,3L37.88,21.3l.19.06-1-5.1.3-.26,0-.79L30.44,0l0,0L45,11.22l6.46,6,4,3.13,1.24,1v-.05l.1,0,1.16-2,4.88,6.2,6.8,4.2L76,34.43l8.61,5.13.56,1.16c-.89-.48-1.84-1-2.85-1.43S80.29,38.4,79,37.93a47.2,47.2,0,0,0-4.7-1.45l-1.16.25,5.46,10.75,4.5,12L83.75,62l0,.2-8.32-7.36L72,51.76l-1.82,2.56-1-.57-13.25-7.4L45.79,41.2l-.17.11Z"/><polygon class="cls-2" points="77.92 104.94 77.92 104.94 77.76 105.11 61.71 94.88 47.89 84.82 46.95 89.71 35.87 75.9 29.8 71.46 26.09 66.62 20.12 56.07 17.59 54.99 16.55 56.88 13.95 54.94 14.9 49.69 13.14 40.87 10.74 30.96 8.34 27.09 0.06 8.58 14.51 32.76 14.7 35.1 21.39 42.28 22.54 46.03 25.35 49.11 25.71 51.39 29.22 58.73 31.92 63.32 40.23 69.57 40.77 71.63 46.12 75.12 49.56 77.42 49.21 77.22 56.2 87.16 63.69 92.5 68.4 96.4 71.5 99.65 77.92 104.94"/><polygon class="cls-2" points="26.35 100.88 31.23 109.28 27.5 105.84 20.56 95.54 18.52 88.02 17.96 84.14 17.72 83.27 15.25 76.11 15.57 71.39 13.73 64.61 14.23 62.35 13.73 56.55 19.69 70.73 18.08 71.47 21.21 84.77 23.98 89.56 25.82 93.14 26.74 95.15 31.32 99.28 31.36 99.52 28.88 97.99 28.02 97.99 28.22 98.56 25.72 97.12 26.35 100.88"/><polygon class="cls-2" points="54.32 79.2 45.25 67.44 38.09 60.96 32.05 51.8 28.38 41.24 26.1 34.74 24.38 31.8 24.3 31.64 24.33 31.67 24.5 31.91 19.61 20.16 16.65 11.62 17.47 12.78 20.53 17 25.82 23.81 31.95 43.67 37.33 54.87 49.38 68.57 54.32 79.2"/><polygon class="cls-2" points="67.84 87.79 62.38 82.81 50.88 65.27 51.18 65.74 56.44 71.61 67.84 87.79 67.84 87.79"/><polygon class="cls-2" points="69.14 53.75 55.89 46.35 45.79 41.2 45.53 41.36 39.31 34.11 38.99 26.45 34.48 21.17 38.12 21.74 37.88 21.3 38.06 21.36 37.05 16.26 37.35 16 37.31 15.21 30.44 0 30.47 0.02 40.24 15.97 42.02 22.32 45.6 29.74 53.1 37.11 56.47 42.5 66.25 48.95 69.06 53.3 69.14 53.75"/><polygon class="cls-2" points="83.8 62.19 75.47 54.83 70.3 48.11 61.9 42.29 59.3 40.65 55.78 31.22 56.12 31.29 60.48 38.14 61.94 35.48 72.42 43.03 67.73 41.28 73.54 47.98 78.53 54.24 79.14 56.55 83.75 61.98 83.8 62.19"/><polygon class="cls-2" points="47.68 22.3 54.5 28.14 42.29 12.5 42.65 13.54 47.68 22.3"/><polygon class="cls-2" points="56.01 57.42 50.32 54.35 41.45 45.58 44.62 47.05 45.03 47.05 41.3 42.5 31.14 27.06 30.65 25.73 44.42 38.86 45.6 41.27 45.62 41.3 45.53 41.36 45.38 41.46 49.12 47.26 52.9 52.9 53.73 53.47 56.01 57.42"/><polygon class="cls-6" points="65.95 127.84 60.45 130.21 59.45 130.2 57.27 132.62 53.98 129.56 49.78 124.87 45.66 122.14 43.64 120.37 40.21 107.92 38.35 101.95 37.52 99.27 37.33 98.94 46.03 109.41 47.02 107.9 47.28 107.99 51.45 113.27 59.27 124.39 60.4 126.15 62.69 127.51 63.06 127.73 65.95 127.84"/><polygon class="cls-2" points="65.95 127.84 60.45 130.21 59.45 130.2 57.27 132.62 53.98 129.56 49.78 124.87 45.66 122.14 43.64 120.37 40.21 107.92 38.35 101.95 40.65 106.34 44.09 113.13 49.95 118.6 52.24 121.66 57.46 126.94 62.47 127.54 62.69 127.51 63.06 127.73 65.95 127.84"/><polygon class="cls-7" points="95.16 119.31 93.34 128.77 93.13 129.91 87.36 127.81 84.12 127.83 79.97 124.83 80.64 124.47 85.34 118.29 85.66 115.86 86.63 115.86 86.12 109.83 82.88 100.63 83.2 101 91.02 109.93 95.16 119.31"/><polygon class="cls-2" points="93.34 128.77 93.13 129.91 87.36 127.81 84.12 127.83 79.97 124.83 80.64 124.47 85.34 118.29 85.66 115.86 86.63 115.86 86.12 109.83 82.88 100.63 83.2 101 89.43 112.64 89.91 117.2 89.06 119.94 89.31 121.53 90.94 125.1 91.97 126.13 93.2 128.48 93.34 128.77"/><polygon class="cls-8" points="112.17 109.41 105.24 111.34 98.89 111.08 99.35 110.46 99.49 108.78 98.52 105.62 95.66 101.22 94.78 100.87 92.13 101.09 87.8 97.56 82.57 88.8 84.47 88.66 83.54 80.66 79.97 75.38 74.56 73.58 73.05 69.81 71.64 67.22 70.49 65.08 70.37 64.84 76.47 69.04 80.79 71.27 83.24 75.17 85.92 77.95 87.94 78.03 90.39 77.82 94.46 81.11 105.9 93.56 107.31 96.98 108.45 102.44 112.03 109.15 112.17 109.41"/><polygon class="cls-2" points="112.17 109.41 105.24 111.34 98.89 111.08 99.35 110.46 99.49 108.78 98.52 105.62 95.66 101.22 94.78 100.87 92.13 101.09 87.8 97.56 82.57 88.8 84.47 88.66 83.54 80.66 79.97 75.38 74.56 73.58 73.05 69.81 71.64 67.22 70.49 65.08 70.88 65.29 75.04 71.48 75.79 71.92 79.24 72.94 83.9 78.7 85.37 82.46 85.73 86.12 86.7 90.51 88.58 90.89 89.85 90.88 92.8 91.2 87.04 87.06 86.78 84.61 93.1 89.92 99.62 98.79 104 106.73 104.31 103.53 107.11 107.86 109.44 108.61 112.03 109.15 112.17 109.41"/><path class="cls-2" d="M94,86.53c1.61,2.74,3.17,5.56,4.93,8.23.19.16.29.36.54.44,1.11.37,1.85,1.33,2.9,1.84-1.8-4.64-5.59-8-8.77-11.68C93.69,85.73,93.81,86.13,94,86.53Z"/><polygon class="cls-9" points="105.81 68.82 104.67 67.7 95.57 58.69 89.13 46.23 88.29 42.46 96.22 44.17 98.47 43.21 98.96 43 102.92 52.93 105.81 68.82"/><polygon class="cls-2" points="104.67 67.7 95.57 58.69 89.13 46.23 88.29 42.46 96.22 44.17 98.47 43.21 95.91 50.29 96.19 53.9 97.14 56.59 99.48 60.85 104.67 67.7"/><path class="cls-10" d="M20.62,30.08a97.31,97.31,0,0,1,5.73,13.81L23.7,42.56a4.8,4.8,0,0,1-1.38-.91,1.57,1.57,0,0,1-.44-1.47l-1.61-1.59L16.83,35.2a2.82,2.82,0,0,1-.33-.36,2.43,2.43,0,0,1-.19-1.47c-1.59-2.8-3.29-5.53-5-8.27L4.86,14.73C9.48,20.57,20.62,30.08,20.62,30.08Zm19,36.74-5.11-7.63c-.79-1.18-1.58-2.36-2.25-3.61A41,41,0,0,1,30,50.21a7.12,7.12,0,0,0-1.2-2.36,6.8,6.8,0,0,0-4-1.81,4.18,4.18,0,0,0,1.55,2.61,2.75,2.75,0,0,1,.6.53,2,2,0,0,1,.25.69,39.19,39.19,0,0,0,2.22,6l2,4.69a4.13,4.13,0,0,0,.71,1.24,5.13,5.13,0,0,0,1.39.88,11,11,0,0,1,2.69,2A17.69,17.69,0,0,0,39.63,66.82ZM46.76,72a3.85,3.85,0,0,0-.56-.78,5.13,5.13,0,0,0-1.08-.7c-1.55-.84-2.67-1.83-4.4-2.13.43.82.89,1.62,1.38,2.41a1.3,1.3,0,0,0,.74.66l3.83,1.77,1.58.72-.39-.17ZM70.43,95.76A17.75,17.75,0,0,1,69,93.53a20.32,20.32,0,0,0-3.41-5.34c-1.47-1.54-3.33-2.67-4.77-4.24a21.74,21.74,0,0,1-2.16-3l-4.26-6.6a33.23,33.23,0,0,0,2.62,7.12,34.76,34.76,0,0,1-3.7-.81l2.53,4a5.27,5.27,0,0,0,.78,1,6.25,6.25,0,0,0,1.2.83,57.65,57.65,0,0,1,10,8.15l4.15,3.91A16.12,16.12,0,0,1,70.43,95.76Zm-44-74.05c2,1.54,4.87,1.79,6.75,3.51l.08-2.33a1.2,1.2,0,0,0-.07-.57,1.12,1.12,0,0,0-.38-.4,18.12,18.12,0,0,0-5.09-2.35c-2.53-.83-4.59-2.49-7-3.59.67.89,1.38,1.76,2.12,2.6A25.1,25.1,0,0,0,26.39,21.71Zm5.07,18a4.31,4.31,0,0,0,.72,1.67,4,4,0,0,0,.76.67l2.43,1.81a4.5,4.5,0,0,0,1.07.65,4.44,4.44,0,0,0,1.36.21l3.55.17c-.38,0-1.45-1.63-1.72-1.94-.56-.65-1.12-1.31-1.67-2-1.17-1.41-2.31-2.86-3.4-4.33a36.15,36.15,0,0,1-3.32-5.06c-.46-.88-.83-1.84-1.29-2.72a8.85,8.85,0,0,1-.74-1.76,8.84,8.84,0,0,0-.27-1.61,4.81,4.81,0,0,0-1.83-.86,13.44,13.44,0,0,0,1,4.75,39.36,39.36,0,0,1,1.72,4.2C30.49,35.61,30.93,37.71,31.46,39.74Zm7.95,15.67,10.35,1.33a22.38,22.38,0,0,0-4.69-5.46L41,47.46a4.25,4.25,0,0,0-1.28-.92c-.53-.2-3.6-.68-4.09-.34-.81.56.69,2.64,1,3.38.44,1,.9,2,1.38,3C38.21,53,39.07,55.37,39.41,55.41Zm7.42,7.82a2.37,2.37,0,0,0,.87.26l2.57.4a3,3,0,0,1,1,.28,3.16,3.16,0,0,1,.85.82Q58,72.36,63.59,79.91l0-5.63a82.39,82.39,0,0,1-6.33-5.92,11.88,11.88,0,0,1,4.46,1.12l-5.34-8.59a2.42,2.42,0,0,0-.44-.56A2.15,2.15,0,0,0,54.74,60c-1.5-.08-3-.23-4.47-.44a30.58,30.58,0,0,1-4.4-1.14c-.78-.24-1.5-.63-2.25-.94-.21-.08-1.95-.48-2-.53a8.07,8.07,0,0,0,2,2.9C44.7,60.85,45.64,62.47,46.83,63.23ZM17.6,62.11a55.57,55.57,0,0,0,2.73,6.29,1.63,1.63,0,0,0,.48.65,1.72,1.72,0,0,0,.59.25l1.92.51a42.14,42.14,0,0,0-2.93-8.22c-.9-1.88-2.3-2.5-4.1-3.37A19.78,19.78,0,0,0,17.6,62.11Zm6.84,26a54.13,54.13,0,0,0,3.4,5.21,5.55,5.55,0,0,1,1.21-3l-4.92-7.6c-.34-.53-.69-1.24-.31-1.75a5.8,5.8,0,0,0,2.42,1c-.44-1.46-.87-2.91-1.3-4.37a1.33,1.33,0,0,0-.36-.67,4.38,4.38,0,0,0-.7-.31,1.74,1.74,0,0,1-.64-1.26,6.06,6.06,0,0,0-.67-2.53c-.66-.87-1.88-.48-2.89-.64.23,1.63.5,3.15.87,4.76A42.84,42.84,0,0,0,24.44,88.07ZM37.09,9.61a22.78,22.78,0,0,0,1.64,2.78,33.51,33.51,0,0,1,2.59,3.37c1,1.72,1.12,3.75,1.64,5.64a30.42,30.42,0,0,0,3.09,6.68,10,10,0,0,0,1.41,2.06,14.23,14.23,0,0,0,1.84,1.44,15.17,15.17,0,0,1,3.46,3.6,7.77,7.77,0,0,0,1,1.34c.43.41,1,.68,1.38,1.11,1.12,1.14,1.08,3.09,2.24,4.2q-1.65-5.59-3.29-11.19A2.49,2.49,0,0,0,52.92,29a17.34,17.34,0,0,0-3.06-2,12.07,12.07,0,0,1-2.1-1,7.82,7.82,0,0,1-2.28-3.59,65.14,65.14,0,0,0-4.59-9c-1.83-3-3.73-6.35-6.39-8.7A37.52,37.52,0,0,0,37.09,9.61Zm22,23.62A8.67,8.67,0,0,1,65,35.13c1.73,1.23,3.24,2.75,5,3.87A9.71,9.71,0,0,1,70,34.39a8.11,8.11,0,0,0,3.72,1.06c-2.85-3.17-6.71-5.19-10.4-7.32a11.57,11.57,0,0,1-1.89-1.27,5.78,5.78,0,0,1-1.88-3.78c0,.24-2.55.1-2.87,0-1.18-.37-2-1.48-3.19-1.85.65,2.07,1.94,3.64,2.82,5.56C56.54,27.37,58.86,33.25,59.12,33.23ZM78.43,50.87c-1.14-1.07-1.14-3.7-1.64-5.12-.29-.83-.52-1.52-1.45-1.69s-2.5.78-3.15.45c1.42.72,2.17,2.49,3.26,3.62C76.39,49.1,77.44,50,78.43,50.87ZM98,52.66c.49.83,2.29,1.45,3.1,1.84a5.49,5.49,0,0,1-2,1.33,25,25,0,0,1,1.61,3.81.8.8,0,0,1,.92-.1c-.1,2.32,1.62,3.56,2.11,5.62-.82-3.45-.31-7.18-1.4-10.53a18.69,18.69,0,0,0-.69-1.75c-1-2.37-2-4.74-3-7.1a34.44,34.44,0,0,1-.56,4.39A5.57,5.57,0,0,0,98,52.6Zm-22,18.74a14.86,14.86,0,0,0,2.38.06l.79.05a11.21,11.21,0,0,1-2.3-1.19c-.94-.48-1.78-1.14-2.73-1.62.37.66.88,2.2,1.54,2.58A1.07,1.07,0,0,0,76.07,71.4ZM86.55,82.14A3.56,3.56,0,0,0,87,83a3.62,3.62,0,0,0,1.17.87,19.2,19.2,0,0,1,4,3.08l.87-3.41q3.33,3.2,6.59,6.44a11.36,11.36,0,0,1,2.23,2.76,9.76,9.76,0,0,1,.81,2.66,26.38,26.38,0,0,1,.41,4.26l-.72-.13a1.62,1.62,0,0,0,0,1.76,2.83,2.83,0,0,1,.45,1.78c.29-.46.77-1,1.26-.77a1.13,1.13,0,0,1,.43.41l2.38,3.29a4.32,4.32,0,0,0,1.13,1.2,1.44,1.44,0,0,0,1.56,0c-2.88-5.14-3-11.69-6.72-16.25-2.24-2.73-5.52-4.39-8-6.89a41.68,41.68,0,0,0-3.93-4,2.48,2.48,0,0,0-.74-.42,2.59,2.59,0,0,0-1-.07c-1,0-2.18.36-3.12-.16a3.06,3.06,0,0,1-.71-.58c-1.26-1.33-2.14-3.11-3.76-4,.9.48,2,2.31,2.62,3.13A19.68,19.68,0,0,1,86.55,82.14Zm4.22,35.47a16.14,16.14,0,0,0-.09,2.3,11.26,11.26,0,0,0,2,4.88,10.83,10.83,0,0,1,.47-3.25,9.67,9.67,0,0,0,.48-1.83,6.52,6.52,0,0,0-.73-3l-2.23-5.23a9.39,9.39,0,0,0-1.45-2.61c-.73-.83-1.7-1.4-2.37-2.29.24.79,1,1.38,1.46,2a14.9,14.9,0,0,1,2.46,9ZM44.56,111c.35.63.78,1.32,1.47,1.49a5.93,5.93,0,0,1,.73.16,1.75,1.75,0,0,1,.54.44l3.15,3.33c1,1.1,2.07,2.2,3,3.39,1.47,1.92,2.78,4.18,5,5.08-3.38-5.55-6.79-11.15-11.21-15.91a4.92,4.92,0,0,1-1.56,1.52c-.54,0-2.52-3.45-2.91-4-1-1.37-2-2.77-3-4.11C40.88,105.36,43,108.22,44.56,111Z"/><path class="cls-11" d="M99.16,79.29a6.45,6.45,0,0,0,2.49,1.29,2.61,2.61,0,0,0,2.57-.77,3.69,3.69,0,0,0,.47-2.66,22.29,22.29,0,0,0-6.64-13.64,4,4,0,0,0-1.36-1,4.57,4.57,0,0,0-2.71.11,4,4,0,0,0-2.73,1.53c-1,1.78,1.2,6.64,2.06,8.33A20,20,0,0,0,99.16,79.29Z"/><path class="cls-11" d="M86.76,72.6a2,2,0,0,0,2-.41,2.72,2.72,0,0,0,.35-2.46,11.49,11.49,0,0,0-1.21-3.22,5.65,5.65,0,0,0-1.71-2c-2.35-1.61-4.86.74-4.15,3.27A9.71,9.71,0,0,0,86.76,72.6Z"/><path class="cls-12" d="M64.56,117.51a5.27,5.27,0,0,0,2.45.3c1.88-.32,3.08-2.35,3.07-4.25a10.12,10.12,0,0,0-2-5.27,17.3,17.3,0,0,0-2.92-3.62A10.77,10.77,0,0,0,58.67,102c-4.14-.22-6.23,4.26-4.23,7.56A18.55,18.55,0,0,0,64.56,117.51Z"/></g></g></g></svg>
