<svg id="Capa_1" enable-background="new 0 0 512 512" height="512" viewBox="0 0 512 512" width="512" xmlns="http://www.w3.org/2000/svg"><g><path d="m301 82.5h30v90h-30z" fill="#ff7a41"/><path d="m181 82.5h30v90h-30z" fill="#ff974f"/><path d="m414.5 7.5h-30l-15 25.785 15 25.784 30-6.569z" fill="#ffb590"/><path d="m346 7.5-90 15-90-15h-68.5v45l68.5 15h180l38.5-8.431v-51.569z" fill="#ffe7b5"/><path d="m316 7.5-60 75h90v-75z" fill="#cc3245"/><path d="m166 7.5h150v75h-150z" fill="#ff3e3a"/><path d="m346 67.5h-30v30h30c8.284 0 15-6.716 15-15s-6.716-15-15-15z" fill="#ff974f"/><path d="m331 82.5c0-8.284-6.716-15-15-15h-150c-8.284 0-15 6.716-15 15s6.716 15 15 15h150c8.284 0 15-6.716 15-15z" fill="#ffb35c"/><circle cx="256" cy="316" fill="#ffb35c" r="188.5"/><circle cx="256" cy="316" fill="#ff7a41" r="158.5"/><path d="m256 187.5v257c70.969 0 128.5-57.531 128.5-128.5s-57.531-128.5-128.5-128.5z" fill="#ffd06a"/><path d="m354.5 316c0-70.969-44.1-128.5-98.5-128.5-70.969 0-128.5 57.531-128.5 128.5s57.531 128.5 128.5 128.5c54.4 0 98.5-57.531 98.5-128.5z" fill="#ffe7b5"/><path d="m308.918 281.179-24.89-3.749-28.028-56.055-28.028 56.055-61.972 9.334 44.651 43.978-10.274 61.823 55.623-28.875 22.341 11.597z" fill="#ffb35c"/><path d="m301.349 330.742 44.651-43.978-37.082-5.585-39.716 39.117 9.139 54.991 33.282 17.278z" fill="#ff974f"/><path d="m256 150c-38.543 0-76.099 13.51-105.75 38.04-3.191 2.64-3.638 7.367-.997 10.559 2.639 3.191 7.367 3.639 10.56.998 26.966-22.31 61.126-34.597 96.187-34.597 83.262 0 151 67.738 151 151s-67.738 151-151 151-151-67.738-151-151c0-35.061 12.287-69.221 34.597-96.188 2.641-3.192 2.194-7.92-.998-10.56-3.191-2.64-7.92-2.193-10.559.997-24.53 29.652-38.04 67.208-38.04 105.751 0 91.532 74.468 166 166 166s166-74.468 166-166-74.468-166-166-166z"/><path d="m256 452c74.99 0 136-61.01 136-136s-61.01-136-136-136-136 61.01-136 136 61.01 136 136 136zm0-257c66.72 0 121 54.28 121 121s-54.28 121-121 121-121-54.28-121-121 54.28-121 121-121z"/><path d="m160.737 292.107 41.876 41.245-9.635 57.983c-.466 2.803.691 5.627 2.99 7.297 2.297 1.669 5.34 1.898 7.864.589l52.168-27.081 52.167 27.082c1.089.565 2.274.844 3.455.844 1.556 0 3.104-.483 4.409-1.433 2.299-1.67 3.456-4.494 2.99-7.297l-9.635-57.983 41.876-41.245c2.024-1.994 2.748-4.96 1.87-7.661-.878-2.702-3.207-4.676-6.016-5.099l-58.123-8.755-26.286-52.572c-1.271-2.54-3.867-4.146-6.708-4.146s-5.438 1.605-6.708 4.146l-26.286 52.572-58.123 8.755c-2.809.423-5.138 2.396-6.016 5.099-.877 2.7-.153 5.666 1.871 7.66zm68.353-7.261c2.413-.363 4.499-1.879 5.591-4.062l21.319-42.638 21.319 42.639c1.092 2.183 3.178 3.698 5.591 4.062l47.141 7.101-33.964 33.451c-1.739 1.713-2.536 4.165-2.136 6.573l7.814 47.027-42.31-21.965c-1.084-.563-2.27-.844-3.456-.844s-2.372.281-3.456.844l-42.31 21.965 7.814-47.027c.4-2.408-.396-4.86-2.136-6.573l-33.964-33.451z"/><path d="m338.5 138.235v-33.235h7.5c12.406 0 22.5-10.094 22.5-22.5 0-4.22-1.17-8.17-3.199-11.549l50.804-11.125c3.442-.754 5.895-3.802 5.895-7.326v-45c0-4.143-3.357-7.5-7.5-7.5h-317c-4.143 0-7.5 3.357-7.5 7.5v45c0 3.524 2.453 6.572 5.896 7.326l50.804 11.125c-2.03 3.379-3.2 7.329-3.2 11.549 0 12.406 10.094 22.5 22.5 22.5h7.5v33.235c-66.966 31.204-113.5 99.146-113.5 177.765 0 108.075 87.925 196 196 196s196-87.925 196-196c0-78.619-46.534-146.561-113.5-177.765zm-15-6.255c-4.91-1.807-9.916-3.414-15-4.83v-22.15h15zm-30-26.98v18.614c-12.143-2.362-24.677-3.614-37.5-3.614s-25.357 1.252-37.5 3.614v-18.614zm-120-90h165v45h-165zm233.5 31.465-53.5 11.715v-43.18h53.5zm-302-31.465h53.5v43.18l-53.5-11.715zm53.5 67.5c0-4.136 3.364-7.5 7.5-7.5h180c4.136 0 7.5 3.364 7.5 7.5s-3.364 7.5-7.5 7.5h-180c-4.136 0-7.5-3.364-7.5-7.5zm30 22.5h15v22.151c-5.084 1.415-10.09 3.023-15 4.83zm67.5 392c-99.804 0-181-81.196-181-181s81.196-181 181-181 181 81.196 181 181-81.196 181-181 181z"/></g></svg>