<svg xmlns="http://www.w3.org/2000/svg" viewBox="0 0 871 915.01"><defs><style>.pj-1-1{fill:#b2d9db;}.pj-1-2{fill:#40a86f;}.pj-1-3{fill:#a07f7a;}.pj-1-4{fill:#785f59;}.pj-1-5{fill:#4e8466;}.pj-1-6{fill:#e5bb8c;}.pj-1-7{fill:#31383f;}.pj-1-8{fill:#508293;}.pj-1-9{fill:#75cca2;}.pj-1-10{fill:#a8886a;}.pj-1-11{fill:#fff;opacity:0.36;}</style></defs><g id="Capa_2" data-name="Capa 2"><g id="Layer_2" data-name="Layer 2"><path class="pj-1-1" d="M446.09,881.42C446.09,900,356.32,915,245.6,915S45.11,900,45.11,881.42s89.76-33.58,200.49-33.58S446.09,862.87,446.09,881.42Z"/><path class="pj-1-2" d="M701.59,83.15c-.22.68-.44,1.36-.67,2A39.65,39.65,0,0,1,718.47,79a25.08,25.08,0,0,0-5.77,8.64l1.59-.71A25.41,25.41,0,0,0,711,98.55a4.91,4.91,0,0,1-.72,3,4,4,0,0,1-3.09,1.07c-4.6.09-12.34-2-14-7S697.34,84.94,701.59,83.15Z"/><path class="pj-1-3" d="M697.18,114c-16.87-12.06-39.85-9.71-60.1-5.29a404.67,404.67,0,0,0-54.79,16.1c-5.81,2.16-11.93,4.73-15.41,9.86a18.6,18.6,0,0,0,16.36,2.87c.38,3.36,3.62,5.82,7,6.44s6.74-.21,10-1c-1.68,1.9-.89,5.09,1,6.76s4.54,2.19,7.06,2.49c21.52,2.63,44.63-4.85,64.37,4.11,8.46,3.84,15.61,10.5,24.56,13,17.42,4.88,39.44-10.55,35.69-29.8-1.5-7.7-6.29-9-13-11.31C710.78,125,704.93,119.51,697.18,114Z"/><path class="pj-1-4" d="M727.79,228.14c1.67,7.78,3.43,15.77,7.87,22.38l3.56-2.14a48.71,48.71,0,0,0,11.93,27.34c5-2.45,5.1-9.45,4.44-15l-7.83-65.67c-.82-6.9-1.74-14.08-5.55-19.9s-11.42-9.77-17.85-7.12c-5.49,2.26-8.39,8.66-8.17,14.59.25,6.94,4.37,12.63,6.11,19.13C724.6,210.35,725.92,219.42,727.79,228.14Z"/><path class="pj-1-4" d="M688.79,121.49a9.82,9.82,0,0,1,3.72,1.34,6.46,6.46,0,0,1,2,5.34c-.87,21.29-.21,48.84,6.35,58,4,5.59,16.07,6.43,22.83,7.68s13.81,1.65,20,4.54c5-19.48-.9-39.93-6.79-59.17-3.36-11-6.85-22.2-13.83-31.31s-21.77-18.23-33.71-14.5C676.16,97.57,674.42,117.73,688.79,121.49Z"/><path class="pj-1-5" d="M668.24,345.72s14.67,9,25.14-51.42,21.06-113-6.5-110.64-44,47.26-44,47.26,9.86,73.24,9.86,75.09,15.53,39.71,15.53,39.71Z"/><path class="pj-1-6" d="M778.76,215.75c1.56,1.19,3.28,2.9,2.78,4.81-2.9.67-5.9-.29-8.73-1.23L739.08,208.1c2,1.79,1.91,5.05.59,7.37s-3.58,3.9-5.78,5.41c-6.06,4.17-12.39,8.45-19.65,9.66-6,1-12.07-.17-18-1.34-10.92-2.15-23-5.08-29-14.45-5-7.74-4-22.79,4.68-28.07,8.23-5,25.28-1.7,34.35-.54A151.81,151.81,0,0,1,778.76,215.75Z"/><path class="pj-1-2" d="M462.28,200.7l94.12,43.83s66.91-48.84,93.45-56.18,40.59-4.67,40.59-4.67-13.15-1.9-22.66,54.84c-13,77.69.46,107.2.46,107.2s-14.67-24.09-50.14-42.36c-34.45-17.75-62.86-7.26-62.86-7.26l-82.88-59.51Z"/><path class="pj-1-4" d="M741,106.75c17-11.84,40-9.2,60.16-4.51A406.26,406.26,0,0,1,855.72,119c5.78,2.24,11.86,4.89,15.28,10.06a18.58,18.58,0,0,1-16.4,2.66c-.43,3.36-3.7,5.78-7,6.35s-6.73-.3-10-1.16c1.65,1.93.83,5.1-1.1,6.75s-4.57,2.12-7.09,2.4c-21.55,2.35-44.56-5.43-64.41,3.28-8.51,3.73-15.75,10.29-24.73,12.68-17.48,4.66-39.3-11.05-35.3-30.25,1.6-7.68,6.4-8.91,13.11-11.14C727.23,117.61,733.15,112.19,741,106.75Z"/><path class="pj-1-4" d="M700.28,189.84a1.27,1.27,0,0,0,.16.77,1,1,0,0,0,1.24.22,2.87,2.87,0,0,0,1-1c-.27.59-.53,1.33-.13,1.85a1.23,1.23,0,0,0,1.51.22,3.48,3.48,0,0,0,1.16-1.16c.18.56-.09,1.28.35,1.66s1.06,0,1.49-.32a12.2,12.2,0,0,0,3.29-4.37,2.82,2.82,0,0,0,.14-2.58c-1-1.59-5.19-1.49-6.78-.85C701.68,185.13,700.33,187.79,700.28,189.84Z"/><path class="pj-1-4" d="M719,193.28a1.34,1.34,0,0,0,.16.77,1,1,0,0,0,1.24.22,2.87,2.87,0,0,0,1-1c-.28.59-.54,1.33-.14,1.84a1.23,1.23,0,0,0,1.51.22,3.67,3.67,0,0,0,1.17-1.15c.17.55-.1,1.28.34,1.66s1.07,0,1.5-.33A12.23,12.23,0,0,0,729,191.2a2.79,2.79,0,0,0,.15-2.58c-1-1.6-5.19-1.49-6.78-.85C720.38,188.57,719,191.24,719,193.28Z"/><path class="pj-1-4" d="M679.07,105.09s-23,17-22.23,18.68,9.07-3.21,15.69-3.78,11.7-.56,11.7-.56Z"/><path class="pj-1-2" d="M694.93,154a4.09,4.09,0,0,0,1.79,2.42c.93.44,2.34-.19,2.22-1.21a11.56,11.56,0,0,0,.94,4.33,3.85,3.85,0,0,0,3.54,2.26c1.82-.16,3-2,3.77-3.6a37.28,37.28,0,0,0,3.15-10.51,7.89,7.89,0,0,0,.43,3.28,2.68,2.68,0,0,0,2.6,1.72,3.66,3.66,0,0,0,2.21-1.65c6.59-8.53,7.69-20,7.58-30.79a73.89,73.89,0,0,1-4.64,7.48c-.92,1.3-2,2.65-3.54,3.07s-3.54-.69-3.38-2.27a19.68,19.68,0,0,1-4.93,6.45,9.15,9.15,0,0,1-7.65,2,6.35,6.35,0,0,1-4.55-4.39C691.29,138.39,692.64,148,694.93,154Z"/><path class="pj-1-7" d="M698,103.58a3.2,3.2,0,1,1-3.2-3.2A3.19,3.19,0,0,1,698,103.58Z"/><path class="pj-1-8" d="M490.12,213.72c12.31,4.87,29.67,13.9,41.08,19.07-5.06,10.71-11.45,24.14-14.63,35.55-7.72-4.23-13.42-8.37-20.12-12C480.94,247.86,485.31,227.36,490.12,213.72Z"/><path class="pj-1-4" d="M499.94,51.34c-.86-8-3-16-7.61-22.57-3.83-5.44-9.17-9.64-14.8-13.18A102.63,102.63,0,0,0,452.07,4.27c-20.19-6-79.57-16.16-189.18,53.85-46.54,29.73-101.58,50.26-156.71,46.94l16.5,22.3A296.41,296.41,0,0,1,0,142.31c16.27,25,41.4,43.31,68.44,56s56.16,20.14,85.12,27.44a96.46,96.46,0,0,1-33.19,11.44c29.43,4.86,91.32,4.56,120.28-2.56,70.11-17.22,99.88-28.12,159.74-71a234.46,234.46,0,0,0,69.39-45c12.15-11.42,23.39-24.7,28.08-40.73A68.48,68.48,0,0,0,499.94,51.34Z"/><path class="pj-1-8" d="M147.92,778.36c-1.23,1.15-27.44-4.23-29.76,3.14s.55,17.61-6.43,44.93S78,882.31,85,882.31s27-11.69,44.4-33.79,34.63-54,34.63-54Z"/><path class="pj-1-8" d="M157.14,800.48S241,726.7,303,670.6c73.6-66.53,183.45-237.81,183.45-237.81l-50.72-30s-50.34,39.89-125.22,168.49C226.41,715.82,129.39,794.89,129.39,794.89Z"/><path class="pj-1-8" d="M396.61,733.9c-.62,1.88-48,99.54-45.49,107.06s29.24,21.06,48.24,28.19c12.48,4.69,25,6.43,33.08,9.63a1.77,1.77,0,0,1-.68,3.42c-28.5-.39-115.51-1.86-120.74-5.53-6.27-4.38,8.77-22.55,14.41-36.34S355.67,735.9,355.67,735.9Z"/><polygon class="pj-1-6" points="426.22 126.1 404.96 184.62 449.33 195.74 462.28 126.1 426.22 126.1"/><path class="pj-1-9" d="M397.16,741.41s71.9-181.34,87.59-234.28,31.37-240.45,14.38-280c-8.48-19.74-27.16-40-46.66-51.05-2.26-1.28-39.06-14.68-39.06-14.68S384.08,177,377.55,199.24c-2.88,9.8,42.26,95.49,27.41,141.25C339.77,541.43,20.06,584.41,20.06,584.41s0,47.63,48.55,90.25c23.49,20.62,60.54,39.71,60.54,39.71s72.51-36.21,120.28-66.86c77.13-49.5,151.29-95,151.29-95s-21.87,61.14-48,103-52.3,85.88-52.3,85.88Z"/><path class="pj-1-10" d="M424.24,135.89c1,4,2.13,8.07,4.44,11.48s6.11,6.12,10.24,6a14.87,14.87,0,0,0,7-2.54,37.55,37.55,0,0,0,16.89-24.08c.82-4,.91-8.43-1.28-11.88-1.87-2.93-5.13-4.72-8.45-5.78a29.32,29.32,0,0,0-24.43,3.62C418.43,119.37,421.48,125.37,424.24,135.89Z"/><path class="pj-1-6" d="M424,21c-28.72,5.32-45,18.84-41.88,45.68s32.74,76.56,63.31,70.25,37-58.64,36.61-77.3S472.44,12,424,21Z"/><path class="pj-1-6" d="M471.36,47.94s3.19-.89,11.42-9.28a74.2,74.2,0,0,0,12.88-18.4s1.1,11.12-2.78,27.48c-4.2,17.69-15.22,38.38-15.22,38.38Z"/><path class="pj-1-6" d="M387.32,64.8s-3.23.71-14.45-2.79a74.4,74.4,0,0,1-20-10.14s4.28,10.32,15.43,22.91c12.06,13.61,31.54,26.64,31.54,26.64Z"/><path class="pj-1-3" d="M483.6,19.82c-2-1.52-4-2.92-6.07-4.23A102.86,102.86,0,0,0,452.06,4.27c-20.18-6-79.56-16.16-189.17,53.85-46.54,29.73-101.58,50.26-156.71,46.94q7.2,9.73,14.41,19.48a90.62,90.62,0,0,0,26.53,6.69c19.51,2,39.13-1.4,58.37-5.17,29.6-5.79,59.67-12.84,85.14-29,34.13-21.65,58.49-58.69,96.6-72.17C417.73,14.1,451.2,20.53,483.6,19.82Z"/><path class="pj-1-7" d="M131.33,805c2.15-7.57,9.25-18.45,9.2-26.94-8.3-.72-20.8-1.57-22.37,3.42-2.33,7.37.55,17.61-6.43,44.93S78,882.31,85,882.31c4.64,0,15.05-5.19,26.64-15.17.55-1.34,1.09-2.67,1.63-4,4.18-10.33,8.36-20.69,11.39-31.42C127.14,822.88,128.83,813.85,131.33,805Z"/><path class="pj-1-7" d="M432.44,878.78c-8-3.2-20.6-4.94-33.08-9.63-4-1.5-8.37-3.3-12.78-5.26-16.76-1-33.54-1.94-50.16-4.46-6.43-1-12.35-3.18-18.38-5-5.75,10-11.26,19.23-7,22.2,5.23,3.67,92.24,5.14,120.74,5.53A1.77,1.77,0,0,0,432.44,878.78Z"/><path class="pj-1-4" d="M407.28,326.42s13.43,6.16,45.23,7.07S506,326.42,506,326.42l-1.75,47.42s-13.44,8.66-46.73,6.05-58.38-24.41-58.38-24.41Z"/><path class="pj-1-4" d="M369.66,511.65c-.39-2.86,26.2-158.9,29.44-156.17s13.27,5.37,13.27,5.37L380.2,511.65l-10.55,3.16S427,496.93,428,494s50.63-117,50.63-117l20.55-3.49-63.22,125.7-63.84,23.6Z"/><path class="pj-1-6" d="M451.18,456.11c2.22-3.35-6.21-15.61-9.95-22.43,15.35,15.82,37.45,38.67,38.7,36.38,3.57,0,.34-8.45-1.71-10.48,5.68,4.08,13.5,15.21,16.1,13.26,1.44-.89.75-3.09-.1-4.55-13.9-23.67-35.13-50.24-55.4-68.74-3-2.72-14.28-3.65-17.66-1.45-3.66,2.38-5.27,7.14-4.78,11.49,1.14,10.18,10.18,17,15.47,25S449.68,459.89,451.18,456.11Z"/><path class="pj-1-2" d="M397.35,179.12c-14.26,2.11-98.24,106.12-98.24,106.12s28.76,20,41.83,74.46-2.61,114.4-2.61,114.4,26.52-10.28,59-33.58S445.09,392,445.09,392L355.32,285.24s55.36-37.91,66.25-59.51S425,175,397.35,179.12Z"/><path class="pj-1-8" d="M368.7,243.46a42.24,42.24,0,0,1,14.22,21.38c5.77-4.58,11.79-9.58,17.38-14.63-3.42-15.55-17-29.2-33.7-31.42a37.23,37.23,0,0,0-11.4.33c-4.45,5-9,10.12-13.39,15.24C350.76,236.65,360.24,236.69,368.7,243.46Z"/><path class="pj-1-8" d="M77.92,630.63c16.63,21,62.42,57.31,79.19,69.2,12.53-6.57,28-14.86,43.92-23.77-46.17-20.6-89.83-61-111.67-106-16.86,4.32-31.52,7.51-43,9.77C52.35,595.38,70.66,621.48,77.92,630.63Z"/><path class="pj-1-8" d="M421.07,681.46A228.24,228.24,0,0,1,334.3,686c-5.65,9.23-11,18-15.62,25.69,7.06.94,16.45.12,20.37.12l70.19,0C412.68,703,416.7,692.73,421.07,681.46Z"/><path class="pj-1-4" d="M452.1,58.53c-1.71,1.42-3.54,3.43-2.91,5.57,2.32-.14,4.21-1.83,6-3.35a77.45,77.45,0,0,1,15.7-10.51,3.51,3.51,0,0,0,2-1.79c1.27-4-9,1.92-9.84,2.42A81.41,81.41,0,0,0,452.1,58.53Z"/><path class="pj-1-4" d="M416.32,61.82c2,1,4.15,2.67,4,4.89-2.31.32-4.49-1-6.52-2.1a76.77,76.77,0,0,0-17.47-7.2A3.59,3.59,0,0,1,394,56.05c-2-3.71,9.2.11,10.13.43A82,82,0,0,1,416.32,61.82Z"/><path class="pj-1-7" d="M453.21,75.27a22.41,22.41,0,0,1,7.38-11.95c6.1-5.07,15.15-6.36,15.15-6.36a27.65,27.65,0,0,1-7.9,10.77C459.85,74.1,453.21,75.27,453.21,75.27Z"/><path class="pj-1-7" d="M423.23,80.29a22.44,22.44,0,0,0-11-8.75c-7.46-2.72-16.41-.87-16.41-.87a27.71,27.71,0,0,0,11.07,7.47C416.59,81.44,423.23,80.29,423.23,80.29Z"/><path class="pj-1-10" d="M454.41,95.93c-6.09-11.1-11.16-21.82-13.9-34.18-1,5.92.46,11.93,1.65,17.81.78,3.89,2.93,14,2.77,14.74a7,7,0,0,1-4.3,4.91A73.09,73.09,0,0,0,454.41,95.93Z"/><path class="pj-1-10" d="M455,112.48a18.82,18.82,0,0,0,7-4.55c0,.54-10.9,2.73-16.25,3.87-2.54.54-12.86,2.31-16.24,3.21a41.1,41.1,0,0,0,13.36.75A47.42,47.42,0,0,0,455,112.48Z"/><path class="pj-1-10" d="M452.59,116.38a3.44,3.44,0,0,0,.51,3.37,29,29,0,0,0-10.7,2.38,5.44,5.44,0,0,0-.24-3.52,31,31,0,0,0,4.93-.64C448.75,117.64,451.52,117.29,452.59,116.38Z"/><path class="pj-1-3" d="M415.89,37.74c-16.09,18.34-9.63,28.18-14.61,40.63-11.22,28-27.52,48.77-55.3,60.48-26.42,11.14-56.13,12-83.06,21.87-23,8.43-43.5,23.24-67.09,29.94-36.89,10.48-76.12-.07-113-10.58,24.64,4.09,50.34,8.11,74.22.8,26.13-8,46.46-28.44,70.95-40.55,23.2-11.47,49.38-15.12,75.07-18.25,13.42-1.64,27-3.22,39.64-8.11S367,100.42,372.64,88.11C380,72,376,52,385.36,37a40.33,40.33,0,0,1,30.81-18.6c12.33-.82,29.82.05,35.65,1.88C441,24.09,428,23.93,415.89,37.74Z"/><path class="pj-1-11" d="M377.54,204.64l-41.12,44.22a17.39,17.39,0,0,0-4.07,5.8c-.78,2.25-.44,5.07,1.43,6.53,3.26,2.55,7.82-.49,10.83-3.33a303.05,303.05,0,0,1,34.49-28c9-6.31,18.72-12.41,24.67-21.69,3.93-6.13,4.61-16.09-4.18-18.12C391.05,188.06,382.42,199.38,377.54,204.64Z"/><path class="pj-1-11" d="M54.44,585.21c-5.49,1.06-11.35,2.3-15.23,6.33a16.8,16.8,0,0,0-4.31,11.59c0,13.62,13.38,24.26,26.9,25.84s26.85-3.56,39.32-9c51-22.35,98.76-51.43,146.32-80.41,7.95-4.85,16.72-10.88,18-20.11-11.58-.62-22.16,5.86-32.32,11.44C178.84,560.63,114.55,573.67,54.44,585.21Z"/><polygon class="pj-1-7" points="442.16 486.32 151.34 575.96 116.39 596.54 152.97 595.05 448.1 504.45 442.16 486.32"/><polygon class="pj-1-7" points="434.65 488.63 417.71 502.14 438.17 507.5 448.1 504.45 442.16 486.32 434.65 488.63"/><path class="pj-1-7" d="M454.26,531.4c2.14-5.92,1.83-12.46.66-18.64-1.11-5.87-8.27-29.52-10.79-35.29s-5.93-11.34-11-15-12.12-5.17-17.82-2.5a18.54,18.54,0,0,0-5.51,4.17c-2.28,2.45-4.13,5.51-4.28,8.85-.18,4.23,3,8.83,7.84,8,2.37-2.07,1-3.28.44-4.72-.82-2.21.67-4.82,2.85-5.7a7.33,7.33,0,0,1,6.69,1,16.72,16.72,0,0,1,4.57,5.31c3.61,6,4.43,13.42,7.88,19.23a8.14,8.14,0,0,0,2.07,2.6,7.51,7.51,0,0,0-.3,3.43c.42,6.75,3.93,13.36,4.31,20.34a16.49,16.49,0,0,1-.79,6.95,7.28,7.28,0,0,1-4.94,4.63c-2.3.5-5-.82-5.57-3.1-.37-1.49.11-3.29-3-3.66-4.5,2-4.54,7.59-2,11,2,2.68,5.26,4.17,8.52,4.91a18.24,18.24,0,0,0,6.9.34C447.15,542.49,452.13,537.32,454.26,531.4Z"/><path class="pj-1-7" d="M477.53,473c3.06-1.5,6.28-3.09,9.68-2.9a11.71,11.71,0,0,1,8.42,4.8,18.89,18.89,0,0,1,3.43,9.27c.21,1.86.19,3.9-.95,5.38-1.31,1.72-3.79,2.27-5.55,2.87a23.41,23.41,0,0,1-7.69,1.32c-12.14,0-23.43,4.42-34.85,8-4.72,1.47-8-2.83-8.68-7.23-.78-4.73,2.6-6.9,6.47-8.64C457.66,481.38,467.8,477.73,477.53,473Z"/><path class="pj-1-11" d="M310,481.05l-26.37,19c-2.7,1.95-5.45,3.95-7.36,6.68a15,15,0,0,0-2.69,8.45,8.15,8.15,0,0,0,1.9,5.73c3,3.15,8.25,1.78,12.19-.07a200.52,200.52,0,0,0,21.4-12.23c5-3.13,10-6.26,14.71-9.79s9.12-7.64,10.26-13.23c1-4.84-2.2-11.36-7.41-12.4C321,472.08,314.22,478,310,481.05Z"/></g></g></svg>
