<svg xmlns="http://www.w3.org/2000/svg" viewBox="0 0 1152.02 1197.26"><defs><style>.pj-2-1{fill:#b2d9db;}.pj-2-2{fill:#8598a8;}.pj-2-3{fill:#31383f;}.pj-2-4{fill:#576370;}.pj-2-5{fill:#707e91;}.pj-2-6{fill:#bebfbb;}.pj-2-7{fill:#4c5760;}.pj-2-8{opacity:0.36;}.pj-2-9{fill:#fff;}</style></defs><g id="Capa_2" data-name="Capa 2"><g id="Layer_2" data-name="Layer 2"><ellipse class="pj-2-1" cx="810.5" cy="1140.48" rx="341.52" ry="56.78"/><path class="pj-2-2" d="M543.14,99.21c-2.38-4.78-.79-10.54,1.2-15.5C558.64,48.13,590.55,23.19,621.09,0a118.67,118.67,0,0,0-40.38,62.1c-1.5,5.7-2.33,12.47,1.61,16.85,2.11,2.34,5.2,3.5,8.18,4.52a238.83,238.83,0,0,0,33.38,8.74c-6.36,10.69-11.19,40-25.32,40.18C583.61,132.58,545.1,103.12,543.14,99.21Z"/><path class="pj-2-2" d="M820.48,98.34c2.33-4.81.66-10.55-1.39-15.48C804.32,47.47,772.1,23,741.26.15a118.75,118.75,0,0,1,41.18,61.57c1.57,5.68,2.49,12.44-1.4,16.87-2.07,2.37-5.15,3.57-8.12,4.63a239,239,0,0,1-33.26,9.17c6.5,10.61,11.71,39.84,25.84,39.84C780.46,132.24,818.58,102.28,820.48,98.34Z"/><path class="pj-2-3" d="M395.67,368.81C318.19,522.89,168.57,638.74,0,675.19c2.84,48.39,28.74,93.9,65.58,125.4s83.81,49.73,131.72,57c6.21,1,12.75,1.84,17.79,5.6,6,4.48,8.62,12,11.45,19C246.13,930.3,290,965.77,338.6,984s101.79,20.86,153.61,17.53c19.83-1.28,39.9-3.38,59.41.32,16.76,3.18,32.39,10.51,48.22,16.85,139.35,55.74,296,35.09,444.56,13.57C1019.21,951.39,994,870.41,975.2,787.8a1622.2,1622.2,0,0,1-39.41-414.21c.74-21.88,1.06-46.28-13.71-62.43-10-11-25-15.67-39.33-19.71-76-21.47-154.29-37.06-233.22-36-50.13.68-100.47,8.3-147.89,24.83C446.77,299.43,421.48,317.48,395.67,368.81Z"/><path class="pj-2-4" d="M369.28,576.29c-.38,12.48-.17,25.58,5.83,36.53s19.65,18.71,31.22,14,15.86-18.75,18.77-31c9.8-41.18,21.46-82.54,43.16-118.89s52.33-66,83.45-94.52c9.23-8.46,18.69-17,24.91-27.89s8.73-24.64,3.36-35.95c-4.84-10.17-15-16.63-25.23-21.42-21.62-10.18-50.06-18.05-74.22-15.08-20.62,2.53-31.72,31.53-41.38,48.37A531.76,531.76,0,0,0,380.48,484,521.71,521.71,0,0,0,369.28,576.29Z"/><path class="pj-2-4" d="M694.57,633.91c-6.71-19.4-21.37-37.14-41.2-42.46-10.58-2.84-21.76-2-32.63-.69-55.46,6.71-40,86-32.76,123.58,43.94,228.16,24.79,334.57,32.77,379.11,2.72,15.18,18.42-2.74,23.68,11.77,16.44-61.59,36-112.75,49.88-175,5.61-25-11.78-74.09-19.1-80.29C690,799.63,697.87,747.3,700.29,694.86,701.23,674.35,701.28,653.32,694.57,633.91Z"/><path class="pj-2-4" d="M908.52,902.88c-5.79-14.87-31.77-91.56-51.5-223a130.17,130.17,0,0,0-23.15-56.67c-12-16.62-31.22-29.35-51.74-28.69-10.94.35-21.41,4.39-31.43,8.8-51.13,22.51-10.59,92.55,4.49,127.77,20,46.74,40.33,93.93,70.16,135-6.11,11.56-9.81,46.2,5.61,69.44,26.72,40.25,75.66,82.86,106.34,116.11,10.46,11.34,21.13,22.61,33.36,32C951.39,1022.93,931.65,962.28,908.52,902.88Z"/><path class="pj-2-4" d="M591.06,531s-14.53,23.88-20.17,65.5,0,67.51,0,67.51,76.5,20.25,151.88,18a914.18,914.18,0,0,0,140.64-15.75s-4.5-42.75-24.75-74.26-47.85-64.05-47.85-64.05L591.06,531Z"/><path class="pj-2-4" d="M587.69,216.87c-4.25,1.53-27.21,34.31-27.21,34.31s-6,74.71-3.73,147.14S591.06,531,591.06,531l199.75-3.05s22.87-60.22,25.92-122.74c2.19-45-9.51-157.81-9.51-157.81l-41.57-36.13Z"/><path class="pj-2-2" d="M442.15,201.22a167.16,167.16,0,0,0,111.17,36c-9,21-22.55,40.35-40.92,53.9-12.37,9.12-66.89,35.51-63.08,2.46S456.86,232.88,442.15,201.22Z"/><path class="pj-2-3" d="M620.56,135.09C609.18,147,602.19,162.78,599.41,179c-1.17,6.87-1.55,14.3,1.7,20.47,5,9.45,16.45,12.9,25.61,18.39C651,232.43,660,262.66,666.17,290.27c1,4.48,2.16,9.27,5.59,12.31,6,5.37,16.26,2.2,21.15-4.23s6-14.87,7.18-22.86c3.91-26,12-53.23,32.43-69.69,8-6.42,17.75-11.17,23.08-19.89,6.7-11,4.41-25.43-1.62-36.77-8.66-16.3-24.37-28.36-41.93-34C682,105.37,642.88,111.66,620.56,135.09Z"/><path class="pj-2-5" d="M747.9,85.4h-135L564.65,226.55s45,16,66.76,32.06S670,301.24,670,301.24l2.41-123.15-49.06-.26,11.26-28,45.78-1.2,45.78,1.2,11.26,28-49.06.26,2.41,123.15s16.89-26.55,38.61-42.63,66.76-32.06,66.76-32.06Z"/><path class="pj-2-5" d="M620.75,88.88l11-14.5,10.7,14.5,10-14.5,13.82,12.78L686,74.38l10.7,14.5,16.57-14.5,14.5,14.5s8-17.26,9.16-16.23S744,94.06,744,94.06L623.88,96.82Z"/><path class="pj-2-5" d="M553.89,233.56s26.88,5.43,37.66,12.89,24,20.72,24,20.72-4.84,34.57-32.68,59.56-56.85,40.5-98.29,39.09c-33.1-1.13-66.32-30.67-66.32-30.67s5-32.34,37.3-56.37C516.94,233.19,553.89,233.56,553.89,233.56Z"/><path class="pj-2-2" d="M922,204.79a167.15,167.15,0,0,1-112.48,31.7c8.17,21.31,21,41.19,38.8,55.44,12,9.6,65.46,38.07,62.94,4.91S906.1,235.86,922,204.79Z"/><path class="pj-2-5" d="M809.11,232.78S782,237.16,771,244.2,746.16,264,746.16,264s3.49,34.73,30.34,60.78,55.24,42.68,96.71,42.87c33.12.16,67.45-28.08,67.45-28.08S937,307,905.57,281.77C846,233.83,809.11,232.78,809.11,232.78Z"/><path class="pj-2-4" d="M611.54,1083.7s-93.3,42-99,52a85,85,0,0,0-7.79,17.69s169.1.73,172.21-5.51c4.2-8.45-10.47-55.53-10.47-55.53l-55-8.6Z"/><path class="pj-2-4" d="M997.19,1071.51s94.41,39.51,100.33,49.26a84.4,84.4,0,0,1,8.26,17.47s-169,5.3-172.28-.85c-4.44-8.33,9-55.79,9-55.79l54.74-10.09Z"/><path class="pj-2-6" d="M715.3,379.43l274-78.8A27.14,27.14,0,0,1,1022,316.58c25.81,64.22,96.38,246.35,90.37,304.31-7.34,70.82-86.7,201.66-99.63,210.87s-217.06-77-238.55-128.07C756.43,661.38,713.36,471.17,699,406.83A23.25,23.25,0,0,1,715.3,379.43Z"/><path class="pj-2-3" d="M993.22,791.05c-3.53,0-8.58-.88-16.3-3.07-25.88-7.36-69.08-25.81-105.06-44.87-33-17.46-74.16-42.87-83.4-64.85-14.91-35.48-49.57-187.72-63.77-251.53a26.51,26.51,0,0,1,18.52-31.2h0l231.12-66.46a29.68,29.68,0,0,1,35.83,17.5c24.77,61.6,81.82,210.26,76.67,259.91-3.66,35.39-27.25,84.66-41,110.89-15.74,30-37.75,66-45.87,71.83A10.86,10.86,0,0,1,993.22,791.05ZM747,408.74a12.76,12.76,0,0,0-8.91,15c11,49.51,48.14,213.77,63,249.2,6.77,16.1,42.49,41.3,95.56,67.41,47,23.14,87.1,36.93,96,37,11.56-11.5,74.45-114.62,80.43-172.27,5-47.91-56.73-206.05-75.76-253.38a16,16,0,0,0-19.28-9.41L747,408.74Z"/><path class="pj-2-3" d="M821.61,467.09s28.7,158.76,26.55,155,176.46-56.37,176.46-56.37-75.85-143.13-75.85-139.46-8.11,82-8.11,82-64.07-99.09-64.07-93,4.9,103.32,4.9,103.32Z"/><polygon class="pj-2-3" points="851.02 628.23 1024.62 573.07 1032.46 589.54 851.02 644.45 851.02 628.23"/><path class="pj-2-5" d="M596.45,861.75c1.22,3.67,13.45,18.35,12.23,78.3s-3,146.32-3,146.32,11.67,7.73,16.39,17.52c5.78,11.94,10.42,48.09,10.42,48.09l17.7-.73s1.91-29.75,6.65-38.62c3.95-7.41,12.36-11.33,12.36-11.33l25.12-150.24s-3.67,6.11-33-29.36S596.45,861.75,596.45,861.75Z"/><path class="pj-2-5" d="M904.65,839.1c.42,3.94-5.08,23.18,22.69,77.44s82.22,160.23,82.22,160.23-8.55,12.26-9.53,17c-2.33,11.46,5.05,46.48,5.05,46.48l-22.2.07s-8.27-27.38-21.59-42.11c-7.57-8.38-20.33-11.13-20.33-11.13l-92.8-119.79s6.31,3.85,19.41-42.57S904.65,839.1,904.65,839.1Z"/><path class="pj-2-6" d="M591.06,531s7.22,13.33,58.6,21.28,91.14,7.23,91.14,7.23L730.92,526s-25.6,7.29-65,5c-63.57-3.65-85.56-24-85.56-24Z"/><path class="pj-2-6" d="M405.49,697.92S563.55,948.5,640.55,996.21,848.16,1006,848.16,1006s-16.83-4.89-45-20.8-29.36-45.26-29.36-45.26l-27.67,4.89-5.36-33-34.25,2.45s7.34-36.7,3.67-35.48S671.07,880,671.07,880s-43.72-9.79-114.83-77.07S456.07,668.16,456.07,668.16Z"/><path class="pj-2-5" d="M358.71,623.77c-.92,11.62-3.35,23.23-2.21,34.82s6.76,23.68,17.38,28.47c9.11,4.1,19.74,2.05,29.26-.95A164.27,164.27,0,0,0,456,658c7.2-5.74,14.55-13.9,12.64-22.9-.82-3.84-3.26-7.12-5.81-10.1a96,96,0,0,0-14.28-13.57c-2.79-2.15-5.81-4.29-7.3-7.48-1.9-4.06-.86-8.84.3-13.17a344.71,344.71,0,0,1,20.09-55.56c.82-1.78,1.67-3.73,1.17-5.61s-2.17-3.13-3.75-4.22c-15.79-10.85-33.82-19.11-52.9-20.7-20.85-1.74-49.65,3.75-50.52,28.06C354.57,563.14,361.1,593.46,358.71,623.77Z"/><polygon class="pj-2-4" points="331.29 705.78 369.16 717.71 495.52 648.89 504.8 605.04 465.24 608.76 454.23 636.97 385.42 678.25 331.29 670 331.29 705.78"/><path class="pj-2-4" d="M398.79,651.67a16.59,16.59,0,0,1-1.38-6.83,14.51,14.51,0,0,1,2.58-6.32c2.19-3.43,4.82-6.7,8.32-8.79,6.61-3.94,15.41-2.84,21.88,1.33s10.88,10.93,13.87,18c1.1,2.62,2.06,5.47,1.52,8.27-.75,3.85-4.08,6.6-7.26,8.9-4.64,3.34-9.49,6.51-14.89,8.39-4.63,1.61-14.5,3.85-17.25-1.42C402.87,666.87,401.22,658.49,398.79,651.67Z"/><path class="pj-2-7" d="M580.88,666.4s12.38,4.56,56.73,10.34,63.13,5.3,63.13,5.3l-.61,16.15s-31.31,2.79-62.66,0a370.64,370.64,0,0,1-54.56-8.83Z"/><polygon class="pj-2-7" points="733.82 681.57 765.19 677.26 770.1 692.64 741.54 700.83 733.82 681.57"/><path class="pj-2-4" d="M609.5,145.28H749.77l3.27-11H607.87Z"/><g class="pj-2-8"><path class="pj-2-9" d="M450.34,305.92c-4.6,4.9-8.88,10.34-10.95,16.74-.95,2.91-1.36,6.3.3,8.88a8.6,8.6,0,0,0,3.48,2.92c6.41,3.18,14.39.5,19.79-4.18s9-11.07,13.2-16.83a84.81,84.81,0,0,1,21.75-20.66c2.79-1.84,5.79-3.6,7.66-6.37s2.2-6.95-.26-9.21a8.61,8.61,0,0,0-3.85-1.8C482.42,270.66,462,293.43,450.34,305.92Z"/></g><g class="pj-2-8"><path class="pj-2-9" d="M514.58,259.12c-2.91,2.72-5.75,6.54-4.58,10.36a7.52,7.52,0,0,0,4.79,4.62,15.43,15.43,0,0,0,6.83.52A33.33,33.33,0,0,0,533,271.25c3.1-1.57,6-3.73,7.71-6.78s1.79-7.11-.39-9.82C533.53,246.2,520.38,253.69,514.58,259.12Z"/></g><g class="pj-2-8"><path class="pj-2-9" d="M613.35,110.75l-17.88,57.42c-2.63,8.46-5.3,17.09-5.27,26,0,2.3.36,4.9,2.22,6.25,3.43,2.5,7.9-1.44,9.88-5.2,9.17-17.4,7.33-38.71,14.92-56.86,4.72-11.28,12.84-20.75,21.11-29.75a9.49,9.49,0,0,0,2.47-3.73c1.91-7.13-9.75-9-14.49-8.31C618.94,97.61,615.41,104.14,613.35,110.75Z"/></g><g class="pj-2-8"><path class="pj-2-9" d="M366.36,535.08c-1.35,7.15.15,14.5,1.72,21.6q5.09,23,11.29,45.76c.57,2.09,1.8,4.67,4,4.45,2-.2,2.79-2.57,3.06-4.52.79-5.83.5-11.75.59-17.63a136.26,136.26,0,0,1,8.59-45.58c1.71-4.57,3.63-9.82,1.29-14.1C388.78,510.31,368.59,523.18,366.36,535.08Z"/></g><g class="pj-2-8"><path class="pj-2-9" d="M805.11,255.79c1,3.55,4.35,6.45,8.15,8.45s8.07,3.28,12.1,4.94c13.91,5.71,25.36,16,40.5,18.61a8.64,8.64,0,0,0,3.54.08,5.28,5.28,0,0,0,3.08-2.27c1.83-2.75,1.5-6.23,0-9.21s-4-5.55-6.54-8c-6.41-6.32-13.2-12.49-21.4-17.23-7.07-4.08-18.34-8.93-27.22-7.73C810.51,244.3,803.48,249.74,805.11,255.79Z"/></g></g></g></svg>
