<svg xmlns="http://www.w3.org/2000/svg" viewBox="0 0 845.58 906.8"><defs><style>.cls-1{fill:#b2d9db;}.cls-2{fill:#aa6b1f;}.cls-3{fill:#e0541e;}.cls-4{fill:#f0e631;}.cls-5{fill:#a9542d;}.cls-6{fill:#e5bb8c;}.cls-7{fill:#edae2f;}.cls-8{fill:#c96635;}.cls-9{fill:#e28647;}.cls-10{fill:#f2e82a;}.cls-11{fill:#a8886a;}.cls-12{fill:#bc7920;}.cls-13{fill:#31383f;}.cls-14{fill:#efd729;}</style></defs><g id="Capa_2" data-name="Capa 2"><g id="Layer_2" data-name="Layer 2"><path class="cls-1" d="M715,873.21c0,18.55-89.76,33.59-200.49,33.59S314,891.76,314,873.21s89.76-33.58,200.49-33.58S715,854.66,715,873.21Z"/><path class="cls-2" d="M284.9,121.08c3.85-30.32,20-59.63,45.8-76s61.18-18.19,86.73-1.41c35.32,23.19,42.92,70.8,64.35,107.21,26.35,44.77,75.26,74,96.75,121.36,13.87,30.54,14.8,65.6,27.72,96.55,25,60.05,90.27,93.55,153.83,107.47a162.7,162.7,0,0,1-38.5,9.48C772.16,506.17,823.8,536,845.58,586a231.53,231.53,0,0,0-137.24-37.79l10.41,15.16-26.82.06c33.56,42.51,47.46,102.92,41.47,99-24.42-16.1-42.22-32.11-70.19-25.14Q678.8,666,694.36,694.77c-85.75-2.15-171-33.46-235.72-89.81S350.94,467.18,344,381.68c-3.27-40.38,10.25-96.37-13.91-131.6C303,210.53,278.47,171.62,284.9,121.08Z"/><path class="cls-3" d="M2.21,233.68c-3.4-9.91-2.29-20.77-.56-31.11s4-20.78,2.88-31.2l6.83,8.72c-1.56-9.24-3.12-18.64-2-28,2.09-18,13.63-33.29,20.78-49.95-.4,20.21,13.76,39.42,10,59.29a31.67,31.67,0,0,0,3.59-12,43.92,43.92,0,0,1,4.56,22.95,6.58,6.58,0,0,0,4.29-6.21c13.47,17.4,18.4,40.05,19.09,62.05.32,10.25-.76,21.77-8.54,28.46-5.32,4.57-12.86,5.85-19.81,4.94C28.21,259.67,7.38,248.75,2.21,233.68Z"/><path class="cls-4" d="M16.5,233.13a36.09,36.09,0,0,1-3.75-19.61c.33-4.69,1.34-9.56-.22-14a22.15,22.15,0,0,1,4,6.58c-.74-4.24-1.26-8.62-.29-12.82.91-3.94,3.07-7.45,4.59-11.19a57.35,57.35,0,0,0,3.51-17,137.81,137.81,0,0,0-.23-25c-.12,4.31,2.26,8.22,4.06,12.12a49.51,49.51,0,0,1,4.41,24.49l1.68-5.91a51.48,51.48,0,0,1,5.89,30.83,38.38,38.38,0,0,0,5.07-10.94c1,4.25,4.13,7.59,6.61,11.18a41.2,41.2,0,0,1,6.52,30.59c-.59,3.13-1.61,6.31-3.79,8.63a16.06,16.06,0,0,1-7.82,4.14C34.7,248.41,22.61,244.44,16.5,233.13Z"/><path class="cls-5" d="M520.45,807.35a43.87,43.87,0,0,1,35.3,18.85c-1.28-1.88-1.48-5.84-2.09-8.06-.74-2.68-1.52-5.35-2.42-8A67.72,67.72,0,0,0,544,794.51c-1.49-2.28-2.12-3.49-4.83-2.76-2.35.63-4.88,2.65-6.85,4A50.13,50.13,0,0,0,520.45,807.35Z"/><path class="cls-6" d="M663.9,347.61c10.47-2.26-20-11.87-20.29-17.35,3.67-3.05,8.9-2.78,13.68-2.82,28-.25,44.49,17.23,47.75,12.85,2.37-2.38-2.31-6.17-5.84-8.29,3.76.24,8.37,5.62,10.64,3.44,5-4.06-27-22.6-44.09-25.32A72.3,72.3,0,0,0,616,320.49c-2.6,1.67-5.34,3.9-5.57,7-.44,5.74,18.4,10.75,22.73,12.69C642.59,344.4,653.43,348.84,663.9,347.61Z"/><path class="cls-6" d="M434,195.11s43.22,80.59,84.11,102c49.17,25.75,118.65,17.36,118.65,17.36V331.2s-47.24,4-68.32,3.18-66.14-8.95-66.14-8.95-24.42-17.2-43.61-29.27-35.62-37-35.62-37l10.93-64Z"/><path class="cls-3" d="M20.58,33.43C22.43,21.68,29.94,11.55,32.81,0c-1.47,7-3,14.28-1.34,21.26,1.46,6.29,5.35,11.94,6,18.36C38.9,53.43,25.13,65.92,28,79.5c-1.54-7.3-1.94-14.89-3.56-22.14C22.55,49,19.17,42.41,20.58,33.43Z"/><path class="cls-3" d="M10.13,88.31c1.6-10.48,0-21.29-2.93-31.48,2.09,5.79,6.63,10.33,9.49,15.77a29.8,29.8,0,0,1,2.72,20c-.93,4.27-3.16,6.07-4.25,12.32-.44,2.5-1.53,12.25-1.53,12.25S7.2,107.48,10.13,88.31Z"/><path class="cls-3" d="M57.89,92.31C56.64,83.48,49.12,75.58,51,66.84,47,74.42,49.91,80.05,47.42,86.2s-6.42,12-6.93,18.64c-1.26,16,5.79,28.76,6.16,30C44.47,120.11,60,107.07,57.89,92.31Z"/><path class="cls-6" d="M51.05,243.37c-3.17-1.49-6.49-3.69-7.19-7.12a2.44,2.44,0,0,1,.29-2,2.16,2.16,0,0,1,2.5-.41,13.21,13.21,0,0,1,2.25,1.51c2.64,1.85,6.11,2,9.32,1.7s6.39-1.17,9.61-1.09a17.7,17.7,0,0,1,13.41,6.76c1.82,2.36,3,5.58,1.86,8.32a7.39,7.39,0,0,1-5.46,4,19.31,19.31,0,0,1-7-.25c-4-.67-8.59-1.74-10.77-5.45-.79-1.35-.89-2.39-2.3-3.3C55.75,244.8,53.06,244.32,51.05,243.37Z"/><path class="cls-6" d="M76,258.87S53.34,271.82,47.48,272s-10.64-10.18-23.63-14.18c-7.65-2.35-11.9-4.21-15.3-5.48-3.82-1.41-7.16-6.32,3.78-5.48,9.21.72,32.5,6,32.5,6s15.44-9.94,25.33-10S86.49,249.51,84,253.29s-8,5.58-8,5.58Z"/><path class="cls-6" d="M307.56,212.41s-55.9,61.33-105.94,73.22C168.14,293.59,75.49,242,75.49,242l-2.74,14.27s44.85,26.58,60.32,34.1c17.94,8.72,73.35,30.13,73.35,30.13s33.86-9.47,57.58-21.41c31.52-15.86,43.56-32.65,43.56-32.65v-54Z"/><path class="cls-7" d="M300.17,626.56s-1.39,22.6,57.59,0,185.83-87.62,231.82-104.27,55.51-28.17,56.3-34.09c1.65-12.41-9.12-13.26-9.12-13.26l-158.18-24.8S358.06,491.91,355.68,492s-55.51,95.28-55.51,95.28v39.25Z"/><path class="cls-8" d="M370.05,796s12,3.42,43.05-1.15c51.71-7.61,172.52-98.14,198.48-137.54,17.48-26.51,25-43.33,10.91-49.79s-151.61,8.86-151.61,8.86l-91.74,94-15.78,49.8Z"/><path class="cls-6" d="M339.43,387.15c-3.66,5.28-2.79,87.79-2.79,87.79l116.48-15.17L417.6,380.53Z"/><path class="cls-6" d="M312.42,488.54C309.84,496.47,389.13,851,389.13,851s20.3,10.63,13.67.26-30.62-389.63-30.62-389.63Z"/><path class="cls-6" d="M397.79,454.9c.77,6.12,9.22,86.82,43.8,168.28S563.79,833.94,566.1,834.24s10-9,10-9S503.23,696.72,477,620.88C457.24,564,453.2,456.48,453.2,456.48Z"/><path class="cls-9" d="M306.94,212.79c0,5.59-13.1,84.1-13.9,199.69-1.48,212.89,77,383.53,77,383.53s9.93-49.49,87.7-114.74c85-71.36,164.74-73.74,164.74-73.74S497.67,558.88,457,433.88s-22-238.77-22-238.77H391.07l-45.42,7.2Z"/><path class="cls-10" d="M306.94,212.79S274,363.71,276.39,462.43s23.78,164.13,23.78,164.13,7.55-65.95,102.34-117.75c98.66-53.91,234.25-33.87,234.25-33.87s-94.26-17.26-142.72-70c-67.8-73.81-59-209.81-59-209.81s-27.78,12.79-45.62,37.18-20.82,41.31-20.82,41.31-23-7.25-41.72-30.59C312,224.57,306.94,212.79,306.94,212.79Z"/><path class="cls-6" d="M343.67,202.85c.85,3,6,14.3,24,12.49,18.38-1.86,24-19.33,23.44-20.23-4.28-6.74-4.33-21.35-4.9-36.81-.09-2.73-.15-5.54-1.34-8-5.72-12-34.42-14.25-41-.76C336.25,165,341.7,195.87,343.67,202.85Z"/><path class="cls-11" d="M386.13,158c-.1-2.73-.15-5.54-1.34-8a12.84,12.84,0,0,0-3.36-4.23l-.88-.55a38.91,38.91,0,0,0-17.94-5.2c-8,.12-15.78,3-18.82,9.22a38.81,38.81,0,0,0-3.22,11.57,30.63,30.63,0,0,0,1.83,4.06,52.6,52.6,0,0,0,15.4,17.8,40.29,40.29,0,0,0,22.1,7.66,19.25,19.25,0,0,0,8.72-1.56C386.69,181.06,386.56,169.79,386.13,158Z"/><path class="cls-6" d="M337.15,87.69a93.43,93.43,0,0,0,2.3,70.55c4.37,9.64,11.95,19.47,22.52,20.09,8.39.5,15.91-5.05,21.83-11,8.39-8.48,15.26-18.36,21.22-28.71,6.15-10.68,11.45-22.15,12.83-34.41s-1.64-25.46-10.24-34.3-28.73-18.37-41-14.6C352.26,59.69,342.18,74.29,337.15,87.69Z"/><path class="cls-8" d="M384.82,846.25a13.23,13.23,0,0,1,0,6.13c-.86,2.63-3.2,4.46-5.47,6a123.86,123.86,0,0,1-29.21,15,24.26,24.26,0,0,1-7.84,1.77,9.57,9.57,0,0,1-7.31-2.84c-.83,2.33.55,4.9,2.31,6.64a19.75,19.75,0,0,0,11.47,5.16,41.31,41.31,0,0,0,12.73-.78c18.86-3.56,47.2-10.61,55.16-16.33,4.14-1.54-3.51-15.44-5.65-23.08a314.17,314.17,0,0,1-7.69-35.1l-11,1.44q.45,10,.89,20c-2.63-5.45-4.88-11.49-8.08-16.6a34,34,0,0,0-13.64,9.63S383.66,839.28,384.82,846.25Z"/><path class="cls-8" d="M567.09,770c-1.67,6.41-3.37,15.23-1.47,21.58,5.17,17.33,12.8,17.71,20.71,26.47,12.59,13.92,16.15,39.9,21.33,50.58-5.42,3.78-29.41-4-47.7-29.12a176.7,176.7,0,0,1-11.79-17.62,169.6,169.6,0,0,0-11.27-17.08c-5.5-7.53-6.63-13.14-6.63-13.14S554.5,773.32,567.09,770Z"/><path class="cls-4" d="M44.42,104.77c1.83-4.24,4.82-8.27,4.63-12.88,1.18,3.87,2.37,8,1.39,11.89-.71,2.84-2.49,5.27-3.76,7.91-2.18,4.55-2.31,9.14-2,14C40,121.7,42.35,109.57,44.42,104.77Z"/><path class="cls-4" d="M24.94,40.22a38.22,38.22,0,0,1,.83-14.68c-1.1,4.8,1.44,9.58,2.84,14.3,1.72,5.8,2.7,14.95,0,20.6C28.16,53.51,25.89,47.06,24.94,40.22Z"/><path class="cls-4" d="M13.12,77.66a4.08,4.08,0,0,0-1.07-2.8c2,3.5,3.66,7.31,3.77,11.34.15,5.49-2.12,10.85-2.57,16.31C9.53,101.71,13.47,81.32,13.12,77.66Z"/><path class="cls-6" d="M698.14,315.21c.88.13,2,.64,1.81,1.5-.17.66-1,.82-1.69.85L687,318c-4.83.21-9.72.41-14.46-.53-2.31-.45-8.9-1.86-9.54-4.65-1-4.16,6.57-1.75,8.48-1.48Q684.81,313.25,698.14,315.21Z"/><path class="cls-12" d="M356.16,50.56c1.77,6.34,5.86,11.8,10.41,16.56,12.7,13.3,29.36,22.25,42.45,35.18a96.27,96.27,0,0,1,28.08,73.33l6-11.77a77.56,77.56,0,0,0,26.64,44.93c13.49,11.1,30.38,17.31,44.48,27.65A92.89,92.89,0,0,1,550.31,294q2.37-7.5,4.73-15a156.34,156.34,0,0,1,23.73,94.61A322.63,322.63,0,0,0,546,176.82c-13.49-25.8-30.43-49.61-47.51-73.2C484.21,83.91,469.49,64,450,49.39a125.2,125.2,0,0,0-65-24.47C369,23.67,350.66,30.83,356.16,50.56Z"/><path class="cls-13" d="M342.08,77.21s11.46-15.81,37.37-9.5C412.88,75.85,421,100.27,421,100.27l6-14.62s-5.32-22.26-38.34-29.73c-27.18-6.16-40.07,3.3-40.07,3.3Z"/><path class="cls-13" d="M360.33,29.81A54.08,54.08,0,0,1,376.24,43,130.6,130.6,0,0,1,396.83,7.63a303.36,303.36,0,0,0-.57,36.18A37.1,37.1,0,0,1,417,40.74a29.38,29.38,0,0,0-15.84,19.1c-.63,2.46-1.35,5.49-3.8,6.16a6.3,6.3,0,0,1-2.73,0c-7.69-1.27-25.26-1.7-30.54-8.2-2.62-3.23-1.17-7.24-.88-11A34.18,34.18,0,0,0,360.33,29.81Z"/><path class="cls-3" d="M391.11,24.78c-1.73,1.95-13.63,25.34-13.63,25.34l2,13.88,11.6-10.16Z"/><path class="cls-11" d="M378.45,138.8c.37-12.94,1.44-25,5.41-37.33-3.92,4.72-5.76,10.76-7.75,16.56-1.32,3.83-4.66,13.88-5.17,14.43a7.14,7.14,0,0,1-6.34,2.11A74.59,74.59,0,0,0,378.45,138.8Z"/><path class="cls-11" d="M372.9,153.75a19.09,19.09,0,0,0,8.38-1.46c-.22.51-11.34-1.83-16.82-2.92-2.6-.51-13-3-16.55-3.54a41.84,41.84,0,0,0,12.25,6.1A48.11,48.11,0,0,0,372.9,153.75Z"/><path class="cls-11" d="M369.06,156.45a3.49,3.49,0,0,0-.88,3.36,29.82,29.82,0,0,0-11-2.08,5.61,5.61,0,0,0,1.2-3.4,31.81,31.81,0,0,0,4.89,1.39C365,156.08,367.69,156.87,369.06,156.45Z"/><path class="cls-2" d="M341,89.9c.79-.27,16.65-3.17,16.65-3.17l9.51,10,2.12-3.17-10-11.1Z"/><path class="cls-2" d="M415,116.4c-.41-.73-10.1-13.62-10.1-13.62l-13.8.94.59-3.76,14.88-1.39Z"/><path class="cls-13" d="M355.62,104.59a12.91,12.91,0,0,0,4.15,1.07,33.85,33.85,0,0,0-10.47-7.5c-2-.94-9.78-3.11-6.36,1.18C345.12,102.08,352.39,103.35,355.62,104.59Z"/><path class="cls-13" d="M402.16,121.24a12.9,12.9,0,0,0,4.16,1.07,34,34,0,0,0-10.47-7.5c-2-.94-9.78-3.11-6.37,1.18C391.66,118.73,398.93,120,402.16,121.24Z"/><path class="cls-14" d="M419.41,276.2a26.08,26.08,0,0,0,20.18-.51c-.9-5.85-1.65-11.54-2.27-17q-26.26-3.59-52.66-6.11l3.12,9.67a2,2,0,0,1,.23-.06C399.51,259.7,408.55,271.67,419.41,276.2Z"/><path class="cls-14" d="M298.87,253.16a12.75,12.75,0,0,1,2.93,1.18c4.95,2.77,7.49,8.32,10.91,12.85s9.38,8.44,14.49,6a27.23,27.23,0,0,0-19.1-21.85A26.42,26.42,0,0,1,329,245.4l-.21-.24q-4.56-1-9.15-1.83c-6.16-1.15-12.54-2.13-18.68-1C300.26,245.69,299.58,249.32,298.87,253.16Z"/><path class="cls-14" d="M388.05,263.05l-.27-.82c-.37.08-.74.18-1.1.29Z"/><path class="cls-14" d="M507.21,417.37a21.44,21.44,0,0,1-1.9,1c-10.55,4.79-22.49-1.34-33.87-3.52a15.62,15.62,0,0,0-7.89.07c-6.64,2.26-8.34,10.57-10.93,17.08-5.67,14.21-20.87,24-36.15,23.31-14.57-.67-29.65-9.74-42.86-3.56-20.27,9.47-15.42,44.74-35.49,54.63-11.63,5.74-25.24-.35-37.56-4.4-4.05-1.34-8.26-2.46-12.52-2.28a21.47,21.47,0,0,0-9.62,2.8c1.8,22.76,4.48,43,7.34,60.21A65.61,65.61,0,0,0,290,547.1c1.06-7.62,1.24-16,6.17-21.87,6.71-8,18.8-7.84,29.25-8.6,15.32-1.1,31.51-6.57,40.08-19.31,3.63-5.39,5.64-11.71,8.93-17.32a44.06,44.06,0,0,1,33.18-21.2c11.7-1.14,23.3,2.49,35,3.22s25.21-2.63,30.64-13.06c2.11-4.06,2.76-8.79,5-12.76,6.1-10.67,21.26-11.92,33.06-8.52,7.24,2.08,14.18,5.4,21.29,7.84A196,196,0,0,1,507.21,417.37Z"/><path class="cls-14" d="M311.15,347.07c6.87-3.24,10.29-13.52,4.82-18.79-4.44-4.28-11.53-3.25-17.65-2.59-3.68.4-7.93.21-11.22-1.25q-1.23,8.67-2.41,17.61a48.28,48.28,0,0,1,4.66,2.46C296,348.21,304.27,350.32,311.15,347.07Z"/><path class="cls-14" d="M429.43,311.68c-4.6-2.69-7.08-7.8-10.24-12.1-9.71-13.22-28.05-19.39-43.77-14.72s-27.74,19.84-28.67,36.22c-7.57,1.53-13.44-6.68-15.64-14.08s-3.63-16.12-10.23-20.14-14.8-1.37-22.21.39a36.92,36.92,0,0,1-5.95.9q-1.1,6.64-2.2,13.64c8.17-6.56,20-8.76,28.09-2.44,9.15,7.12,9.64,20.66,15.49,30.67a31.53,31.53,0,0,0,25.09,15.29,11,11,0,0,0,6.11-1.07c5.23-3,4-10.7,3.08-16.68-1.38-8.93-.08-19,6.4-25.29s19.05-6.27,23.38,1.67c1.42,2.6,1.81,5.63,2.76,8.44,2.73,8.08,10,14,17.93,17.12s16.56,3.94,25.06,4.69a36.4,36.4,0,0,0,9.73-.42c-2.31-6.67-4.34-13.38-6.13-20.06C441.28,313.83,434.75,314.8,429.43,311.68Z"/><path class="cls-14" d="M368.52,273.41a83.07,83.07,0,0,1-18.81-9.65,23.24,23.24,0,0,1,.77,3.52c.34,2.39.36,4.9,1.47,7,3.32,6.37,13.18,4.75,18.81.3,5.27-4.16,9.63-10.11,15.92-12.1q-6.3-2.46-12.68-4.69C369.55,267.58,368.52,273.41,368.52,273.41Z"/><path class="cls-14" d="M416.63,374.56c3.15,2.46,4.33,6.59,6.28,10.08,6.16,11,19.95,15.16,32.53,15.92,10.3.62,21.36-.74,30-6a186.48,186.48,0,0,1-18.26-28.89c-3.2,9.13-5.81,18.83-14.52,20.39-5.39,1-10.77-2.19-14.38-6.31s-5.95-9.18-9-13.72c-5.14-7.61-12.67-13.89-21.57-16.17s-19.15,0-25.35,6.74c-7.91,8.65-7.65,22-4.88,33.4s7.59,22.57,7.18,34.29c-2.23,2.25-6.37,1-8.12-1.65s-1.76-6-1.67-9.19c.51-17,1.77-36.11-9.81-48.51s-32.88-12.13-46.94-2.44-21.79,26.44-25.13,43.18c-3.93,19.74-1.59,42.65,13.35,56.13-6.31,5.33-15.68-2.62-17.83-10.6s-1.88-17.5-8.11-22.94a15.62,15.62,0,0,0-3.49-2.25c-.36,7.85-.57,15.54-.61,23,7.61,3.47,13.94,9.17,17.26,17,1.65,3.86,2.53,8.05,4.65,11.67a19.31,19.31,0,0,0,36-9.82c0-16.58-20.05-26.61-23.61-42.81-2.91-13.28,6.3-26.39,17.25-34.46,5.32-3.91,11.38-7.19,18-7.74s13.73,2.15,17,7.86c4.17,7.18,1.28,16.18,1.25,24.48-.05,10.36,5.35,21.08,14.74,25.47s22.33.62,26.35-8.93c3.2-7.61.48-16.3-2.56-24s-6.46-15.89-4.54-23.91S410.13,369.47,416.63,374.56Z"/><path class="cls-8" d="M313.91,210.9a72.88,72.88,0,0,0,19.64,26.44c16.16,13.89,29.6,20.53,29.6,20.53s11-22.09,21.51-33.51c14.92-16.16,41.11-29.25,41.11-29.25H435s-20.77,12.74-33.14,25.61c-22.54,23.45-32.52,54.91-32.52,54.91s-27.51-7.26-40.39-23.07c-17-20.91-22-39.77-22-39.77Z"/></g></g></svg>