<svg xmlns="http://www.w3.org/2000/svg" viewBox="0 0 738.35 975.85"><defs><style>.cls-1{fill:#b2d9db;}.cls-2{fill:#31383f;}.cls-3{fill:#314172;}.cls-4{fill:#e5bb8c;}.cls-5{fill:#8598a8;}.cls-6{fill:#508293;}.cls-7{fill:#707e91;}.cls-8{fill:#bebfbb;}.cls-9{fill:#a9a9a8;}.cls-10{fill:#a8886a;}.cls-11{fill:#9cf1ff;}.cls-12{fill:#fff;opacity:0.36;}.cls-13{fill:#e0e0de;}</style></defs><g id="Capa_2" data-name="Capa 2"><g id="Layer_2" data-name="Layer 2"><path class="cls-1" d="M457,942.26c0,18.55-89.76,33.59-200.48,33.59S56,960.81,56,942.26s89.76-33.59,200.49-33.59S457,923.71,457,942.26Z"/><path class="cls-2" d="M128.34,862.23l3.23,48.26s-26.5,24.07-23.16,30.63,68.11-17.16,66.13-21.88,4.31-55.54,4.31-55.54Z"/><path class="cls-2" d="M317.17,883.21l-3.23,48.25s26.5,24.07,23.15,30.64S269,944.93,271,940.22s-4.31-55.55-4.31-55.55Z"/><path class="cls-2" d="M532.49,702.34c25.53-13.5,51.43-30.79,62.33-57.52,11.73-28.77,2.88-62.84-15.68-87.76S533.67,514.85,506.38,500c-24.16-13.16-49.36-24.95-76.22-30.91-55.52-12.34-114.37,1.4-164.9,27.5-13.73,7.09-27.27,15.31-37.14,27.2s-15.51,26.85-18.93,42c-7.43,32.77-5.17,67.43,4.6,99.59,8,26.36,21.23,51.5,40.75,70.94,15.06,15,39.71,32.66,62.07,32.34,8.22-.12,15-4.12,22.69-6.31,12.83-3.64,26.53-4.44,39.64-6.83A533.47,533.47,0,0,0,532.49,702.34Z"/><path class="cls-3" d="M158,277.62S119.3,427.33,107.69,530.5c-9.81,87.24,0,332.74,0,332.74s97.8,24.81,192.16,20.84c96.73-4.07,139.29-23.41,139.29-23.41s-15.47-150.75-42.56-269.55C368.35,467.29,198,277.62,198,277.62Z"/><path class="cls-2" d="M131.47,587.45s82.26,6.94,133.3,0,116.2-43,116.2-43l27.1,46v30.61s-10.5,24.77-88.3,40.63-167.48,16.35-167.48,16.35Z"/><path class="cls-4" d="M39.49,699.61c2.43,3.76,7.21,7.83,10.74,5.06,2.13-1.67,2.14-4.84,1.91-7.54a322.09,322.09,0,0,0-5.22-37c1.83,2.15,3.1,6.8,5.48,6.43,2.81-2.14,3.05-9.8,2.84-15q-.85-21.86-3-43.64c-.4-4.14-.88-8.37-2.72-12.09-3.93-8-13.39-11.48-21.86-11.1-10.77.49-9.74,11.77-10.64,20.65a148.52,148.52,0,0,0,7.25,62.65A142.87,142.87,0,0,0,39.49,699.61Z"/><path class="cls-5" d="M125.88,296.7c-2.07,3.59-66.28,64.88-90.09,138C16.66,493.52,0,606.92,0,606.92a156.63,156.63,0,0,0,39.66,25.15,176.75,176.75,0,0,0,45.46,13.18L95.76,451.19l47.72-141.27-17.6-13.22Z"/><polygon class="cls-6" points="406.04 64.06 389.53 48.49 385.69 0 418.08 15.91 443.94 38.44 433.59 76.28 406.04 64.06 406.04 64.06"/><polygon class="cls-2" points="435.99 88.18 418.51 85.56 406.04 64.06 428.82 68.79 439.14 40.85 418.08 15.91 452.47 38.27 450.98 80.39 435.99 88.18 435.99 88.18"/><path class="cls-4" d="M486.37,213c.24-3,2.64-6.24,5.67-5.89,2.5.29,4.09,2.74,6.17,4.16,3,2.07,7.13,1.86,10.62.71s6.66-3.11,10.1-4.41c9-3.44,13.85,4.22,21.54,10.07S551.89,236,551,245.58c-1.45,15.37-8.64,18.5-23.32,23.29-9.58,3.13-20.36,3.94-29.57-.17-9.39-4.19-16.62-14.13-14.47-24.51.87-4.23,3.14-8.06,3.93-12.37C488.76,225.18,485.85,219.41,486.37,213Z"/><path class="cls-7" d="M269.67,302.44s82.08-3.67,125.09-18.19,92.79-52.43,92.79-52.43l58.93,97.49s-27.92,17.82-100.65,27.44c-97.23,12.85-165.36-4-165.36-4Z"/><path class="cls-2" d="M348.55,242.77c0-.7-12.78-4.74-16.54-5.83-37.12-10.79-66.75-18.88-104.78-25.77-33.84-6.13-68.25-10.7-102.55-8.38s-62.06,13.34-92.74,28.9c0,0-11.9,3.8-19.11,8-2.72,7.11,56.64,20.17,87.45,21.61q59,2.76,118,4.58c21.44.66,42.92,1.23,64.35.21,19.79-.95,37.31-3.6,55.45-11.58C342.54,252.57,348.85,249.21,348.55,242.77Z"/><path class="cls-4" d="M228.41,194.92c-4-4.06-9.43-6.45-14.85-8.3a102,102,0,0,0-82.18,7.8c-.76-.75,0,12.09-.77,11.34l.93,1c-1.88-.5-3.17,1.68-3.61,3.58-5.47,23.95-.12,51.16,17.44,68.34s47.94,21.24,67.18,6c15.83-12.57,21.22-34.08,23.41-54.17C237.32,218,237.25,203.82,228.41,194.92Z"/><path class="cls-7" d="M142.51,277.72S80.26,387.08,65.13,484.07C43.21,624.65,93.5,813,93.5,813s62,15.29,136.71,10.35c78.67-5.2,94-25.1,94-25.1s-21.94-28-81.05-152.91c-68.36-144.45-77.38-356-78.67-362.41S142.51,277.72,142.51,277.72Z"/><path class="cls-7" d="M174.75,277.62s114.3,176.75,172.82,236.12c89,90.28,252.55,171.53,252.55,171.53S661,600.15,695.79,537s42.56-98,42.56-98-121.23,10.32-211.51-10.31c-82.73-18.91-328.87-151-328.87-151Z"/><path class="cls-8" d="M127.69,241.56s-10.33,42.14,9,94.69c19.48,52.93,73.07,102.47,138.64,118.65,77.06,19,138.32,1.94,138.32,1.94s-18.05-13.86-21-50.94c-2.29-29.28-20.31-87.7-83.83-101.89-55-12.29-76.66-56.55-76.66-56.55Z"/><path class="cls-9" d="M149.74,239.61c-9.36,1.28-19.59-.33-27.39,5-8.27,5.64-11.89,16.16-12.58,26.15-.81,11.74,2,24.15,9.77,32.95,2.5,2.82,5.64,5.3,9.34,6s8-.73,9.7-4.1c1.38-2.72.84-6,.59-9-.61-7.26.79-15.06,5.63-20.51,6.09-6.84,16-8.5,25.17-9,8.76-.49,17.61-.31,26.17,1.59,24.76,5.48,45.49,24.92,70.79,26.65,3.58.24,7.82-.22,9.68-3.29,1.41-2.34.85-5.44-.62-7.73s-3.7-4-5.83-5.67a130.21,130.21,0,0,1-12-10.81c-4.31-4.41-8.32-9.14-13.06-13.07-9.37-7.76-21.21-12-33.19-14.11C201.31,238.83,163.42,237.74,149.74,239.61Z"/><path class="cls-10" d="M171.77,212.91a73.21,73.21,0,0,0,.62,31.93,16.36,16.36,0,0,0,2,5.16,5.8,5.8,0,0,0,10.2,0,16.44,16.44,0,0,0,2.33-6.34,83.89,83.89,0,0,0,1.2-25.54,14.85,14.85,0,0,0-1.07-4.67,8.1,8.1,0,0,0-13.26-2.15Z"/><path class="cls-9" d="M127.12,242.77c1-6.43,1.27-14.35,5.88-18.93,4.16-4.14,10.67-5.92,13.47-11.07a5,5,0,0,0,.68-3.44c-.61-2.53-3.81-3.33-6.42-3.29-9.17.15-18.26,4-20.75,13.26a23.63,23.63,0,0,0,2.5,17.89C122.89,237.86,128.17,242.77,127.12,242.77Z"/><path class="cls-9" d="M230.22,242.72c1.46,3.34,3.7,6.55,7,8.08-.67-3.5.93-7,3-10s4.55-5.55,6.09-8.76,1.91-7.33-.31-10.12a11.28,11.28,0,0,0-5.31-3.28c-4.59-1.6-18.83-8.11-20.5-.82-.77,3.36,3.84,9.48,5.26,12.23C227.51,234.12,228.41,238.58,230.22,242.72Z"/><path class="cls-7" d="M12.83,239.71s60-28.75,163.32-22.81c115,6.6,172.4,25.87,172.4,25.87L266.25,184s-14.06-55.5,1.27-99.64c20.26-58.38,76.05-77.88,69.41-82S273.78,10,219,59.56c-45.24,40.87-91.71,113.18-91.71,113.18Z"/><path class="cls-2" d="M141.13,223a1.56,1.56,0,0,0-.69.77,1.24,1.24,0,0,0,.74,1.4,3.6,3.6,0,0,0,1.7.21c4.43-.17,8.86-.54,13.26-1.1,1-.13,2.25-.63,2.1-1.6-.12-.74-1-1.05-1.74-1.18C152.22,220.73,145,220.42,141.13,223Z"/><path class="cls-2" d="M200.29,223.58a1.57,1.57,0,0,0-.79.69,1.24,1.24,0,0,0,.56,1.47,3.66,3.66,0,0,0,1.66.43q6.63.57,13.3.56c1,0,2.31-.33,2.28-1.32,0-.75-.86-1.16-1.57-1.38C211.57,222.76,204.42,221.54,200.29,223.58Z"/><polygon class="cls-2" points="734.74 638.75 731.74 645.25 435.99 88.18 450.98 80.39 734.74 638.75"/><path class="cls-4" d="M512.72,222.59c1.71,3.06,5.08,5.26,5.73,8.71.34,1.85-.17,3.77.16,5.62.67,3.72,4.38,5.94,7.51,8.06a7.23,7.23,0,0,1,2.22,2c1.22,2,.52,4.5.82,6.8.65,4.95,6.39,8.13,11.29,7.15s9.71-4.85,12.72-8.85c6.75-9,.61-24.12-.45-28.19-1.76-6.79-10.49-14.41-16.92-17.21C527.5,203.11,504,207,512.72,222.59Z"/><path class="cls-11" d="M390.71,8c.89.89,5.62,36.37,5.62,36.37l19.81,1.77Z"/><path class="cls-11" d="M417.32,28.68c.3.89,6.21,17.44,6.21,17.44l-3.1,15.67L436,42.58Z"/><path class="cls-2" d="M191.88,169.24C227.54,173,266.25,184,266.25,184a224,224,0,0,1-5-31.83c-15.76-4.18-40.4-9.72-61.84-10.23a405.83,405.83,0,0,0-52.8,2.57c-11.88,16.59-19.37,28.24-19.37,28.24A206.94,206.94,0,0,1,191.88,169.24Z"/><path class="cls-12" d="M169.77,129.18c-4.59,6.79-9.09,14.22-9.25,22.42a11,11,0,0,0,1.09,5.53c2.89,5.32,11.35,4.73,15.69.49s5.77-10.52,7.47-16.34a120.29,120.29,0,0,1,19.12-38.35c3.21-4.31,12.43-13.41,11.65-19.34-1.22-9.27-11.54,2.65-14.12,5.47A348,348,0,0,0,169.77,129.18Z"/><path class="cls-12" d="M225.23,61.45c-2.71,2.65-5.58,5.64-5.9,9.42-.11,1.39.27,3,1.51,3.64,1.94,1,4-1,5.33-2.77A192.5,192.5,0,0,1,243.8,50.9c.71-.74-3.81-2.58-4.61-2.51-2.22.19-1.94,1.22-3.47,2.37C232,53.57,228.6,58.13,225.23,61.45Z"/><path class="cls-13" d="M167.5,287a53.48,53.48,0,0,0,7.49,14.9,1.57,1.57,0,0,0,2.09.55,1.54,1.54,0,0,0,.55-2.1,51,51,0,0,1-7.18-14.17c-.6-1.87-3.56-1.07-2.95.82Z"/><path class="cls-13" d="M159.81,301.25l4.8,11a1.54,1.54,0,0,0,2.1.55,1.57,1.57,0,0,0,.55-2.09l-4.8-11a1.55,1.55,0,0,0-2.1-.55,1.58,1.58,0,0,0-.55,2.1Z"/><path class="cls-13" d="M151.46,326.26q2.58,6.11,5.15,12.21a1.6,1.6,0,0,0,1.89,1.07,1.54,1.54,0,0,0,1.07-1.89l-5.15-12.21a1.59,1.59,0,0,0-1.89-1.07,1.56,1.56,0,0,0-1.07,1.89Z"/><path class="cls-13" d="M165.51,365l12.54,16.33a1.6,1.6,0,0,0,2.1.55,1.55,1.55,0,0,0,.55-2.1l-12.54-16.33a1.58,1.58,0,0,0-2.1-.55,1.55,1.55,0,0,0-.55,2.1Z"/><path class="cls-13" d="M184.55,357.37l9.57,5.56a1.54,1.54,0,0,0,1.55-2.65l-9.57-5.56a1.54,1.54,0,0,0-1.55,2.65Z"/><path class="cls-13" d="M208.32,382.79l13.08,5.39a1.56,1.56,0,0,0,1.89-1.07,1.58,1.58,0,0,0-1.08-1.89l-13.08-5.39a1.53,1.53,0,0,0-1.88,1.07,1.57,1.57,0,0,0,1.07,1.89Z"/><path class="cls-13" d="M208.6,402.62,225,413c1.67,1.07,3.21-1.59,1.54-2.64L210.15,400c-1.67-1.06-3.21,1.59-1.55,2.65Z"/><path class="cls-13" d="M263.19,429.6,278.34,432a1.57,1.57,0,0,0,1.88-1.07,1.55,1.55,0,0,0-1.07-1.89L264,426.64a1.59,1.59,0,0,0-1.89,1.07,1.55,1.55,0,0,0,1.08,1.89Z"/><path class="cls-13" d="M270.33,404.78l10.31,4.77a1.59,1.59,0,0,0,2.1-.55,1.55,1.55,0,0,0-.55-2.1l-10.32-4.77a1.58,1.58,0,0,0-2.09.55,1.54,1.54,0,0,0,.55,2.1Z"/><path class="cls-13" d="M234.68,364.18l6.92,4.73a1.55,1.55,0,0,0,2.1-.55,1.57,1.57,0,0,0-.55-2.1l-6.92-4.73a1.56,1.56,0,0,0-2.1.55,1.57,1.57,0,0,0,.55,2.1Z"/><path class="cls-13" d="M148.7,281.62l1.65,7.48a1.53,1.53,0,0,0,3-.81l-1.65-7.49a1.55,1.55,0,0,0-1.89-1.07,1.57,1.57,0,0,0-1.07,1.89Z"/><path class="cls-13" d="M141.25,316.61l3.49,10.27a1.53,1.53,0,0,0,3-.81q-1.75-5.15-3.49-10.28a1.58,1.58,0,0,0-1.89-1.07,1.55,1.55,0,0,0-1.07,1.89Z"/><path class="cls-13" d="M308,378.06,319.67,385a1.54,1.54,0,0,0,1.55-2.65l-11.64-6.92a1.54,1.54,0,0,0-1.55,2.65Z"/><path class="cls-13" d="M316.39,408.75a45.73,45.73,0,0,0,14.76,6.37c1.92.45,2.74-2.51.81-3a43.32,43.32,0,0,1-14-6.06,1.55,1.55,0,0,0-2.1.55,1.57,1.57,0,0,0,.55,2.1Z"/><path class="cls-13" d="M307.52,435.2a104.13,104.13,0,0,1,16.79,3.14,1.54,1.54,0,0,0,.82-3,109.62,109.62,0,0,0-17.61-3.25,1.55,1.55,0,0,0-1.54,1.54,1.57,1.57,0,0,0,1.54,1.53Z"/><path class="cls-13" d="M322.63,452.94a16.19,16.19,0,0,1,3.41-.06l.45.05c.33,0-.27-.05.1,0s.55.09.82.15a13.83,13.83,0,0,1,1.68.44,1.54,1.54,0,1,0,.82-3,17.42,17.42,0,0,0-7.28-.7,1.67,1.67,0,0,0-1.08.45,1.53,1.53,0,0,0-.45,1.08c0,.75.68,1.64,1.53,1.54Z"/><path class="cls-13" d="M334.59,454.19,355.18,459c1.92.45,2.74-2.51.81-3l-20.59-4.82c-1.92-.45-2.74,2.51-.81,3Z"/><path class="cls-13" d="M379.2,451.45a14,14,0,0,0,7-.56,1.53,1.53,0,1,0-.82-2.95,15.39,15.39,0,0,1-1.51.44q-.33.08-.66.12l-.22,0h.07l-.34,0a11.81,11.81,0,0,1-1.46,0,6.81,6.81,0,0,1-.78-.05,2,2,0,0,0-.34,0c.22,0,.25,0,.08,0l-.23,0a1.67,1.67,0,0,0-1.18.15,1.54,1.54,0,0,0,.37,2.81Z"/><path class="cls-13" d="M350.63,427.44l11,4.73a1.58,1.58,0,0,0,2.1-.55,1.54,1.54,0,0,0-.55-2.1l-11-4.73a1.59,1.59,0,0,0-2.1.56,1.53,1.53,0,0,0,.55,2.09Z"/><path class="cls-13" d="M370.61,387.26a37.32,37.32,0,0,0,5.83,10.32,1.54,1.54,0,0,0,2.17,0,1.59,1.59,0,0,0,0-2.17,34.73,34.73,0,0,1-5.05-9,1.56,1.56,0,0,0-1.88-1.07,1.54,1.54,0,0,0-1.07,1.88Z"/><path class="cls-13" d="M353.12,350.89l4.8,4.8a1.53,1.53,0,1,0,2.17-2.16l-4.8-4.81a1.53,1.53,0,0,0-2.17,2.17Z"/><path class="cls-13" d="M242.21,301.07a39.62,39.62,0,0,0,10,4.14,1.53,1.53,0,0,0,.81-2.95,36,36,0,0,1-9.29-3.84,1.54,1.54,0,0,0-1.55,2.65Z"/><path class="cls-13" d="M293.73,311.31a46.32,46.32,0,0,0,10.65,5,1.54,1.54,0,1,0,.82-3,42.78,42.78,0,0,1-9.93-4.65,1.53,1.53,0,0,0-1.54,2.65Z"/><path class="cls-13" d="M265.68,444.57a94.91,94.91,0,0,0,14.4.82c2,0,2-3.1,0-3.07a94.91,94.91,0,0,1-14.4-.82c-.82-.11-1.53.79-1.53,1.54a1.56,1.56,0,0,0,1.53,1.53Z"/><path class="cls-13" d="M283.44,325l12.37,6.83c1.73.95,3.28-1.7,1.55-2.65L285,322.37c-1.73-1-3.28,1.69-1.55,2.65Z"/><path class="cls-8" d="M124,279.46a41.33,41.33,0,0,1,.37-9.45,1.58,1.58,0,0,0-1.07-1.88,1.55,1.55,0,0,0-1.89,1.07,43.53,43.53,0,0,0-.47,10.26,1.53,1.53,0,1,0,3.06,0Z"/><path class="cls-8" d="M135.09,266.32c1-2.37,1.95-4.75,2.93-7.12a1.54,1.54,0,0,0-1.07-1.89,1.59,1.59,0,0,0-1.89,1.08q-1.45,3.56-2.93,7.11a1.54,1.54,0,0,0,1.07,1.89,1.59,1.59,0,0,0,1.89-1.07Z"/><path class="cls-8" d="M128.28,258.92q1.54-2.6,3.1-5.19a1.54,1.54,0,1,0-2.65-1.55c-1,1.73-2.07,3.46-3.1,5.2a1.53,1.53,0,0,0,2.65,1.54Z"/><path class="cls-8" d="M150.64,259a8.23,8.23,0,0,1,.46-.74,1.59,1.59,0,0,0,.15-.21c0,.05-.21.27-.08.11l.28-.33c.2-.21.4-.42.62-.61l.33-.28c.24-.2-.3.21,0,0l.18-.12a7,7,0,0,1,.74-.46l.38-.2.2-.09c.24-.11-.27.11-.09,0a8.5,8.5,0,0,1,1.71-.47,1.52,1.52,0,0,0,1.07-1.88,1.53,1.53,0,0,0-.71-.92,1.77,1.77,0,0,0-1.18-.16,9.51,9.51,0,0,0-6.66,4.74,1.53,1.53,0,1,0,2.64,1.55Z"/><path class="cls-8" d="M134.15,292l-.18-1c0-.18-.05-.35-.08-.52,0-.34,0,.17,0-.19-.08-.63-.13-1.25-.16-1.88a25.76,25.76,0,0,1,.11-3.83,1.54,1.54,0,0,0-1.53-1.54,1.59,1.59,0,0,0-1.54,1.54,27.12,27.12,0,0,0,.44,8.19,1.53,1.53,0,0,0,3-.81Z"/><path class="cls-8" d="M127.37,297.86a9.83,9.83,0,0,1-.73-1.26l-.08-.18c-.07-.15,0-.11,0,.1a1.78,1.78,0,0,0-.14-.36c-.08-.21-.15-.43-.21-.65s-.11-.43-.16-.66,0-.25-.07-.38,0-.13,0,.12a1.23,1.23,0,0,1,0-.19,8.91,8.91,0,0,1,0-1.46,1.53,1.53,0,0,0-1.53-1.53,1.56,1.56,0,0,0-1.53,1.53,10.55,10.55,0,0,0,1.8,6.47,1.57,1.57,0,0,0,2.1.55,1.55,1.55,0,0,0,.55-2.1Z"/><path class="cls-8" d="M145.41,250.09l.45-.2s.43-.2.09,0c.26-.12.54-.21.81-.31.53-.19,1.06-.37,1.6-.52s1.09-.28,1.64-.39l.85-.15.37-.05.21,0a1.75,1.75,0,0,0,1.09-.45,1.64,1.64,0,0,0,.45-1.09c0-.75-.68-1.63-1.54-1.53a24.06,24.06,0,0,0-7.57,2.11,1.54,1.54,0,0,0-.55,2.1,1.57,1.57,0,0,0,2.1.55Z"/><path class="cls-8" d="M193.93,249.35c.69,0,1.37.05,2,.11l.62.07.22,0c.33.05.67.1,1,.17a25.4,25.4,0,0,1,4,1.09,1.54,1.54,0,0,0,1.89-1.07,1.58,1.58,0,0,0-1.07-1.88,27.38,27.38,0,0,0-8.73-1.59,1.54,1.54,0,0,0,0,3.07Z"/><path class="cls-8" d="M192,258.13a26.12,26.12,0,0,0,9.74,1.09,1.54,1.54,0,0,0,0-3.07,22.59,22.59,0,0,1-8.92-1,1.55,1.55,0,0,0-1.89,1.07,1.57,1.57,0,0,0,1.07,1.89Z"/><path class="cls-8" d="M223.23,270.41a47.5,47.5,0,0,0,9.68,4.88,1.55,1.55,0,0,0,1.88-1.08,1.57,1.57,0,0,0-1.07-1.88,41.84,41.84,0,0,1-4.5-2,44.78,44.78,0,0,1-4.44-2.6,1.56,1.56,0,0,0-2.1.55,1.58,1.58,0,0,0,.55,2.1Z"/><path class="cls-8" d="M215.47,251.73c.53.28,1.05.59,1.55.92l.78.55.15.12c-.33-.24-.12-.1,0,0l.37.3a18.11,18.11,0,0,1,2.55,2.63,1.56,1.56,0,0,0,1.08.45,1.58,1.58,0,0,0,1.09-.45,1.55,1.55,0,0,0,.45-1.09A1.8,1.8,0,0,0,223,254a19.16,19.16,0,0,0-6-5,1.54,1.54,0,0,0-1.55,2.65Z"/><path class="cls-8" d="M212.85,264.22l2.59,1.55a1.57,1.57,0,0,0,1.18.16,1.6,1.6,0,0,0,.92-.71,1.52,1.52,0,0,0,.15-1.18,1.61,1.61,0,0,0-.7-.92l-2.59-1.55a1.57,1.57,0,0,0-1.18-.16,1.6,1.6,0,0,0-.92.71,1.52,1.52,0,0,0-.15,1.18,1.61,1.61,0,0,0,.7.92Z"/><path class="cls-8" d="M233.78,258.8a43.83,43.83,0,0,1,3.87,3.84c.59.66,1.16,1.33,1.71,2l.23.29c.16.21-.21-.28.07.1l.4.53q.41.56.81,1.14a1.54,1.54,0,0,0,2.65-1.55,47,47,0,0,0-7.57-8.55,1.53,1.53,0,0,0-2.17,2.17Z"/><path class="cls-8" d="M251.77,281.24a63.53,63.53,0,0,0,9.67,4.35,1.54,1.54,0,0,0,.82-3,57.18,57.18,0,0,1-8.94-4,1.54,1.54,0,1,0-1.55,2.65Z"/><path class="cls-8" d="M162.71,262.26l8.29-2.09a1.54,1.54,0,0,0,1.07-1.89,1.56,1.56,0,0,0-1.88-1.07l-8.29,2.09a1.53,1.53,0,0,0,.81,3Z"/></g></g></svg>