<svg xmlns="http://www.w3.org/2000/svg" viewBox="0 0 813.86 605.56"><defs><style>.pj-5-1{fill:#b2d9db;}.pj-5-2{fill:#74813f;}.pj-5-3{fill:#596030;}.pj-5-4{fill:#754617;}.pj-5-5{fill:#935a1c;}.pj-5-6{fill:#31383f;}.pj-5-7{fill:#aa6b1f;}.pj-5-8{fill:#848e47;}</style></defs><g id="Capa_2" data-name="Capa 2"><g id="Layer_2" data-name="Layer 2"><path class="pj-5-1" d="M467,572c0,18.55-89.76,33.59-200.48,33.59S66.05,590.52,66.05,572s89.76-33.59,200.49-33.59S467,553.42,467,572Z"/><path class="pj-5-2" d="M401.73,542.67c-2.12-1.51-5-1.81-7-3.47a9.75,9.75,0,1,0-8.47-17.56c-2.05,1.05-3.66,2.78-5.39,4.3a32.32,32.32,0,0,1-30.14,6.48A328.59,328.59,0,0,0,364.54,423l-11.06,9c-11.37,3.12-22.64,7.39-32,14.54S304.69,464,303,475.66c-3,21.23,12.89,42.34,7.87,63.19-1.14,4.73-3.33,9.17-4.27,13.95s-.38,10.28,3.19,13.59c3.4,3.16,8.48,3.48,13.12,3.62l38.85,1.2c6.09.19,16,2.17,18.19-1.13,2-2.7.41-4.51-1.49-6.4,4,1.39,8.63,2.36,12.38.35,3.39-1.81,4.86-7,2.44-9.66a7.2,7.2,0,1,0,8.41-11.7Z"/><polygon class="pj-5-3" points="311.66 534.49 319.26 537.09 333.38 505.56 338.05 516.02 357.85 504.74 360.82 480.27 320.58 475.73 311.66 534.49 311.66 534.49"/><path class="pj-5-2" d="M244.74,548.17c-1.73-4.54-4.62-8.56-6.54-13-8.43-19.72,3.73-43.19-2.78-63.62-3.58-11.24-12.59-20.2-23-25.68s-22.26-7.81-34-9l-12.41-7a328.82,328.82,0,0,0,31.83,105.59A32.31,32.31,0,0,1,167,534.09c-2-1.21-3.84-2.66-6-3.35a9.75,9.75,0,1,0-5.41,18.73c-1.71,2-4.45,2.74-6.29,4.58a7.2,7.2,0,1,0,10.24,10.13c-1.94,3,.38,7.91,4,9.13,4,1.35,8.41-.38,12.15-2.42-2.06,2.35-3.83,4.84-.4,6.56,7.73,3,12.14-.71,18.12-1.92l38.11-7.66c4.55-.92,9.51-2.08,12.33-5.76C246.82,558.25,246.47,552.72,244.74,548.17Z"/><path class="pj-5-3" d="M178.38,489.55c.43,1.17,6.62,16.62,6.62,16.62l50.12,13.32,1.25-11.84Z"/><path class="pj-5-2" d="M527.23,400.15c-1-18.94-36.5-99.53-48.34-118.7a358.78,358.78,0,0,0-63.63-76.72,296.41,296.41,0,0,0-33.18-26.34c-20.11-13.65-41.81-23.42-65-30.67-9.41-2.94-16.86-1.26-18,10.19-1.12,11.66,9,20,17.58,26,22.21,15.65,47.2,28.37,64.49,49.33,14.78,17.93,22.7,40.54,28.07,63.15s8.52,45.77,15.22,68c.58,1.91,1.21,3.84,1.9,5.76,2.71,11.53-.9,19-3.75,21.4-7.86,6.59-16.75,8.81-15.33,19.55,1.82,13.81,22,7.21,29.91,10.82,4.21,2.13,5.72,7.26,8.16,11.3,6.11,10.1,18.92,13.92,30.7,14.68,9.27.59,18.77-.22,27.39-3.68s16.31-9.76,20.27-18.16C527.52,418.13,527.72,409,527.23,400.15Z"/><polygon class="pj-5-4" points="148.23 341.51 152.06 316.85 168.73 312.18 353.62 254.62 361.77 260 382.88 251.57 355.42 299.9 156.61 350.56 148.23 341.51 148.23 341.51"/><path class="pj-5-2" d="M148.18,8.92c-1.68,6.51-1.55,13.32-1.32,20,.46,12.85,1.33,25.89,5.65,38s12.54,23.37,24.27,28.65c3.06,1.37,7,2.21,9.52,0,1.73-1.46,2.28-3.86,2.69-6.09,2.92-16,7.33-42.76.16-58.22C185.33,23.12,147.08,13.16,148.18,8.92Z"/><path class="pj-5-2" d="M399.55,50.61c-1.33,6.59-4.43,12.66-7.59,18.59-6,11.36-12.53,22.7-21.72,31.7S348.73,116.42,335.88,116c-3.36-.1-7.23-1-8.58-4.12-.92-2.08-.37-4.47.24-6.65,4.36-15.63,12.14-41.66,25.35-52.42C359.94,47.11,398.68,54.9,399.55,50.61Z"/><path class="pj-5-2" d="M182.45,146.88c-91,49-129.2,97.75-159.36,189.74-1.48,4.49-2.59,9.21-2.13,14,.93,9.72,9,18.12,18.29,22.71s19.86,6.07,30.15,7.42c5.28.69,10.8,1.34,15.69-.36,10.4-3.63,13.43-15.74,15-26.16,4.67-30.11,9.17-60.48,19.78-89s27.9-55.38,53.89-72.74c11.54-7.7,24.52-13.37,36.25-20.81,6.36-4,35.08-25.46,25.6-34.39C227.11,129.22,195.4,139.91,182.45,146.88Z"/><path class="pj-5-2" d="M170.24,174.34c-5.25,11.62-7.66,24.3-9.55,36.91a500.65,500.65,0,0,0-.85,142.19c1.2,8.73,2.72,17.68,7.27,25.23,4.24,7.06,10.86,12.41,17.89,16.7a97.64,97.64,0,0,0,32.08,12.49c14,2.76,28.48,2.41,42.78,1.85,23.8-.92,47.58-2.34,71.35-3.76,7.05-.43,14.5-1,20.32-5,7-4.85,10.07-13.63,11.87-22,3.73-17.17,4-34.89,3.7-52.46-.93-53.31-7.76-108.63-36.23-153.72-6.06-9.6-13.21-18.78-22.59-25.19-11.62-7.94-25.89-11.08-39.92-12.13C233.28,132.9,186.33,138.73,170.24,174.34Z"/><path class="pj-5-3" d="M208.61,200.31c17.7,14.37,43.64,18.75,67,14.3,22.57-4.31,44.5-18,50.68-38.13,2.12-6.88,2.31-14.12,2.06-21.24-.28-7.83-1.26-16.06-6.28-22.41-4.1-5.18-10.45-8.51-16.85-11.19a136.4,136.4,0,0,0-40.48-9.92c-30.46-2.68-48.56,10.87-67.84,30.45C180.2,159.12,192,186.84,208.61,200.31Z"/><path class="pj-5-2" d="M253.41.11c-45.12-1.47-76.49,11.74-81.25,59.16-4,40,3.19,121.93,78.44,130,76.87,8.23,101.16-75.35,106.93-113.64C363.4,36.64,338.86,2.88,253.41.11Z"/><path class="pj-5-3" d="M257.31,45C249.77,64.75,244,85.15,238.89,105.7c-2.06,8.34-3.81,17.88,1.1,24.93,2.54,3.66,6.56,6.05,10.73,7.62a40.16,40.16,0,0,0,19.18,2.27c5-.64,10-2.32,13.57-5.85a25.45,25.45,0,0,0,5.65-9.85c4.09-11.71,4.3-24.44,3.18-36.8-1.49-16.28-5-33.06-11.33-48.19C274.49,24.36,262,32.63,257.31,45Z"/><path class="pj-5-3" d="M196.72,27.89C192.16,30.13,187.23,33,185.91,38a5.46,5.46,0,0,0,.13,3.7c.88,1.91,3.2,2.8,5.3,2.66a18.42,18.42,0,0,0,6-1.91,77.09,77.09,0,0,1,28-6.39c5.74-.22,11.64.19,17.09-1.62,2.6-.87,5.42-2.94,5-5.65-.33-2.15-2.54-3.42-4.55-4.27C226.48,17.55,212.36,20.19,196.72,27.89Z"/><path class="pj-5-3" d="M306.79,29.21c-5.08-.21-10.81,0-14.31,3.66a5.54,5.54,0,0,0-1.66,3.32c-.14,2.09,1.48,4,3.39,4.87a18.46,18.46,0,0,0,6.16,1.18A77.28,77.28,0,0,1,328,50c5.14,2.56,10.12,5.73,15.77,6.75,2.7.49,6.17,0,7.09-2.57.74-2.05-.6-4.22-2-5.93C337.86,34.37,324.21,29.94,306.79,29.21Z"/><path class="pj-5-2" d="M168.43,446c9.69,20.8,29.73,35,51,42.35,34.79,12.09,73.32,8.12,108.11-3.85,14.32-4.93,29.23-12.08,36.45-25.71,4.95-9.34,5.54-20.4,5.92-31,.53-14.91.73-30.55-5.88-43.85-4.47-9-11.78-16.25-19.9-21.94-26.79-18.76-61.2-21.07-93.56-19.68-23.68,1-63.88,2.45-82.16,21.38C151.1,381.57,159.19,426.14,168.43,446Z"/><path class="pj-5-3" d="M174.61,43.58c1.61-3.4,3.1-7.51,1.22-10.77a8.78,8.78,0,0,0-3.19-3c-4.84-2.89-11.36-3.32-14.76-7.81-.73,7.73-1.46,15.49-.93,23.23s2.38,15.53,6.46,22.13a10,10,0,0,0,3.48,3.72,4.16,4.16,0,0,0,4.79-.39c1.16-1.17,1.22-3,1.2-4.64a92.93,92.93,0,0,0-.6-11.45C171.75,50.6,172.94,47.16,174.61,43.58Z"/><path class="pj-5-3" d="M363,69.63c0-3.77.44-8.11,3.54-10.24a8.78,8.78,0,0,1,4.18-1.34c5.61-.53,11.68,1.89,16.69-.69-2.68,7.29-5.37,14.61-9.18,21.37s-8.84,13-15.37,17.17a10,10,0,0,1-4.74,1.86A4.14,4.14,0,0,1,354,95.34c-.55-1.55.19-3.23.91-4.7a91.44,91.44,0,0,1,5.48-10.07C362.58,77.19,363,73.58,363,69.63Z"/><path class="pj-5-5" d="M409.11,416.78c-4.15-.58-8.58-1.12-12.38.66-9.21,4.3-7.5,19.16.5,25.43s18.93,6.68,29,7.79a163.32,163.32,0,0,1,104.56,55c8.89,10.3,18.18,22.7,31.73,23.83,7.66.64,15.66-2.59,22.88,0,5,1.83,8.63,6.17,12.31,10.05a96.11,96.11,0,0,0,34.82,23.52c13.76,5.32,28.56,7.22,43.19,9.08l63.88,8.12c10.66,1.35,21.68,2.68,32-.36,8.88-2.61,16.57-8.31,23.17-14.8,7.81-7.69,14.5-16.87,17.49-27.42s1.88-22.58-4.6-31.42c-4.25-5.79-10.42-9.82-16.47-13.68-23.66-15.12-49.6-30.14-77.65-28.89-5.93.26-12.73,1-17-3.19-2.38-2.36-3.34-5.76-5.08-8.62-4.51-7.41-13.94-10.43-22.6-10.29s-17.08,2.81-25.65,4.11c-25.24,3.84-50.55-4.21-75.38-10.19a476.6,476.6,0,0,0-84-12.44c-13.76-.79-28.17.81-41.79-.73C431.17,421.16,420.11,418.3,409.11,416.78Z"/><path class="pj-5-4" d="M807.68,506.31a32,32,0,0,0-3-3.53,41.78,41.78,0,0,1-1.55,10c-3,10.55-9.68,19.73-17.49,27.41-6.6,6.5-14.29,12.2-23.17,14.81-10.31,3-21.33,1.71-32,.36l-63.88-8.12c-14.63-1.86-29.43-3.76-43.19-9.08a96.11,96.11,0,0,1-34.82-23.52c-3.68-3.88-7.28-8.22-12.31-10.06-7.21-2.63-15.22.59-22.87,0-13.56-1.13-22.85-13.54-31.74-23.84a163.35,163.35,0,0,0-104.56-55c-8.25-.91-17-1.36-24.35-4.9-4.36,6.15-2,17,4.5,22.1,8,6.26,18.93,6.68,29,7.79a163.32,163.32,0,0,1,104.56,55c8.89,10.3,18.17,22.7,31.73,23.83,7.66.64,15.66-2.59,22.88,0,5,1.83,8.63,6.17,12.31,10.05a96.11,96.11,0,0,0,34.82,23.52c13.76,5.32,28.56,7.22,43.19,9.08l63.87,8.12c10.67,1.35,21.69,2.68,32-.36,8.88-2.61,16.57-8.31,23.17-14.8,7.81-7.69,14.49-16.87,17.48-27.42S814.16,515.15,807.68,506.31Z"/><path class="pj-5-2" d="M87.62,412.37c-4.49,1.48-6.74,6.32-9.77,9.95-7.55,9.07-20.78,10.93-32.54,9.92-9.26-.8-18.53-3-26.53-7.74s-14.67-12.09-17.33-21C-1.08,395.06.11,386,1.9,377.33c3.87-18.57,11.16-37.51,26-49.3A34.61,34.61,0,0,1,42,321c7.3-1.55,14.89.13,22,2.41,13.82,4.44,27.48,11.71,35.35,23.9,5.18,8,7.45,17.49,9.64,26.76,2.36,10,10.18,27.47,7.17,37.88C112.26,425.3,96,410,87.62,412.37Z"/><path class="pj-5-3" d="M188.62,67.15c-.87-3.71,1.06-7.61,3.8-10.26,5.19-5,12.8-6.54,20-7.19,3.84-.35,7.82-.5,11.44.84a20.49,20.49,0,0,1,5.8,3.51c3.57,2.94,6.72,7.48,5.39,11.9-.85,2.81-3.38,4.86-6.13,5.89a28.74,28.74,0,0,1-8.67,1.31C213.47,73.48,190.94,77.05,188.62,67.15Z"/><path class="pj-5-6" d="M210.12,58.49c-6.49.09-13.47.46-18.56,4.48-.58.46-1.19,1.18-.89,1.86a1.66,1.66,0,0,0,1.12.79c3.05,1,6.34.36,9.53.09,7.43-.63,14.89.56,22.35.47a13.56,13.56,0,0,0,6.53-1.29,2.07,2.07,0,0,0,.86-.77c1.61-3.18-6.61-4.68-8.06-4.94A70.26,70.26,0,0,0,210.12,58.49Z"/><path class="pj-5-3" d="M339.54,84.32c1.74-3.39.81-7.63-1.21-10.87-3.82-6.13-10.84-9.44-17.67-11.81-3.64-1.27-7.47-2.38-11.3-2a20.58,20.58,0,0,0-6.48,2c-4.17,2-8.33,5.63-8.1,10.25.14,2.93,2.1,5.53,4.52,7.19a28.69,28.69,0,0,0,8.09,3.37C313.89,84.45,334.89,93.37,339.54,84.32Z"/><path class="pj-5-6" d="M320.77,70.73c6.27,1.65,13,3.7,16.92,8.82.46.59.87,1.44.42,2a1.67,1.67,0,0,1-1.28.49c-3.19.19-6.24-1.18-9.27-2.21-7.05-2.41-14.58-3.06-21.8-5a13.61,13.61,0,0,1-6-2.83,2.07,2.07,0,0,1-.64-1c-.8-3.47,7.54-2.94,9-2.84A70.1,70.1,0,0,1,320.77,70.73Z"/><path class="pj-5-3" d="M216.27,277.89c4.59-.21,9.35-.82,13.17-3.36,2.84-1.9,4.93-4.71,6.95-7.47A22.49,22.49,0,0,1,220.83,289a37.93,37.93,0,0,1-11.05,1.17,139.86,139.86,0,0,1-33.65-4.33c-4-1-8.52-2.71-9.88-6.62-4.16-11.94,11.55-7.51,16.51-5.83A92.22,92.22,0,0,0,216.27,277.89Z"/><path class="pj-5-3" d="M302.09,274.9c-4.59.16-9.38-.08-13.39-2.31-3-1.67-5.28-4.31-7.51-6.9a22.46,22.46,0,0,0,17.23,20.64,37.86,37.86,0,0,0,11.1.3,140.25,140.25,0,0,0,33.22-6.95c3.91-1.33,8.27-3.37,9.32-7.38,3.21-12.23-12.1-6.58-16.92-4.51A92.27,92.27,0,0,1,302.09,274.9Z"/><path class="pj-5-5" d="M152.55,394.72c-4.17,31.12-3.93,62.64-3.67,94l132.61,41-2.81-10.19,33.2,11.51a3.37,3.37,0,0,0,5.23-2.22q7.8-18.35,15.59-36.69a121.91,121.91,0,0,1,8.85,16.52q21-15.84,43.29-29.71c-2.21-27.77-4.44-55.6-9.55-83a99.12,99.12,0,0,1-2.17-15.4,93.24,93.24,0,0,1,1.22-15.18,992.43,992.43,0,0,0,8.54-113.86q-11.14,10.86-23.29,20.63a132.07,132.07,0,0,0-31.29-35.69A681.74,681.74,0,0,1,297,301.36a6.9,6.9,0,0,1-2.47,3c-1.4.77-3.11.49-4.68.19L271.23,301a63.19,63.19,0,0,1-1.29,18.8c-21.42,4-37.39,8.73-58.81,12.69-10.77,2-38.75-3.73-38.75-3.73-7.65-.06-24.15,12.77-24.15,12.77s3.92,15.24,5.42,22.79C155.67,374.41,153.9,384.64,152.55,394.72Z"/><path class="pj-5-3" d="M301.48,160.42c-.37-1.39-2.08-1.81-3.5-2l-70.7-9.18c-2.17-.28-13.86-3.08-13.85-.19,0,3.12,11.2,3.1,13.48,3.38q17.57,2.16,35.16,4.07Q281.77,158.63,301.48,160.42Z"/><path class="pj-5-2" d="M442.38,450.8c-1.25,3.55-4.06,8.77-1.77,11.76a7.53,7.53,0,0,0,3.92,2.45c6.26,1.85,14.73-1.52,18.18-7.06,2.21-3.55,3.54-7.87,7.71-8.13,3.78-.23,6.27,3.44,5.94,7.22s-2.26,7.27-2.62,11a5.59,5.59,0,0,0,.4,3.06,5.35,5.35,0,0,0,3.05,2.39c5.54,2,11.71-.87,16.28-4.61,5.59-4.59,10.14-14.74,12.53-21.56,1.64-4.69,5.25-4.68,4.65-1.59q-.48,5.78-.95,11.55a10.18,10.18,0,0,0,.29,4.4,6.42,6.42,0,0,0,6,3.81,11.77,11.77,0,0,0,6.93-2.54c8.16-5.9,10.87-16.77,11.78-26.8,1.33-14.54-4.89-37.16-11.38-52.77-1.57-3.78-2.93,4.67-6.53,2.74-5.36-2.87-11.7-3.35-17.75-2.86-13.4,1.09-26,6.75-36.64,14.83-7,5.36-27.79,9.95-23.17,23.9C442,430.47,445.6,441.65,442.38,450.8Z"/><path class="pj-5-7" d="M585.72,462.91c9.37.59,18.75-.87,28.13-.52s19.27,2.85,25.59,9.78c2.37,2.59,4.13,5.69,6.59,8.2,6.8,6.93,19.44,7.54,26.08.44s4.31-20.74-4.73-24.3c-3.15-1.24-6.64-1.28-10-1.19-13.19.37-26.41,2.47-39.54,1.14-16.09-1.63-32.85-10.12-49.13-8.65-5.35.48-12.21,1.58-7.63,8.36C564.47,461.22,580.32,462.57,585.72,462.91Z"/><path class="pj-5-7" d="M695.06,499.07a15,15,0,0,0,7.26,4.2c13.6,4.12,30-.09,41.12,8.8,3.33,2.68,5.77,6.29,8.82,9.27a24.82,24.82,0,0,0,15.24,7.29c5.74.41,11.76-1.87,15.23-6.46,5.89-7.78,2.74-19.63-4.28-26.42s-16.77-9.75-26.14-12.5l-15-4.4c-9.61-2.82-23-7-32.88-2.91C696.42,479.26,688.26,491.14,695.06,499.07Z"/><path class="pj-5-7" d="M559.49,472c-4,.33-8.12,2.29-10.13,5.81s-1.32,8.6,2.07,10.82c2.71,1.78,6.32,1.41,9.36.31s5.86-2.85,9-3.72c2.59-.73,5.36-.84,7.86-1.83s4.84-3.25,4.68-5.94c-.18-3.06-3.43-5.06-6.46-5.47s-6.15.23-9.18-.25a15.64,15.64,0,0,0-4.34-.53c-1.45.17-3,1.3-2.86,2.77Z"/><path class="pj-5-7" d="M626.86,510.46c-.51,4-.17,8.41,2.22,11.7,3.1,4.25,8.72,5.64,13.87,6.72l9.41,2c4.71,1,9.66,2,14.25.54s8.52-6.2,7.26-10.84c-1.21-4.46-6.25-6.57-10.74-7.69s-9.56-2.19-12.1-6.06c-1.14-1.73-1.6-3.83-2.63-5.64C640.59,487.36,628.17,500.15,626.86,510.46Z"/><path class="pj-5-6" d="M246,122.56a20.67,20.67,0,0,0,1.9,5.63c.6,1.33,1.61,2.9,3.05,2.68s1.9-1.91,2.07-3.29a47.85,47.85,0,0,0,.35-5.48C253.42,114.26,245,115,246,122.56Z"/><path class="pj-5-6" d="M268.4,122.69a20.57,20.57,0,0,0-1,5.85c-.11,1.46,0,3.32,1.41,3.81s2.57-.78,3.38-1.91a48.91,48.91,0,0,0,2.92-4.65C278.9,118.93,271.11,115.53,268.4,122.69Z"/><path class="pj-5-7" d="M169.31,329.2c1.75,9.29,8.92,19.4,13.72,26.46,3.87,5.71,8.36,11.22,14.31,14.7a5.29,5.29,0,0,0,3.46,1c2.18-.37,3.15-2.9,3.65-5a93.6,93.6,0,0,0,2-13.22c.38-4.69.41-9.44,1.38-14a33.12,33.12,0,0,1,2.07-6.39c-11.44,1.48-37.68-3.9-37.68-3.9A11.49,11.49,0,0,0,169.31,329.2Z"/><path class="pj-5-7" d="M266,321.73c15.32,15.28,13.73,41.56,27.78,58a2.92,2.92,0,0,0,2.14,1.32c1.11-.06,1.77-1.25,2.08-2.31,1.36-4.65.1-9.62-1.17-14.3q-4.37-16.17-8.77-32.34c-2-7.48-4.14-15.1-8.4-21.57-2-3.09-4.58-6-6.51-9.17l-2.1-.4a63.14,63.14,0,0,1-1.29,18.8l-4.84.93C265.32,321,265.69,321.38,266,321.73Z"/><path class="pj-5-7" d="M322.18,299.53c5-17.79,13.09-35.72,10.09-53.94a33,33,0,0,0-2.17-7.51c-.64-.53-1.29-1.05-1.94-1.57a678.26,678.26,0,0,1-31.26,64.86,7,7,0,0,1-2.47,3,3,3,0,0,1-.56.24,138.87,138.87,0,0,1,4.26,17.11c2.87,16.45,1.85,34.1,9.64,48.87C314.49,347.34,315.68,322.82,322.18,299.53Z"/><path class="pj-5-7" d="M324.86,479.36c-3.46-6.4-6-13.25-9-19.88-9-19.88-22-37.74-36.62-54-1.46-1.63-3.61-3.39-5.58-2.44s-1.95,3.62-1.64,5.73c6.22,43,28.41,81.69,42.56,122.77a2.37,2.37,0,0,0,.67-.21,4.53,4.53,0,0,0,1.81-2.45l15.21-35.8C330.26,488.31,327.33,483.94,324.86,479.36Z"/><path class="pj-5-7" d="M209.78,507.64c-5.67-29.84-3.51-60.76-4.84-91.22-.05-1.09-.18-2.33-1.06-3-1.68-1.24-3.8.85-4.8,2.69C185.55,441,179,469.17,165.39,493.91Z"/><path class="pj-5-7" d="M231.9,514.48,262,523.8c-.69-3.82-1.25-7.68-1.85-11.47-5.23-33-14.6-65.13-24.08-97.15-3.33.7-4.4,4.85-4.73,8.23a253.85,253.85,0,0,0,.46,54.21c1.31,11.32,3.38,22.86.89,34C232.47,512.56,232.21,513.53,231.9,514.48Z"/><path class="pj-5-4" d="M153.25,408.74c2.3,2.25,5.69,2.93,8.88,3.33,8.59,1.06,17.27.84,25.92.62,14.15-.37,28.3-.73,42.45-1.3,24.7-1,49.56-2.63,73.48-8.91s47-17.49,64.14-35.34c3.56-3.71,7.07-8.48,6-13.52-3.86,1.63-7.37,4-11,6a159.08,159.08,0,0,1-20.08,9.1q-34.31,13.55-69.38,25c-10.19,3.34-20.47,6.55-31.05,8.34-14.66,2.48-29.64,2.2-44.48,1.47q-15.43-.75-30.84-2.14c-3.3-.29-10.6-2.49-13.7-1C150.35,402.09,150.81,406.35,153.25,408.74Z"/><path class="pj-5-6" d="M152.55,394.72s67.14,11.94,123.94-4.17,100-42.12,100-42.12l-1,8.41s-45,24.89-86.89,37.05c-78.11,22.67-136.8,7.17-136.8,7.17Z"/><path class="pj-5-4" d="M302.38,397.58a318,318,0,0,0,68.8-2.76,4.16,4.16,0,0,0,2.33-.85,3.36,3.36,0,0,0,.51-3.48c-1.11-3.42-4.62-5.59-8.16-6.21s-7.16,0-10.71.57a219.83,219.83,0,0,1-31,2.63c-8.28.11-16.79-.23-24.88,1.86-2.21.57-8.83,1.76-8,5.27C291.92,397.5,300.18,397.42,302.38,397.58Z"/><path class="pj-5-4" d="M158.14,384c2.46,2.2,5.73,3.21,8.92,4A218.64,218.64,0,0,0,188.78,392l36,5.25a93.84,93.84,0,0,0,16.63,1.42,47,47,0,0,0,16.28-3.52c-2.05-1.42-4.61-1.84-7.09-2.18-21.19-2.89-43.16-2.58-63.19-10.08-9.64-3.61-19-9.05-29.29-9.14C152.51,373.69,155.84,382,158.14,384Z"/><path class="pj-5-6" d="M154,366.05s39.66,18.47,89.68,20.6,129.52-10,129.52-10l.34,10.13s-81.23,12.93-128.84,9.26-90.39-20.88-90.39-20.88l-.62-10.89Z"/><path class="pj-5-8" d="M75.68,245.33c-8,12.37-14.89,26.36-14.16,41.06,4.41,1.3,8.43-2.85,10.85-6.76,7.16-11.6,11-25,17.94-36.72,14.92-25.22,42.34-40.14,61.75-62.1-.36.4-9.45.14-10.78.5-4.11,1.11-7.08,3.29-10.47,5.7a201.36,201.36,0,0,0-20.32,16.76A219.51,219.51,0,0,0,75.68,245.33Z"/><path class="pj-5-8" d="M184.67,95a57.08,57.08,0,0,0,6.51,31.66c2,3.7,4.68,7.42,8.68,8.68a3.23,3.23,0,0,0,2.77-.14,3.74,3.74,0,0,0,1.16-2.81c.68-7.07.09-14.4,2.44-21.11,2.12-6.06,6.64-12.12,4.67-18.23C206.64,79.85,186,80.18,184.67,95Z"/><path class="pj-5-8" d="M206.69,14.27c1.67,2.37,5.14,2.29,8,2a214.89,214.89,0,0,1,43.33.51c6.06.69,12.82,1.46,17.67-2.22A3,3,0,0,0,276.94,13a2.78,2.78,0,0,0-.41-1.91c-2-3.77-6.85-4.92-11.1-5.55C253.2,3.78,240,2.6,227.67,4,225,4.28,203.88,10.32,206.69,14.27Z"/><path class="pj-5-8" d="M409.73,261.16c-1.1,1.72-1.15,3.89-1.06,5.92,1,21,13.73,39.31,20.35,59.22,8.93,26.91,6.81,57.17,19.62,82.46,1,2,2.35,4.09,4.51,4.48,4.06.75,6.13-4.67,6.46-8.78a223.63,223.63,0,0,0-31-132.51C426.25,268.08,414.93,253.07,409.73,261.16Z"/></g></g></svg>
