<svg xmlns="http://www.w3.org/2000/svg" viewBox="0 0 408.09 532.59"><defs><style>.cls-1{isolation:isolate;}.cls-2{mix-blend-mode:overlay;}.cls-3{fill:#141414;}</style></defs><g class="cls-1"><g id="Capa_2" data-name="Capa 2"><g id="Layer_1" data-name="Layer 1"><g class="cls-2"><path class="cls-3" d="M63.49,532.59C63.4,532,54.56,471,32.85,428.39c-10-19.61-11.94-34.82-6.13-47.85,7.58-17,28.81-30,64.91-39.62,15.94-4.26,31.89-7.5,47.31-10.64,26.23-5.33,51-10.37,67.87-19.22,18.59-9.75,26-23.25,23.34-42.5-1-6.9-2.21-14.64-3.53-22.84-4.54-28-10.18-62.89-8.43-92.9C220.24,117.55,232,96.14,254,87.35,279.46,77.2,313,72,342.5,67.47,377.69,62,408.09,57.35,407.58,46l.5,0c.53,11.8-28.61,16.3-65.5,22-29.53,4.56-63,9.73-88.41,19.86-21.83,8.7-33.44,30-35.48,65-1.75,30,3.89,64.8,8.42,92.79,1.33,8.2,2.58,15.94,3.54,22.85,2.69,19.49-4.81,33.15-23.6,43-16.93,8.88-41.74,13.93-68,19.27-15.41,3.14-31.36,6.38-47.28,10.64-35.94,9.6-57.07,22.46-64.59,39.33-5.74,12.89-3.8,28,6.12,47.43C55,470.85,63.89,531.91,64,532.52Z"/><path class="cls-3" d="M55.13,524.92c-.06-.56-6.13-55.81-25-99.22-7.2-16.62-14.36-38-5.66-56,7.75-16,27-28,58.76-36.45,15.94-4.26,31.89-7.5,47.32-10.64,26.22-5.33,51-10.37,67.86-19.22,18.59-9.75,26-23.25,23.34-42.51-.67-4.84-1.44-10-2.25-15.49C211.27,189.9,198.78,106,250.72,85.32c23.87-9.51,54.22-15.7,81-21.16,36.5-7.45,68-13.87,67.5-25.83l.5,0c.55,12.38-29.66,18.54-67.9,26.34-26.76,5.45-57.08,11.64-80.91,21.14C199.34,106.34,211.79,190,220,245.33c.82,5.48,1.59,10.65,2.26,15.5,2.69,19.48-4.81,33.15-23.6,43-16.93,8.88-41.74,13.93-68,19.27-15.42,3.14-31.37,6.38-47.29,10.63C51.76,342.2,32.64,354,25,369.93c-8.61,17.8-1.49,39.05,5.67,55.57,18.86,43.48,24.93,98.81,25,99.36Z"/><path class="cls-3" d="M46.77,517.25c0-.5-3.3-50.07-19.27-94.25-8.46-23.41-15.25-45.95-5.58-64.46,7.67-14.69,25-25.46,53-32.94,15.94-4.26,31.89-7.5,47.32-10.64,26.22-5.34,51-10.37,67.87-19.22,18.58-9.75,26-23.26,23.33-42.51-.29-2.13-.6-4.32-.91-6.56-3.93-28-8.81-62.82-6-94,1.54-17,5.32-31.21,11.23-42.27,6.86-12.84,16.85-21.95,29.68-27.06,21.76-8.67,48.51-15.5,72.11-21.53,38.56-9.84,71.86-18.35,71.29-31.09l.5,0c.59,13.16-32.9,21.71-71.67,31.6-23.58,6-50.32,12.85-72,21.51-24,9.56-37.26,32.1-40.6,68.92-2.83,31.16,2,66,6,93.93q.47,3.36.92,6.57c2.69,19.48-4.81,33.15-23.6,43-16.93,8.88-41.74,13.93-68,19.27C106.91,318.59,91,321.83,75,326.08,47.2,333.52,30,344.21,22.36,358.77c-9.57,18.33-2.81,40.76,5.61,64.06,16,44.25,19.26,93.89,19.29,94.38Z"/><path class="cls-3" d="M38.41,509.57c0-.44-.42-44.33-13.58-89.27-.8-2.72-1.62-5.44-2.44-8.15C15.22,388.41,8.45,366,18.73,347.53c7.41-13.29,23.05-23,47.82-29.59,15.94-4.26,31.89-7.5,47.32-10.64,26.23-5.34,51-10.38,67.87-19.22,18.58-9.75,26-23.26,23.33-42.51-4.07-29.44-8.12-63.41-4.64-94,1.95-17.09,6.16-31.45,12.52-42.69,7.38-13,17.89-22.34,31.25-27.67,18.8-7.49,40.2-14.07,60.9-20.43C347,48,383.12,36.85,382.5,23l.5,0c.64,14.23-35.69,25.4-77.76,38.32-20.68,6.36-42.07,12.93-60.86,20.42-25,10-39.22,32.85-43.45,69.95-3.48,30.49.57,64.42,4.64,93.83,2.69,19.49-4.81,33.16-23.6,43-16.93,8.88-41.74,13.93-68,19.27-15.42,3.13-31.36,6.38-47.29,10.63C42,325,26.5,334.61,19.17,347.77,9,366,15.73,388.37,22.87,412c.82,2.72,1.64,5.44,2.44,8.16,13.18,45,13.59,89,13.6,89.41Z"/><path class="cls-3" d="M30.55,501.93l-.5,0c0-.38,2.5-38.62-7.89-84.29-1.44-6.32-3.26-12.78-5-19C10.78,376,4.77,354.64,14.65,337.3c7-12.21,21.19-21.05,43.54-27,15.94-4.26,31.89-7.51,47.32-10.64,26.23-5.34,51-10.38,67.87-19.22,18.58-9.75,26-23.26,23.33-42.51-3.33-24.09-7.17-59.75-2.09-91.15,5.63-34.81,21.21-57.53,46.31-67.54,14.26-5.68,29.95-11.28,45.11-16.68,45.67-16.29,88.8-31.67,88.11-47.2l.49,0c.71,15.9-42.59,31.34-88.43,47.69-15.16,5.4-30.84,11-45.09,16.68-24.93,9.93-40.4,32.52-46,67.15-5.07,31.33-1.23,66.94,2.1,91,2.69,19.49-4.81,33.16-23.6,43-16.93,8.88-41.74,13.93-68,19.27-15.42,3.13-31.36,6.38-47.29,10.63C36.11,316.7,22,325.46,15.08,337.54c-9.77,17.17-3.79,38.41,2.55,60.9,1.76,6.25,3.58,12.72,5,19.05C33.05,463.24,30.57,501.54,30.55,501.93Z"/><path class="cls-3" d="M22.18,494.29l-.49-.09c.06-.32,5.46-32.9-2.2-79.3-1.52-9.18-4.23-18.66-6.85-27.83-6.29-22-12.23-42.8-2.8-59.43,6.44-11.37,19.52-19.55,40-25,15.94-4.26,31.89-7.51,47.32-10.64,26.23-5.34,51-10.38,67.87-19.22,18.58-9.75,26-23.26,23.33-42.51-4.81-34.78-4.65-64.5.46-88.35,7-32.82,23.47-54.59,48.86-64.71,5.73-2.28,11.61-4.6,17.56-7C307.44,49.68,366.62,26.37,365.79,7.68l.49,0c.85,19-58.5,42.42-110.86,63.05-5.95,2.34-11.84,4.66-17.56,6.94C212.63,87.71,196.3,109.36,189.3,142c-5.1,23.79-5.25,53.46-.45,88.18,2.69,19.49-4.8,33.16-23.6,43-16.93,8.88-41.74,13.92-68,19.27C81.83,295.6,65.89,298.85,50,303.1c-20.33,5.43-33.31,13.54-39.69,24.78C1,344.33,6.86,365,13.12,386.94c2.63,9.18,5.34,18.67,6.86,27.88C27.66,461.31,22.24,494,22.18,494.29Z"/><path class="cls-3" d="M13.82,486.66l-.48-.15c.08-.27,8.46-27.18,3.48-74.31-1.22-11.56-4.9-23.66-8.46-35.36-6.62-21.76-12.87-42.32-3.89-58.47,5.94-10.69,18-18.35,37-23.41,15.94-4.26,31.89-7.51,47.32-10.64,26.23-5.34,51-10.38,67.87-19.23,18.58-9.74,26-23.25,23.33-42.5-3.11-22.54-5.12-55.69,3-85.55,8.39-30.81,25.69-51.63,51.41-61.88,46.37-18.49,124-52.83,123-75.14l.5,0c1,22.62-76.85,57.09-123.34,75.62-25.56,10.19-42.76,30.9-51.1,61.55-8.12,29.78-6.11,62.85-3,85.35,2.69,19.49-4.8,33.16-23.6,43-16.93,8.88-41.74,13.92-68,19.27-15.42,3.13-31.36,6.37-47.29,10.63-18.82,5-30.82,12.61-36.69,23.17C-4,334.58,2.25,355,8.84,376.69c3.56,11.73,7.25,23.85,8.48,35.46C22.31,459.39,13.9,486.39,13.82,486.66Z"/></g></g></g></g></svg>