<?xml version="1.0" encoding="utf-8"?>
<!-- Generator: Adobe Illustrator 24.1.3, SVG Export Plug-In . SVG Version: 6.00 Build 0)  -->
<svg version="1.1" id="Capa_1" xmlns="http://www.w3.org/2000/svg" xmlns:xlink="http://www.w3.org/1999/xlink" x="0px" y="0px"
	 viewBox="0 0 871 915" style="enable-background:new 0 0 871 915;" xml:space="preserve">
<style type="text/css">
	.siluet-0{opacity:0.36;enable-background:new    ;}
</style>
<g id="Capa_2_1_">
	<g id="Layer_2">
		<path d="M446.1,881.4c0,18.6-89.8,33.6-200.5,33.6S45.1,900,45.1,881.4s89.8-33.6,200.5-33.6S446.1,862.9,446.1,881.4z"/>
		<path d="M701.6,83.2c-0.2,0.7-0.4,1.4-0.7,2c5.3-3.4,11.3-5.5,17.5-6.2c-2.5,2.4-4.5,5.4-5.8,8.6l1.6-0.7c-2,3.6-3.1,7.5-3.3,11.6
			c0.1,1.1-0.2,2.1-0.7,3c-0.8,0.8-2,1.2-3.1,1.1c-4.6,0.1-12.3-2-14-7S697.3,84.9,701.6,83.2z"/>
		<path d="M697.2,114c-16.9-12.1-39.8-9.7-60.1-5.3c-18.6,4.1-36.9,9.4-54.8,16.1c-5.8,2.2-11.9,4.7-15.4,9.9
			c4.7,3.5,10.8,4.5,16.4,2.9c0.4,3.4,3.6,5.8,7,6.4s6.7-0.2,10-1c-1.7,1.9-0.9,5.1,1,6.8s4.5,2.2,7.1,2.5
			c21.5,2.6,44.6-4.9,64.4,4.1c8.5,3.8,15.6,10.5,24.6,13c17.4,4.9,39.4-10.6,35.7-29.8c-1.5-7.7-6.3-9-13-11.3
			C710.8,125,704.9,119.5,697.2,114z"/>
		<path d="M727.8,228.1c1.7,7.8,3.4,15.8,7.9,22.4l3.6-2.1c1,10.1,5.2,19.7,11.9,27.3c5-2.5,5.1-9.5,4.4-15l-7.8-65.7
			c-0.8-6.9-1.7-14.1-5.5-19.9s-11.4-9.8-17.8-7.1c-5.5,2.3-8.4,8.7-8.2,14.6c0.3,6.9,4.4,12.6,6.1,19.1
			C724.6,210.4,725.9,219.4,727.8,228.1z"/>
		<path d="M688.8,121.5c1.3,0.2,2.6,0.6,3.7,1.3c1.5,1.4,2.2,3.3,2,5.3c-0.9,21.3-0.2,48.8,6.3,58c4,5.6,16.1,6.4,22.8,7.7
			s13.8,1.6,20,4.5c5-19.5-0.9-39.9-6.8-59.2c-3.4-11-6.8-22.2-13.8-31.3s-21.8-18.2-33.7-14.5C676.2,97.6,674.4,117.7,688.8,121.5z
			"/>
		<path d="M668.2,345.7c0,0,14.7,9,25.1-51.4s21.1-113-6.5-110.6s-44,47.3-44,47.3s9.9,73.2,9.9,75.1S668.3,345.7,668.2,345.7
			L668.2,345.7z"/>
		<path d="M778.8,215.8c1.6,1.2,3.3,2.9,2.8,4.8c-2.9,0.7-5.9-0.3-8.7-1.2l-33.7-11.2c2,1.8,1.9,5.1,0.6,7.4s-3.6,3.9-5.8,5.4
			c-6.1,4.2-12.4,8.4-19.7,9.7c-6,1-12.1-0.2-18-1.3c-10.9-2.1-23-5.1-29-14.4c-5-7.7-4-22.8,4.7-28.1c8.2-5,25.3-1.7,34.3-0.5
			C732.6,189.5,757.6,199.7,778.8,215.8z"/>
		<path d="M462.3,200.7l94.1,43.8c0,0,66.9-48.8,93.5-56.2s40.6-4.7,40.6-4.7s-13.2-1.9-22.7,54.8c-13,77.7,0.5,107.2,0.5,107.2
			s-14.7-24.1-50.1-42.4c-34.5-17.8-62.9-7.3-62.9-7.3l-82.9-59.5L462.3,200.7z"/>
		<path d="M741,106.8c17-11.8,40-9.2,60.2-4.5c18.6,4.3,36.8,9.9,54.6,16.8c5.8,2.2,11.9,4.9,15.3,10.1c-4.7,3.4-10.8,4.4-16.4,2.7
			c-0.4,3.4-3.7,5.8-7,6.4s-6.7-0.3-10-1.2c1.7,1.9,0.8,5.1-1.1,6.8s-4.6,2.1-7.1,2.4c-21.5,2.4-44.6-5.4-64.4,3.3
			c-8.5,3.7-15.8,10.3-24.7,12.7c-17.5,4.7-39.3-11.1-35.3-30.3c1.6-7.7,6.4-8.9,13.1-11.1C727.2,117.6,733.2,112.2,741,106.8z"/>
		<path d="M700.3,189.8c0,0.3,0,0.5,0.2,0.8c0.3,0.4,0.8,0.4,1.2,0.2c0.4-0.2,0.8-0.6,1-1c-0.3,0.6-0.5,1.3-0.1,1.9
			c0.4,0.4,1,0.5,1.5,0.2c0.5-0.3,0.9-0.7,1.2-1.2c0.2,0.6-0.1,1.3,0.3,1.7s1.1,0,1.5-0.3c1.4-1.2,2.5-2.7,3.3-4.4
			c0.5-0.8,0.5-1.7,0.1-2.6c-1-1.6-5.2-1.5-6.8-0.9C701.7,185.1,700.3,187.8,700.3,189.8z"/>
		<path d="M719,193.3c0,0.3,0,0.5,0.2,0.8c0.3,0.4,0.8,0.4,1.2,0.2c0.4-0.2,0.8-0.6,1-1c-0.3,0.6-0.5,1.3-0.1,1.8
			c0.4,0.4,1,0.5,1.5,0.2c0.5-0.3,0.9-0.7,1.2-1.1c0.2,0.6-0.1,1.3,0.3,1.7s1.1,0,1.5-0.3c1.4-1.2,2.5-2.7,3.2-4.3
			c0.5-0.8,0.5-1.7,0.2-2.6c-1-1.6-5.2-1.5-6.8-0.9C720.4,188.6,719,191.2,719,193.3z"/>
		<path d="M679.1,105.1c0,0-23,17-22.2,18.7s9.1-3.2,15.7-3.8s11.7-0.6,11.7-0.6L679.1,105.1z"/>
		<path d="M694.9,154c0.3,1,0.9,1.9,1.8,2.4c0.9,0.4,2.3-0.2,2.2-1.2c0,1.5,0.4,3,0.9,4.3c0.6,1.4,2,2.3,3.5,2.3
			c1.8-0.2,3-2,3.8-3.6c1.6-3.3,2.6-6.9,3.2-10.5c-0.1,1.1,0.1,2.2,0.4,3.3c0.4,1.1,1.5,1.8,2.6,1.7c0.9-0.2,1.7-0.8,2.2-1.6
			c6.6-8.5,7.7-20,7.6-30.8c-1.4,2.6-2.9,5.1-4.6,7.5c-0.9,1.3-2,2.6-3.5,3.1s-3.5-0.7-3.4-2.3c-1.2,2.5-2.9,4.7-4.9,6.4
			c-2.1,1.8-4.9,2.5-7.7,2c-2.2-0.6-3.9-2.2-4.5-4.4C691.3,138.4,692.6,148,694.9,154z"/>
		<path d="M698,103.6c0,1.8-1.4,3.2-3.2,3.2c-1.8,0-3.2-1.4-3.2-3.2s1.4-3.2,3.2-3.2C696.6,100.4,698,101.8,698,103.6
			C698,103.6,698,103.6,698,103.6z"/>
		<path d="M490.1,213.7c12.3,4.9,29.7,13.9,41.1,19.1c-5.1,10.7-11.5,24.1-14.6,35.5c-7.7-4.2-13.4-8.4-20.1-12
			C480.9,247.9,485.3,227.4,490.1,213.7z"/>
		<path d="M499.9,51.3c-0.9-8-3-16-7.6-22.6c-3.8-5.4-9.2-9.6-14.8-13.2c-7.9-4.9-16.5-8.7-25.5-11.3c-20.2-6-79.6-16.2-189.2,53.8
			c-46.5,29.7-101.6,50.3-156.7,46.9l16.5,22.3C83.3,140.9,41.5,146,0,142.3c16.3,25,41.4,43.3,68.4,56s56.2,20.1,85.1,27.4
			c-10.3,5.8-21.5,9.7-33.2,11.4c29.4,4.9,91.3,4.6,120.3-2.6c70.1-17.2,99.9-28.1,159.7-71c25.6-10.8,49.1-26,69.4-45
			c12.1-11.4,23.4-24.7,28.1-40.7C500.3,69.3,501,60.2,499.9,51.3z"/>
		<path d="M147.9,778.4c-1.2,1.2-27.4-4.2-29.8,3.1s0.6,17.6-6.4,44.9S78,882.3,85,882.3s27-11.7,44.4-33.8s34.6-54,34.6-54
			L147.9,778.4z"/>
		<path d="M157.1,800.5c0,0,83.9-73.8,145.9-129.9c73.6-66.5,183.5-237.8,183.5-237.8l-50.7-30c0,0-50.3,39.9-125.2,168.5
			c-84.1,144.5-181.1,223.6-181.1,223.6L157.1,800.5z"/>
		<path d="M396.6,733.9c-0.6,1.9-48,99.5-45.5,107.1s29.2,21.1,48.2,28.2c12.5,4.7,25,6.4,33.1,9.6c0.9,0.4,1.4,1.4,1,2.3
			c-0.3,0.7-0.9,1.1-1.7,1.1c-28.5-0.4-115.5-1.9-120.7-5.5c-6.3-4.4,8.8-22.5,14.4-36.3s30.2-104.4,30.2-104.4L396.6,733.9z"/>
		<polygon points="426.2,126.1 405,184.6 449.3,195.7 462.3,126.1 		"/>
		<path d="M397.2,741.4c0,0,71.9-181.3,87.6-234.3s31.4-240.4,14.4-280c-8.5-19.7-27.2-40-46.7-51.1c-2.3-1.3-39.1-14.7-39.1-14.7
			s-29.3,15.6-35.9,37.8c-2.9,9.8,42.3,95.5,27.4,141.2C339.8,541.4,20.1,584.4,20.1,584.4s0,47.6,48.6,90.3
			c23.5,20.6,60.5,39.7,60.5,39.7s72.5-36.2,120.3-66.9c77.1-49.5,151.3-95,151.3-95s-21.9,61.1-48,103s-52.3,85.9-52.3,85.9
			L397.2,741.4z"/>
		<path d="M424.2,135.9c1,4,2.1,8.1,4.4,11.5s6.1,6.1,10.2,6c2.5-0.2,4.9-1.1,7-2.5c8.7-5.4,14.8-14.1,16.9-24.1
			c0.8-4,0.9-8.4-1.3-11.9c-1.9-2.9-5.1-4.7-8.5-5.8c-8.3-2.4-17.2-1.1-24.4,3.6C418.4,119.4,421.5,125.4,424.2,135.9z"/>
		<path d="M424,21c-28.7,5.3-45,18.8-41.9,45.7s32.7,76.6,63.3,70.2s37-58.6,36.6-77.3S472.4,12,424,21z"/>
		<path d="M471.4,47.9c0,0,3.2-0.9,11.4-9.3c5.2-5.4,9.5-11.6,12.9-18.4c0,0,1.1,11.1-2.8,27.5c-4.2,17.7-15.2,38.4-15.2,38.4
			L471.4,47.9z"/>
		<path d="M387.3,64.8c0,0-3.2,0.7-14.5-2.8c-7.1-2.4-13.9-5.8-20-10.1c0,0,4.3,10.3,15.4,22.9c12.1,13.6,31.5,26.6,31.5,26.6
			L387.3,64.8z"/>
		<path d="M483.6,19.8c-2-1.5-4-2.9-6.1-4.2c-7.9-4.9-16.5-8.7-25.5-11.3c-20.2-6-79.6-16.2-189.2,53.8
			c-46.5,29.7-101.6,50.3-156.7,46.9c4.8,6.5,9.6,13,14.4,19.5c8.5,3.6,17.4,5.8,26.5,6.7c19.5,2,39.1-1.4,58.4-5.2
			c29.6-5.8,59.7-12.8,85.1-29c34.1-21.7,58.5-58.7,96.6-72.2C417.7,14.1,451.2,20.5,483.6,19.8z"/>
		<path d="M131.3,805c2.1-7.6,9.3-18.5,9.2-26.9c-8.3-0.7-20.8-1.6-22.4,3.4c-2.3,7.4,0.6,17.6-6.4,44.9S78,882.3,85,882.3
			c4.6,0,15.1-5.2,26.6-15.2c0.6-1.3,1.1-2.7,1.6-4c4.2-10.3,8.4-20.7,11.4-31.4C127.1,822.9,128.8,813.8,131.3,805z"/>
		<path d="M432.4,878.8c-8-3.2-20.6-4.9-33.1-9.6c-4-1.5-8.4-3.3-12.8-5.3c-16.8-1-33.5-1.9-50.2-4.5c-6.4-1-12.4-3.2-18.4-5
			c-5.8,10-11.3,19.2-7,22.2c5.2,3.7,92.2,5.1,120.7,5.5c1,0,1.7-0.9,1.7-1.8C433.4,879.7,433,879.1,432.4,878.8z"/>
		<path d="M407.3,326.4c0,0,13.4,6.2,45.2,7.1s53.5-7.1,53.5-7.1l-1.8,47.4c0,0-13.4,8.7-46.7,6s-58.4-24.4-58.4-24.4L407.3,326.4z"
			/>
		<path d="M369.7,511.6c-0.4-2.9,26.2-158.9,29.4-156.2s13.3,5.4,13.3,5.4l-32.2,150.8l-10.5,3.2c0,0,57.3-17.9,58.3-20.8
			s50.6-117,50.6-117l20.5-3.5L436,499.2l-63.8,23.6L369.7,511.6z"/>
		<path d="M451.2,456.1c2.2-3.4-6.2-15.6-10-22.4c15.4,15.8,37.5,38.7,38.7,36.4c3.6,0,0.3-8.5-1.7-10.5
			c5.7,4.1,13.5,15.2,16.1,13.3c1.4-0.9,0.8-3.1-0.1-4.5c-13.9-23.7-35.1-50.2-55.4-68.7c-3-2.7-14.3-3.6-17.7-1.5
			c-3.7,2.4-5.3,7.1-4.8,11.5c1.1,10.2,10.2,17,15.5,25S449.7,459.9,451.2,456.1z"/>
		<path d="M397.4,179.1c-14.3,2.1-98.2,106.1-98.2,106.1s28.8,20,41.8,74.5s-2.6,114.4-2.6,114.4s26.5-10.3,59-33.6
			s47.8-48.5,47.8-48.5l-89.8-106.8c0,0,55.4-37.9,66.3-59.5S425,175,397.4,179.1z"/>
		<path d="M368.7,243.5c6.8,5.5,11.8,13,14.2,21.4c5.8-4.6,11.8-9.6,17.4-14.6c-3.4-15.6-17-29.2-33.7-31.4
			c-3.8-0.5-7.6-0.4-11.4,0.3c-4.5,5-9,10.1-13.4,15.2C350.8,236.6,360.2,236.7,368.7,243.5z"/>
		<path d="M77.9,630.6c16.6,21,62.4,57.3,79.2,69.2c12.5-6.6,28-14.9,43.9-23.8c-46.2-20.6-89.8-61-111.7-106
			c-16.9,4.3-31.5,7.5-43,9.8C52.3,595.4,70.7,621.5,77.9,630.6z"/>
		<path d="M421.1,681.5c-28.4,7.1-57.8,8.6-86.8,4.5c-5.6,9.2-11,18-15.6,25.7c7.1,0.9,16.5,0.1,20.4,0.1h70.2
			C412.7,703,416.7,692.7,421.1,681.5z"/>
		<path d="M452.1,58.5c-1.7,1.4-3.5,3.4-2.9,5.6c2.3-0.1,4.2-1.8,6-3.3c4.8-4.1,10.1-7.7,15.7-10.5c0.9-0.3,1.6-1,2-1.8
			c1.3-4-9,1.9-9.8,2.4C459.2,53.1,455.5,55.7,452.1,58.5z"/>
		<path d="M416.3,61.8c2,1,4.1,2.7,4,4.9c-2.3,0.3-4.5-1-6.5-2.1c-5.5-3.1-11.4-5.5-17.5-7.2c-0.9-0.1-1.8-0.6-2.3-1.4
			c-2-3.7,9.2,0.1,10.1,0.4C408.3,57.9,412.4,59.7,416.3,61.8z"/>
		<path d="M453.2,75.3c1.1-4.7,3.7-8.9,7.4-12c6.1-5.1,15.1-6.4,15.1-6.4c-1.7,4.2-4.4,7.9-7.9,10.8
			C459.9,74.1,453.2,75.3,453.2,75.3z"/>
		<path d="M423.2,80.3c-2.6-4-6.5-7.1-11-8.8c-7.5-2.7-16.4-0.9-16.4-0.9c3,3.4,6.8,5.9,11.1,7.5C416.6,81.4,423.2,80.3,423.2,80.3z
			"/>
		<path d="M454.4,95.9c-6.1-11.1-11.2-21.8-13.9-34.2c-1,5.9,0.5,11.9,1.6,17.8c0.8,3.9,2.9,14,2.8,14.7c-0.5,2.2-2.1,4.1-4.3,4.9
			C445.3,98.6,449.9,97.5,454.4,95.9z"/>
		<path d="M455,112.5c2.6-1,5-2.5,7-4.6c0,0.5-10.9,2.7-16.3,3.9c-2.5,0.5-12.9,2.3-16.2,3.2c4.4,1,8.9,1.2,13.4,0.8
			C447,115.2,451.1,114.1,455,112.5z"/>
		<path d="M452.6,116.4c-0.4,1.1-0.2,2.4,0.5,3.4c-3.7,0.1-7.3,0.9-10.7,2.4c0.3-1.2,0.2-2.4-0.2-3.5c1.7-0.1,3.3-0.3,4.9-0.6
			C448.8,117.6,451.5,117.3,452.6,116.4z"/>
		<path d="M415.9,37.7c-16.1,18.3-9.6,28.2-14.6,40.6c-11.2,28-27.5,48.8-55.3,60.5c-26.4,11.1-56.1,12-83.1,21.9
			c-23,8.4-43.5,23.2-67.1,29.9c-36.9,10.5-76.1-0.1-113-10.6c24.6,4.1,50.3,8.1,74.2,0.8c26.1-8,46.5-28.4,70.9-40.6
			c23.2-11.5,49.4-15.1,75.1-18.3c13.4-1.6,27-3.2,39.6-8.1s24.3-13.6,29.9-25.9C380,72,376,52,385.4,37
			c6.8-10.7,18.2-17.6,30.8-18.6c12.3-0.8,29.8,0,35.6,1.9C441,24.1,428,23.9,415.9,37.7z"/>
		<path class="siluet-0" d="M377.5,204.6l-41.1,44.2c-1.7,1.6-3.1,3.6-4.1,5.8c-0.8,2.3-0.4,5.1,1.4,6.5c3.3,2.5,7.8-0.5,10.8-3.3
			c10.8-10.2,22.3-19.5,34.5-28c9-6.3,18.7-12.4,24.7-21.7c3.9-6.1,4.6-16.1-4.2-18.1C391,188.1,382.4,199.4,377.5,204.6z"/>
		<path class="siluet-0" d="M54.4,585.2c-5.5,1.1-11.4,2.3-15.2,6.3c-2.9,3.2-4.4,7.3-4.3,11.6c0,13.6,13.4,24.3,26.9,25.8
			s26.8-3.6,39.3-9c51-22.3,98.8-51.4,146.3-80.4c7.9-4.8,16.7-10.9,18-20.1c-11.6-0.6-22.2,5.9-32.3,11.4
			C178.8,560.6,114.6,573.7,54.4,585.2z"/>
		<polygon points="442.2,486.3 151.3,576 116.4,596.5 153,595 448.1,504.5 		"/>
		<polygon points="434.6,488.6 417.7,502.1 438.2,507.5 448.1,504.5 442.2,486.3 		"/>
		<path d="M454.3,531.4c2.1-5.9,1.8-12.5,0.7-18.6c-1.1-5.9-8.3-29.5-10.8-35.3s-5.9-11.3-11-15s-12.1-5.2-17.8-2.5
			c-2.1,1-4,2.4-5.5,4.2c-2.3,2.5-4.1,5.5-4.3,8.9c-0.2,4.2,3,8.8,7.8,8c2.4-2.1,1-3.3,0.4-4.7c-0.8-2.2,0.7-4.8,2.9-5.7
			c2.3-0.8,4.8-0.4,6.7,1c1.9,1.4,3.4,3.2,4.6,5.3c3.6,6,4.4,13.4,7.9,19.2c0.5,1,1.2,1.9,2.1,2.6c-0.4,1.1-0.5,2.3-0.3,3.4
			c0.4,6.8,3.9,13.4,4.3,20.3c0.2,2.3,0,4.7-0.8,7c-0.8,2.3-2.6,4-4.9,4.6c-2.3,0.5-5-0.8-5.6-3.1c-0.4-1.5,0.1-3.3-3-3.7
			c-4.5,2-4.5,7.6-2,11c2,2.7,5.3,4.2,8.5,4.9c2.3,0.6,4.6,0.7,6.9,0.3C447.1,542.5,452.1,537.3,454.3,531.4z"/>
		<path d="M477.5,473c3.1-1.5,6.3-3.1,9.7-2.9c3.4,0.3,6.4,2.1,8.4,4.8c1.9,2.7,3.1,5.9,3.4,9.3c0.2,1.9,0.2,3.9-1,5.4
			c-1.3,1.7-3.8,2.3-5.5,2.9c-2.5,0.9-5.1,1.3-7.7,1.3c-12.1,0-23.4,4.4-34.9,8c-4.7,1.5-8-2.8-8.7-7.2c-0.8-4.7,2.6-6.9,6.5-8.6
			C457.7,481.4,467.8,477.7,477.5,473z"/>
		<path class="siluet-0" d="M310,481l-26.4,19c-2.7,2-5.5,4-7.4,6.7c-1.7,2.5-2.7,5.4-2.7,8.5c-0.1,2.1,0.6,4.1,1.9,5.7
			c3,3.2,8.3,1.8,12.2-0.1c7.4-3.6,14.5-7.7,21.4-12.2c5-3.1,10-6.3,14.7-9.8s9.1-7.6,10.3-13.2c1-4.8-2.2-11.4-7.4-12.4
			C321,472.1,314.2,478,310,481z"/>
	</g>
</g>
</svg>
