<?xml version="1.0" encoding="utf-8"?>
<!-- Generator: Adobe Illustrator 24.1.3, SVG Export Plug-In . SVG Version: 6.00 Build 0)  -->
<svg version="1.1" id="Capa_1" xmlns="http://www.w3.org/2000/svg" xmlns:xlink="http://www.w3.org/1999/xlink" x="0px" y="0px"
	 viewBox="0 0 126.5 132.6" style="enable-background:new 0 0 126.5 132.6;" xml:space="preserve">
<style type="text/css">
	.two-worlds-0{fill:#0C5C8A;}
	.two-worlds-1{fill:url(#SVGID_1_);}
	.two-worlds-2{fill:url(#SVGID_2_);}
	.two-worlds-3{fill:url(#SVGID_3_);}
	.two-worlds-4{fill:none;}
	.two-worlds-5{fill:url(#SVGID_4_);}
	.two-worlds-6{fill:url(#SVGID_5_);}
	.two-worlds-7{fill:url(#SVGID_6_);}
	.two-worlds-8{fill:#4AA0AD;}
	.two-worlds-9{fill:#387882;}
	.two-worlds-10{fill:url(#SVGID_7_);}
	.two-worlds-11{fill:url(#SVGID_8_);}
	.two-worlds-12{fill:#2A360E;}
	.two-worlds-13{fill:url(#SVGID_9_);}
	.two-worlds-14{fill:url(#SVGID_10_);}
	.two-worlds-15{fill:url(#SVGID_11_);}
	.two-worlds-16{fill:url(#SVGID_12_);}
	.two-worlds-17{fill:url(#SVGID_13_);}
	.two-worlds-18{fill:#0C6266;}
	.two-worlds-19{fill:#FCB56A;}
	.two-worlds-20{fill:url(#SVGID_14_);}
	.two-worlds-21{fill:url(#SVGID_15_);}
	.two-worlds-22{fill:url(#SVGID_16_);}
	.two-worlds-23{fill:url(#SVGID_17_);}
	.two-worlds-24{fill:url(#SVGID_18_);}
	.two-worlds-25{fill:none;stroke:#BF0005;stroke-miterlimit:10;}
</style>
<g>
	<g id="Capa_2_1_">
		<g id="layer_1">
			<polygon class="two-worlds-0" points="14.6,76.9 12.4,80.9 14.8,90.3 16.1,99.9 21.4,108.7 23.1,113.2 29.3,116.8 34.8,118.3 35.8,118.8
				29.9,112.3 26.2,107.3 22.6,98.8 16.2,74.4 15.2,75.6 14.6,76.9 			"/>

				<radialGradient id="SVGID_1_" cx="89.7" cy="61.2" r="91.26" gradientTransform="matrix(1 0 0 -1 7.433909e-04 133.9977)" gradientUnits="userSpaceOnUse">
				<stop  offset="0" style="stop-color:#1DC4D7"/>
				<stop  offset="0.68" style="stop-color:#12678E"/>
				<stop  offset="0.74" style="stop-color:#127095"/>
				<stop  offset="0.84" style="stop-color:#1187A8"/>
				<stop  offset="0.96" style="stop-color:#10ADC6"/>
				<stop  offset="1" style="stop-color:#10BAD1"/>
			</radialGradient>
			<circle class="two-worlds-1" cx="63" cy="81.6" r="46.5"/>

				<radialGradient id="SVGID_2_" cx="89.13" cy="73.91" r="57.15" gradientTransform="matrix(1 0 0 -1 0 134)" gradientUnits="userSpaceOnUse">
				<stop  offset="0" style="stop-color:#21474D"/>
				<stop  offset="1" style="stop-color:#000000"/>
			</radialGradient>
			<path class="two-worlds-2" d="M52.3,93.2c3.7,6.5,9.6,12.5,17.7,14.7c6.9,1.7,14.2,0.7,20.4-2.9c5.6-3.3,9.9-8.6,11.8-14.9
				c1.7-6,1.5-12.3-0.5-18.1c-1.8-5.6-5-10.6-9.4-14.6c-4.8-4.2-10.8-6.9-17.2-7.5c-5.7-0.6-11.5,0.6-16.6,3.4
				c-5.5,3.1-11.5,9.1-12,14.9C45.8,76.9,47.8,85.7,52.3,93.2z"/>

				<linearGradient id="SVGID_3_" gradientUnits="userSpaceOnUse" x1="68.9588" y1="109.2911" x2="-14.9812" y2="18.8411" gradientTransform="matrix(1 0 0 -1 0 134)">
				<stop  offset="0" style="stop-color:#B0F1F7"/>
				<stop  offset="1" style="stop-color:#1590BD"/>
			</linearGradient>
			<path class="two-worlds-3" d="M45.5,41.4l-0.2,0.1l3.7,5.8l3.8,5.6l0.8,0.6l2.8,1.9l9.5,15.7L65.5,71l0.4,5.5v0.2L70,90.6l7.9,14.4l0,0
				l0.2,0.4l-0.4-0.3l-16-10.2L47.9,84.8L47,89.7L35.9,75.9l-6.1-4.4l-2.9-2.1l-0.4,3.2l0.2,1.5l6.5,13.9l-1,0.3l-0.8,5L30.6,94
				l0.7,5.3v0.2L28.9,98H28l0.2,0.6l4.3,11.9l-1.3-1.2l-3.7-3.4l-6.9-10.3l-0.1-0.2l-0.2-0.1l-5.6-15.8L13.8,71l0.2-1.8l-0.9-2.8
				l-0.9-4.3l0.5-1.6l-0.1-0.6L12.1,52l0.6-1.9l-1.3-6.3l-1.3-9.1L10.1,31l-1.8-3.9L0.1,8.6L0,8.4l2.5,2.2l4.8,4.1l4.1,4.4l6.2,6.9
				l6.7,5.6l0,0l0.2,0.2l-4.9-11.7l-3-8.5l-0.1-0.4l2.9,2.5l4.8,3l13.7,4.5l0.2,0.1l-1-5.1l0.3-0.3v-0.8L30.4,0l0,0L45,11.2l6.5,6
				l4,3.1l1.2,1v0h0.1l1.2-2l4.9,6.2l6.8,4.2l6.4,4.7l8.6,5.1l0.6,1.2c-0.9-0.5-1.8-1-2.8-1.4s-2-0.9-3.3-1.4
				c-1.5-0.6-3.1-1-4.7-1.5l-1.2,0.3l5.5,10.8l4.5,12l0.7,2.5v0.2l-8.3-7.4L72,51.8l-1.8,2.6l-1-0.6l-13.3-7.4l-10.1-5.1L45.5,41.4
				L45.5,41.4z"/>
			<polygon class="two-worlds-0" points="77.9,104.9 77.9,104.9 77.8,105.1 61.7,94.9 47.9,84.8 47,89.7 35.9,75.9 29.8,71.5 26.1,66.6 
				20.1,56.1 17.6,55 16.5,56.9 13.9,54.9 14.9,49.7 13.1,40.9 10.7,31 8.3,27.1 0.1,8.6 14.5,32.8 14.7,35.1 21.4,42.3 22.5,46
				25.4,49.1 25.7,51.4 29.2,58.7 31.9,63.3 40.2,69.6 40.8,71.6 46.1,75.1 49.6,77.4 49.2,77.2 56.2,87.2 63.7,92.5 68.4,96.4
				71.5,99.7 			"/>
			<polygon class="two-worlds-0" points="26.4,100.9 31.2,109.3 27.5,105.8 20.6,95.5 18.5,88 18,84.1 17.7,83.3 15.3,76.1 15.6,71.4 
				13.7,64.6 14.2,62.3 13.7,56.5 19.7,70.7 18.1,71.5 21.2,84.8 24,89.6 25.8,93.1 26.7,95.2 31.3,99.3 31.4,99.5 28.9,98 28,98
				28.2,98.6 25.7,97.1 			"/>
			<polygon class="two-worlds-0" points="54.3,79.2 45.3,67.4 38.1,61 32,51.8 28.4,41.2 26.1,34.7 24.4,31.8 24.3,31.6 24.3,31.7 24.5,31.9 
				19.6,20.2 16.6,11.6 17.5,12.8 20.5,17 25.8,23.8 32,43.7 37.3,54.9 49.4,68.6 			"/>
			<polygon class="two-worlds-0" points="67.8,87.8 62.4,82.8 50.9,65.3 51.2,65.7 56.4,71.6 67.8,87.8 			"/>
			<polygon class="two-worlds-0" points="69.1,53.8 55.9,46.3 45.8,41.2 45.5,41.4 39.3,34.1 39,26.5 34.5,21.2 38.1,21.7 37.9,21.3 
				38.1,21.4 37,16.3 37.3,16 37.3,15.2 30.4,0 30.5,0 40.2,16 42,22.3 45.6,29.7 53.1,37.1 56.5,42.5 66.3,49 69.1,53.3 			"/>
			<polygon class="two-worlds-0" points="83.8,62.2 75.5,54.8 70.3,48.1 61.9,42.3 59.3,40.7 55.8,31.2 56.1,31.3 60.5,38.1 61.9,35.5 
				72.4,43 67.7,41.3 73.5,48 78.5,54.2 79.1,56.5 83.8,62 			"/>
			<polygon class="two-worlds-0" points="47.7,22.3 54.5,28.1 42.3,12.5 42.7,13.5 			"/>
			<polygon class="two-worlds-0" points="56,57.4 50.3,54.3 41.5,45.6 44.6,47 45,47 41.3,42.5 31.1,27.1 30.6,25.7 44.4,38.9 45.6,41.3 
				45.6,41.3 45.5,41.4 45.4,41.5 49.1,47.3 52.9,52.9 53.7,53.5 			"/>
			<polygon class="two-worlds-4" points="65.9,127.8 60.5,130.2 59.5,130.2 57.3,132.6 54,129.6 49.8,124.9 45.7,122.1 43.6,120.4 
				40.2,107.9 38.3,101.9 37.5,99.3 37.3,98.9 46,109.4 47,107.9 47.3,108 51.5,113.3 59.3,124.4 60.4,126.2 62.7,127.5 63.1,127.7
							"/>
			<polygon class="two-worlds-0" points="65.9,127.8 60.5,130.2 59.5,130.2 57.3,132.6 54,129.6 49.8,124.9 45.7,122.1 43.6,120.4 
				40.2,107.9 38.3,101.9 40.7,106.3 44.1,113.1 50,118.6 52.2,121.7 57.5,126.9 62.5,127.5 62.7,127.5 63.1,127.7 			"/>

				<linearGradient id="SVGID_4_" gradientUnits="userSpaceOnUse" x1="124.3505" y1="57.8896" x2="40.4005" y2="-32.5604" gradientTransform="matrix(1 0 0 -1 0 134)">
				<stop  offset="0" style="stop-color:#B0F1F7"/>
				<stop  offset="1" style="stop-color:#1590BD"/>
			</linearGradient>
			<polygon class="two-worlds-5" points="95.2,119.3 93.3,128.8 93.1,129.9 87.4,127.8 84.1,127.8 80,124.8 80.6,124.5 85.3,118.3 
				85.7,115.9 86.6,115.9 86.1,109.8 82.9,100.6 83.2,101 91,109.9 			"/>
			<polygon class="two-worlds-0" points="93.3,128.8 93.1,129.9 87.4,127.8 84.1,127.8 80,124.8 80.6,124.5 85.3,118.3 85.7,115.9 
				86.6,115.9 86.1,109.8 82.9,100.6 83.2,101 89.4,112.6 89.9,117.2 89.1,119.9 89.3,121.5 90.9,125.1 92,126.1 93.2,128.5 			"/>

				<linearGradient id="SVGID_5_" gradientUnits="userSpaceOnUse" x1="112.0723" y1="69.2879" x2="28.1222" y2="-21.1621" gradientTransform="matrix(1 0 0 -1 0 134)">
				<stop  offset="0" style="stop-color:#B0F1F7"/>
				<stop  offset="1" style="stop-color:#1590BD"/>
			</linearGradient>
			<polygon class="two-worlds-6" points="112.2,109.4 105.2,111.3 98.9,111.1 99.3,110.5 99.5,108.8 98.5,105.6 95.7,101.2 94.8,100.9 
				92.1,101.1 87.8,97.6 82.6,88.8 84.5,88.7 83.5,80.7 80,75.4 74.6,73.6 73.1,69.8 71.6,67.2 70.5,65.1 70.4,64.8 76.5,69
				80.8,71.3 83.2,75.2 85.9,77.9 87.9,78 90.4,77.8 94.5,81.1 105.9,93.6 107.3,97 108.4,102.4 112,109.2 			"/>
			<polygon class="two-worlds-0" points="112.2,109.4 105.2,111.3 98.9,111.1 99.3,110.5 99.5,108.8 98.5,105.6 95.7,101.2 94.8,100.9 
				92.1,101.1 87.8,97.6 82.6,88.8 84.5,88.7 83.5,80.7 80,75.4 74.6,73.6 73.1,69.8 71.6,67.2 70.5,65.1 70.9,65.3 75,71.5
				75.8,71.9 79.2,72.9 83.9,78.7 85.4,82.5 85.7,86.1 86.7,90.5 88.6,90.9 89.8,90.9 92.8,91.2 87,87.1 86.8,84.6 93.1,89.9
				99.6,98.8 104,106.7 104.3,103.5 107.1,107.9 109.4,108.6 112,109.2 			"/>
			<path class="two-worlds-0" d="M94,86.5c1.6,2.7,3.2,5.6,4.9,8.2c0.2,0.2,0.3,0.4,0.5,0.4c1.1,0.4,1.8,1.3,2.9,1.8c-1.8-4.6-5.6-8-8.8-11.7
				C93.7,85.7,93.8,86.1,94,86.5z"/>

				<linearGradient id="SVGID_6_" gradientUnits="userSpaceOnUse" x1="99.4759" y1="80.9738" x2="15.5259" y2="-9.4762" gradientTransform="matrix(1 0 0 -1 0 134)">
				<stop  offset="0" style="stop-color:#B0F1F7"/>
				<stop  offset="1" style="stop-color:#1590BD"/>
			</linearGradient>
			<polygon class="two-worlds-7" points="105.8,68.8 104.7,67.7 95.6,58.7 89.1,46.2 88.3,42.5 96.2,44.2 98.5,43.2 99,43 102.9,52.9 			"/>
			<polygon class="two-worlds-0" points="104.7,67.7 95.6,58.7 89.1,46.2 88.3,42.5 96.2,44.2 98.5,43.2 95.9,50.3 96.2,53.9 97.1,56.6 
				99.5,60.8 			"/>
			<path class="two-worlds-8" d="M20.6,30.1c2.3,4.4,4.2,9.1,5.7,13.8l-2.6-1.3c-0.5-0.2-1-0.5-1.4-0.9c-0.4-0.4-0.6-0.9-0.4-1.5l-1.6-1.6
				l-3.4-3.4c-0.1-0.1-0.2-0.2-0.3-0.4c-0.2-0.5-0.3-1-0.2-1.5c-1.6-2.8-3.3-5.5-5-8.3L4.9,14.7C9.5,20.6,20.6,30.1,20.6,30.1z
				 M39.6,66.8l-5.1-7.6c-0.8-1.2-1.6-2.4-2.3-3.6c-0.9-1.7-1.6-3.5-2.3-5.4c-0.2-0.9-0.7-1.7-1.2-2.4c-1.1-1-2.5-1.7-4-1.8
				c0.2,1,0.7,2,1.5,2.6c0.2,0.1,0.4,0.3,0.6,0.5c0.1,0.2,0.2,0.4,0.3,0.7c0.6,2.1,1.3,4.1,2.2,6l2,4.7c0.2,0.5,0.4,0.9,0.7,1.2
				c0.4,0.4,0.9,0.7,1.4,0.9c1,0.5,1.9,1.2,2.7,2C37.3,65.5,38.4,66.2,39.6,66.8L39.6,66.8z M46.8,72c-0.2-0.3-0.3-0.5-0.6-0.8
				c-0.3-0.3-0.7-0.5-1.1-0.7c-1.5-0.8-2.7-1.8-4.4-2.1c0.4,0.8,0.9,1.6,1.4,2.4c0.1,0.3,0.4,0.5,0.7,0.7l3.8,1.8l1.6,0.7l-0.4-0.2
				L46.8,72z M70.4,95.8c-0.5-0.7-1-1.5-1.4-2.2c-0.9-1.9-2-3.7-3.4-5.3c-1.5-1.5-3.3-2.7-4.8-4.2C60,83,59.3,82,58.7,81l-4.3-6.6
				c0.6,2.5,1.5,4.9,2.6,7.1c-1.2-0.2-2.5-0.5-3.7-0.8l2.5,4c0.2,0.4,0.5,0.7,0.8,1c0.4,0.3,0.8,0.6,1.2,0.8c3.6,2.3,7,5.1,10,8.2
				l4.2,3.9C71.4,97.7,70.9,96.7,70.4,95.8z M26.4,21.7c2,1.5,4.9,1.8,6.8,3.5l0.1-2.3c0-0.2,0-0.4-0.1-0.6
				c-0.1-0.2-0.2-0.3-0.4-0.4c-1.6-1-3.3-1.8-5.1-2.4c-2.5-0.8-4.6-2.5-7-3.6c0.7,0.9,1.4,1.8,2.1,2.6
				C23.9,19.7,25.1,20.8,26.4,21.7L26.4,21.7z M31.5,39.7c0.1,0.6,0.4,1.2,0.7,1.7c0.2,0.3,0.5,0.5,0.8,0.7l2.4,1.8
				c0.3,0.3,0.7,0.5,1.1,0.7c0.4,0.1,0.9,0.2,1.4,0.2l3.5,0.2c-0.4,0-1.5-1.6-1.7-1.9c-0.6-0.7-1.1-1.3-1.7-2
				c-1.2-1.4-2.3-2.9-3.4-4.3c-1.2-1.6-2.4-3.3-3.3-5.1c-0.5-0.9-0.8-1.8-1.3-2.7c-0.3-0.6-0.6-1.1-0.7-1.8c0-0.5-0.1-1.1-0.3-1.6
				c-0.5-0.4-1.2-0.7-1.8-0.9c0,1.6,0.4,3.2,1,4.8c0.7,1.4,1.2,2.8,1.7,4.2C30.5,35.6,30.9,37.7,31.5,39.7L31.5,39.7z M39.5,55.4
				l10.4,1.3c-1.3-2.1-2.8-3.9-4.7-5.5L41,47.5c-0.4-0.4-0.8-0.7-1.3-0.9c-0.5-0.2-3.6-0.7-4.1-0.3c-0.8,0.6,0.7,2.6,1,3.4
				c0.4,1,0.9,2,1.4,3C38.2,53,39.1,55.4,39.5,55.4L39.5,55.4z M46.9,63.2c0.3,0.1,0.6,0.2,0.9,0.3l2.6,0.4c0.3,0,0.7,0.1,1,0.3
				c0.3,0.2,0.6,0.5,0.8,0.8c3.9,4.9,7.7,9.9,11.4,15v-5.6c-2.2-1.9-4.3-3.8-6.3-5.9c1.5,0.1,3.1,0.5,4.5,1.1l-5.3-8.6
				c-0.1-0.2-0.3-0.4-0.4-0.6c-0.4-0.2-0.8-0.3-1.2-0.3c-1.5-0.1-3-0.2-4.5-0.4c-1.5-0.3-3-0.7-4.4-1.1c-0.8-0.2-1.5-0.6-2.3-0.9
				c-0.2-0.1-2-0.5-2-0.5c0.4,1.1,1.1,2.1,2,2.9C44.7,60.8,45.6,62.5,46.9,63.2L46.9,63.2z M17.6,62.1c0.8,2.2,1.7,4.3,2.7,6.3
				c0.1,0.3,0.3,0.5,0.5,0.7c0.2,0.1,0.4,0.2,0.6,0.3l1.9,0.5c-0.7-2.8-1.7-5.6-2.9-8.2c-0.9-1.9-2.3-2.5-4.1-3.4
				C16.6,59.6,17,60.9,17.6,62.1z M24.4,88.1c1,1.8,2.2,3.5,3.4,5.2c0.1-1.1,0.5-2.1,1.2-3l-4.9-7.6c-0.3-0.5-0.7-1.2-0.3-1.8
				c0.7,0.5,1.5,0.9,2.4,1c-0.4-1.5-0.9-2.9-1.3-4.4c-0.1-0.3-0.2-0.5-0.4-0.7c-0.2-0.1-0.5-0.2-0.7-0.3c-0.4-0.3-0.6-0.8-0.6-1.3
				c0-0.9-0.3-1.7-0.7-2.5c-0.7-0.9-1.9-0.5-2.9-0.6c0.2,1.6,0.5,3.2,0.9,4.8C21.3,80.8,22.6,84.6,24.4,88.1L24.4,88.1z M37.1,9.6
				c0.5,1,1,1.9,1.6,2.8c0.9,1.1,1.8,2.2,2.6,3.4c1,1.7,1.1,3.7,1.6,5.6c0.8,2.3,1.8,4.6,3.1,6.7c0.4,0.7,0.9,1.4,1.4,2.1
				c0.6,0.5,1.2,1,1.8,1.4c1.3,1,2.5,2.2,3.5,3.6c0.3,0.5,0.6,0.9,1,1.3c0.4,0.4,1,0.7,1.4,1.1c1.1,1.1,1.1,3.1,2.2,4.2
				c-1.1-3.7-2.2-7.5-3.3-11.2c-0.1-0.7-0.6-1.3-1.2-1.6c-0.9-0.8-2-1.4-3.1-2c-0.7-0.3-1.4-0.6-2.1-1c-1.1-1-1.9-2.2-2.3-3.6
				c-1.3-3.1-2.8-6.1-4.6-9c-1.8-3-3.7-6.3-6.4-8.7C35.2,6.4,36.1,8,37.1,9.6z M59.1,33.2c2.1-0.1,4.2,0.6,5.9,1.9
				c1.7,1.2,3.2,2.8,5,3.9c-0.4-1.5-0.4-3.1,0-4.6c1.1,0.6,2.4,1,3.7,1.1c-2.8-3.2-6.7-5.2-10.4-7.3c-0.7-0.4-1.3-0.8-1.9-1.3
				c-1.1-1-1.8-2.3-1.9-3.8c0,0.2-2.5,0.1-2.9,0c-1.2-0.4-2-1.5-3.2-1.9c0.7,2.1,1.9,3.6,2.8,5.6C56.5,27.4,58.9,33.3,59.1,33.2
				L59.1,33.2z M78.4,50.9c-1.1-1.1-1.1-3.7-1.6-5.1c-0.3-0.8-0.5-1.5-1.4-1.7s-2.5,0.8-3.2,0.5c1.4,0.7,2.2,2.5,3.3,3.6
				C76.4,49.1,77.4,50,78.4,50.9z M98,52.7c0.5,0.8,2.3,1.5,3.1,1.8c-0.6,0.6-1.2,1-2,1.3c0.6,1.2,1.2,2.5,1.6,3.8
				c0.3-0.2,0.6-0.3,0.9-0.1c-0.1,2.3,1.6,3.6,2.1,5.6c-0.8-3.5-0.3-7.2-1.4-10.5c-0.2-0.6-0.4-1.2-0.7-1.8c-1-2.4-2-4.7-3-7.1
				c-0.1,1.5-0.3,2.9-0.6,4.4C97.9,51,97.9,51.8,98,52.7L98,52.7z M76,71.4c0.8,0.1,1.6,0.1,2.4,0.1l0.8,0.1
				c-0.8-0.3-1.6-0.7-2.3-1.2c-0.9-0.5-1.8-1.1-2.7-1.6c0.4,0.7,0.9,2.2,1.5,2.6C75.8,71.3,75.9,71.4,76,71.4L76,71.4z M86.6,82.1
				c0.1,0.3,0.3,0.6,0.4,0.9c0.3,0.4,0.7,0.7,1.2,0.9c1.5,0.8,2.8,1.9,4,3.1l0.9-3.4c2.2,2.1,4.4,4.3,6.6,6.4
				c0.9,0.8,1.6,1.7,2.2,2.8c0.4,0.8,0.7,1.7,0.8,2.7c0.3,1.4,0.4,2.8,0.4,4.3l-0.7-0.1c-0.3,0.5-0.3,1.2,0,1.8
				c0.3,0.5,0.5,1.2,0.4,1.8c0.3-0.5,0.8-1,1.3-0.8c0.2,0.1,0.3,0.2,0.4,0.4l2.4,3.3c0.3,0.5,0.7,0.9,1.1,1.2c0.5,0.3,1.1,0.3,1.6,0
				c-2.9-5.1-3-11.7-6.7-16.3c-2.2-2.7-5.5-4.4-8-6.9c-1.2-1.4-2.5-2.8-3.9-4c-0.2-0.2-0.5-0.3-0.7-0.4c-0.3-0.1-0.7-0.1-1-0.1
				c-1,0-2.2,0.4-3.1-0.2c-0.3-0.2-0.5-0.4-0.7-0.6c-1.3-1.3-2.1-3.1-3.8-4c0.9,0.5,2,2.3,2.6,3.1C85.2,79.3,85.9,80.7,86.6,82.1z
				 M90.8,117.6c-0.1,0.8-0.1,1.5-0.1,2.3c0.3,1.8,1,3.4,2,4.9c0-1.1,0.1-2.2,0.5-3.3c0.2-0.6,0.4-1.2,0.5-1.8c0-1-0.2-2.1-0.7-3
				l-2.2-5.2c-0.3-0.9-0.8-1.8-1.4-2.6c-0.7-0.8-1.7-1.4-2.4-2.3c0.2,0.8,1,1.4,1.5,2C90.1,111.2,90.9,114.4,90.8,117.6L90.8,117.6z
				 M44.6,111c0.3,0.6,0.8,1.3,1.5,1.5c0.2,0,0.5,0.1,0.7,0.2c0.2,0.1,0.4,0.3,0.5,0.4l3.2,3.3c1,1.1,2.1,2.2,3,3.4
				c1.5,1.9,2.8,4.2,5,5.1c-3.4-5.6-6.8-11.2-11.2-15.9c-0.4,0.6-0.9,1.1-1.6,1.5c-0.5,0-2.5-3.4-2.9-4c-1-1.4-2-2.8-3-4.1
				C40.9,105.4,43,108.2,44.6,111z"/>
			<path class="two-worlds-9" d="M99.2,79.3c0.7,0.6,1.6,1,2.5,1.3c0.9,0.2,1.9-0.1,2.6-0.8c0.5-0.8,0.7-1.7,0.5-2.7
				c-0.6-5.2-2.9-10-6.6-13.6c-0.4-0.4-0.8-0.8-1.4-1c-0.9-0.2-1.8-0.2-2.7,0.1c-1.1,0.1-2.1,0.7-2.7,1.5c-1,1.8,1.2,6.6,2.1,8.3
				C94.7,75.2,96.7,77.5,99.2,79.3z"/>
			<path class="two-worlds-9" d="M86.8,72.6c0.7,0.2,1.5,0.1,2-0.4c0.5-0.7,0.6-1.6,0.3-2.5c-0.2-1.1-0.6-2.2-1.2-3.2c-0.4-0.8-1-1.5-1.7-2
				c-2.3-1.6-4.9,0.7-4.2,3.3C83,69.9,84.7,71.6,86.8,72.6z"/>

				<linearGradient id="SVGID_7_" gradientUnits="userSpaceOnUse" x1="67.5118" y1="0.963" x2="59.2218" y2="34.503" gradientTransform="matrix(1 0 0 -1 0 134)">
				<stop  offset="0" style="stop-color:#21474D"/>
				<stop  offset="1" style="stop-color:#000000"/>
			</linearGradient>
			<path class="two-worlds-10" d="M64.6,117.5c0.8,0.3,1.6,0.4,2.4,0.3c1.9-0.3,3.1-2.3,3.1-4.3c-0.2-1.9-0.8-3.7-2-5.3
				c-0.8-1.3-1.8-2.6-2.9-3.6c-1.8-1.6-4.1-2.5-6.5-2.7c-4.1-0.2-6.2,4.3-4.2,7.6C56.8,113.3,60.3,116.2,64.6,117.5z"/>

				<radialGradient id="SVGID_8_" cx="159.6618" cy="296.1022" r="102.83" gradientTransform="matrix(0.9238 0.3828 0.3828 -0.9238 -174.2829 267.0604)" gradientUnits="userSpaceOnUse">
				<stop  offset="0" style="stop-color:#00F2B5"/>
				<stop  offset="0.68" style="stop-color:#0E7473"/>
				<stop  offset="0.75" style="stop-color:#0C7D76"/>
				<stop  offset="0.85" style="stop-color:#08947F"/>
				<stop  offset="0.98" style="stop-color:#01BA8D"/>
				<stop  offset="1" style="stop-color:#00BF8F"/>
			</radialGradient>
			<path class="two-worlds-11" d="M110,77.9L80.3,22.3c-5.6-2.1-11.5-3.2-17.4-3.4l-0.5-0.3l-1.3-0.7c-0.2,3.2-0.2,6.3,0.1,9.5
				c0,3.8-0.3,7.6-1.1,11.4c-1.7,9.3-4.5,17.9-4.6,27.5c-0.1,9.2,1.4,18.3,2,27.4c0.2,4.7-0.1,9.4-1,14c1.8,8,4.1,15.9,6.2,23.9
				c0.9,0.4,1.7,0.7,1.7,0.7c0.9-0.8,1.8-1.7,2.6-2.5c7.3-0.8,14.4-3,20.9-6.6l0.1-0.1c2.2,0.3,4.5,0.7,6.6,1.1c0,0,0,0,0-0.1
				c0-0.9,0.2-1.6,0.2-2.5l0,0c2.4,0.2,4.9,0.2,7.3,0h0.1c1-3.4,1.9-6.6,2.8-10l0,0c1.3-1,3.1-2.3,4.4-3.3l0,0
				c0.2-2.8,0.5-5.5,1.1-8.3c0.7-1.4,1.4-2.8,2-4.2c0.2-0.4,0.3-0.8,0.5-1.2c1.9-5,3.1-10.3,3.6-15.6L110,77.9z"/>
			<path class="two-worlds-12" d="M110,77.9L80.3,22.3c-5.6-2.1-11.5-3.2-17.4-3.4l-0.5-0.3l-1.4,0.1c-0.2,2.9,0.1,5.8,0.1,8.7
				c0,3.8-0.3,7.6-1.1,11.4c-1.7,9.3-4.5,17.9-4.6,27.5c-0.1,9.2,1.4,18.3,2,27.4c0.2,4.7-0.1,9.4-1,14c0,0.1,0,0.1,0,0.2
				c0.2-0.2,0.3-0.5,0.4-0.6c0.4-0.7,0.8-1.3,1.3-2c0.8-1.3,1.8-2.4,2.5-3.8c0.4-0.7,0.7-1.4,0.9-2.2c-0.1-0.5,0-0.9,0.1-1.4
				l0.2-1.8c0.1-0.6,0.1-1.2,0.2-1.8c0.1-0.6,0.2-1.3,0.2-1.9l0,0c0,0,0,0.3,0,0.4s0.1,0.3,0.1,0.4c0-0.3,0-0.6,0-0.9l0,0
				c0,0.6,0.1,1.2,0.1,1.8l0,0c0,0.3,0.1,0.7,0.1,1c0,0.6,0.1,1.3,0.1,1.9c0,1.5-0.4,3-1.1,4.4c-0.7,1.4-1.8,2.6-2.6,3.9
				c-0.4,0.7-0.9,1.5-1.3,2.2l-0.5,0.8c5.2,2,10.7,3,16.3,3c3.7,0,8-1,9.4-4.4c-0.2,1.5,1.2,2.8,2.7,3.1c1.5,0.2,3-0.1,4.4-0.7
				c2.2-0.8,4.4-1.7,6.5-2.8l0.2-0.3c0.2-0.4,0.4-0.9,0.6-1.4s0.4-0.9,0.6-1.4c0.1-0.2,0.2-0.4,0.3-0.6l0.2-0.2c0-0.1,0-0.1,0-0.2
				l0,0c0-0.1-0.1-0.2-0.1-0.3c0,0,0-0.1,0-0.1v-0.1c-0.1-0.2-0.1-0.3-0.2-0.5c0-0.1-0.1-0.2-0.1-0.3l0,0l0,0c0,0,0,0,0-0.1
				c-0.1-0.1-0.1-0.3-0.2-0.4s-0.3-0.6-0.4-0.8c0-0.1-0.1-0.2-0.2-0.4c-0.1-0.1-0.1-0.2-0.3-0.2c0,0,0-0.1,0,0s0.2,0.1,0.3,0.2l0,0
				l-0.2-0.4l0,0l0.2,0.4c0.1,0,0.2,0.1,0.3,0.2c0.3,0.2,0.5,0.4,0.7,0.7c0.2,0.2,0.4,0.5,0.6,0.8c0.2,0.4,0.6,0.9,0.4,1.4
				c0,0.1-0.2,0.2-0.3,0.3c0,0.3,0,0.7-0.2,1c-0.1,0.3-0.3,0.5-0.4,0.7c0,0.2-0.1,0.4-0.2,0.6c-0.1,0.2-0.1,0.4-0.2,0.5
				c5.5-2.9,10.5-6.7,14.8-11.2l0.2-0.2c1.9-5,3.1-10.3,3.6-15.6L110,77.9z M67.5,106.3c-0.4,0.1-0.8,0.1-1.3,0.1
				c-0.9,0-1.8,0-2.7,0.1c-1,0.2-2,0.3-3,0.4l-1.2,0.1c-0.2,0-0.6,0.1-0.7,0c-0.5-0.4,1.1-0.8,1.3-0.8c0.9-0.2,1.9-0.4,2.8-0.5
				c1-0.2,1.9-0.3,2.9-0.3c0.5,0,0.9,0,1.4-0.1c0.2,0,0.4-0.1,0.7-0.1c0.2,0,0.3,0,0.4,0.1l1.1-1c0.6-0.5,1.2-1.1,1.8-1.7
				s1.5-1.3,2.2-2c0.3-0.3,0.7-0.6,1.1-0.9c0.3-0.3,0.7-0.5,1.2-0.6c0.1,0,0.2,0,0.2,0l0,0c0.3,0,0.7,0,1,0c0.6,0,1.3,0.1,1.9,0.1
				c1.2-0.1,2.3,0,3.5,0.3c0.5,0.2,0.3,1-0.2,0.9c-0.7-0.1-1.4-0.2-2.2-0.3h-1.1l-1.7-0.1c-0.3,0-0.6,0-0.9,0c-0.1,0-0.2,0-0.4,0
				c-0.3,0.3-0.6,0.4-0.9,0.7s-0.8,0.6-1.1,1c-0.7,0.7-1.4,1.4-2.2,2c-0.6,0.5-1.3,1-2,1.4c-0.4,0.2-0.7,0.4-1.1,0.5
				C68.2,106,67.9,106.2,67.5,106.3z M82.7,106c-0.9,0.6-1.8,1.1-2.8,1.5c-0.5,0.2-1,0.5-1.5,0.7c-0.2,0.1-0.3,0.2-0.4,0.2l0,0
				c0.1,0.1,0.1,0.2,0,0.3c-0.6,0.5-1.5,0.1-2.2-0.1s-1.5-0.5-2.3-0.7s-1.6-0.4-2.5-0.7c-0.4-0.1-0.9-0.3-1.3-0.5
				c-0.4-0.2-0.8-0.4-1.2-0.6l0,0c0.2,0,0.3,0.1,0.5,0.1c-0.1-0.1-0.2-0.1-0.3-0.2l-0.1-0.1c-0.1,0-0.1-0.1-0.2-0.1l0,0
				c0.1,0,0.2,0,0.3,0c0.1,0,0.2,0,0.3,0c0.2,0,0.5,0.1,0.7,0.2c0.2,0.1,0.5,0.2,0.7,0.3c0.2,0,0.5,0.1,0.7,0.1
				c0.8,0.2,1.6,0.4,2.4,0.6s1.6,0.5,2.4,0.7c0.4,0.1,0.8,0.2,1.2,0.3l0.1-0.1c0.2-0.1,0.5-0.2,0.8-0.3c0.5-0.2,1-0.3,1.5-0.5
				c0.3-0.1,0.7-0.3,1-0.4l0.6-0.3c0.4-0.2,0.9-0.4,1.3-0.7C82.7,105.6,82.9,105.9,82.7,106z"/>

				<radialGradient id="SVGID_9_" cx="145.0518" cy="264.3622" r="46.8" gradientTransform="matrix(0.9238 0.3828 0.3828 -0.9238 -174.2829 267.0604)" gradientUnits="userSpaceOnUse">
				<stop  offset="0" style="stop-color:#FF7A33"/>
				<stop  offset="0.19" style="stop-color:#EF6A37"/>
				<stop  offset="0.58" style="stop-color:#C54141"/>
				<stop  offset="1" style="stop-color:#8F0D4E"/>
			</radialGradient>
			<path class="two-worlds-13" d="M114.5,76.9c0.2-0.9,0.4-1.8,0.6-2.6c-1.9-1.8-3.3-3.9-5.2-5.7c0.7-1.5,1.3-3.1,1.7-4.7
				c-2.3-2.6-4.8-5-7.4-7.1c0.2-2,0.3-3.6,0.7-5.9c-0.9-3.3-2.3-6.5-4.3-9.3c0-0.6,0.3-1,0.3-1.6C96,32.2,88.8,26,80.3,22.3
				c-0.4,0.2-1,0.3-1.5,0.4C73.2,20.5,67,19.8,61,20.9c0,2.1,0.2,4.3,0.2,6.5c0,3.8-0.3,7.6-1.1,11.4c-1.7,9.3-4.5,17.9-4.6,27.5
				c0,4.1,0.2,8.2,0.6,12.2l0.4,0.1c0,1.3,0,2.6,0,3.9c0.2,1.6,0.3,3.1,0.5,4.7l2.1-0.2c0.6,1.7,1.3,3.3,1.8,5
				c1.4,0.5,2.9,0.9,4.4,1.1c4.7-2,9.8-4,14.7-5.5h0.1c1.7,3.5,3.4,7,5,10.5c1-0.6,1.9-1,2.9-1.5c0.4,0.8,1,1.4,1.7,2
				c0.4,0.3,0.7,0.6,1.1,0.9c5,0.4,10.1-0.4,14.8-2.1l0.9-1.6c0.7-1.2,1.3-2.4,2-3.5c0.4,0.2,0.8,0.3,1.2,0.6
				c0.4,0.2,0.8,0.5,1.2,0.9c3.2-4.2,5.1-9.3,5.5-14.7C115.9,78.2,115.2,77.5,114.5,76.9z"/>

				<radialGradient id="SVGID_10_" cx="144.7918" cy="271.2521" r="20.9047" gradientTransform="matrix(0.9238 0.3828 0.3828 -0.9238 -174.2829 267.0604)" gradientUnits="userSpaceOnUse">
				<stop  offset="0.15" style="stop-color:#FFF3D9"/>
				<stop  offset="0.3" style="stop-color:#FFF2D5"/>
				<stop  offset="0.45" style="stop-color:#FEF1C9"/>
				<stop  offset="0.59" style="stop-color:#FDEEB5"/>
				<stop  offset="0.74" style="stop-color:#FBE999"/>
				<stop  offset="0.89" style="stop-color:#F9E475"/>
				<stop  offset="1" style="stop-color:#F7DF54"/>
			</radialGradient>
			<path class="two-worlds-14" d="M83.3,66.1C82.9,65,82.4,64,81.8,63C77,54.8,67,51.3,57.2,52.1c-1,4.7-1.6,9.4-1.7,14.2
				c0,4.1,0.2,8.2,0.6,12.2l0.4,0.1c0,1.3,0,2.6,0,3.9c0.2,1.6,0.3,3.1,0.5,4.7l2.2-0.2c0.6,1.7,1.3,3.3,1.8,5
				c1.4,0.5,2.9,0.9,4.4,1.1c4.7-2,9.8-4,14.7-5.5c0.3-0.4,0.6-0.8,0.9-1.2C85,80.4,85.8,72.8,83.3,66.1z"/>

				<radialGradient id="SVGID_11_" cx="86.7" cy="34.79" r="5.07" gradientTransform="matrix(1 0 0 -1 0 134)" gradientUnits="userSpaceOnUse">
				<stop  offset="0.15" style="stop-color:#FFF3D9"/>
				<stop  offset="0.3" style="stop-color:#FFF2D5"/>
				<stop  offset="0.45" style="stop-color:#FEF1C9"/>
				<stop  offset="0.59" style="stop-color:#FDEEB5"/>
				<stop  offset="0.74" style="stop-color:#FBE999"/>
				<stop  offset="0.89" style="stop-color:#F9E475"/>
				<stop  offset="1" style="stop-color:#F7DF54"/>
			</radialGradient>
			<path class="two-worlds-15" d="M83.1,52.5c0.9-1.6,2.6-2.5,4.4-2.3c1.8,0.3,3.3,1.3,4.3,2.9c0.9,1.4,1.1,3.2,0.6,4.7
				c-0.8,1.8-2.7,2.8-4.6,2.6C85,60,81.7,55.2,83.1,52.5z"/>

				<radialGradient id="SVGID_12_" cx="77.63" cy="47.57" r="2.33" gradientTransform="matrix(1 0 0 -1 0 134)" gradientUnits="userSpaceOnUse">
				<stop  offset="0.15" style="stop-color:#FFF3D9"/>
				<stop  offset="0.3" style="stop-color:#FFF2D5"/>
				<stop  offset="0.45" style="stop-color:#FEF1C9"/>
				<stop  offset="0.59" style="stop-color:#FDEEB5"/>
				<stop  offset="0.74" style="stop-color:#FBE999"/>
				<stop  offset="0.89" style="stop-color:#F9E475"/>
				<stop  offset="1" style="stop-color:#F7DF54"/>
			</radialGradient>
			<path class="two-worlds-16" d="M85.4,38.3c0.8,0.7,1.1,1.9,0.8,2.9c-0.4,1-1.5,1.6-2.6,1.2c0,0,0,0,0,0C80.7,40.9,82.2,35.3,85.4,38.3z"/>

				<radialGradient id="SVGID_13_" cx="133.3539" cy="82.5823" r="3.1519" gradientTransform="matrix(1 -5.235987e-04 -5.235987e-04 -1 -48.5439 153.9459)" gradientUnits="userSpaceOnUse">
				<stop  offset="0.15" style="stop-color:#FFF3D9"/>
				<stop  offset="0.3" style="stop-color:#FFF2D5"/>
				<stop  offset="0.45" style="stop-color:#FEF1C9"/>
				<stop  offset="0.59" style="stop-color:#FDEEB5"/>
				<stop  offset="0.74" style="stop-color:#FBE999"/>
				<stop  offset="0.89" style="stop-color:#F9E475"/>
				<stop  offset="1" style="stop-color:#F7DF54"/>
			</radialGradient>
			<path class="two-worlds-17" d="M85.4,68.5c1.4,0.5,2.4,1.7,2.5,3.2c0,1.5-1.1,2.7-2.6,2.8C80.9,74.3,79.9,66.5,85.4,68.5z"/>
			<path class="two-worlds-18" d="M101.2,120.9c-0.8-1-1.7-1.9-2.8-2.7c-1.3-0.8-2.5-1.5-3.9-2.2c-7.5,2.4-15.2,3.8-23.1,4.3
				c-1.3,0.9-2.7,1.8-4,2.7c0.3-0.7,0.4-1.3,0.7-2c-1.6-0.1-3.1-0.4-4.6-1c-1-0.4-1.9-0.8-2.9-1.2c-0.1-0.1-0.3-0.1-0.4-0.1
				c-0.3,0-0.5,0.1-0.7,0.3l-0.2,0.1c1,3.8,2.1,7.6,3.1,11.4c0.6,0.4,1.2,0.8,1.8,1.1c0.8-0.8,1.6-1.6,2.1-2.6
				c7.3-0.3,14-3.5,20.6-6.5c0.3,0.2,0.6,0.4,0.9,0.7l6.7,1c-0.6-0.3-1.1-0.6-1.6-1.1l-2.8-2.1c1.5,0,3.1,0.3,4.6,0.8
				c2.4,0.2,4.9,0.2,7.3,0C101.7,121.4,101.5,121.2,101.2,120.9z"/>
			<path class="two-worlds-18" d="M101.3,112.2c0.7-0.2,1.4-0.3,2.2-0.3c0.5,0,1-0.1,1.4-0.2l0,0c1.3-1,3.1-2.3,4.4-3.3l0,0
				c-0.5-0.2-8,3.2-10.2,4.4C99.8,112.5,100.6,112.3,101.3,112.2z"/>
			<path class="two-worlds-18" d="M68.9,106.2c2.3-1.7,5.2-3.7,7.4-5.4c2.1,0,4.2,0.2,6.2,0.6c1-1.1,2-2.6,3-3.7c-1.2,0.8-2,1.2-3.2,1.9
				c-2.2-0.1-4.6-0.1-6.8-0.1c-2.4,2-5.4,4.2-7.8,6.2c-3.1,0.4-6.2,0.9-9.2,1.3c1.6-2.3,4.4-4.4,4.9-7.2c0.4-2.2,0.9-4.5,1.3-6.7
				c-0.6-0.2-1.6-0.3-2.2-0.4C62.4,95.2,62,100,62,100l-5.3,8.7c0.1,0.4,0.2,0.8,0.3,1.2c0.7-0.7,1.4-1.3,2-2
				c3.1-0.2,6.5-1.6,9.4-0.6c3.1,1.1,6.4,1.9,9.7,2.4c1.7-1.5,3.6-2.7,5.3-4.2c-2.3,1-4.2,2-6.4,3C74.3,108,71.7,106.8,68.9,106.2z"
				/>
			<path class="two-worlds-18" d="M98.2,99l1.4,3.7l-3.9,8.4c0,0-2.3,1.6-3.2,2.3c0.8-0.8,1.6-1.7,2.3-2.6c1.5-2.6,2.8-5.4,3.8-8.2
				c-0.3-1.2-0.9-2.4-1.6-3.4C97.4,99.3,97.8,99.2,98.2,99z"/>
			<polygon class="two-worlds-19" points="59.2,87 61,92 62.2,92.4 61.3,89.2 			"/>
			<path class="two-worlds-19" d="M58.1,79.9l-1.6-1.3v3.9c0.2,1.6,0.3,3.1,0.5,4.7l0.8-0.1L58.1,79.9z"/>
			<polygon class="two-worlds-19" points="63.9,92.8 65.4,93.1 80.2,87.6 78.4,87.2 			"/>
			<path class="two-worlds-19" d="M103.4,96.5c-4.5,1.2-9,1.9-13.6,2.2l1.1,0.9c5,0.4,10.1-0.4,14.8-2.1l0.9-1.6l2-3.5l-3.3-0.2L103.4,96.5z"
				/>
			<path class="two-worlds-19" d="M114.5,76.9c0.2-0.9,0.4-1.8,0.6-2.6c-1.9-1.8-3.3-3.9-5.2-5.7c0.7-1.5,1.3-3.1,1.7-4.7
				c-2.3-2.6-4.8-5-7.4-7.1c0.2-2,0.3-3.6,0.7-5.9c-0.9-3.3-2.3-6.5-4.3-9.3c0-0.6,0.3-1,0.3-1.6C96,32.2,88.8,26,80.3,22.3
				c-0.4,0.2-1,0.3-1.5,0.4C73.2,20.5,67,19.8,61,20.9c0,0.8,0,1.5,0,2.3c5.8-1,11.8-0.3,17.2,2c0.6-0.1,1-0.3,1.5-0.5
				c7,4.4,13.2,9.9,18.3,16.4c-0.3,0.7-0.8,1.5-1.1,2.1c2.2,2.2,4.1,4.7,5.8,7.3c-0.3,2-0.5,3.8-0.8,5.9c3,2.1,5.7,4.4,8.2,7
				c-0.7,1.8-1.7,3.5-2.3,5.3c2,1.8,3.9,3.7,5.9,5.6c-0.5,1.1-1.2,2.2-1.7,3.4c1.1,0.5,2.2,1.2,3.2,2c-0.8,4.7-2.7,9.2-5.5,13.2
				c0.4,0.2,0.8,0.5,1.2,0.9c3.2-4.3,5.1-9.4,5.5-14.7C115.9,78.2,115.2,77.5,114.5,76.9z"/>
			<polygon class="two-worlds-19" points="84.6,96.7 85.2,98.1 88.1,96.6 85.7,95.6 			"/>
			<path class="two-worlds-19" d="M119.6,55.2c-0.7,0.2-1.3,0.4-1.9,0.6c-1.8,0.5-3.5,0.8-5.4,1.3c-1.4-0.6-2.6-1.6-3.5-2.8
				c-0.6-4-1.8-8-3.5-11.7c1-0.7,1.8-1.8,2.7-2.5c0.4,0.1,0.8,0.1,1.1,0.2l0,0c1.5,0.3,3,1,4.1,2C116.9,45.6,119.6,50.3,119.6,55.2z
				"/>

				<radialGradient id="SVGID_14_" cx="96.7" cy="35.77" r="22.46" gradientTransform="matrix(1 0 0 -1 0 134)" gradientUnits="userSpaceOnUse">
				<stop  offset="0" style="stop-color:#FF7A33"/>
				<stop  offset="0.19" style="stop-color:#EF6A37"/>
				<stop  offset="0.58" style="stop-color:#C54141"/>
				<stop  offset="1" style="stop-color:#8F0D4E"/>
			</radialGradient>
			<path class="two-worlds-20" d="M117.6,55.8c-1.8,0.5-3.5,0.8-5.4,1.3c-1.4-0.6-2.6-1.6-3.5-2.8c-0.6-4-1.8-8-3.5-11.7
				c1-0.7,1.8-1.8,2.7-2.5c0.4,0.1,0.8,0.1,1.1,0.2l0,0c1,1,1.8,2,2.6,3.2c2.4,3.2,4.3,6.8,5.6,10.6
				C117.5,54.6,117.7,55.2,117.6,55.8z"/>
			<path class="two-worlds-19" d="M125,76.8c-0.8,0.2-1.5,0.2-2.3,0.1c-1-0.1-2-0.2-3-0.3c-0.4-0.7-0.6-1.4-0.6-2.2c-1.3-1.6-2.6-3.1-4.1-4.5
				c0.4-1.7,0.8-3.3,1.2-5c0.6-0.4,1.2-0.9,1.8-1.3c0.3-0.2,0.7-0.5,1-0.7c2.9,1,5.4,2.7,7.5,4.9C126.3,71.1,126.3,74,125,76.8z"/>

				<radialGradient id="SVGID_15_" cx="113.68" cy="24.76" r="16.32" gradientTransform="matrix(1 0 0 -1 0 134)" gradientUnits="userSpaceOnUse">
				<stop  offset="0" style="stop-color:#FF7A33"/>
				<stop  offset="0.19" style="stop-color:#EF6A37"/>
				<stop  offset="0.58" style="stop-color:#C54141"/>
				<stop  offset="1" style="stop-color:#8F0D4E"/>
			</radialGradient>
			<path class="two-worlds-21" d="M122.7,77c-1-0.1-2-0.2-3-0.3c-0.4-0.7-0.6-1.4-0.6-2.2c-1.2-1.6-2.6-3.1-4.1-4.5c0.4-1.7,0.8-3.3,1.2-5
				c0.6-0.4,1.2-0.9,1.8-1.3c0,0.2,0,0.3,0,0.4c1.9,0.7,3.6,1.7,5.1,3c1.5,1.2,0.7,3.8,0.4,5.8C123.5,74.3,123.2,75.7,122.7,77z"/>

				<radialGradient id="SVGID_16_" cx="146.9218" cy="308.3822" r="31.78" gradientTransform="matrix(0.9238 0.3828 0.3828 -0.9238 -174.2829 267.0604)" gradientUnits="userSpaceOnUse">
				<stop  offset="0" style="stop-color:#00F2B5"/>
				<stop  offset="1" style="stop-color:#0E7473"/>
			</radialGradient>
			<path class="two-worlds-22" d="M64.8,29.2c-1.3,0.3-2.5,0.6-3.6,0.9c-0.2,2.9-0.5,5.8-1.1,8.7c-0.7,3.5-1.5,6.9-2.2,10.3l8.9,3.4l10-3.4
				l0.4-11C73.7,34.4,69.4,31.3,64.8,29.2z"/>
			<path class="two-worlds-19" d="M77.3,38l-0.4,11l-10,3.4l-8.9-3.4c-0.2,1.1-0.5,2.2-0.7,3.3l9.4,3.9L78,51.6L77.3,38z"/>
			<path class="two-worlds-12" d="M73.1,37.3c-0.8-0.6-1.6-1.3-2.4-2c-1.6-1.3-3.3-2.6-4.9-3.8c-0.2-0.2-0.4-0.3-0.6-0.4
				c-0.5-0.2-2.3,0.6-4.1,1.4c-0.1,1.2-0.3,2.5-0.5,3.7l4.3,2.5l-3.4,2.7c0.4,1.2,1,2.3,1.7,3.3c0.8,1,3.3,1.5,3.3,1.5L65.9,48
				c0.5,0.5,1.1,0.9,1.7,1.1c0.7,0.1,1.4,0,2.1-0.2l3.2-0.6c0.6-0.1,1.1-0.3,1.5-0.6c0.4-0.5,0.6-1.1,0.6-1.7c0-2.2,0.2-4.3,0.5-6.5
				C74.7,38.7,73.9,37.9,73.1,37.3z"/>

				<radialGradient id="SVGID_17_" cx="76.28" cy="29.92" r="27.72" gradientTransform="matrix(1 0 0 -1 0 134)" gradientUnits="userSpaceOnUse">
				<stop  offset="0" style="stop-color:#00F2B5"/>
				<stop  offset="1" style="stop-color:#0E7473"/>
			</radialGradient>
			<path class="two-worlds-23" d="M76.4,70.9l-5.2,5.3c-3.2,0.6-6.5,0.8-9.8,0.5c-0.1-0.8,0.1-1.7,0-2.5c-1.7-0.9-3.5-1.7-5.3-2.2l4-9v0.1
				c3.4-0.7,6.8-1.2,10.3-1.4C73.1,64.2,74.5,67.8,76.4,70.9z"/>
			<path class="two-worlds-12" d="M75.6,70.6c-1.6,0.8-3.2,1.3-4.9,1.7c-0.2-0.9-0.2-1.7-0.3-2.7l-2.8,2c-1.4-0.5-2.8-1-4.1-1.7
				c-0.1-1.1,0-2.2-0.1-3.3c-1.2,0.3-2.6,0.5-3.9,0.8c0.4-1.3,0.9-2.5,1.4-3.8c3.2-0.3,6.3-0.5,9.5-0.8
				C72.5,65.3,74.3,67.9,75.6,70.6z"/>
			<path class="two-worlds-19" d="M91.2,71.2l-1-0.4c-1.9,3.5-3.3,7.3-4.1,11.2c1.8,3.6,4.4,6.6,7.7,9l0.9-0.3L91.2,71.2z"/>

				<radialGradient id="SVGID_18_" cx="105.77" cy="29.46" r="31.72" gradientTransform="matrix(1 0 0 -1 0 134)" gradientUnits="userSpaceOnUse">
				<stop  offset="0" style="stop-color:#00F2B5"/>
				<stop  offset="1" style="stop-color:#0E7473"/>
			</radialGradient>
			<path class="two-worlds-24" d="M91.2,71.2c-1.5,3.6-2.8,7.3-3.7,11.1c1.8,3.2,4.3,6.1,7.3,8.3c2.9-0.2,5.8-0.9,8.6-1.9
				c2.2-3.3,3.9-6.9,5.3-10.6c-1-2.3-1.9-4.8-2.9-7.1c-1.9,1.5-4,2.9-6.2,4C97.2,73.8,93.6,72.5,91.2,71.2z"/>
			<path class="two-worlds-19" d="M105.7,71.1l-2.5-0.3l-4.8,3.7l1.2,0.6C101.8,74.2,103.9,72.8,105.7,71.1z"/>
			<path class="two-worlds-12" d="M108.1,78.3c-1.9,3.1-4.8,5.4-8.2,6.7c-0.9-1.2-1.7-2.4-2.5-3.6c-1,1-2.2,2.1-3.3,3.1
				c-0.5-1.9-1-3.8-1.4-5.7c-1,1.2-2,2.4-2.8,3.8c-0.2-1.1-0.2-2.3-0.1-3.4l1.8-6.3c2.6,1.2,5.2,2.2,7.9,3.2c2-0.8,3.9-1.9,5.7-3.1
				C106.2,74.6,107.2,76.5,108.1,78.3z"/>
			<path class="two-worlds-25" d="M60.9,18.3L61,33.7c0,2,0,4.1-1,5.9c-0.7,1.2-1.8,2.2-2.3,3.4c-1.4,3.3,1.5,7.4-0.1,10.7
				c-0.4,0.8-1.1,1.5-1.4,2.4c-0.8,1.8-0.2,3.9,0,5.8c0.4,4.4-1.4,8.9-1,13.3s2.8,8.3,2.8,12.6c0,2.6-1,5.1-1.3,7.6
				c-0.3,3.4,0.6,6.9,1,10.3c0.2,2,0.2,4.1,0.5,6.1c0.4,2.6,1,5.1,1.9,7.6l3.8,12.2"/>
		</g>
	</g>
</g>
</svg>
