<svg xmlns="http://www.w3.org/2000/svg" viewBox="0 0 739.76 1500.23"><defs><style>.wizard-4-1{fill:#e7f4f7;}.wizard-4-2{fill:#ffd7b3;}.wizard-4-3{fill:#5d5691;}.wizard-4-4{fill:#4e4a7c;}.wizard-4-5{fill:#413b5b;}.wizard-4-6{fill:#a7a9aa;}.wizard-4-7{fill:#d4d7d8;}.wizard-4-8{fill:#fff;}.wizard-4-9{fill:#b7bbbc;}.wizard-4-10{fill:#e2bfa1;}.wizard-4-11{fill:#ebeded;}.wizard-4-12,.wizard-4-13,.wizard-4-14{fill:#96cccc;}.wizard-4-12{opacity:0.56;}.wizard-4-13{opacity:0.42;}</style></defs><g id="Capa_2" data-name="Capa 2"><g id="Layer_2" data-name="Layer 2"><ellipse class="wizard-4-1" cx="421.34" cy="1440.12" rx="318.43" ry="60.11"/><path class="wizard-4-2" d="M82.41,529.46a184.9,184.9,0,0,0,5.32-25.19c1.34-9.65,1.6-20.46-4.55-28-3.11-3.83-7.52-6.33-11.49-9.26-16.81-12.39-29-48.78-24.5-67.57,4.46-2.44,6.4,11.76,10.21,24.06,1.28,4.15,8.37,12.82,8.37,12.82-2-.87-9.4-39.39-8.37-57.42,1.83-4.27,8.42,2.46,8.77,13.87.39,12.53,6,25.55,14.4,34.89C72.71,413.3,70.35,374.23,75,376.25c6.68-.08,7.48,35,17.29,48.37,2.63,3.6,6.19,6.89,10.59,7.57,8.94,1.39,15.63-8.13,18.33-16.76,1.49-4.79,5.2-11.1,9.68-8.84,2.86,1.45,3,5.45,2.54,8.62a60.41,60.41,0,0,1-15.28,31.63c-2.77,3-6,6.09-6.34,10.15-.2,2.74,1,5.36,2.1,7.88a104.72,104.72,0,0,1,8.54,44.07c-.29,11.18-2.74,23-10.57,31s-22.28,10.13-30,2c-6.38-6.7-6-17.17-5-26.37Z"/><path class="wizard-4-3" d="M152.64,589.4c4.83-35.49,19.45-71,44.24-96.91-13.11-4.07-26.61-.84-40.32-.08a244.4,244.4,0,0,1-99.5-15.3c-16.25,43.82-13.25,93.36,2.61,137.32S103.52,697.19,136,730.8c18.19,18.83,38.29,36.5,62.23,47.09,4.86,2.15,10,4,15.34,3.79,11.74-.52,21.1-12.27,21-24-.19-15.95,4.27-46.82-9.25-50.27C204.38,702.06,144.18,651.74,152.64,589.4Z"/><path class="wizard-4-4" d="M217.1,710.79c1.35.43,2.92.68,4.1-.11a4.79,4.79,0,0,0,1.52-2.09c.16-.35.3-.72.44-1.08-22.51-7.85-78.77-57-70.56-117.36,4.82-35.49,19.45-71.06,44.24-96.91-12.12-3.77-24.56-1.3-37.19-.3-12.13,17.77-19.34,42.66-23,61.23-5.42,27.49-3.62,56.73,8.53,82.26C158,663.48,180.9,684.34,204.31,703,208.24,706.14,212.31,709.29,217.1,710.79Z"/><path class="wizard-4-2" d="M496.78,533.36a184.42,184.42,0,0,1-3-25.55c-.48-9.74.22-20.53,7-27.51,3.44-3.54,8.05-5.64,12.27-8.2,17.85-10.85,33.27-46,30.41-65.12-4.22-2.83-7.42,11.14-12.31,23-1.65,4-9.48,12-9.48,12,2.11-.69,12.87-38.4,13.45-56.45-1.44-4.42-8.61,1.7-10,13-1.49,12.44-8.28,24.92-17.43,33.48,9.1-13.6,14.92-52.3,10.16-50.7-6.64-.67-10.56,34.18-21.52,46.65-2.94,3.35-6.78,6.31-11.23,6.6-9,.58-14.84-9.49-16.76-18.33-1.06-4.9-4.19-11.52-8.85-9.66-3,1.19-3.51,5.15-3.3,8.35a60.32,60.32,0,0,0,12.41,32.87c2.49,3.23,5.46,6.6,5.4,10.67,0,2.75-1.48,5.25-2.79,7.66a104.85,104.85,0,0,0-12.42,43.14c-.71,11.16.68,23.18,7.77,31.83s21.29,12.07,29.7,4.69c6.95-6.11,7.55-16.57,7.32-25.82Z"/><path class="wizard-4-5" d="M507.46,1484.45c2.74,2,7.76,3.32,8.57,0a5.33,5.33,0,0,0-.09-2.21c-2.65-14.19-5.31-28.42-9.78-42.15-3.57-11-8.46-21.87-16.59-30.1s-20-13.42-31.35-11.25c-7.86,1.5-19,8.12-19.67,17.07-.67,9.23,11.15,17.93,16.91,23.7A467.07,467.07,0,0,0,507.46,1484.45Z"/><path class="wizard-4-5" d="M197.08,1409.86c-3.45.81-7.83,2.74-7.31,6.24s5.52,4,9.14,3.55a934.05,934.05,0,0,1,104.21-8.3c6.94-.16,15.94-1.95,16.85-8.83.66-4.9-3.57-9-7.64-11.79-15.34-10.61-36-19.67-53.28-9.72C238.6,1392.78,220.5,1404.32,197.08,1409.86Z"/><path class="wizard-4-3" d="M220.57,1355.31c1.39,5.75,2.93,11.71,6.86,16.35,3.44,4,8.38,6.7,13.23,9.19,142.49,73,315.7,84.32,487.43,1.39-38.57-22.6-74.81-42.82-117.69-87.68C539,1219.85,427.21,1040.7,404.87,975.17c-4.08-12-8.43-25-19.5-32.2-5.79-3.75-12.78-5.39-19.63-6.77a386.53,386.53,0,0,0-98.7-7c-14.28.83-28.89,2.58-41.36,9-29,14.94-23.27,55.07-26.27,82.07a973.79,973.79,0,0,0,21.16,335Z"/><path class="wizard-4-4" d="M220.57,1355.29c1.39,5.75,2.93,11.71,6.86,16.35,3.44,4,8.38,6.71,13.23,9.19q21.69,11.12,44.32,20.28c-34.56-48.91-52.45-109.25-65-168.47A1301.58,1301.58,0,0,1,196.68,1078c-.56-6.29-.24-13.75-.64-20.94q-2.76,38.23-2.51,76.63A976.57,976.57,0,0,0,220.57,1355.29Z"/><path class="wizard-4-4" d="M334.31,1302.74c-33.52-63.37-52.71-133.15-71.66-202.3a619.22,619.22,0,0,0,111.67,328.14,523.92,523.92,0,0,0,82.32,10.83C404.07,1407.59,363.23,1357.43,334.31,1302.74Z"/><path class="wizard-4-4" d="M710.65,1390.3q8.73-3.88,17.44-8.08c-38.57-22.6-74.81-42.82-117.69-87.68-65.76-68.81-165.77-226.18-198.62-301.82a34.26,34.26,0,0,0-18.77-2.8c5.42,21.05,14.09,41.12,23.48,60.72C482,1187.35,584.83,1305.85,710.65,1390.3Z"/><path class="wizard-4-4" d="M661.19,1387.5c-153.86-84.89-295.53-208.27-356.27-373.16,11.53,68.58,47.07,130.39,82,190.53,46.5,80.07,93.51,160.85,156.21,229,.75.82,1.51,1.68,2.25,2.58a562.06,562.06,0,0,0,141.1-36C677.85,1396.51,669.41,1392,661.19,1387.5Z"/><path class="wizard-4-5" d="M196.89,1046.19c18.52-6.73,37.92-.24,54.21,10.84,3.22,2.2,6.6,4.54,10.49,4.9,5,.46,9.6-2.45,14.08-4.74,20-10.17,43.79-9,65.82-4.88s43.79,12.32,66.17,11.21c35.12-1.73,46,22.55,59.2,31.78-8.33-14.38-36.57-60.75-40-75-1.22-5.08-2.52-11-7.18-13.32a16.41,16.41,0,0,0-5.9-1.31L273.1,992.23c-12.33-1.17-24.75-2.35-37.06-1.06-10,1.05-34.28,0-35.8,11C198.83,1012.32,196.89,1039.82,196.89,1046.19Z"/><path class="wizard-4-6" d="M349.59,718.67c20.57,17.43,48,23.75,72.45,35.17A183.86,183.86,0,0,1,491.84,811Q490.42,801,489,790.9a157.45,157.45,0,0,1,55.1,66.18A724.14,724.14,0,0,0,547.51,771c9.57,5.88,16.81,14.77,24.74,22.71A160.8,160.8,0,0,0,623.19,828c-12.5-14.14-12.29-35.47-21.39-52-6.58-11.93-17.57-20.64-27.25-30.22-14-13.88-26-30.4-43.28-40-22.54-12.56-50.22-11.24-74.42-20.18-19.94-7.36-36.63-21.32-52.89-35L367.73,620c-6.6-5.56-13.49-11.28-21.83-13.49-17.57-4.66-36.41,9.05-41.52,26.5-4.72,16.14-.41,36.89,11.86,48.63C328.24,693.17,336.79,707.83,349.59,718.67Z"/><path class="wizard-4-3" d="M179.17,833.6c0,39.3-2,81.33.59,120.77,1.88,29.2,2.08,65.27,79.19,66.71,55.41,1,146.4,23,173-6.73,16.3-18.22,14.33-16.38,18.15-39.41,8.42-50.8-7.55-87.77-27-137.43C410.83,806.1,399.85,759.3,382.85,709c-11.67-34.58-85.51-20.33-124-20.82-35.65-.45-63.82,17.07-68.88,43.41C183.21,766.48,179.17,797.45,179.17,833.6Z"/><path class="wizard-4-7" d="M218.24,631.63c6.42-13.5,18.07-24,31.4-26.75a91.84,91.84,0,0,0-3.95-16.28c-1.43-4.19-3.33-8.46-6.67-10.9s-7.38-2.65-11.25-2.31a42.87,42.87,0,0,0-26.26,12.15,46.91,46.91,0,0,0-13.45,28.08c-1.24,11.46,1.8,23.1,6.69,33.24a115.54,115.54,0,0,0,8.56,14.54c1.93,2.84,8.46,11.79,11.34,12.1.17-7.62-1.09-16-.2-23.82C215.29,644.32,215.13,638.17,218.24,631.63Z"/><path class="wizard-4-2" d="M217,696.38c3.61,28,9.22,56.91,25.17,78.87C249.92,786,261,795,273.38,794.88c9.5-.11,18.46-5.73,25-13.41s11-17.28,14.76-27A279.09,279.09,0,0,0,331.79,647c-.34-13.78-1.87-28.1-8.57-39.68-7-12.13-19.07-19.81-31.62-23.39-23.82-6.79-50.33,1.15-68.6,19.3-12.28,12.2-12.24,19.81-11.22,37.56Q213.39,668.66,217,696.38Z"/><path class="wizard-4-8" d="M215.91,651c3.72-2.06,9.39-2.5,14.63-2.71,9.06-.38,18.85-.32,26.29,2.57.66.25,1.35.58,1.45,1,.17.74-1.34,1.23-2.61,1.49a103.72,103.72,0,0,1-23.76,1.87C229,655.1,210.05,654.21,215.91,651Z"/><path class="wizard-4-5" d="M230.7,648.25c-2.16.09-4.4.22-6.54.48-1.25,1.95-.2,4.53,2.25,6.14,2.57.21,4.8.31,5.67.34,3.3.11,6.62.07,9.92-.12a8.6,8.6,0,0,0,1.76-1.19c1.83-1.66,2-3.83.53-5.59h0A120.44,120.44,0,0,0,230.7,648.25Z"/><path class="wizard-4-8" d="M228.37,649.39a9.68,9.68,0,0,0-2.11.85c-.39.24-.67.62-.3.87a1.51,1.51,0,0,0,.61.19,5.76,5.76,0,0,0,1.71-.12,16.67,16.67,0,0,0,2.39-.67,3.12,3.12,0,0,0,.93-.47c.22-.2.3-.46.09-.67a1.68,1.68,0,0,0-1-.32A7.13,7.13,0,0,0,228.37,649.39Z"/><path class="wizard-4-8" d="M282.69,651c3.71-2.06,9.38-2.5,14.62-2.71,9.06-.38,18.86-.32,26.29,2.57.67.25,1.36.58,1.45,1,.17.74-1.33,1.23-2.61,1.49a103.68,103.68,0,0,1-23.75,1.87C295.72,655.1,276.82,654.21,282.69,651Z"/><path class="wizard-4-5" d="M297.48,648.25c-2.17.09-4.4.22-6.55.48-1.24,1.95-.19,4.53,2.25,6.14,2.58.21,4.81.31,5.68.34,3.3.11,6.62.07,9.91-.12a8.09,8.09,0,0,0,1.76-1.19c1.84-1.66,2-3.83.53-5.59h0A120.45,120.45,0,0,0,297.48,648.25Z"/><path class="wizard-4-8" d="M295.14,649.39a9.68,9.68,0,0,0-2.11.85c-.38.24-.66.62-.3.87a1.51,1.51,0,0,0,.61.19,5.76,5.76,0,0,0,1.71-.12,17.19,17.19,0,0,0,2.4-.67,2.94,2.94,0,0,0,.92-.47c.22-.2.3-.46.1-.67a1.71,1.71,0,0,0-1-.32A7.13,7.13,0,0,0,295.14,649.39Z"/><path class="wizard-4-7" d="M262.75,614.25c12.54,5.6,26.41,7.25,39.93,9.63S330,629.64,340.94,638L338,632.28c32.55,15.25,53.44,47.25,80.75,70.63,35.84,30.66,82.3,46,128.47,55.58A170.47,170.47,0,0,1,509.92,720c31.38,22.42,72,33.21,95.83,63.5-11.46-36-37.27-65.48-64.12-92.05q-30.37-30.06-63.62-57c-25.85-21-53.05-40.56-82.89-55.34s-62.47-24.67-95.75-25.49c-12.3-.3-24.87.69-36.23,5.41-9.77,4.06-24.91,14.81-26.15,26.55C235.67,597.9,253.29,610,262.75,614.25Z"/><path class="wizard-4-3" d="M417.53,581.72C419.45,546,402.46,514.85,385.2,485a112.63,112.63,0,0,1,40.4,0c33.26,6,68.62,6.62,101.48-1.32,10.72,45.49,1.1,95.49-16.18,138.92C491.16,672.18,453.18,735.2,358.77,776c-4.88,2.12-20.17-10.11-25.41-11-11.59-2-19.43-14.78-17.84-26.43,2.16-15.8,24.21-43.73,28.57-53.31C347.16,678.55,413.06,664.6,417.53,581.72Z"/><path class="wizard-4-9" d="M234.74,900.62c51.42,123.07,160.92,141.71,201.63,135,15.53-2.56,30.77-8.9,42-20s17.88-27.21,15.52-42.77c-1.45-9.65-7.13-19.43-16.43-22.4,9.5,4.73,11,19.16,4.32,27.42S463,988.53,452.7,986.16c-20.56-4.7-40.92,6.56-54.11-55.06-4.41-20.63-12-43.14-35.24-68,5.68,9.81,25.8,5,42.45,49.62,3.37-47-16.5-90.43-31.93-134.91-10.57-30.44-26.86-66.55-42.65-105-12.79,29.63-23.4,57.89-45.06,55.53-13.6-1.48-18.7-6.11-31.66-1.88-33.44,10.9-39-42-39-42C212.41,715.47,205.94,831.68,234.74,900.62Z"/><path class="wizard-4-7" d="M318.11,736.35c-.35-6.73-.66-13.61-3.17-19.87a30.11,30.11,0,0,0-17.8-17c-7.81-2.72-20.59-1.67-27.35,4.48-6.73-5.57-18.4-7-25.87-4.79a30.13,30.13,0,0,0-18.66,16c-2.83,6.12-3.49,13-4.2,19.68q-4.69,45-13.76,89.48a234.88,234.88,0,0,0,25-57.92c2.3-8.23,4.22-16.75,8.75-24,2.68-4.29,6.41-8.15,11.17-9.86,3.35-1.21,7-1.28,10.43-2.29a18.17,18.17,0,0,0,7.73-4.62,18.24,18.24,0,0,0,6.4,3.91c3.37,1.19,7,1.45,10.3,2.83,4.67,2,8.19,6,10.65,10.43,4.14,7.47,5.62,16.08,7.49,24.41a234.31,234.31,0,0,0,22,59.14Q320.5,781.65,318.11,736.35Z"/><path class="wizard-4-10" d="M253.33,693.5c-.37,1.21-.72,2.64,0,3.67a4.23,4.23,0,0,0,1.87,1.2,110,110,0,0,0,18.54,5.69c-.86-.18,1.25-40.78,1.32-44.61.26-14.85,2.59-26.49.86-41.24-6.73-2.11-8.22-2.2-8.22-2.2-.71,8.13-2.3,22.2-3.56,30.26A343.75,343.75,0,0,1,253.33,693.5Z"/><path class="wizard-4-7" d="M237.22,846.46c12.67,47.19,29.8,96.08,67,127.82a136.22,136.22,0,0,0,66.67,30.79c-18.37-5.07-34.11-17-47.88-30.15C268.55,922.85,238.89,846,244.22,770.85c-4.64,12-9.41,25.32-12.17,37.85C229.32,821.06,234,834.57,237.22,846.46Z"/><path class="wizard-4-7" d="M368.66,981.15c13.73,8.26,29.16,14.8,45.19,14.42-9.45-.54-18.1-5.27-26.12-10.28C324.06,945.6,276.83,880.39,259,807.52c3.2,13.05,3.75,27.31,7.14,40.69,3.16,12.44,9.43,23.8,15.53,35,13.42,24.7,29.43,48.24,49.35,68.17A198,198,0,0,0,368.66,981.15Z"/><path class="wizard-4-11" d="M253.43,585.63a27.29,27.29,0,0,0,9.17,5c30.69,11.23,65.22,7.75,96,18.76,10.31,3.69,20,8.94,29.61,14.17-14.81-13.5-33.72-21.72-53-27.3s-39.11-8.74-58.57-13.55c-5-1.23-10.79-3.39-11.94-8.39-.85-3.7,1.44-7.55,4.58-9.69s7-2.93,10.68-3.69c-8.43,1.71-16.48,1.79-24.1,6.69C249.29,571.81,247.13,579.93,253.43,585.63Z"/><path class="wizard-4-11" d="M193.94,612.11c-2.81,11.47-.61,24.82,6.95,33.08-5.54-11.41-4.48-26.17,1.61-37.23a43.4,43.4,0,0,1,27.95-21.09c-1,.24-4.64-2.25-5.95-2.57a20.54,20.54,0,0,0-7.07-.43,13.53,13.53,0,0,0-8.6,3.6A49.66,49.66,0,0,0,193.94,612.11Z"/><path class="wizard-4-9" d="M202.88,610.41l7.38,3.38a27.8,27.8,0,0,0-22.48,8.08c28.34-1.13,55.88,10.07,80.74,24.38a43.22,43.22,0,0,0-18.45-20.31q1.22,2.07,2.42,4.14C241.87,611.94,221.55,607.21,202.88,610.41Z"/><path class="wizard-4-9" d="M332.52,608.49l-7.22,3.71a27.64,27.64,0,0,1,22.79,7c-28.35.2-55.39,12.67-79.62,28.14A43.55,43.55,0,0,1,286,626.22c-.75,1.41-1.49,2.83-2.24,4.25C293.64,611.84,313.74,606.16,332.52,608.49Z"/><path class="wizard-4-5" d="M251.18,736.14s16-.15,25.29,2a135.58,135.58,0,0,1,17.91,5.55s-10.27-1.63-18.2-2.52-26.83-1-26.83-1Z"/><path class="wizard-4-12" d="M461.48,368.49c2.84-7.57,8.25-14,10.8-21.66s.88-17.94-6.61-21-15.41,2.84-21.76,7.9c-22.23,17.69-49.69,29.81-78.1,30-9.82.07-20.69-1.83-26.79-9.52-6.56-8.28-5.22-20.52-.56-30,10.22-20.76,32.57-32,52.92-43s41.85-25.31,47.46-47.75c-14.34-10.1-34.07-3.15-49.76,4.71-51.15,25.63-101,59.1-158.07,63.56-12.87,1-26.2.4-38-4.76S171,281.43,168.92,268.7c-3.07-18.46,10.61-35.35,24.84-47.49,47.62-40.6,110.3-59.66,159.53-98.29,14-11,27.43-24.64,30.66-42.09s-8.47-38.42-26.22-38.77c14.74-4.43,31.12,5.34,37.87,19.18s5.54,30.37,1,45.08a108.68,108.68,0,0,1-35,51.77c-17.76,14.42-40.08,23.2-55.39,40.2-2.9,3.21-5.63,7.07-5.5,11.39.18,6,6.17,10.63,12.18,11.39s12-1.32,17.66-3.37l60.68-21.85c18.89-6.8,38.75-13.71,58.59-10.71s39.2,19.56,37.88,39.59c-1.11,16.84-15.43,29.35-28.64,39.86L428.27,289c-6.39,5.08-13.49,13-9.77,20.26,1.77,3.47,5.64,5.42,9.48,6.09,24.61,4.33,45.53-33,68.29-22.66,14.51,6.57,14.84,27.85,7.36,41.9S483.48,359.81,478,374.74C473,388,477.57,404.24,490,411.33,468.46,418,455.28,385.05,461.48,368.49Z"/><path class="wizard-4-13" d="M78.16,360.25a173.69,173.69,0,0,1-26-42.93C46,302.78,42.56,284,53.59,272.74c13.31-13.64,36.76-5.85,51.67,6C120.39,290.8,132.64,306,147,319s31.79,24.05,51.12,24.82,40.08-11.82,43-30.93c2.74-17.77-9.71-34.11-22.5-46.75a301.62,301.62,0,0,0-39-32.58c-16-11.19-33.09-20.89-47.63-33.88s-26.62-30.09-28.58-49.49,8.62-40.8,27.2-46.7c11.81-3.76,24.66-1,36.5,2.67,65.3,20.28,123.1,68.1,191.45,69.74,16.92.41,34.84-2.54,47.81-13.41s18.8-31.4,9.22-45.35c-9.37-13.64-28.23-16-44.76-16.83-48-2.54-98.06-4.08-140.14-27.23-14.36-7.89-28.14-19.24-32.65-35S202.42,2.27,218.64,0c-6.83,7.54-6.07,19.8-.64,28.41s14.5,14.21,23.65,18.66c54.61,26.58,118.56,21.54,178.52,31.15,18.17,2.91,36.49,7.36,52.08,17.15s28.19,25.67,30.22,44c3.16,28.64-20.66,54.69-47.91,64.06s-57,6.07-85.64,2.66l-79.35-9.47c-16.32-2-36.29-2.29-45.16,11.54-5.78,9-4.23,21.1.54,30.67s12.3,17.45,18.72,26a133.22,133.22,0,0,1,25.68,64.13c.71,6,1,12.18-.91,17.89-2.57,7.74-8.81,13.68-15.39,18.49-28.82,21.06-68.91,25.59-101.69,11.47-23.7-10.2-42.76-28.89-65.64-40.83-6.19-3.23-15.76-4.86-18.48,1.57-1.41,3.35.09,7.17,1.68,10.44,5.76,11.83,13,23.07,16.6,35.73,4.18,11.5,2.62,27.58-5.88,36.63-1.21-10.24,3-18.32-.12-28.82C96,379.62,85.83,369.54,78.16,360.25Z"/><path class="wizard-4-14" d="M27.28,270.89c5-11,16.69-17.77,22.43-28.46A31.46,31.46,0,0,0,49.59,213a31.49,31.49,0,0,0-24.74-16c8.45,4.44,10.53,16.17,7.47,25.21s-9.85,16.22-15.78,23.7C4.14,261.58-5.24,283.1,3.28,301.16,12.8,321.33,39.64,328,45.85,350.25,37.31,323,12.58,303.12,27.28,270.89Z"/><path class="wizard-4-14" d="M513.49,343.58c8.16-9.57,17.1-19.11,20.79-31.13s.09-27.43-11.4-32.55c-6.92-3.09-15.41-2-21.71-6.2-9.16-6.12-8.69-20.2-3.46-29.9s13.88-17.23,19.05-27,5.45-23.86-3.83-29.8c14.17,7.89,20.47,27.39,13.59,42.08-4.29,9.18-13.1,17.39-11.66,27.42,1.29,9,10.3,14.55,18.68,18s17.79,6.62,22.46,14.39c5.85,9.76,1.43,22.76-6.1,31.28S532.2,334.48,524,342.34a68.42,68.42,0,0,0-20.39,56C490.94,377.86,499.2,360.34,513.49,343.58Z"/><path class="wizard-4-14" d="M77.18,175.05c-9.32-17.25-12.54-38.85-4-56.52,4.33-9,11.5-16.72,14-26.39S84.54,69.53,74.54,69.46c4.12,4.93,2.91,12.6-.65,18s-9,9.13-13.64,13.53c-20.79,19.57-25.77,54.67-9.29,78,7.07,10,17.18,17.37,27.09,24.54l54.38,39.34c6.8,4.91,13.76,10,18.22,17.1s5.89,16.78,1.23,23.75c12.2-18.27-4.54-40.55-17.86-50.84C112.92,216.51,90.1,199,77.18,175.05Z"/><path class="wizard-4-4" d="M510.8,619.7c17.29-43.42,26.91-93.43,16.18-138.92-5.92,1.44-11.93,2.58-18,3.48-5.56,6-8.5,14.34-9.78,22.56-1.5,9.6-1.05,19.4-1.94,29.07-1.16,12.68-4.59,25-8.31,37.21-10,32.56-22.17,64.63-39.62,93.87-18.37,30.76-41.82,51.51-68.57,74.28,1.17,2.58,8.84,7.59,15.72,12.73C463.77,714.22,493.94,662.07,510.8,619.7Z"/><path class="wizard-4-5" d="M519.56,477.17c1.79.81,4.94,1.8,6.18,3.32,4,5-1.86,12.28-7,16.11-7.44,5.55-16.27,8.84-25,12-19.77,7.31-40.9,14.72-61.48,10.17-17.77-3.92-32.51-16.34-44.41-30.12-1.67-1.94-3.39-4.16-3.28-6.72.16-3.9,4.32-6.24,8-7.6,20.6-7.7,42.86-8.95,64.64-8C478.12,467.35,500.24,468.39,519.56,477.17Z"/><path class="wizard-4-2" d="M458.07,509.3c.93-14.73,6.68-30.89,13.59-43.92,13.41.84,28.67,2.57,41.36,6.72-3.43,1.94-10.25,5.32-13,8.13-6.8,7-7.5,17.77-7,27.51,0,.28,0,.56.05.84h0c-11.33,4.19-23.12,8.41-35,10.4A71.07,71.07,0,0,1,458.07,509.3Z"/><path class="wizard-4-5" d="M64.72,471.46c-1.85.65-5.08,1.36-6.45,2.76-4.46,4.6.76,12.4,5.54,16.67,6.91,6.19,15.42,10.25,23.8,14.23,19,9,39.43,18.29,60.34,15.59,18.05-2.33,33.84-13.39,46.91-26.05,1.84-1.78,3.75-3.85,3.87-6.4.19-3.9-3.75-6.6-7.27-8.29-19.84-9.49-41.9-12.72-63.68-13.68C106.87,465.36,84.74,464.43,64.72,471.46Z"/><path class="wizard-4-2" d="M123.11,508.93c.38-14.75-3.9-31.36-9.63-44.95-13.43-.36-28.79,0-41.79,3,3.24,2.25,9.73,6.21,12.21,9.25,6.15,7.56,5.88,18.37,4.54,28l-.12.83h0c10.92,5.18,22.28,10.43,33.92,13.46A73,73,0,0,0,123.11,508.93Z"/></g></g></svg>
