<svg xmlns="http://www.w3.org/2000/svg" viewBox="0 0 535.48 951.55"><defs><style>.wizard-2-1{fill:#e2bfa1;}.wizard-2-2{fill:#4e4a7c;}.wizard-2-3{fill:#413b5b;}.wizard-2-4{fill:#a7a9aa;}.wizard-2-5{fill:#5d5691;}.wizard-2-6{fill:#ffd7b3;}.wizard-2-7{fill:#b7bbbc;}.wizard-2-10,.wizard-2-8{fill:#fff;}.wizard-2-9{fill:#d4d7d8;}.wizard-2-10{opacity:0.19;}.wizard-2-11{fill:#966256;}.wizard-2-12{fill:#724b40;}</style></defs><g id="Capa_2" data-name="Capa 2"><g id="Layer_2" data-name="Layer 2"><polygon class="wizard-2-1" points="24.38 261.45 28.95 260.25 33.94 265.95 39.4 295.72 36.8 315.92 30.92 311.65 24.38 261.45 24.38 261.45"/><polygon class="wizard-2-1" points="33.94 258.06 58.89 316.93 39.4 320 41.65 299.93 33.94 258.06"/><path class="wizard-2-2" d="M147.4,391.29c-32,2.2-53.05,1.7-79.87-8.69,10.74,84.08,12.24,135.75,36.55,217.79,14.57-32.48,43.94-58.42,66-87.73,41-54.36,56.43-120.84,50.35-185-.71-7.46-2.85-24.09-15.06-24.87-10.74-.69-18.61,16.8-23.5,23.07C177.72,331.21,152.55,390.94,147.4,391.29Z"/><path class="wizard-2-3" d="M40,417.56a463.7,463.7,0,0,0,48.83,164.8c3.19,6.18,6.56,12.35,11.14,17.25,1.1,1.18,2.86,2.29,3.93,1.14a4,4,0,0,0,.59-2.84c-.68-14-3.91-27.8-6.78-41.53C91.42,526.4,86.82,496,83,465.55c-2.94-23.6-4-55.29-16-75.88-4.76-8.18-12-8.66-19-3.81C38.48,392.57,38.82,406,40,417.56Z"/><path class="wizard-2-3" d="M112.71,209a1044.34,1044.34,0,0,1,334.63-13c11.08,1.36,30.83,2.84,30.83,12.11,0,5.46-18.55,7.88-29,9.51-127.66,20-258.88,25.7-387.83,24.12-3.26,0-6.79-.19-9.31-2.45-7.86-7.08,14.24-16.09,19.38-18.44C84.59,215,98.75,211.87,112.71,209Z"/><path class="wizard-2-4" d="M321.69,244.51c-1.46,7.68-5,14.8-9.18,21.43-2.18,3.5-4.86,7.14-8.85,8.19-5.63,1.49-11.43-3.22-13.15-8.79s-.4-11.59,1.22-17.19a163.2,163.2,0,0,1,5.64-16.24c2.13-5.2,4.62-10.44,8.8-14.19a10.06,10.06,0,0,1,6.32-2.95,6.79,6.79,0,0,1,6.61,6.76,1.15,1.15,0,0,1-.6,1.1C322.75,228.63,323,237.55,321.69,244.51Z"/><path class="wizard-2-3" d="M427.21,949.84c2.29,1.7,6.51,2.79,7.19,0a4.29,4.29,0,0,0-.08-1.85c-2.22-11.91-4.46-23.85-8.2-35.37-3-9.23-7.1-18.35-13.92-25.25s-16.78-11.27-26.31-9.45c-6.6,1.27-16,6.81-16.5,14.33-.56,7.74,9.35,15,14.19,19.88A389.26,389.26,0,0,0,427.21,949.84Z"/><path class="wizard-2-3" d="M133.58,882.34c-2.89.68-6.57,2.3-6.13,5.24s4.63,3.39,7.66,3a782.64,782.64,0,0,1,87.44-6.95c5.83-.14,13.38-1.64,14.15-7.41.54-4.11-3-7.54-6.42-9.9-12.87-8.9-30.2-16.5-44.7-8.15C168.42,868,153.23,877.7,133.58,882.34Z"/><path class="wizard-2-5" d="M181.31,848.69c.38,4.63.87,9.54,3.86,13.3,2.84,3.59,7.46,5.5,11.87,7.2A582.12,582.12,0,0,0,477.62,903c-67.76-65.89-111-153.2-120.44-243.27-5.37-51.24-.17-103-8-154-1.45-9.54-3.44-19.23-8.55-27.67-4.79-7.92-12.1-14.31-19.95-19.74C295,440.53,261.31,432,230.53,438.68c-23.43,5.06-44.7,19.48-56.19,39.14-12.09,20.69-6.25,49.34-6.1,72.27q.62,95.42,5.78,190.83Q176.95,794.83,181.31,848.69Z"/><path class="wizard-2-2" d="M216.94,732.6c-15.39-59.5-27.36-120.12-34.61-181.48a2035.78,2035.78,0,0,0,26.17,273.8c2.86,17.38,8.64,35.18,11.93,52.82A575.13,575.13,0,0,0,288,895.82C252.26,851.06,232.05,791,216.94,732.6Z"/><path class="wizard-2-2" d="M356.7,659.77c-4.65-44.37-1.38-89.13-5.47-133.46a8.51,8.51,0,0,0-1.77-.76c-18,63.69-17.21,133-2.44,197.66s43.05,125,78.34,179.23c1,1.5,2,3.07,2.83,4.7q24.58-1,49-4.1C409.38,837.15,366.15,749.84,356.7,659.77Z"/><path class="wizard-2-2" d="M377.72,903.28c-60.49-91.09-89.49-203.1-106.57-314.48a838.71,838.71,0,0,0,47,312.34,586.92,586.92,0,0,0,62.2,6C379.42,905.84,378.56,904.56,377.72,903.28Z"/><path class="wizard-2-3" d="M180.38,542.69c7,3.81,15.22,8.46,16,16.4,13.93-2.91,28.34-4.85,42.36-2.39s27.7,9.9,34.93,22.15c1.05,1.79,2.05,3.77,3.84,4.83,2.26,1.36,5.12.89,7.72.46,13.69-2.28,28.05-2.27,41.12,2.42s23.76,16.72,28.46,29.78c-2.12-28.85,2.74-62.56-4.72-91.17-10.26,4.6-21.66,5.85-32.87,6.75a632.93,632.93,0,0,1-90.51.77q-22.8-1.43-45.47-4.51c-4.27-.58-13.75-4.13-13.9,1.9C167.25,535.21,176.76,540.72,180.38,542.69Z"/><path class="wizard-2-5" d="M154.51,441.53c-1.9,19.32-8.16,77.4,19.18,94.34,61.17,37.9,168.46,7.35,175,3.56,16.94-9.8,22.72-36.76,24.58-49.91,6.91-48.88-1.9-82.13-11.79-130.49-4.09-20-9.68-39.89-19.69-57.66S317,268,298.29,259.9c-13.39-5.79-28.21-7.53-42.8-7.45-13.13.08-26.5,1.66-38.43,7.13-28.9,13.24-35.3,49.25-43,76.94A622.32,622.32,0,0,0,154.51,441.53Z"/><path class="wizard-2-2" d="M363.72,397.94c-11.2-19.37-18.85-40.29-26.07-62.32-2.24,7.84,3.73,25.55,4.87,34.06q2.58,19.27,3.63,38.81c1,18.22.91,36.75-2.65,54.44s-10.93,34.6-22.41,45.6c-10.48,10-23.61,14.53-36.6,17-25.21,4.69-63.93,27.07-88.36,17.86,9.67,9.08,30.35,9.48,42.53,10.82,27.63,3,54-.58,78.07-5.8,21.65-4.91,38-9.1,40.37-10.83C374,525.08,373,488,374.85,471.25a386.69,386.69,0,0,0,2.46-44.6A75.12,75.12,0,0,0,374,417C371.15,410.17,367.31,404.15,363.72,397.94Z"/><path class="wizard-2-6" d="M194.77,228.05c3.52,24.4,9,49.65,24.48,68.81,7.58,9.35,18.36,17.25,30.39,17.13,9.25-.1,18-5,24.33-11.71s10.67-15.07,14.35-23.55a221.34,221.34,0,0,0,18.14-93.81c-.33-12-1.81-24.51-8.33-34.61-6.84-10.58-18.55-17.29-30.76-20.41-23.17-5.93-49,1-66.73,16.84-11.95,10.64-11.91,17.28-10.91,32.76Q191.29,203.86,194.77,228.05Z"/><path class="wizard-2-5" d="M191,140.39a496.24,496.24,0,0,1,76.06-94.5c16-15.56,33.49-30.27,54.13-38.81s45-10.25,64.95-.11c-12.68.76-26.24,1.84-36.19,9.73-4.56,3.62-8,8.44-10.94,13.47-12.21,21-15.54,46-16.87,70.32a504.16,504.16,0,0,0,.35,61.34,157.2,157.2,0,0,0-21,.21c-36.58,2-73.21,2.74-109.83,3.54-7.9.17-23.37.81-20.28-2.52C176,158.1,187.48,146.11,191,140.39Z"/><path class="wizard-2-7" d="M179.45,209.41,185,209a19.69,19.69,0,0,0-11.29,11.86c17-9.67,37.23-11.92,56.78-11.49a29,29,0,0,0-17.44-6c.91.55,1.82,1.1,2.74,1.64C203.77,197.89,189.9,201.6,179.45,209.41Z"/><path class="wizard-2-8" d="M256.75,215.57c2.64-2.64,6.66-3.2,10.38-3.48,6.43-.48,13.38-.4,18.65,3.3a2.1,2.1,0,0,1,1,1.32c.12,1-.95,1.59-1.85,1.92A41.81,41.81,0,0,1,268.11,221C266,220.89,252.59,219.74,256.75,215.57Z"/><path class="wizard-2-3" d="M267.25,212.1a33.12,33.12,0,0,0-4.64.61,8.64,8.64,0,0,0,1.59,7.89c1.83.26,3.41.39,4,.43a43.46,43.46,0,0,0,7-.16,7.29,7.29,0,0,0,1.25-1.52,7.69,7.69,0,0,0,.38-7.17v0A48.42,48.42,0,0,0,267.25,212.1Z"/><path class="wizard-2-8" d="M265.59,213.56a5.4,5.4,0,0,0-1.49,1.09c-.28.31-.48.8-.22,1.12a.74.74,0,0,0,.43.24,2.23,2.23,0,0,0,1.22-.16,7.72,7.72,0,0,0,1.7-.85,2.11,2.11,0,0,0,.65-.61.86.86,0,0,0,.07-.85.89.89,0,0,0-.7-.41A3.15,3.15,0,0,0,265.59,213.56Z"/><path class="wizard-2-8" d="M195.59,218.06c2.5-2.64,6.31-3.2,9.83-3.48,6.09-.48,12.67-.41,17.67,3.3a2.07,2.07,0,0,1,1,1.32c.11,1-.9,1.58-1.76,1.91a37.54,37.54,0,0,1-16,2.4C204.35,223.38,191.65,222.23,195.59,218.06Z"/><path class="wizard-2-3" d="M205.53,214.58a30.25,30.25,0,0,0-4.4.62,9,9,0,0,0,1.52,7.88c1.73.26,3.23.39,3.81.43a37,37,0,0,0,6.66-.16,7,7,0,0,0,1.19-1.51,8.07,8.07,0,0,0,.35-7.18h0A42.77,42.77,0,0,0,205.53,214.58Z"/><path class="wizard-2-8" d="M204,216a5.38,5.38,0,0,0-1.41,1.09c-.26.32-.45.8-.21,1.13a.75.75,0,0,0,.41.24,2,2,0,0,0,1.15-.16,7.55,7.55,0,0,0,1.61-.86,2,2,0,0,0,.62-.6.94.94,0,0,0,.07-.86.82.82,0,0,0-.66-.4A2.76,2.76,0,0,0,204,216Z"/><path class="wizard-2-9" d="M289.33,198.67c7.14,6.5,13.95,30.17,16.72,39.42.16-.72,2.53-14.78,2.7-15.5,6.43,4.48,8.58,7.94,13.63,13.92a209.54,209.54,0,0,0,.23-31.79c-.4-5.78-1.07-11.67-3.59-16.89s-7.23-9.69-13-10.5a19.68,19.68,0,0,0-8.82,1.08c-5.11,1.66-12.1,5.05-15.14,9.74C278.57,193.58,286.06,195.71,289.33,198.67Z"/><path class="wizard-2-7" d="M296.43,197.2l-5.47.9a19.71,19.71,0,0,1,13.72,9c-18.76-5.51-39-3.05-57.91,1.85a29,29,0,0,1,15.61-9.81l-2.29,2.23C270.12,191.57,284.47,192,296.43,197.2Z"/><path class="wizard-2-2" d="M384,5.94l-1.33-.19c-9.84-1.38-19.92-2.76-29.62-.62C341.25,7.74,331,15.47,323.5,25S311,45.67,306.76,57a282.44,282.44,0,0,0-13.36,49.57c-2,11.68-8.9,41.26-.5,55.88,2.86-.14,5.72-.27,8.58-.43a157.2,157.2,0,0,1,21-.21,504.16,504.16,0,0,1-.35-61.34c1.33-24.3,4.66-49.27,16.87-70.32,2.92-5,6.38-9.85,10.94-13.47,9.95-7.89,23.51-9,36.19-9.73C385.46,6.61,384.74,6.27,384,5.94Z"/><path class="wizard-2-10" d="M217.86,117.21c-1.14,2.37-2.13,5.48-.34,7.41s5.33,1,7.42-.77c4.59-3.91,6.08-10.21,8.17-15.86,5.83-15.75,17.78-28.42,25.47-43.34,0-4.5-8.7,6.67-9.95,8.22-3.79,4.72-8.16,8.95-11.89,13.76A169.85,169.85,0,0,0,217.86,117.21Z"/><path class="wizard-2-7" d="M181.35,377.19c2.54,34.52,7.27,70.36,20.73,102.26s40.34,59.54,74.13,67c12.9,2.87,26.75,2.69,38.93-2.42s22.42-15.6,25.46-28.46c1.88-8,.51-17.36-5.8-22.57,5.92,6.65,2.56,18.35-5.21,22.7s-17.88,2.42-25.2-2.66c-14.54-10.08-19-29.75-18.26-47.44s5.64-35.12,4.95-52.8a94,94,0,0,1-.26,28.42c17.31-35.51,21.82-74.36,23.7-113.82,1.29-27,1.18-68.95-13.21-88.82-11.47,21.6-38.17,29.16-56.77,33.92-11.12,2.85-17.92-4.1-28.5-8.46-11.28-4.64-17.39-3.6-17.39-3.6C186.56,283.58,178.71,341.49,181.35,377.19Z"/><path class="wizard-2-9" d="M269,285.47c-.3-5.64-.56-11.42-2.66-16.67a25.3,25.3,0,0,0-14.93-14.24c-6.56-2.28-17.28-1.4-23,3.76-5.64-4.68-15.43-5.84-21.7-4a25.28,25.28,0,0,0-15.65,13.45c-2.38,5.14-2.94,10.89-3.53,16.51q-3.94,37.8-11.55,75.08a197,197,0,0,0,21-48.6c1.93-6.9,3.54-14.05,7.34-20.13,2.25-3.6,5.37-6.84,9.37-8.28,2.81-1,5.88-1.07,8.75-1.92a15.29,15.29,0,0,0,6.49-3.87,15.49,15.49,0,0,0,5.37,3.28c2.82,1,5.88,1.22,8.64,2.37,3.92,1.64,6.87,5,8.93,8.75,3.48,6.27,4.72,13.49,6.29,20.49a196.81,196.81,0,0,0,18.45,49.62Q271,323.48,269,285.47Z"/><path class="wizard-2-9" d="M202.09,459.15c4.28,15.12,9.81,30.06,18.46,43.19s20.63,24.42,35.24,30.22c-24.08-24.33-39.94-56-48.66-89.12s-10.59-67.69-9.34-101.9c-1.66,9.91-5.18,18.94-7.75,28.48-2.33,8.68-.31,18.75.62,27.75A362.5,362.5,0,0,0,202.09,459.15Z"/><path class="wizard-2-9" d="M211.48,398.85c-.78,26.23,2.53,53,13.28,76.9-5.31-11.81-5.61-29-6.65-41.75a313.09,313.09,0,0,1-.47-42.33c1.6-29,7.68-56.74,14.46-84.83C214.63,333.42,212.42,367.59,211.48,398.85Z"/><path class="wizard-2-1" d="M220.15,256.27c-.35,1.12-.67,2.44,0,3.39a3.83,3.83,0,0,0,1.7,1.1,99.56,99.56,0,0,0,17,5.19c-.79-.17,1.31-37.72,1.39-41.26.3-13.73,1.81-28.47.29-42.11-6.16-1.92-7,2.85-7.47,7.49-.68,7.52-1.58,15-2.77,22.47A322.72,322.72,0,0,1,220.15,256.27Z"/><path class="wizard-2-5" d="M70.65,221.81c13.16-6,27.33-9.07,41.29-11.89C222.09,187.62,334.6,184.59,446.18,196c15.23,1.56,24.14,5.12,28.11,6.16-13.23-9.36-73.12-22.61-100.37-31.32-25.32-8.09-50.85-16.07-77.21-19.54-43.16-5.69-87.17.9-129,12.79a349.34,349.34,0,0,0-41,14.25c-23.21,9.86-45.44,23-63.22,41C60,222.86,53,228.22,51.05,233.79,55.53,228.14,67.32,223.33,70.65,221.81Z"/><path class="wizard-2-3" d="M171.37,163.06s22-9.65,75.4-12.48c63.37-3.36,75.39,5.38,75.39,5.38l-.88-20.09s-37.41-8.39-73.34-5.57c-42.54,3.34-56.73,9.12-56.73,9.12Z"/><path class="wizard-2-10" d="M120.8,193.22c-1.18.91-2.48,2.24-2,3.65a2.9,2.9,0,0,0,1.26,1.38c2.29,1.44,5.3,1.28,7.82.28a28.24,28.24,0,0,0,6.8-4.39,190.83,190.83,0,0,1,52.09-28.71c-2,.72-6.44-.84-9-.35s-5.15,1.56-7.76,2.18a86.5,86.5,0,0,0-16,5.93A175.57,175.57,0,0,0,120.8,193.22Z"/><path class="wizard-2-5" d="M416.05,366.82Q458.91,305.65,496.46,240c-5.45,38-6.72,76.61-8,115.08-1.46,44.71-1.9,110.68-3.37,155.39-29.81-17.56-47.55-35.93-66.25-48.34-34.72-23-61.78-56.5-86.36-92.61-9.65-14.18-24-106.71-16.57-101.31,14.59,10.61,54.61,39.61,67,53.35C386.45,325.49,418.76,363,416.05,366.82Z"/><polygon class="wizard-2-1" points="119.84 304.58 171.15 443.5 167.37 454.31 110.93 327.04 119.84 304.58"/><path class="wizard-2-3" d="M496.46,240s-17.71,24.33-20,123.56-2.48,149.17,8.68,146.91,15.44-97.52,18.16-143,8.18-136.85-6.8-127.52Z"/><path class="wizard-2-11" d="M35.54,324.38C36.48,324.83,89,451.15,89,451.15l82.15,6.36-49-135Z"/><polygon class="wizard-2-12" points="38.23 324.32 19.46 317.71 69.13 445.44 90.52 451.59 38.23 324.32"/><path class="wizard-2-6" d="M55.23,369.4C57,366,59.69,359,62.4,360.54c5.7,1.86-6,17.37-5.14,39,0-3.44,4.29-11.09,6.11-11.92,3.75-1.71,7.5,3,3.39,15.69A2.81,2.81,0,0,1,70.3,403a5.93,5.93,0,0,1,2.21,3.1A22.61,22.61,0,0,1,73,419.28c-2.1,8.34.87,24.27.55,27.42-.45,4.49-11.36,4.45-14.76.46-4.52-5.3-11-14.81-12.63-30.24A83.06,83.06,0,0,1,55.23,369.4Z"/><path class="wizard-2-12" d="M19.46,317.71,0,266s3-.38,3.38,0S21,314,21,314l16.88,8.48s78.75-6.64,80.82-4.76a17.34,17.34,0,0,1,3.42,4.76l-83.89,1.85C35.54,324.38,19.46,317.71,19.46,317.71Z"/><path class="wizard-2-6" d="M3.38,266l21-4.5s4.88,7.88,8.25,22.88A199.62,199.62,0,0,1,36.76,314s-1.88-3,27.38-7.15a297.91,297.91,0,0,1,55.7-2.26l-3.72,12.81-78.24,5.08L21,314,1.5,265.78Z"/><path class="wizard-2-6" d="M29,260.25c1.1-1.91,5-2.19,5-2.19s2.15,6.09,2.77,8.2c2.34,8.11,4.58,15.65,5.54,24,.8,6.93,2.54,17.32-1.52,23.62-5.22,8.1-4.33-2.24-3.89-5.92C38.8,291.6,36.47,275.07,29,260.25Z"/><path class="wizard-2-6" d="M522.6,195.53c2.66-5.7,7.07-16.64,10.94-15,3.66,1.2,1.29,9.28-.15,13.82a370.73,370.73,0,0,1-14.44,38c7.89-4.47,8.94,16.19,3.38,22.88,5,7.91,3.95,18.63-.87,26.66s-12.83,13.67-21.26,17.74c-5.38,2.6-14.11,6.2-20.09,6.34-1.51,0,5.75-45.83,16.08-59.41C507.67,231.47,514.64,212.58,522.6,195.53Z"/><path class="wizard-2-1" d="M523.63,266.1c-2.29-1.31-5.09.24-7.25,1.75l-7.12,5c-3.29,2.3-7.37,3.58-9.23-.93-4.35,4.41,1.86,9.14,6.57,7.92a17.16,17.16,0,0,0,6.18-3.54c1.21,1.71-.42,4-2,5.32a50.6,50.6,0,0,1-23.5,11.08c-2,.36-4,.65-6,1.17-1.2,7.16-1.66,12.14-1.16,12.12,6-.14,14.71-3.74,20.09-6.34,8.43-4.07,16.44-9.72,21.26-17.74a29.31,29.31,0,0,0,4.09-13.05A4.23,4.23,0,0,0,523.63,266.1Z"/></g></g></svg>
