<svg xmlns="http://www.w3.org/2000/svg" viewBox="0 0 490.03 915.39"><defs><style>.wizard-1-1{fill:#413b5b;}.wizard-1-2{fill:#a7a9aa;}.wizard-1-3{fill:#ffd7b3;}.wizard-1-4{fill:#ccab93;}.wizard-1-5{fill:#e2bfa1;}.wizard-1-6{fill:#4e4a7c;}.wizard-1-7{fill:#5d5691;}.wizard-1-8{fill:#b7bbbc;}.wizard-1-13,.wizard-1-9{fill:#fff;}.wizard-1-10{fill:#98c6d8;}.wizard-1-11{fill:#86afbc;}.wizard-1-12{fill:#d4d7d8;}.wizard-1-13{opacity:0.19;}</style></defs><g id="Capa_2" data-name="Capa 2"><g id="Layer_2" data-name="Layer 2"><path class="wizard-1-1" d="M60,201.1a1004.37,1004.37,0,0,1,321.91-12.47c10.65,1.31,29.65,2.73,29.65,11.65,0,5.25-17.84,7.58-27.88,9.15-122.82,19.22-249,24.72-373.1,23.2-3.13,0-6.53-.18-9-2.36-7.56-6.81,13.69-15.48,18.64-17.73C32.92,206.78,46.55,203.82,60,201.1Z"/><path class="wizard-1-2" d="M261,235.21c-1.41,7.39-4.85,14.24-8.83,20.62-2.09,3.37-4.68,6.87-8.51,7.88-5.42,1.43-11-3.1-12.66-8.46s-.38-11.15,1.18-16.53a156.94,156.94,0,0,1,5.43-15.63c2-5,4.44-10,8.46-13.64a9.63,9.63,0,0,1,6.08-2.84,6.53,6.53,0,0,1,6.36,6.5,1.13,1.13,0,0,1-.58,1.06C262,219.94,262.27,228.53,261,235.21Z"/><path class="wizard-1-3" d="M86,561.43c-1,9.14-4.21,18.36-2.15,27.33,1.08,4.72,3.56,9,6.15,13.08a197.51,197.51,0,0,0,15.2,20.81c2.91,3.48,6.11,7,10.36,8.58s9.78.64,12.06-3.28c1.25-2.15,1.34-4.75,1.36-7.23a353.36,353.36,0,0,0-4.27-58.57c-1-6.13-2.14-12.37-5.21-17.77a28.31,28.31,0,0,0-19.21-13.66C78.11,526.64,87.43,549,86,561.43Z"/><path class="wizard-1-4" d="M96,560c2,1,4.28,1.79,5.57,3.62a7.74,7.74,0,0,1,1.2,3.91c.59,7.63-4.45,15.37-2,22.63a23.41,23.41,0,0,0,3.78,6.32l13,17.3a3.29,3.29,0,0,0,1.88,1.5c1.73.29,2.59-2,2.78-3.76q1.73-16.31,2.62-32.69c.48-8.93.7-18.27-3.13-26.36-4.89-10.35-16.8-16.62-28.09-15.88C77.45,537.68,86.22,555.11,96,560Z"/><path class="wizard-1-5" d="M439.29,229.81c1.4-3.12,7.18-2.17,8.72.9s.17,6.66-1.48,9.68a4.16,4.16,0,0,1,4.31,2.51,8,8,0,0,1,.07,5A26.49,26.49,0,0,1,444.16,260c3.33,3.39,1.28,8.74-1.2,12.68a105,105,0,0,1-20.83,24c-1.63,1.38-3.7,2.82-5.86,2.34-2.66-.59-3.56-3.57-3.84-6A67.5,67.5,0,0,1,416,262.89Z"/><path class="wizard-1-5" d="M413,256a63.58,63.58,0,0,1,6.69-16.57c3.08-5.3,7.06-10.57,7.17-16.7a5,5,0,0,1,.24-1.93c.67-1.58,3.05-1.74,4.41-.69s1.94,2.81,2.35,4.48c3.51,14.36.62,29.46-3.05,43.77-.84,3.27-1.78,6.65-4,9.22-4.07,4.8-10,4.4-12.86-.82C410.58,270.66,411.36,262.44,413,256Z"/><path class="wizard-1-1" d="M362.52,913.74c2.21,1.64,6.26,2.69,6.92,0a4.29,4.29,0,0,0-.08-1.78c-2.14-11.45-4.29-22.94-7.89-34-2.88-8.88-6.83-17.66-13.39-24.3s-16.14-10.84-25.31-9.08c-6.34,1.21-15.35,6.55-15.88,13.78-.54,7.44,9,14.47,13.66,19.13A376.17,376.17,0,0,0,362.52,913.74Z"/><path class="wizard-1-1" d="M80.05,848.81c-2.78.66-6.32,2.21-5.9,5s4.46,3.27,7.37,2.87a754.35,754.35,0,0,1,84.12-6.7c5.6-.13,12.87-1.57,13.61-7.12.52-4-2.89-7.25-6.17-9.52-12.39-8.56-29.06-15.88-43-7.85C113.56,835,99,844.34,80.05,848.81Z"/><path class="wizard-1-6" d="M86.34,400.16a659.79,659.79,0,0,0-11,131.18c.05,3.43.16,7,1.86,10.06s4.77,5.36,7.9,7.4c17.07,11.09,38.28,17.25,59.56,17.3q4.88-126.57,9.74-253.14c.48-12.47.7-25.81-7-36.3a10.37,10.37,0,0,0-5.55-4.29c-12.93-3.23-33.35,49.77-36.65,58.3C96.41,353.25,90.71,376.65,86.34,400.16Z"/><path class="wizard-1-7" d="M126,816.44c.36,4.45.83,9.17,3.71,12.79,2.73,3.45,7.17,5.29,11.42,6.92A559.86,559.86,0,0,0,411,868.72c-65.2-63.39-106.78-147.38-115.87-234-5.16-49.29-.16-99.1-7.65-148.17-1.41-9.17-3.32-18.5-8.23-26.62-4.61-7.62-11.64-13.77-19.19-19-24.74-17.13-57.15-25.3-86.77-18.91-22.53,4.86-43,18.74-54,37.65-11.63,19.9-6,47.47-5.87,69.52Q114,621,119,712.76,121.77,764.63,126,816.44Z"/><path class="wizard-1-6" d="M160.25,704.76C145.44,647.52,133.92,589.2,127,530.17a1958.7,1958.7,0,0,0,25.17,263.4c2.76,16.72,8.31,33.84,11.48,50.82a556.44,556.44,0,0,0,65,17.39C194.22,818.71,174.78,760.93,160.25,704.76Z"/><path class="wizard-1-6" d="M294.69,634.7c-4.47-42.68-1.33-85.75-5.26-128.39a8.49,8.49,0,0,0-1.71-.74c-17.35,61.27-16.55,127.91-2.35,190.16S326.79,816,360.74,868.14c.94,1.44,1.9,3,2.73,4.52q23.64-1,47.09-3.94C345.37,805.33,303.78,721.34,294.69,634.7Z"/><path class="wizard-1-6" d="M314.91,869c-58.19-87.63-86.09-195.38-102.52-302.52a806.91,806.91,0,0,0,45.16,300.46,563.71,563.71,0,0,0,59.84,5.74Q316.13,870.8,314.91,869Z"/><path class="wizard-1-1" d="M125.07,522.07c6.75,3.66,14.64,8.14,15.43,15.77,13.39-2.8,27.26-4.66,40.74-2.29s26.65,9.51,33.6,21.3c1,1.73,2,3.62,3.7,4.65,2.18,1.3,4.93.85,7.43.44,13.17-2.19,27-2.18,39.55,2.32s22.86,16.1,27.38,28.66c-2-27.76,2.64-60.19-4.54-87.71-9.87,4.43-20.84,5.63-31.62,6.5a611.19,611.19,0,0,1-87.07.74q-21.94-1.38-43.75-4.34c-4.1-.56-13.22-4-13.36,1.83C112.44,514.87,121.59,520.17,125.07,522.07Z"/><path class="wizard-1-7" d="M340.24,367.87c7.44-28.1,16.08-45.56,33.62-68.75,4.73-6.27,13.57-12.5,21.38-13.3,11.05-1.14,16.55-2.57,21.54,7.35,10,19.88,11.89,42.76,12.61,65,1.35,42-.89,84.45-11.9,125-2.23,8.22-1.27,38.51-9.75,39.41-33.88,3.57-94.76-73.13-119.19-104-10.51-13.25-12.87-54.81-21.34-69.45s-14.87-30.43-20-46.54c-3.24-10.09-15.51-35.6-2.41-43.16C261.27,250,303.23,308,311.9,320A304.26,304.26,0,0,1,340.24,367.87Z"/><path class="wizard-1-7" d="M100.18,424.75c-1.83,18.59-7.84,74.46,18.45,90.75C177.48,552,280.69,522.58,287,518.93c16.3-9.43,21.86-35.36,23.65-48,6.65-47-1.82-79-11.34-125.52-3.94-19.22-9.32-38.38-18.94-55.47S256.51,257.81,238.5,250c-12.88-5.56-27.14-7.24-41.18-7.16-12.62.07-25.49,1.59-37,6.86-27.8,12.73-33.95,47.38-41.33,74A599.74,599.74,0,0,0,100.18,424.75Z"/><path class="wizard-1-6" d="M301.44,415.38c-10.77-14.67-18.13-30.52-25.08-47.21-2.15,5.94,3.59,19.36,4.69,25.8q2.47,14.61,3.49,29.4c.93,13.8.88,27.84-2.55,41.24s-10.51,26.22-21.55,34.55c-10.08,7.6-22.72,11-35.21,12.83-24.26,3.56-61.51,20.51-85,13.53,9.29,6.88,35.05,5.16,46.25,8.05,21.64,5.59,42.81.42,66-3.53,20.83-3.72,33.77-9.79,36-11.11,16.29-9.43,21.85-35.36,23.64-48a231.44,231.44,0,0,0,2.36-33.79,47.49,47.49,0,0,0-3.16-7.34C308.59,424.65,304.89,420.08,301.44,415.38Z"/><path class="wizard-1-3" d="M138.92,219.38c3.38,23.47,8.62,47.77,23.55,66.2,7.28,9,17.65,16.59,29.23,16.47,8.89-.09,17.27-4.81,23.4-11.25s10.27-14.51,13.81-22.67a212.7,212.7,0,0,0,17.45-90.24c-.31-11.56-1.74-23.58-8-33.3C231.77,134.42,220.5,128,208.76,125c-22.3-5.7-47.11,1-64.2,16.2-11.49,10.24-11.46,16.62-10.5,31.52Q135.56,196.11,138.92,219.38Z"/><path class="wizard-1-7" d="M135.31,135.05a478.07,478.07,0,0,1,73.17-90.9C223.9,29.18,240.7,15,260.56,6.81S303.89-3,323,6.71c-12.2.73-25.24,1.77-34.82,9.36-4.38,3.48-7.71,8.11-10.52,13C266,49.27,262.75,73.29,261.47,96.67a488.16,488.16,0,0,0,.33,59,150.14,150.14,0,0,0-20.23.21c-35.19,1.87-70.43,2.63-105.66,3.4-7.6.16-22.48.77-19.5-2.43C120.84,152.09,131.9,140.56,135.31,135.05Z"/><path class="wizard-1-8" d="M124.18,201.45l5.32-.37a19,19,0,0,0-10.87,11.42c16.35-9.31,35.83-11.47,54.63-11.06a27.89,27.89,0,0,0-16.78-5.73l2.63,1.58C147.57,190.37,134.22,193.94,124.18,201.45Z"/><path class="wizard-1-9" d="M198.54,207.38c2.54-2.54,6.41-3.08,10-3.35,6.19-.46,12.87-.38,17.95,3.18a2,2,0,0,1,1,1.27c.11.92-.91,1.52-1.79,1.84a40.06,40.06,0,0,1-16.21,2.3C207.44,212.5,194.54,211.39,198.54,207.38Z"/><path class="wizard-1-1" d="M208.64,204a32.2,32.2,0,0,0-4.47.6,8.29,8.29,0,0,0,1.54,7.58c1.75.26,3.28.38,3.87.42a41.39,41.39,0,0,0,6.77-.15,7.08,7.08,0,0,0,1.2-1.47,7.38,7.38,0,0,0,.36-6.89v0A47,47,0,0,0,208.64,204Z"/><path class="wizard-1-9" d="M207,205.44a5.73,5.73,0,0,0-1.44,1.05c-.26.3-.45.77-.2,1.08a.68.68,0,0,0,.41.23,2.14,2.14,0,0,0,1.17-.15,7.62,7.62,0,0,0,1.64-.82,2.18,2.18,0,0,0,.63-.58.85.85,0,0,0,.06-.83.87.87,0,0,0-.67-.39A3,3,0,0,0,207,205.44Z"/><path class="wizard-1-9" d="M139.7,209.77c2.41-2.54,6.07-3.08,9.46-3.35,5.86-.46,12.19-.38,17,3.18a2,2,0,0,1,.94,1.27c.11.92-.87,1.52-1.69,1.84a36.16,36.16,0,0,1-15.36,2.3C148.13,214.89,135.91,213.78,139.7,209.77Z"/><path class="wizard-1-1" d="M149.27,206.43A28.89,28.89,0,0,0,145,207a8.64,8.64,0,0,0,1.45,7.58c1.66.26,3.11.38,3.67.42a37.12,37.12,0,0,0,6.41-.15,7.35,7.35,0,0,0,1.14-1.46,7.76,7.76,0,0,0,.34-6.9v0A41.47,41.47,0,0,0,149.27,206.43Z"/><path class="wizard-1-9" d="M147.76,207.83a5.38,5.38,0,0,0-1.37,1,.93.93,0,0,0-.19,1.08.63.63,0,0,0,.39.23,2,2,0,0,0,1.11-.15,7.44,7.44,0,0,0,1.55-.82,2,2,0,0,0,.59-.58.88.88,0,0,0,.07-.83.85.85,0,0,0-.64-.39A2.71,2.71,0,0,0,147.76,207.83Z"/><path class="wizard-1-6" d="M276,376.57c13.49,33.62,29.5,66.54,51.44,95.37s47.23,57,80.32,50.64c-2.86-10.18-2.46-3.51-5.33-13.68-.73-2.6-1.5-5.27-3.18-7.37-1.84-2.31-3.21-9.77-5.82-11.15-30.25-16-56.11-35.32-75.59-63.47s-34.31-59.19-49.07-90.08C268.75,348.15,273.12,369.43,276,376.57Z"/><path class="wizard-1-1" d="M378.76,305.38c-1.57,4.67-3,21.31-3.53,35.94-.87,24.13.36,44.38,1.69,68.49,2.13,38.77,2.61,74.74,23.26,107.62,1.73,2.76,4.31,5.13,7.56,5.15,16.71.09,19.36-29.45,22-47.38,11.29-76.8-5.66-166.55-7.82-173.92-4.5-15.31-4.67-7.72-14.18-13.58C396.71,280.9,382.17,295.19,378.76,305.38Z"/><path class="wizard-1-1" d="M314.52,452.1s-6.43-9.06-21.62-42.88-18.06-41.05-18.06-41.05a320.67,320.67,0,0,0,18.06,51.67c21.21,46.28,14,73.25,14,73.25s2.72-9.11,5.53-18.11C314.9,467.07,314.52,452.1,314.52,452.1Z"/><path class="wizard-1-6" d="M342.5,360.21s-.78,6.28-2.74,20.9c-3.2,23.83,2.74,41.38,2.74,41.38s-5.88-4.78-9.23-23.4,1.44-36.51,1.44-36.51-7.16,6.2-12.42,23.9c-4.61,15.53-1.67,21-1.67,21s-4.29-18.62,0-30.79,12.66-22.55,12.66-22.55Z"/><path class="wizard-1-5" d="M415.31,260.29c2,9.12,11,35.12,10.36,36.53-6.58,14.36-21.18,37.29-27.77,43.12-8.91,9.51-18,15-21,5.82-3.68-11.32-1.12-34.17,6.51-44.21C389.34,293.74,411.72,277.45,415.31,260.29Z"/><rect class="wizard-1-10" x="364.11" y="196.74" width="10.79" height="697.58" transform="translate(121.53 -64.92) rotate(12)"/><path class="wizard-1-4" d="M389.47,295.11l-10.71,10.27s-3.72,24.76-3.82,31.45,0,24.75,0,24.75l14.53-14.09s-7.11,5.24-9.31-7.51S389.47,295.11,389.47,295.11Z"/><path class="wizard-1-3" d="M424.72,237.65c-.85,1.21-1.62,2.74-1.05,4.11a3.31,3.31,0,0,0,3.18,1.77,9.6,9.6,0,0,0,3.69-1.1,17.64,17.64,0,0,0-7.81,11,3.74,3.74,0,0,0,.19,2.76c.74,1.19,2.43,1.31,3.81,1.1a15.36,15.36,0,0,0,6.95-2.93c-4.85,3.83-10.05,8.22-11.08,14.31a5.24,5.24,0,0,0,.4,3.56,4.47,4.47,0,0,0,4.31,1.84,12.81,12.81,0,0,0,4.62-1.68l8.67-4.46a10.19,10.19,0,0,0,4-3c1-1.37,1.06-3.48-.21-4.57a75.91,75.91,0,0,0,6.45-10.51c1-2,2-4.26,1.63-6.51s-2.68-4.29-4.83-3.56c2.83-1,2.52-6.53,1.48-8.46a7.31,7.31,0,0,0-7-3.84C435.45,227.8,428.45,232.39,424.72,237.65Z"/><path class="wizard-1-7" d="M392.14,289c-.55.36-7.3,3.22-10.81,20.74S375.81,389,375.81,389,363.5,376,367.48,347.3,375.81,303,375.81,303l7.43-9.71Z"/><path class="wizard-1-11" d="M432.53,162.7c-1.41-15.36-1.46-31.55,5.52-45.31,8-15.76,23.83-25.75,38.92-34.95-6.82,8.62-27.37,26.21-27.54,53.19-.05,7.13-.41,20.24,5.3,24.5,3.74,2.8,9,3.05,13.36,1.41s7.93-5,10.68-8.77a31.54,31.54,0,0,0,6.31-19.8c-.35-7.06-3.75-14.06-9.53-18.12,9.75,3.28,14.3,14.75,14.48,25a51.69,51.69,0,0,1-10.44,31.86c-4,5.33-9.1,9.82-13.12,15.16s-7,12-6,18.57c.2,1.35.54,2.83-.18,4a5.23,5.23,0,0,1-2.58,1.72,36.11,36.11,0,0,0-10.68,7c-3.28,3.12-3.79,5.47-8.48,3.64-5.08-2-6.14-7.22-8.21-11.73-2.34-5.09-2.33-5.84-.06-10.93a39.7,39.7,0,0,0,3.12-11.62C434.35,179.3,433.28,170.93,432.53,162.7Z"/><path class="wizard-1-12" d="M229.88,191.12c6.87,6.25,13.42,29,16.08,37.92.16-.69,2.44-14.22,2.61-14.91,6.17,4.31,8.24,7.63,13.1,13.39a201.4,201.4,0,0,0,.23-30.58c-.39-5.56-1-11.23-3.46-16.25s-7-9.32-12.47-10.1a19.07,19.07,0,0,0-8.49,1c-4.92,1.6-11.64,4.86-14.56,9.37C219.53,186.22,226.74,188.27,229.88,191.12Z"/><path class="wizard-1-8" d="M236.71,189.71l-5.26.86a18.92,18.92,0,0,1,13.19,8.62c-18-5.31-37.5-2.95-55.71,1.77a27.89,27.89,0,0,1,15-9.43l-2.2,2.14C211.4,184.28,225.21,184.7,236.71,189.71Z"/><path class="wizard-1-6" d="M321,5.71l-1.28-.18c-9.46-1.33-19.16-2.65-28.49-.59C279.83,7.45,270,14.88,262.75,24s-12.05,19.92-16.1,30.84a270.13,270.13,0,0,0-12.85,47.68c-2,11.24-8.57,39.69-.49,53.75l8.26-.4a150.14,150.14,0,0,1,20.23-.21,488.16,488.16,0,0,1-.33-59C262.75,73.29,266,49.27,277.7,29c2.81-4.84,6.14-9.47,10.52-12.95C297.8,8.48,310.84,7.44,323,6.71,322.35,6.36,321.67,6,321,5.71Z"/><path class="wizard-1-13" d="M161.12,112.75c-1.09,2.29-2.05,5.28-.32,7.13s5.12,1,7.14-.74c4.41-3.75,5.84-9.82,7.86-15.25,5.61-15.15,17.1-27.34,24.5-41.7,0-4.33-8.37,6.42-9.57,7.91-3.65,4.54-7.86,8.61-11.44,13.24A164.14,164.14,0,0,0,161.12,112.75Z"/><path class="wizard-1-8" d="M126,362.85c2.45,33.22,7,67.7,19.94,98.38s38.81,57.27,71.32,64.5c12.4,2.75,25.73,2.58,37.45-2.34s21.57-15,24.49-27.37c1.81-7.67.49-16.7-5.58-21.72,5.69,6.4,2.46,17.65-5,21.84s-17.2,2.33-24.24-2.56c-14-9.7-18.32-28.62-17.57-45.63s5.43-33.79,4.76-50.8a90.47,90.47,0,0,1-.24,27.34C248,390.33,252.3,353,254.12,315c1.24-26,1.13-66.33-12.71-85.44-11,20.77-36.73,28-54.62,32.62-10.69,2.74-17.24-3.95-27.42-8.13-10.84-4.47-16.72-3.47-16.72-3.47C131,272.81,123.47,328.51,126,362.85Z"/><path class="wizard-1-12" d="M210.3,274.62c-.29-5.43-.54-11-2.57-16a24.29,24.29,0,0,0-14.36-13.7c-6.31-2.2-16.62-1.35-22.08,3.61-5.43-4.5-14.85-5.62-20.88-3.86a24.28,24.28,0,0,0-15.06,12.94c-2.29,4.93-2.82,10.47-3.39,15.88q-3.79,36.36-11.11,72.22a189.73,189.73,0,0,0,20.2-46.75c1.85-6.64,3.4-13.51,7.06-19.36,2.16-3.47,5.17-6.58,9-8,2.71-1,5.66-1,8.42-1.84a14.78,14.78,0,0,0,6.24-3.73,15,15,0,0,0,5.17,3.16c2.71.95,5.66,1.17,8.31,2.28,3.77,1.58,6.61,4.84,8.59,8.42,3.35,6,4.54,13,6.05,19.7a189.72,189.72,0,0,0,17.75,47.74Q212.22,311.18,210.3,274.62Z"/><path class="wizard-1-12" d="M146,441.7c4.12,14.55,9.43,28.92,17.75,41.55s19.85,23.49,33.9,29.07c-23.16-23.4-38.42-53.88-46.8-85.73s-10.19-65.12-9-98c-1.6,9.53-5,18.22-7.45,27.4-2.25,8.35-.3,18,.59,26.69A349.43,349.43,0,0,0,146,441.7Z"/><path class="wizard-1-12" d="M155,383.69c-.75,25.23,2.43,51,12.78,74-5.11-11.36-5.4-27.89-6.4-40.17a299,299,0,0,1-.45-40.71c1.53-27.88,7.38-54.59,13.9-81.61C158,320.75,155.89,353.62,155,383.69Z"/><path class="wizard-1-5" d="M163.33,246.53c-.34,1.08-.65,2.35,0,3.26a3.65,3.65,0,0,0,1.64,1.06,95.53,95.53,0,0,0,16.32,5c-.76-.16,1.26-36.28,1.33-39.69.29-13.21,1.75-27.39.28-40.51-5.92-1.85-6.77,2.74-7.18,7.2-.66,7.24-1.52,14.45-2.67,21.63A309.33,309.33,0,0,1,163.33,246.53Z"/><path class="wizard-1-7" d="M19.51,213.38c12.66-5.76,26.29-8.72,39.72-11.44,106-21.45,214.2-24.36,321.54-13.38,14.65,1.49,23.22,4.92,27,5.92-12.73-9-70.34-21.76-96.55-30.13-24.37-7.79-48.92-15.46-74.28-18.8-41.52-5.48-83.86.87-124.14,12.31a334.52,334.52,0,0,0-39.45,13.7C51.06,181,29.68,193.65,12.57,211c-3.31,3.36-10,8.51-11.91,13.88C5,219.47,16.3,214.84,19.51,213.38Z"/><path class="wizard-1-1" d="M116.41,156.86s21.15-9.28,72.52-12c61-3.24,72.53,5.17,72.53,5.17l-.84-19.32s-36-8.08-70.56-5.36c-40.92,3.22-54.57,8.77-54.57,8.77Z"/><path class="wizard-1-13" d="M67.76,185.88c-1.14.87-2.39,2.15-1.92,3.5a2.67,2.67,0,0,0,1.2,1.33,8.47,8.47,0,0,0,7.53.28,27.69,27.69,0,0,0,6.54-4.22,183.34,183.34,0,0,1,50.1-27.63c-1.9.69-6.19-.81-8.61-.33s-5,1.5-7.47,2.1a82.25,82.25,0,0,0-15.41,5.7A168.45,168.45,0,0,0,67.76,185.88Z"/></g></g></svg>
