<svg xmlns="http://www.w3.org/2000/svg" viewBox="0 0 656 863.13"><defs><style>.wizard-3-1{fill:#e7f4f7;}.wizard-3-2{fill:#604035;}.wizard-3-3{fill:#7a5342;}.wizard-3-4{fill:#5d5691;}.wizard-3-5{fill:#413b5b;}.wizard-3-6{fill:#ffd7b3;}.wizard-3-7{fill:#4e4a7c;}.wizard-3-8{fill:#a7a9aa;}.wizard-3-9{fill:#e2bfa1;}.wizard-3-10{fill:#b7bbbc;}.wizard-3-11{fill:#d4d7d8;}.wizard-3-12,.wizard-3-16{fill:#fff;}.wizard-3-13{fill:#98c6d8;}.wizard-3-14{fill:#ccab93;}.wizard-3-15{fill:#86afbc;}.wizard-3-16{opacity:0.19;}.wizard-3-17{fill:#a8745a;}.wizard-3-18{fill:#eab726;}.wizard-3-19{fill:#ce8c72;}.wizard-3-20{fill:#966553;}</style></defs><g id="Capa_2" data-name="Capa 2"><g id="Layer_2" data-name="Layer 2"><path class="wizard-3-1" d="M457.62,826.66c0,20.14-102.44,36.47-228.81,36.47S0,846.8,0,826.66,102.44,790.2,228.81,790.2,457.62,806.52,457.62,826.66Z"/><path class="wizard-3-2" d="M608.75,278.9a8.59,8.59,0,0,0,1.84,3.25c1.69,1.62,4.52,1.55,6.54.35a11.61,11.61,0,0,0,4.29-5.43c1.56,3.87,4.22,7.54,8.07,9.15s9,.54,11-3.11c1.22-2.19,1.19-4.84,1.12-7.35q-.37-12.83-.73-25.65c-.15-5.24-.31-10.56-1.92-15.56s-4.87-9.7-9.68-11.8c-5.42-2.37-11.71-1.07-17.33.82C584.41,232.81,601.73,260.72,608.75,278.9Z"/><path class="wizard-3-3" d="M561.26,165.09c-4-1.08-12.26-3.2-19.3-1.65-6.38,1.41-15.27,9.92-20,14.39a210.91,210.91,0,0,0-23,25.44c-2.26,2.95-4.3,7.58-1.41,9.92,1.89,1.53,4.72.85,6.83-.36s4-2.88,6.44-3.27c-1,1.89-3.79,4.88-2.08,6.52,4.22,2.18,9.3-1.28,12.47-5-2.79,1.88-1.65,7.13,1.67,7.7,1.89.33,3.73-.63,5.4-1.57,7.54-4.21,15.15-8.58,23.56-10.5,13.48-3.08,28,.36,41.16-3.76a11.76,11.76,0,0,0,5.69-3.27c3.14-3.72,1.54-9.56-1.43-13.41-4.93-6.41-12.15-8.75-19.82-9.88C568.34,175,570.1,167.5,561.26,165.09Z"/><path class="wizard-3-4" d="M403,257.07c55.84,17.93,116.31,8.75,174.2-.6a440.09,440.09,0,0,0-46,194.29Q442.29,372,349.08,298.18c-12.69-10.05-90.61-73.63-57.36-92.87,11.33-6.56,35.78,15.11,45,20.34C358,237.65,379.65,249.58,403,257.07Z"/><path class="wizard-3-5" d="M577.19,256.47s-13,6.19-23.21,34.94-39.69,149.17-22.76,159.35,34.15-66.42,41.25-96.71C582.67,310.56,590.39,254.21,577.19,256.47Z"/><path class="wizard-3-6" d="M653.64,273.78c1.68,1.26,3.34,3.67,1.66,4.92-2.21,2.42-20.24-5.93-30.36-8.9,10,5,29.46,15.68,28.59,17.18-2.51,2.12-6.54.83-9.6-.56L623.12,277c8.53,5.72,25.91,18.31,22.13,20.38-9.82,1.7-16.16-10.1-25.87-12.3a30.64,30.64,0,0,0-8.51-.27,231.84,231.84,0,0,1-48.26-2.44c-4-.62-8.4-1.68-10.23-4.93-3.87-6.84,8.71-14.43,13.8-16.45,9.31-3.69,20.31-5,30.38-5.08C617.06,255.74,637.71,261.89,653.64,273.78Z"/><path class="wizard-3-4" d="M554,291.41c10.24-28.75,23.21-34.94,23.21-34.94-57.89,9.35-118.36,18.53-174.2.6-23.34-7.49-44.95-19.42-66.22-31.42-9.27-5.23-33.72-26.9-45-20.34-33.25,19.24,44.67,82.82,57.36,92.87q92.4,73.14,180.68,151.29C516.13,433.07,544.06,319.25,554,291.41Z"/><polygon class="wizard-3-4" points="531.22 450.76 531.22 450.76 531.22 450.76 531.22 450.76"/><path class="wizard-3-7" d="M359.17,264.62c-8.19-6.49-43.59-35.3-58.68-60.08-3.34-.74-6.36-.63-8.77.77-33.25,19.24,44.67,82.82,57.36,92.86q93.17,73.75,182.14,152.59c-7.08-6.26-4.44-34.2-3.13-47.71C471.35,353,418.47,311.56,359.17,264.62Z"/><path class="wizard-3-5" d="M406.94,127.47a974.92,974.92,0,0,0-303.41,75.31C94,206.88,76.63,213.33,79,221.65c1.42,4.89,18.68,2.24,28.46,1,119.66-15.24,238.8-44.2,354-79.12,2.91-.88,6-1.93,7.71-4.62,5.21-8.38-16.94-10.73-22.17-11.49C433.69,125.46,420.19,126.38,406.94,127.47Z"/><path class="wizard-3-8" d="M227,198.7c1.23,7.2,4.45,13.91,8.19,20.17,2,3.3,4.42,6.74,8.12,7.79,5.24,1.49,10.73-2.81,12.43-8s.58-10.81-.84-16.06a151.89,151.89,0,0,0-5-15.26c-1.89-4.88-4.13-9.82-8-13.39a9.39,9.39,0,0,0-5.85-2.86,6.32,6.32,0,0,0-6.28,6.19,1.07,1.07,0,0,0,.53,1C226.27,183.87,225.88,192.19,227,198.7Z"/><path class="wizard-3-9" d="M54.12,190.27c-1.31-3.05-6.93-2.24-8.48.71s-.29,6.46,1.26,9.42a4,4,0,0,0-4.22,2.36,7.63,7.63,0,0,0-.16,4.82,25.74,25.74,0,0,0,6.32,11.93c-3.29,3.23-1.39,8.45.95,12.32a101.51,101.51,0,0,0,19.78,23.62c1.55,1.37,3.53,2.81,5.64,2.38,2.59-.52,3.52-3.4,3.83-5.79a65.53,65.53,0,0,0-2.89-29.26Z"/><path class="wizard-3-9" d="M79.18,216.13a61.47,61.47,0,0,0-6.2-16.2c-2.89-5.2-6.65-10.38-6.65-16.33a4.93,4.93,0,0,0-.2-1.88c-.62-1.55-2.93-1.74-4.27-.75a7.57,7.57,0,0,0-2.35,4.31c-3.66,13.87-1.13,28.57,2.17,42.52.76,3.19,1.61,6.48,3.68,9,3.87,4.73,9.6,4.45,12.5-.57C81.24,230.41,80.62,222.42,79.18,216.13Z"/><path class="wizard-3-5" d="M116.34,855.21c-2.18,1.55-6.13,2.49-6.72-.11a4.06,4.06,0,0,1,.11-1.73c2.28-11.07,4.57-22.18,8.26-32.86,3-8.56,7-17,13.44-23.33s15.85-10.23,24.71-8.36c6.13,1.29,14.78,6.63,15.16,13.65.39,7.24-9,13.88-13.59,18.32A364.93,364.93,0,0,1,116.34,855.21Z"/><path class="wizard-3-5" d="M391.56,797.27c2.69.69,6.09,2.26,5.63,5s-4.38,3.08-7.2,2.64a732.35,732.35,0,0,0-81.5-8c-5.43-.23-12.45-1.76-13.07-7.16-.44-3.84,2.93-7,6.16-9.12,12.17-8.09,28.47-14.89,41.86-6.84C359.29,783.3,373.3,792.6,391.56,797.27Z"/><path class="wizard-3-4" d="M347.59,765c-.43,4.32-1,8.89-3.83,12.35-2.72,3.3-7.06,5-11.21,6.51A543.3,543.3,0,0,1,70.09,810.66c64.39-60.33,106.24-141.08,116.61-225,5.9-47.73,1.94-96.14,10.09-143.62,1.52-8.87,3.54-17.89,8.45-25.67,4.62-7.32,11.55-13.16,19-18.09,24.32-16.18,55.91-23.52,84.53-16.79,21.77,5.12,41.38,18.95,51.77,37.5,10.92,19.52,5,46.16,4.44,67.56q-2.22,89-8.69,178Q352.61,714.85,347.59,765Z"/><path class="wizard-3-7" d="M316.33,656.08c15.39-55.27,27.61-111.65,35.44-168.8a1899.53,1899.53,0,0,1-29.15,255.11c-3,16.17-8.67,32.68-12,49.1a541.72,541.72,0,0,1-63.42,15.7C281.33,766,301.23,710.31,316.33,656.08Z"/><path class="wizard-3-7" d="M187.14,585.69c5.11-41.33,2.83-83.17,7.42-124.47a7.41,7.41,0,0,1,1.66-.68C212,520.29,210,584.93,195.09,645.07S152.75,761,118.88,811c-.93,1.38-1.89,2.83-2.73,4.33Q93.23,814,70.53,810.67C134.92,750.34,176.77,669.59,187.14,585.69Z"/><path class="wizard-3-7" d="M163.33,812.61c58-84,87-188,104.9-291.68A783.19,783.19,0,0,1,219,811.64a547.31,547.31,0,0,1-58.16,4.49C161.69,815,162.52,813.79,163.33,812.61Z"/><path class="wizard-3-5" d="M353.73,479.45c-6.61,3.44-14.34,7.64-15.24,15-12.95-3-26.37-5-39.49-3s-26,8.76-33,20.07c-1,1.66-2,3.48-3.68,4.45-2.13,1.22-4.79.74-7.21.29-12.74-2.36-26.14-2.6-38.42,1.55s-22.46,15.2-27.08,27.3c2.48-26.89-1.47-58.44,6-85,9.49,4.47,20.11,5.84,30.55,6.87a592.6,592.6,0,0,0,84.47,2.28q21.32-.94,42.52-3.42c4-.47,12.9-3.62,12.93,2C366.12,472.7,357.15,477.68,353.73,479.45Z"/><path class="wizard-3-4" d="M147.74,326C141,298.59,133,281.5,116.36,258.68c-4.49-6.16-13-12.37-20.52-13.29-10.69-1.29-16-2.79-21,6.75-10.06,19.11-12.3,41.28-13.4,62.85-2.07,40.71-.66,81.95,9.3,121.48,2,8,.55,37.39,8.75,38.41C112.28,479,172.73,405.63,197,376.16c10.43-12.67,13.47-53,22-67s15-29.27,20.28-44.8c3.32-9.73,15.69-34.26,3.11-41.83-15.85-9.52-57.6,46-66.23,57.53A296.13,296.13,0,0,0,147.74,326Z"/><path class="wizard-3-4" d="M379.63,385.48c1.44,18.07,6.28,72.39-19.53,87.72-57.75,34.32-157.36,4-163.4.31-15.64-9.44-20.57-34.7-22.08-47-5.61-45.74,3.19-76.62,13.26-121.59,4.16-18.58,9.72-37.06,19.37-53.48s23.7-30.72,41.31-38c12.6-5.17,26.47-6.55,40.08-6.22,12.25.3,24.7,2,35.75,7.32,26.75,12.86,32.09,46.58,38.77,72.55A581.78,581.78,0,0,1,379.63,385.48Z"/><path class="wizard-3-7" d="M184.53,372.78c10.71-14,18.14-29.29,25.18-45.36,2,5.81-3.83,18.72-5,25a283.74,283.74,0,0,0-3.91,28.46c-1.16,13.37-1.36,27,1.73,40.06s9.73,25.62,20.29,33.9c9.65,7.55,21.85,11.08,33.93,13.08,23.47,3.89,59.31,21,82.23,14.65-9.14,6.51-34.11,4.38-45,7-21.09,5-41.54-.36-64-4.62-20.14-4-32.59-10.1-34.77-11.42-15.63-9.44-20.57-34.7-22.08-47a224.64,224.64,0,0,1-1.68-32.82,46.72,46.72,0,0,1,3.2-7.07C177.43,381.64,181.1,377.28,184.53,372.78Z"/><path class="wizard-3-6" d="M339.52,168.55c3,22.82,4.36,46.9-4.8,68-4.47,10.31-12.19,20.11-23,23-8.34,2.22-17.4,0-24.81-4.44s-13.37-10.89-18.8-17.6a206.6,206.6,0,0,1-39.79-79.82c-2.71-10.89-4.5-22.5-1.16-33.22,3.5-11.22,12.36-20.19,22.55-26C269,87.32,294,87.1,313.9,96.89c13.41,6.58,15,12.56,18,26.74Q336.6,145.92,339.52,168.55Z"/><path class="wizard-3-4" d="M318.89,86.26a463.61,463.61,0,0,0-92.75-65C207.73,11.5,188.25,2.85,167.52.55s-43.05,2.51-58.26,16.78c11.57-2.62,24-5.17,35-.68a43.72,43.72,0,0,1,13.3,9.23c16.41,15.71,25.89,37.23,33.4,58.67a474.22,474.22,0,0,1,15.62,55.1,145.2,145.2,0,0,1,18.91-5.28c33.31-7.76,66.36-16.56,99.41-25.36,7.12-1.9,21.16-5.35,17.52-7.53C337,98.23,323.56,90.47,318.89,86.26Z"/><path class="wizard-3-10" d="M348.59,142l-4.77,2a18.39,18.39,0,0,1,14.42,5.11c-18.23-.88-36,5.8-52.13,14.4a26.93,26.93,0,0,1,12-12.32l-1.59,2.52C323.48,142.64,336.6,139.88,348.59,142Z"/><path class="wizard-3-10" d="M359.34,319.35c-1.59,32.27-5.19,65.83-17,95.9S306,471.73,274.66,479.51c-12,3-24.9,3.11-36.38-1.38s-21.28-14.05-24.41-26c-1.93-7.39-.87-16.19,4.9-21.2-5.37,6.35-2,17.18,5.38,21.07s16.74,1.85,23.45-3c13.34-9.75,17.1-28.21,16-44.69s-6.07-32.65-5.83-49.17a87.71,87.71,0,0,0,.89,26.52c-17-32.74-22-68.9-24.71-105.68-1.82-25.17-.71-62.84,12.27-81.71,11.2,19.89,34.33,24.86,51.8,28.88,10.43,2.41,16.62-4.24,26.4-8.54,10.42-4.59,16.14-3.76,16.14-3.76C352.35,232.11,361,286,359.34,319.35Z"/><path class="wizard-3-11" d="M330.65,201.28a23.61,23.61,0,0,1,14.85,12.27c2.31,4.75,2.94,10.11,3.59,15.35q4.38,35.19,12.15,69.86a183.7,183.7,0,0,1-20.48-45c-1.93-6.41-3.56-13.05-7.22-18.65-2.16-3.33-5.14-6.29-8.9-7.56-2.64-.89-5.51-.9-8.2-1.63-4.7-1.28-8.81-5.12-9.7-9.9C304.36,203.26,321.46,198.8,330.65,201.28Z"/><path class="wizard-3-11" d="M288,205.22a23.6,23.6,0,0,0-14.19,13c-2,4.86-2.4,10.24-2.77,15.51q-2.5,35.39-8.44,70.41a184,184,0,0,0,18.08-46c1.58-6.5,2.86-13.22,6.22-19,2-3.43,4.8-6.55,8.49-8,2.59-1,5.45-1.19,8.1-2.07,4.62-1.53,8.52-5.57,9.16-10.4C314.31,205.81,297,202.26,288,205.22Z"/><path class="wizard-3-9" d="M321.64,202c.39,1,.77,2.21.18,3.14a3.55,3.55,0,0,1-1.51,1.12,93.93,93.93,0,0,1-15.48,5.88c.72-.2-3.57-34.79-3.86-38.06-1.14-12.68-3.47-26.22-2.89-38.92,5.61-2.17,6.73,2.18,7.41,6.45,1.11,6.91,2.41,13.78,4,20.6A294.54,294.54,0,0,0,321.64,202Z"/><path class="wizard-3-12" d="M284.81,171.38c-2.63-1.86-6-1.54-9.08-1-5.32.89-11,2.39-14.57,6.85a2,2,0,0,0-.59,1.41c.08.9,1.06,1.25,1.86,1.36a31.2,31.2,0,0,0,14.15-1.29C278.27,178.13,289,174.32,284.81,171.38Z"/><path class="wizard-3-5" d="M275.63,170.38a25.38,25.38,0,0,1,3.89-.39,8.88,8.88,0,0,1,.16,7.51c-1.44.61-2.7,1.05-3.2,1.22a32.53,32.53,0,0,1-5.75,1.3,6.22,6.22,0,0,1-1.29-1.12,7.72,7.72,0,0,1-1.63-6.45v0A36.94,36.94,0,0,1,275.63,170.38Z"/><path class="wizard-3-12" d="M277.25,171.37a4.46,4.46,0,0,1,1.42.69.91.91,0,0,1,.38,1,.67.67,0,0,1-.31.31,1.66,1.66,0,0,1-1,.1,5.88,5.88,0,0,1-1.54-.43,1.71,1.71,0,0,1-.65-.41.9.9,0,0,1-.21-.77.78.78,0,0,1,.49-.51A2.33,2.33,0,0,1,277.25,171.37Z"/><path class="wizard-3-12" d="M338.92,169c-2-2.51-5.17-3.1-8.08-3.42-5-.55-10.47-.6-14.66,2.77a1.92,1.92,0,0,0-.83,1.22c-.11.89.72,1.5,1.42,1.82a28.06,28.06,0,0,0,13.17,2.51C331.59,173.77,342.12,172.91,338.92,169Z"/><path class="wizard-3-5" d="M330.75,165.54a21.78,21.78,0,0,1,3.63.65,9.23,9.23,0,0,1-1.37,7.33c-1.44.22-2.68.31-3.16.34a28.2,28.2,0,0,1-5.51-.26,6.82,6.82,0,0,1-1-1.44,8.35,8.35,0,0,1-.18-6.7v0A32.32,32.32,0,0,1,330.75,165.54Z"/><path class="wizard-3-12" d="M332,166.93a4.57,4.57,0,0,1,1.15,1,1,1,0,0,1,.15,1.05.54.54,0,0,1-.34.21,1.45,1.45,0,0,1-.95-.17,5.91,5.91,0,0,1-1.32-.82,1.88,1.88,0,0,1-.5-.58.91.91,0,0,1,0-.79.67.67,0,0,1,.55-.37A2.17,2.17,0,0,1,332,166.93Z"/><path class="wizard-3-7" d="M209.93,335.58c-13.7,32.38-29.82,64-51.62,91.61s-46.84,54.44-78.84,47.69c3-9.82,2.45-3.36,5.42-13.18.76-2.5,1.55-5.08,3.22-7.09,1.83-2.21,3.29-9.42,5.85-10.72,29.64-15,55.07-33.25,74.47-60.22s34.36-56.81,49.23-86.51C217.45,308.13,212.84,328.71,209.93,335.58Z"/><path class="wizard-3-5" d="M111.49,264.67c1.44,4.56,2.53,20.73,2.77,34.93.41,23.43-1.14,43-2.86,66.42-2.76,37.58-3.87,72.47-24.5,104-1.73,2.65-4.27,4.9-7.43,4.86C63.26,474.67,61.22,446,59,428.52,49.4,353.81,67.46,267,69.69,259.92c4.63-14.78,4.66-7.41,14-12.92C94.51,240.59,108.36,254.72,111.49,264.67Z"/><path class="wizard-3-5" d="M171.19,408.17s6.4-8.67,21.74-41.21,18.26-39.51,18.26-39.51a311.37,311.37,0,0,1-18.45,49.82c-21.41,44.51-14.9,70.81-14.9,70.81s-2.47-8.88-5-17.67C170.54,422.69,171.19,408.17,171.19,408.17Z"/><path class="wizard-3-7" d="M145.69,318.51s.64,6.11,2.28,20.33c2.68,23.18-3.4,40.1-3.4,40.1s5.79-4.53,9.37-22.53S153.2,321,153.2,321s6.84,6.15,11.62,23.42c4.19,15.15,1.24,20.37,1.24,20.37s4.5-18,.55-29.87-11.87-22.11-11.87-22.11Z"/><path class="wizard-3-9" d="M76.83,220.26c-2.14,8.82-11.3,33.89-10.7,35.26,6.13,14,19.88,36.56,26.16,42.34,8.48,9.38,17.23,14.88,20.28,6,3.78-10.92,1.7-33.14-5.52-43C101.43,253.19,80,237,76.83,220.26Z"/><rect class="wizard-3-13" x="110.92" y="159.37" width="10.47" height="676.92" transform="translate(324.74 964.55) rotate(169.05)"/><path class="wizard-3-14" d="M101.28,254.51l10.21,10.16s3.16,24.09,3.14,30.59-.45,24-.45,24l-13.84-13.93s6.81,5.2,9.17-7.13S101.28,254.51,101.28,254.51Z"/><path class="wizard-3-6" d="M68.11,198.13c.8,1.19,1.52,2.69,1,4a3.2,3.2,0,0,1-3.12,1.66,9.38,9.38,0,0,1-3.57-1.13,17,17,0,0,1,7.38,10.82,3.51,3.51,0,0,1-.23,2.67c-.74,1.15-2.37,1.23-3.72,1a15,15,0,0,1-6.69-3c4.64,3.81,9.61,8.16,10.5,14.09a5.08,5.08,0,0,1-.45,3.44,4.37,4.37,0,0,1-4.22,1.72,12.83,12.83,0,0,1-4.45-1.72l-8.33-4.48a10,10,0,0,1-3.82-2.94c-.9-1.36-1-3.41.29-4.43a74.68,74.68,0,0,1-6.08-10.32c-1-2-1.86-4.17-1.45-6.34s2.67-4.12,4.75-3.37c-2.74-1-2.34-6.38-1.29-8.24a7.12,7.12,0,0,1,6.9-3.6C57.88,188.38,64.59,193,68.11,198.13Z"/><path class="wizard-3-4" d="M98.8,248.52c.53.36,7,3.25,10.11,20.31s3.94,77.06,3.94,77.06,12.18-12.46,8.83-40.35-7.29-43.1-7.29-43.1l-7-9.56Z"/><path class="wizard-3-15" d="M61.88,125.28c1.64-14.88,2-30.59-4.54-44.06C49.86,65.78,34.68,55.81,20.2,46.6,26.66,55.09,46.28,72.52,46,98.71c-.08,6.91,0,19.64-5.59,23.67-3.68,2.65-8.77,2.8-13,1.13a23.58,23.58,0,0,1-10.21-8.7,30.69,30.69,0,0,1-5.77-19.33A23,23,0,0,1,21,78.08c-9.51,3-14.14,14-14.49,24a50.17,50.17,0,0,0,9.55,31.1c3.83,5.24,8.66,9.69,12.46,15s6.61,11.73,5.52,18.12c-.22,1.3-.58,2.73.11,3.86a5,5,0,0,0,2.46,1.71,35.29,35.29,0,0,1,10.24,7C50,182,50.42,184.24,55,182.54c5-1.83,6.09-6.89,8.18-11.22,2.37-4.91,2.37-5.64.25-10.61a38.52,38.52,0,0,1-2.81-11.33C59.82,141.35,61,133.25,61.88,125.28Z"/><path class="wizard-3-11" d="M334.91,401.1c-4.25,14-9.67,27.9-18,40s-19.68,22.43-33.41,27.6c22.9-22.3,38.24-51.59,47-82.34s11-63,10.47-94.95c1.39,9.28,4.52,17.77,6.75,26.71,2,8.14,0,17.51-1.06,25.89A337.67,337.67,0,0,1,334.91,401.1Z"/><path class="wizard-3-11" d="M327.19,344.66c.28,24.49-3.27,49.4-13.73,71.55,5.16-10.93,5.75-27,6.93-38.86a287.63,287.63,0,0,0,1.17-39.49c-1-27.08-6.18-53.09-12-79.43C325.38,283.54,326.85,315.47,327.19,344.66Z"/><path class="wizard-3-11" d="M256.59,161.11c-7.79,8.07-11.73,36.21-15.22,46.95-.16-.83-2.26-17.18-2.43-18-7.41,5.2-10,9.21-15.91,16.16a250.89,250.89,0,0,1,1-37c.68-6.71,1.68-13.56,4.73-19.62s8.54-11.25,15-12.18a21.44,21.44,0,0,1,9.9,1.27c5.69,1.94,13.61,5.79,16.65,11.35C271.66,152.41,265,152.41,256.59,161.11Z"/><path class="wizard-3-7" d="M110.92,15.84l1.14-.52c8.46-3.79,17.15-7.64,26.4-8.24,11.27-.73,22.47,3.54,31.67,10.1s16.61,15.31,23.33,24.4a264.2,264.2,0,0,1,24.86,41c4.86,10,18.69,34.68,15,50l-7.81,1.85a145.2,145.2,0,0,0-18.91,5.28,474.22,474.22,0,0,0-15.62-55.1c-7.51-21.44-17-43-33.4-58.67a43.72,43.72,0,0,0-13.3-9.23c-11-4.49-23.41-1.94-35,.68C109.8,16.82,110.36,16.32,110.92,15.84Z"/><path class="wizard-3-16" d="M288.81,72.44c1.64,1.84,3.33,4.37,2.22,6.56s-4.51,2.3-6.85,1.24c-5.12-2.31-8.1-7.58-11.44-12.1-9.32-12.6-23.33-20.86-34.1-32.25-1.17-4,9.54,3.72,11.06,4.79,4.62,3.25,9.64,5.91,14.23,9.25A159.14,159.14,0,0,1,288.81,72.44Z"/><path class="wizard-3-4" d="M448,128c-13.36-2-26.87-1-40.12.06-104.56,8.62-206.22,35.13-303.3,74.35C91.31,207.76,84.24,213.27,81,215.23c9.43-11.82,59.68-39.27,81.86-54.16,20.6-13.83,41.42-27.61,64.15-37.57,37.22-16.32,78.4-21.84,119-22a321.73,321.73,0,0,1,40.46,2.12c23.37,2.8,46.7,8.78,67.35,20.36,4,2.24,11.63,5.23,14.85,9.72C463.18,129.74,451.36,128.49,448,128Z"/><path class="wizard-3-5" d="M342.4,101.48s-22.22-2.94-70.84,8.4c-57.7,13.45-66.21,24.41-66.21,24.41l-4.43-18.24s31.37-17.25,64.32-24c39-8,53.23-6.56,53.23-6.56Z"/><path class="wizard-3-16" d="M395.58,115.39c1.29.51,2.81,1.36,2.74,2.75a2.61,2.61,0,0,1-.77,1.56,8.22,8.22,0,0,1-6.94,2.29,26.71,26.71,0,0,1-7.24-2.17,177.79,177.79,0,0,0-54.16-12.21c2,.12,5.55-2.43,7.94-2.64s5,.06,7.53-.06a79.46,79.46,0,0,1,15.91,1.15A163.59,163.59,0,0,1,395.58,115.39Z"/><path class="wizard-3-10" d="M248.53,150.47l5.1.94a18.34,18.34,0,0,0-13,8.12c17.6-4.83,36.43-2.18,54,2.72a27,27,0,0,0-14.4-9.42l2.1,2.12C273.19,145.67,259.78,145.82,248.53,150.47Z"/><path class="wizard-3-5" d="M301.66,230.43c.62.41,5.72,5.08,12.29,4.25s9.35-5.07,9.35-5.07-1.41,11.08-10.57,12.21C303.31,243,301.66,230.43,301.66,230.43Z"/><path class="wizard-3-17" d="M561.52,223.41q-1.47-18.47-1.74-37c-.13-8.75,0-17.79,3.51-25.81,4.63-10.6,14.33-19.7,25.7-21.82,8.18-1.52,18.75-1.56,26.8,2.21,14.37,6.73,17.89,22.65,19.37,38.45,1.11,11.95,3.71,23.81,3.18,35.8-.49,11-1.88,31.09-9.6,39-10.26,10.48-35.43,7.68-49.53,3.33C565.31,253.26,562.52,236,561.52,223.41Z"/><path class="wizard-3-17" d="M570.37,115.15c-1.88,6.57.58,14,5.49,18.74s11.91,3.51,18.74,3.32c5.35-.15,12,.24,15.64-3.73,5.85-6.48,3.69-15.19,1.13-23.54,13.27,14.58,20.45,40.06,22.45,59.3.22,2.09-.89-.58-1.56,1.42-1.29,3.9-5.86,5.56-9.91,6.28-14.16,2.53-28.68.13-42.87-2.27-4.31-.73-19.12,7.53-19.62,2.85-.11-1,2-18.1,2.29-22.32C563,141.28,566.47,128.44,570.37,115.15Z"/><path class="wizard-3-18" d="M626.81,158.48a12.57,12.57,0,1,1-11-13.94A12.57,12.57,0,0,1,626.81,158.48Z"/><path class="wizard-3-3" d="M614.34,171a15.19,15.19,0,0,1-1.64-.1A14,14,0,0,1,614.31,143a14.88,14.88,0,0,1,1.64.09A14,14,0,0,1,614.34,171Zm0-25.14A11.14,11.14,0,0,0,613,168.08a11.66,11.66,0,0,0,1.31.08A11.14,11.14,0,0,0,615.62,146,11.38,11.38,0,0,0,614.31,145.87Z"/><path class="wizard-3-3" d="M611,149.08c-1.17,5.67-1.45,11.71.65,17.1.51,1.32,1.3,2.72,2.66,3.12a35,35,0,0,0,2.08-8.09,36.15,36.15,0,0,0,.75-8.29c-.13-2.17-.63-5-2.1-6.76C612.78,143.52,611.53,146.65,611,149.08Z"/><path class="wizard-3-18" d="M589.7,159.48a12.57,12.57,0,1,1-11.37-13.66A12.57,12.57,0,0,1,589.7,159.48Z"/><path class="wizard-3-3" d="M577.2,172.32c-.42,0-.85,0-1.29,0a14.09,14.09,0,1,1,1.29,0Zm0-25.13a11.23,11.23,0,1,0,1,.05C577.86,147.21,577.51,147.19,577.17,147.19Z"/><path class="wizard-3-3" d="M573.68,150.49c-1,5.69-1.15,11.74,1.08,17.07.55,1.31,1.37,2.68,2.74,3.05a35.19,35.19,0,0,0,1.88-8.13,36.27,36.27,0,0,0,.53-8.31c-.18-2.17-.75-5-2.27-6.71C575.3,144.88,574.13,148,573.68,150.49Z"/><path class="wizard-3-3" d="M590.7,167c-1.61,2.7,6.45,14.85,6.45,14.85l-.51-21.92A53,53,0,0,0,590.7,167Z"/><path class="wizard-3-3" d="M603,166.72a52.65,52.65,0,0,0-6.26-6.78l.51,21.92S604.69,169.35,603,166.72Z"/><path class="wizard-3-17" d="M565.25,112.42a5.92,5.92,0,0,1,3.32-.47.82.82,0,0,1,.31-1.14,2.48,2.48,0,0,1,1.3-.23l3.67,0c-.22.63-.43,1.25-.65,1.87a5.34,5.34,0,0,1,2.7.73,26.75,26.75,0,0,0-5.65,18.53c0,.42-1.39-.85-1.47-1a7.42,7.42,0,0,1-.72-2.75,31.12,31.12,0,0,1-.2-4A27.36,27.36,0,0,0,565.25,112.42Z"/><path class="wizard-3-17" d="M606,110.76a5.91,5.91,0,0,1,2.74-1.93.81.81,0,0,1-.24-1.15,2.4,2.4,0,0,1,1-.8l3.29-1.64.27,2a5.42,5.42,0,0,1,2.74-.58,26.75,26.75,0,0,0,3.39,19.08c.23.36-1.62-.13-1.74-.2a7.28,7.28,0,0,1-1.9-2.12,30.19,30.19,0,0,1-2-3.45A27.46,27.46,0,0,0,606,110.76Z"/><path class="wizard-3-3" d="M574,259.77a14,14,0,0,0-.62,3.42,2,2,0,0,0,.43,1.77c.61.47,1.53,0,2-.58a12.84,12.84,0,0,1,1.32-1.9,4.06,4.06,0,0,0-.7,2,1.76,1.76,0,0,0,1.1,1.72,1.84,1.84,0,0,0,1.93-.76,5.36,5.36,0,0,0,.81-2c0,.62-.22,1.21-.25,1.83s.33,1.35.94,1.36,1-.83,1.22-1.5a21.21,21.21,0,0,1,2.2-5.3c.64-1.1,1.42-2.38.94-3.56s-2.21-1.63-3.61-1.52C578.41,255,575.15,256.48,574,259.77Z"/><path class="wizard-3-3" d="M602,260.52a14,14,0,0,0-.62,3.41c-.06.64-.08,1.39.43,1.78s1.53,0,2-.58a12.84,12.84,0,0,1,1.32-1.9,4,4,0,0,0-.7,2,1.77,1.77,0,0,0,1.1,1.73,1.84,1.84,0,0,0,1.93-.76,5.43,5.43,0,0,0,.81-2c0,.61-.22,1.21-.25,1.83s.32,1.34.94,1.36,1-.83,1.22-1.51a21.29,21.29,0,0,1,2.2-5.29c.64-1.1,1.42-2.38.94-3.57s-2.21-1.62-3.61-1.51C606.4,255.77,603.15,257.22,602,260.52Z"/><path class="wizard-3-3" d="M606.47,188.7c-1.5,6.26.88,12.86,4.43,18.23s8.23,9.88,12.11,15c3.55,4.68,6.44,9.89,10.56,14.07.95,1,3.15,1.46,3.18.1a29.37,29.37,0,0,0,8.71,9.48c1.21.83,2.9,1.56,4,.64a3.33,3.33,0,0,0,1-2.15,20,20,0,0,0-1-10.36c-.46.66.8,1.37,1.41.85a2.51,2.51,0,0,0,.47-2.25,135.19,135.19,0,0,0-9.56-36.39c-2.05-4.88-4.46-9.74-8.23-13.45C625.36,174.35,609.48,176.08,606.47,188.7Z"/><path class="wizard-3-19" d="M566.3,200.35c1.09,1.63,2.82,3.19,4.76,2.88,1.54-.25,2.64-1.61,3.37-3A15.82,15.82,0,0,0,576,189.62a3.12,3.12,0,0,0-1.19,2.26,9.5,9.5,0,0,1-2.15,4.94c-1.29,1.28-3.63,1.68-4.88.36a5.26,5.26,0,0,1-1.07-2.58c-.49-2.24-.61-5.61-1.88-7.46C561.57,190.27,564.27,197.35,566.3,200.35Z"/><path class="wizard-3-19" d="M582,212.83c1.1,1.63,2.83,3.19,4.77,2.88,1.53-.25,2.63-1.61,3.37-3a15.76,15.76,0,0,0,1.52-10.63,3.1,3.1,0,0,0-1.18,2.26,9.5,9.5,0,0,1-2.15,4.94c-1.29,1.28-3.63,1.68-4.88.36a5.27,5.27,0,0,1-1.08-2.58c-.49-2.24-.6-5.61-1.87-7.46C577.22,202.75,579.92,209.83,582,212.83Z"/><path class="wizard-3-19" d="M595.48,202.61c1.1,1.62,2.83,3.19,4.76,2.88,1.54-.25,2.64-1.61,3.38-3a15.76,15.76,0,0,0,1.52-10.63,3.12,3.12,0,0,0-1.19,2.26,9.35,9.35,0,0,1-2.14,4.93c-1.29,1.29-3.63,1.69-4.89.37a5.35,5.35,0,0,1-1.07-2.58c-.49-2.24-.6-5.61-1.87-7.46C590.75,192.53,593.45,199.61,595.48,202.61Z"/><path class="wizard-3-19" d="M569.83,232.71c1.1,1.63,2.83,3.2,4.77,2.89,1.53-.25,2.63-1.61,3.37-3A15.78,15.78,0,0,0,579.49,222a3.16,3.16,0,0,0-1.18,2.27,9.44,9.44,0,0,1-2.15,4.93c-1.29,1.29-3.63,1.69-4.88.37A5.27,5.27,0,0,1,570.2,227c-.48-2.25-.6-5.61-1.87-7.46C565.11,222.64,567.8,229.72,569.83,232.71Z"/><path class="wizard-3-19" d="M586.26,243.74c1.09,1.62,2.82,3.19,4.76,2.88,1.54-.25,2.64-1.61,3.37-3A15.82,15.82,0,0,0,595.92,233a3.12,3.12,0,0,0-1.19,2.26,9.44,9.44,0,0,1-2.15,4.93c-1.29,1.29-3.63,1.69-4.88.37a5.26,5.26,0,0,1-1.07-2.58c-.49-2.24-.61-5.61-1.87-7.46C581.53,233.66,584.23,240.74,586.26,243.74Z"/><path class="wizard-3-19" d="M602,226.61c1.09,1.63,2.82,3.2,4.76,2.88,1.53-.24,2.63-1.6,3.37-3a15.78,15.78,0,0,0,1.52-10.64,3.14,3.14,0,0,0-1.18,2.27,9.44,9.44,0,0,1-2.15,4.93c-1.29,1.29-3.63,1.69-4.88.36a5.2,5.2,0,0,1-1.08-2.57c-.48-2.25-.6-5.62-1.87-7.46C597.25,216.54,599.94,223.62,602,226.61Z"/><path class="wizard-3-19" d="M613.11,243.74c1.1,1.62,2.83,3.19,4.77,2.88,1.53-.25,2.63-1.61,3.37-3A15.76,15.76,0,0,0,622.77,233a3.08,3.08,0,0,0-1.18,2.26,9.44,9.44,0,0,1-2.15,4.93c-1.29,1.29-3.63,1.69-4.89.37a5.35,5.35,0,0,1-1.07-2.58c-.49-2.24-.6-5.61-1.87-7.46C608.38,233.66,611.08,240.74,613.11,243.74Z"/><path class="wizard-3-20" d="M608.43,191.55c0,3.27,1.58,6.31,3.23,9.13a237.24,237.24,0,0,0,13.67,20.12c1.23,1.68,2.71,3.52,4.78,3.75a25.33,25.33,0,0,0-2.37-6.87l-6.38-14c-1.9-4.17-3.77-9.2-1.37-13.1a8.6,8.6,0,0,0,1.3-2.32c.42-1.64-.82-3.33-2.37-4C613.83,182,608.42,186.25,608.43,191.55Z"/><path class="wizard-3-20" d="M535.89,172.35l-15.17,14.57c-4.36,4.19-8.79,8.46-11.84,13.69a3.53,3.53,0,0,0-.65,2.75,7.16,7.16,0,0,0,3.35-.66c-1.42,1.43-7.95,6.46-8.45,2.28-.41-3.44,7.26-9.84,9.44-12.16q5.37-5.72,11.27-10.9C527.66,178.58,532.26,175.84,535.89,172.35Z"/></g></g></svg>
